<svg xmlns="http://www.w3.org/2000/svg" viewBox="0 0 244.088 181.079"><path fill="#FFF" d="M0 0h244.088v181.079H0z"/><path fill="#EEF4F7" d="M119.834 16.519h8.123l.026-.003h-.579c3.198 0 5.816-2.603 5.844-5.795l-.001-.048.001-.05-.001-.04h.002c.049-3.173 2.658-5.755 5.843-5.755h41.653c3.215 0 5.845 2.63 5.845 5.845s-2.63 5.845-5.845 5.845h-22.423l-.026.003h.579c-3.198 0-5.816 2.603-5.844 5.795l.001.048-.001.05.001.04h-.002c-.049 3.173-2.658 5.755-5.843 5.755h-2.188H119.834c-3.215 0-5.845-2.63-5.845-5.845s2.63-5.845 5.845-5.845zM99.579 39.941H62.775c-3.215 0-5.845-2.63-5.845-5.845l.002-.088h-.01c-.047-3.175-2.657-5.757-5.843-5.757H9.537c-3.215 0-5.845 2.63-5.845 5.845s2.63 5.845 5.845 5.845h22.565c-.131 0-.26.006-.389.015 3.035.202 5.456 2.747 5.456 5.83 0 3.084-2.421 5.628-5.456 5.83.129.009.258.015.389.015H20.646c-3.215 0-5.845 2.63-5.845 5.845s2.63 5.845 5.845 5.845h46.956c3.184 0 5.794-2.581 5.843-5.755h.002l-.001-.04.001-.05-.001-.048c.027-3.192 2.646-5.795 5.844-5.795h-.58l.026-.003h20.843c3.215 0 5.845-2.63 5.845-5.845 0-3.214-2.63-5.844-5.845-5.844z"/><radialGradient id="a" cx="584.27" cy="-14.976" r="13.101" gradientTransform="matrix(3.2883 0 0 .2849 -1762.21 176.778)" gradientUnits="userSpaceOnUse"><stop offset="0" stop-color="#a0b3ba"/><stop offset=".545" stop-color="#c3d2db" stop-opacity=".6"/><stop offset="1" stop-color="#c3d2db" stop-opacity="0"/></radialGradient><ellipse fill="url(#a)" cx="159.032" cy="172.512" rx="43.078" ry="3.732"/><path fill="#EEF4F7" d="M154.911 139.623h-24.298c-3.215 0-5.845-2.63-5.845-5.845s2.63-5.845 5.845-5.845h24.298c3.215 0 5.845 2.63 5.845 5.845s-2.631 5.845-5.845 5.845zM209.388 125.621h-41.626c-3.215 0-5.845-2.63-5.845-5.845s2.63-5.845 5.845-5.845h41.626c3.215 0 5.845 2.63 5.845 5.845s-2.63 5.845-5.845 5.845zM192.986 69.528h-18.791c-3.215 0-5.845-2.63-5.845-5.845s2.63-5.845 5.845-5.845h18.791c3.215 0 5.845 2.63 5.845 5.845s-2.63 5.845-5.845 5.845zM43.27 111.974H25.479c-3.215 0-5.845-2.63-5.845-5.845s2.63-5.845 5.845-5.845H43.27c3.215 0 5.845 2.63 5.845 5.845 0 3.214-2.63 5.845-5.845 5.845zM235.31 92.802h-17.626c-3.182-.039-5.773-2.652-5.773-5.843l.002-.088h-.005c-.046-3.175-2.657-5.759-5.843-5.759h-30.121c-3.215 0-5.845 2.63-5.845 5.845s2.63 5.845 5.845 5.845h5.458l.024.003h-.53c3.185 0 5.795 2.582 5.843 5.756l-.002.086.002.088v.002c.049 3.173 2.658 5.755 5.843 5.755h42.728c3.215 0 5.845-2.63 5.845-5.845s-2.631-5.845-5.845-5.845z"/><path fill="#8C9FAF" d="M130.58 83.558h1.009v12.723h-1.009a1.99 1.99 0 01-1.985-1.985v-8.752a1.99 1.99 0 011.985-1.986z"/><path fill="#C3D2DB" d="M140.812 127.119h7.858v32.096h-7.858z"/><circle fill="#9DAEBC" cx="144.741" cy="141.822" r="5.17"/><circle fill="#DDE6EB" cx="144.741" cy="141.822" r="3.929"/><circle fill="#8C9FAF" cx="144.741" cy="141.822" r="2.951"/><path fill="#8C9FAF" d="M149.658 127.119h-9.834a2.958 2.958 0 01-2.949-2.949v-.749a2.958 2.958 0 012.949-2.949h9.834a2.958 2.958 0 012.949 2.949v.749a2.958 2.958 0 01-2.949 2.949zM141.612 159.022h6.26c1.26 0 2.29 1.031 2.29 2.29 0 1.26-1.031 2.29-2.29 2.29h-6.26a2.297 2.297 0 01-2.29-2.29c0-1.26 1.03-2.29 2.29-2.29zM179.249 127.119h-9.834a2.958 2.958 0 01-2.949-2.949v-.749a2.958 2.958 0 012.949-2.949h9.834a2.958 2.958 0 012.949 2.949v.749a2.958 2.958 0 01-2.949 2.949zM175.522 70.713h-31.995a.388.388 0 01-.387-.387v-1.244c0-.213.174-.387.387-.387h31.995c.213 0 .387.174.387.387v1.244a.388.388 0 01-.387.387z"/><path fill="#C3D2DB" d="M175.522 68.695h-31.995a.388.388 0 01-.387-.387v-1.244c0-.213.174-.387.387-.387h31.995c.213 0 .387.174.387.387v1.244a.389.389 0 01-.387.387z"/><path fill="#8C9FAF" d="M175.469 75.336H143.58a.441.441 0 01-.44-.44V73.17c0-.242.198-.44.44-.44h31.889c.242 0 .44.198.44.44v1.726c0 .242-.198.44-.44.44z"/><path fill="#C3D2DB" d="M175.522 72.731h-31.995a.388.388 0 01-.387-.387V71.1c0-.213.174-.387.387-.387h31.995c.213 0 .387.174.387.387v1.244a.388.388 0 01-.387.387z"/><path fill-rule="evenodd" clip-rule="evenodd" fill="#C3D2DB" d="M177.639 58.311l2.242-1.011v-9.607h-2.242zM141.374 58.311l-2.242-1.011v-9.607h2.242z"/><path fill="#C3D2DB" d="M175.239 66.895h-31.583a2.888 2.888 0 01-2.88-2.88v-18.03a2.888 2.888 0 012.88-2.88h31.583a2.888 2.888 0 012.88 2.88v18.031a2.888 2.888 0 01-2.88 2.879z"/><path fill="#6F98C1" d="M168.701 45.407l-.26.001-.264.001h-17.371l-.264-.001-.26-.001c-.609 0-2.464 0-2.464 1.988v5.882a2.99 2.99 0 002.987 2.987h17.371a2.99 2.99 0 002.987-2.987v-5.882c.002-1.988-1.853-1.988-2.462-1.988z"/><path fill="#9EC5DD" d="M167.863 55.262h-16.741a2.307 2.307 0 01-2.3-2.3v-5.411c0-.629.51-1.14 1.14-1.14h17.902a2.3 2.3 0 012.3 2.3v4.25a2.308 2.308 0 01-2.301 2.301z"/><path opacity=".6" fill="#FFF" d="M163.308 46.411h.761v8.851h-.761zM164.823 46.411h1.934v8.851h-1.934z"/><path fill="#627689" d="M180.379 42.201c0-11.343-9.281-20.624-20.624-20.624-11.343 0-20.624 9.281-20.624 20.624v5.492h41.248v-5.492z"/><path fill-rule="evenodd" clip-rule="evenodd" fill="#849AAD" d="M139.132 47.693s7.588-5.303 26.446-6.247c20.895-1.047 21.659 6.247 21.659 6.247h-48.105z"/><path fill-rule="evenodd" clip-rule="evenodd" fill="#627689" d="M140.058 47.693s8.244-4.255 25.062-5.053c21.041-.998 21.698 5.053 21.698 5.053h-46.76z"/><path opacity=".1" d="M159.662 52.333c17.92.045 20.219-2.946 20.219-2.946v-1.693h-40.75c.008.025 1.247 4.59 20.531 4.639z"/><path fill="#C1D4E0" d="M164.25 35.253l1.782-4.893h-5.543c-2.573 0-5.146 1.369-5.146 4.11s3.563 3.327 5.344 1.37c0 .587.396.979 1.584.979h4.327l.57-1.566h-2.918zm-3.563 0c-.99 0-1.584-.196-1.584-.783 0-.392.843-2.153 1.041-2.74h1.929l-1.386 3.523z"/><path fill="#C3D2DB" d="M181.546 124.378h-44.017c-3.267 0-5.94-2.673-5.94-5.94v-37.75c0-3.267 2.673-5.94 5.94-5.94h44.017c3.267 0 5.94 2.673 5.94 5.94v37.75c-.001 3.267-2.674 5.94-5.94 5.94z"/><path fill="#8C9FAF" d="M131.589 114.931h55.896v.484h-55.896z"/><path fill="#F8FDFF" d="M131.589 118.346h55.896v.484h-55.896z"/><path fill="#8C9FAF" d="M131.589 81.859h55.896v.484h-55.896z"/><path fill="#F8FDFF" d="M131.589 85.274h55.896v.484h-55.896z"/><path fill="#8C9FAF" d="M174.38 96.408v-1.37a5.718 5.718 0 00-3.928-1.558 5.752 5.752 0 00-5.5 4.07h-10.83a5.752 5.752 0 00-5.5-4.07 5.716 5.716 0 00-3.928 1.558v1.37h3.882l1.9 2.823-1.9 2.823h-3.882v1.37a5.718 5.718 0 003.928 1.558 5.752 5.752 0 005.5-4.07h10.83a5.752 5.752 0 005.5 4.07 5.716 5.716 0 003.928-1.558v-1.37h-3.882l-1.9-2.823 1.9-2.823h3.882z"/><path fill="#C3D2DB" d="M144.741 160.775c-6.38 0-11.741 4.362-13.264 10.265h26.528c-1.523-5.904-6.884-10.265-13.264-10.265z"/><path fill="#8C9FAF" d="M157.465 172.512h-25.447a1.17 1.17 0 01-1.167-1.167v-.049a1.17 1.17 0 011.167-1.167h25.447a1.17 1.17 0 011.167 1.167v.049a1.17 1.17 0 01-1.167 1.167z"/><path fill="#C3D2DB" d="M170.404 127.119h7.858v32.096h-7.858z"/><circle fill="#9DAEBC" cx="174.333" cy="141.822" r="5.17"/><circle fill="#DDE6EB" cx="174.333" cy="141.822" r="3.929"/><circle fill="#8C9FAF" cx="174.333" cy="141.822" r="2.951"/><path fill="#8C9FAF" d="M171.203 159.022h6.26c1.26 0 2.29 1.031 2.29 2.29 0 1.26-1.031 2.29-2.29 2.29h-6.26a2.297 2.297 0 01-2.29-2.29c0-1.26 1.03-2.29 2.29-2.29z"/><path fill="#C3D2DB" d="M174.333 160.775c-6.38 0-11.741 4.362-13.264 10.265h26.528c-1.524-5.904-6.885-10.265-13.264-10.265z"/><path fill="none" d="M156.246 59.474h6.292c.698 0 1.267-.568 1.267-1.267v-1.946h-8.826v1.946c0 .699.568 1.267 1.267 1.267zM156.246 61.475h6.292c.698 0 1.267-.568 1.267-1.267v-.173h-8.826v.173c0 .698.568 1.267 1.267 1.267z"/><path fill="#8C9FAF" d="M154.979 62.676c0-.699.569-1.267 1.267-1.267h6.292c.699 0 1.267.568 1.267 1.267v.173h1.934v-.173a3.205 3.205 0 00-3.201-3.201h-6.292a3.205 3.205 0 00-3.202 3.201v.173h1.935v-.173zM187.056 172.512h-25.447a1.17 1.17 0 01-1.167-1.167v-.049a1.17 1.17 0 011.167-1.167h25.447a1.17 1.17 0 011.167 1.167v.049a1.17 1.17 0 01-1.167 1.167z"/><path opacity=".6" fill="#8C9FAF" d="M143.651 66.895h31.583c.868 0 1.64-.397 2.169-1.009h-35.92a2.861 2.861 0 002.168 1.009z"/><path fill="none" d="M131.596 96.279h.563c-.209-.072-.358-.002-.563 0z"/><path fill="#C3D2DB" d="M195.415 128.79h4.861l-.011-15.99h-4.85zM200.259 104.302c.018-10.323-5.803-18.061-13.351-20.745v10.464c3.992 2.951 6.898 5.27 8.007 10.926h5.344v-.645z"/><path fill-rule="evenodd" clip-rule="evenodd" fill="#C3D2DB" d="M198.05 137.333l1.979.045.013 4.73-2.325 3.945-3.266.128-.038-1.805 2.33-.172 1.232-2.225z"/><path fill-rule="evenodd" clip-rule="evenodd" fill="#8C9FAF" d="M198.801 137.391l-.139 4.549.711.135-.138.525-.786-.133-1.04 1.928.243.928-.592.199-.314-.777-1.786.149-.531 1.276-.016-1.794 2.33-.172 1.212-2.184.074-4.646z"/><path fill-rule="evenodd" clip-rule="evenodd" fill="#C3D2DB" d="M195.915 134.439l-1.785-.857-2.155 4.211.285 4.57 2.854 1.594.851-1.592-1.999-1.209-.09-2.542z"/><path fill-rule="evenodd" clip-rule="evenodd" fill="#8C9FAF" d="M195.219 134.15l-1.937 4.118-.695-.202-.115.531.76.238.054 2.189-.637.718.437.445.633-.55 1.524.942-.105 1.378.827-1.546-1.999-1.209-.09-2.542 2.039-4.175z"/><path fill-rule="evenodd" clip-rule="evenodd" fill="#C3D2DB" d="M199.61 137.902l1.979.044.013 4.73-2.325 3.945-3.266.129-.038-1.806 2.33-.172 1.232-2.225z"/><path fill-rule="evenodd" clip-rule="evenodd" fill="#8C9FAF" d="M200.361 137.96l-.139 4.548.711.135-.138.526-.786-.133-1.04 1.927.243.928-.592.199-.314-.777-1.786.149-.531 1.277-.016-1.795 2.33-.172 1.211-2.184.075-4.646z"/><path fill="#8C9FAF" d="M200.806 111.682h-5.825c-.615 0-1.118.503-1.118 1.118 0 .615.503 1.118 1.118 1.118h5.825c.615 0 1.118-.503 1.118-1.118 0-.615-.503-1.118-1.118-1.118zM200.806 108.847h-5.825c-.615 0-1.118.503-1.118 1.118 0 .615.503 1.118 1.118 1.118h5.825c.615 0 1.118-.503 1.118-1.118a1.12 1.12 0 00-1.118-1.118zM200.806 106.011h-5.825c-.615 0-1.118.503-1.118 1.118 0 .615.503 1.118 1.118 1.118h5.825c.615 0 1.118-.503 1.118-1.118 0-.615-.503-1.118-1.118-1.118zM200.806 103.178h-5.825c-.615 0-1.118.503-1.118 1.118 0 .615.503 1.118 1.118 1.118h5.825c.615 0 1.118-.503 1.118-1.118 0-.615-.503-1.118-1.118-1.118z"/><path opacity=".6" fill="#8C9FAF" d="M200.276 127.197h-4.862v-5.038s.65 1.041 1.879 1.644c1.182.58 2.983.596 2.983.596v2.798z"/><path fill="#C3D2DB" d="M199.829 139.593h-4.097a1.767 1.767 0 01-1.762-1.762v-9.122c0-.969.793-1.762 1.762-1.762h4.097c.969 0 1.762.793 1.762 1.762v9.122a1.766 1.766 0 01-1.762 1.762z"/><path fill="#8C9FAF" d="M188.497 83.558h-1.009v12.723h1.009a1.99 1.99 0 001.985-1.985v-8.752a1.99 1.99 0 00-1.985-1.986z"/><path opacity=".7" fill="#8C9FAF" d="M193.97 129.305h7.632v.484h-7.632z"/><path opacity=".7" fill="#F8FDFF" d="M193.965 136.751h7.632v.484h-7.632z"/><circle fill="#9DAEBC" cx="200.51" cy="135.305" r="2.596"/><circle fill="#DDE6EB" cx="200.51" cy="135.305" r="1.984"/><circle fill="#8C9FAF" cx="200.51" cy="135.305" r="1.49"/><circle fill="#EEF4F7" cx="214.551" cy="63.683" r="5.845"/><path fill="#F4F4F4" d="M108.217 123.497l-35.594.231a2.8 2.8 0 01-2.809-2.772l-.141-21.728a2.8 2.8 0 012.772-2.809l35.594-.231a2.8 2.8 0 012.809 2.772l.141 21.728a2.798 2.798 0 01-2.772 2.809z"/><path fill="#E8E8E8" d="M92.438 104.338a3.005 3.005 0 00-4.286.028l-17.444 17.959c-.104.107-.186.225-.271.343.512.646 1.289 1.067 2.164 1.061l35.638-.232c.875-.006 1.646-.437 2.15-1.089-.087-.116-.171-.234-.276-.339l-17.675-17.731z"/><path opacity=".4" fill="#C6C6C6" d="M108.062 96.189l-35.638.231c-1.21.008-2.228.819-2.595 1.926.27.3.658.72.729.791l17.676 17.73a3.005 3.005 0 004.286-.028l17.444-17.959c.052-.054.397-.399.737-.742-.365-1.131-1.408-1.957-2.639-1.949z"/><path fill="#F4F4F4" d="M92.511 115.551a3.005 3.005 0 01-4.286.028l-17.676-17.73c-.105-.105-.189-.223-.276-.339.504-.653 1.275-1.084 2.15-1.089l35.638-.232c.875-.006 1.652.415 2.164 1.061-.085.117-.168.236-.271.343l-17.443 17.958z"/><path fill="#CECECE" d="M43.175 133.395c.303 0 .599.06.88.178l.922.387-6.096 14.523-.922-.387a2.297 2.297 0 01-1.24-1.26 2.298 2.298 0 01.002-1.767l4.306-10.258a2.319 2.319 0 012.148-1.416m0-3c-2.078 0-4.062 1.226-4.913 3.254l-4.306 10.258c-1.131 2.694.148 5.824 2.842 6.955l2.766 1.161a1.004 1.004 0 001.309-.535l7.644-18.211a1.003 1.003 0 00-.535-1.309l-2.766-1.161a5.253 5.253 0 00-2.041-.412z"/><path fill="#6D6D6D" d="M61.469 117.891l-22.506 53.617-6.966-2.924a1.433 1.433 0 01-.764-1.87l21.4-50.983a1.433 1.433 0 011.87-.764l6.966 2.924z"/><path fill="#7F7F7F" d="M31.234 166.714c-.304.724.04 1.566.764 1.87l6.966 2.924 3.264-7.776-8.283-3.477-2.711 6.459z"/><path fill="#595959" d="M52.634 115.731a1.433 1.433 0 011.87-.764l6.966 2.924-3.264 7.776-8.283-3.477 2.711-6.459z"/><path fill="#CECECE" d="M45.147 171.512H33.295v1h11.852v-1z"/><g><path fill="#6D6D6D" d="M115.992 118.285H61.298v3.047c0 .524.429.953.953.953h1.621v48.346c0 .484.396.88.88.88h51.24c.484 0 .88-.396.88-.88v-48.346h1.621a.956.956 0 00.953-.953v-3.047h-3.454z"/><path fill="#7F7F7F" d="M66.801 118.285h-5.503v3.047c0 .524.429.953.953.953h1.621v48.346c0 .484.396.88.88.88h4.979v-53.226h-2.93z"/><path fill="#595959" d="M116.872 118.285h-5.858v53.226h4.979c.484 0 .88-.396.88-.88v-48.346h1.621a.956.956 0 00.953-.953v-3.047h-2.575z"/><path fill="#CECECE" d="M119.446 171.512H61.297v1h58.149v-1z"/><path fill="#7F7F7F" d="M79.371 162.265a1.763 1.763 0 01-1.758-1.758V129.29c0-.967.791-1.758 1.758-1.758s1.758.791 1.758 1.758v31.217c0 .967-.791 1.758-1.758 1.758zM91.372 162.265a1.763 1.763 0 01-1.758-1.758V129.29c0-.967.791-1.758 1.758-1.758s1.758.791 1.758 1.758v31.217c0 .967-.791 1.758-1.758 1.758zM103.373 162.265a1.763 1.763 0 01-1.758-1.758V129.29c0-.967.791-1.758 1.758-1.758s1.758.791 1.758 1.758v31.217a1.762 1.762 0 01-1.758 1.758z"/><path fill="#595959" d="M78.371 162.265a1.763 1.763 0 01-1.758-1.758V129.29c0-.967.791-1.758 1.758-1.758s1.758.791 1.758 1.758v31.217c0 .967-.791 1.758-1.758 1.758zM90.372 162.265a1.763 1.763 0 01-1.758-1.758V129.29c0-.967.791-1.758 1.758-1.758s1.758.791 1.758 1.758v31.217c0 .967-.791 1.758-1.758 1.758zM102.373 162.265a1.763 1.763 0 01-1.758-1.758V129.29c0-.967.791-1.758 1.758-1.758s1.758.791 1.758 1.758v31.217c0 .967-.791 1.758-1.758 1.758z"/></g><path fill="#C3D2DB" d="M120.044 85.543h8.551v8.998h-8.551z"/><circle fill="#8C9FAF" cx="118.556" cy="89.921" r="5.05"/><path fill="#C3D2DB" d="M119.863 92.82L108.434 98a3.203 3.203 0 01-4.227-1.59 3.203 3.203 0 011.59-4.227l11.428-5.18a3.203 3.203 0 014.227 1.59 3.201 3.201 0 01-1.589 4.227z"/><g><path fill="#C3D2DB" d="M97.013 100.842l-.002-8.215 12.279-.003.002.002.002 8.213a1.83 1.83 0 01-1.824 1.825l-8.633.002a1.83 1.83 0 01-1.824-1.824z"/><path fill="#9DAEBC" d="M109.904 91.806a.613.613 0 00-.612.612l.002 7.558c0 .337.275.612.612.612a.613.613 0 00.612-.612l-.002-7.558a.613.613 0 00-.612-.612zM96.399 91.809a.613.613 0 00-.612.612l.002 7.558c0 .337.275.612.612.612a.613.613 0 00.612-.612l-.002-7.558a.613.613 0 00-.612-.612z"/><path fill="#8C9FAF" d="M107.3 91.774h-1.035a.32.32 0 00-.319.319l.002 9.064a.32.32 0 00.319.319h1.035a.32.32 0 00.319-.319l-.002-9.064a.32.32 0 00-.319-.319zM103.954 91.775h-1.035a.32.32 0 00-.319.319l.002 9.064a.32.32 0 00.319.319h1.035a.32.32 0 00.319-.319l-.002-9.064a.32.32 0 00-.319-.319zM100.607 91.775h-1.035a.32.32 0 00-.319.319l.002 9.064a.32.32 0 00.319.319h1.035a.32.32 0 00.319-.319l-.002-9.064a.32.32 0 00-.319-.319z"/><path fill="#C3D2DB" d="M107.62 93.98v1.674h-1.673v-1.673zM104.274 93.98v1.674h-1.673v-1.673zM100.927 93.982v1.673h-1.673v-1.673z"/></g><path opacity=".2" fill="#595959" d="M69.781 116.971h41.232v1.314H69.781z"/></svg>