<svg xmlns="http://www.w3.org/2000/svg" xmlns:xlink="http://www.w3.org/1999/xlink" viewBox="0 0 25 25"><symbol id="gears--a" viewBox="0 0 25 25"><path d="M12.559 6.253c-1.674 0-3.244.651-4.423 1.83s-1.83 2.749-1.83 4.423.651 3.237 1.83 4.423a6.223 6.223 0 004.423 1.83 6.213 6.213 0 004.423-1.83c1.179-1.179 1.83-2.749 1.83-4.423s-.651-3.237-1.83-4.423a6.217 6.217 0 00-4.423-1.83zm0 11.465c-2.886 0-5.211-2.338-5.211-5.211s2.325-5.211 5.211-5.211 5.211 2.338 5.211 5.211-2.326 5.211-5.211 5.211z"/><path d="M23.482 9.901h-.99c-.808 0-1.485-.677-1.485-1.511 0-.417.176-.788.489-1.068l.638-.625a1.6 1.6 0 000-2.273l-1.453-1.44c-.287-.287-.71-.456-1.14-.456s-.847.169-1.14.456l-.612.612a1.498 1.498 0 01-1.12.502c-.834 0-1.544-.677-1.544-1.479v-.984C15.125.756 14.441 0 13.562 0h-1.98c-.899 0-1.615.749-1.615 1.635v.99c0 .801-.69 1.479-1.524 1.479-.417 0-.795-.176-1.081-.482l-.633-.626a1.606 1.606 0 00-1.14-.456c-.43 0-.847.169-1.14.456L2.996 4.429a1.605 1.605 0 000 2.267l.612.612c.326.293.508.664.508 1.088 0 .834-.677 1.511-1.485 1.511h-.99C.749 9.901 0 10.631 0 11.516v1.98c0 .879.749 1.615 1.641 1.615h.99c.808 0 1.485.677 1.485 1.511 0 .417-.182.801-.508 1.094l-.612.599a1.605 1.605 0 000 2.267l1.453 1.446c.287.293.71.456 1.14.456s.847-.169 1.14-.456l.632-.625a1.433 1.433 0 011.075-.482c.834 0 1.524.677 1.524 1.479v.99c0 .879.717 1.635 1.609 1.635h1.98c.886 0 1.622-.749 1.622-1.635v-.99c0-.801.684-1.479 1.518-1.479.417 0 .801.182 1.101.502l.612.612c.293.287.71.456 1.14.456s.847-.169 1.14-.456l1.453-1.446a1.612 1.612 0 000-2.273l-.638-.625a1.462 1.462 0 01-.489-1.088c0-.834.677-1.537 1.485-1.537h.99c.886 0 1.518-.671 1.518-1.557v-1.993c-.001-.885-.633-1.615-1.519-1.615zm.489 2.606v.984c0 .274-.15.515-.476.515h-.99c-.671 0-1.309.287-1.791.782a2.583 2.583 0 00-.736 1.811c0 .703.287 1.355.814 1.837l.619.612a.578.578 0 010 .801l-1.453 1.446a.603.603 0 01-.41.156.595.595 0 01-.41-.156l-.593-.593c-.502-.528-1.159-.821-1.856-.821a2.56 2.56 0 00-1.791.73 2.468 2.468 0 00-.756 1.791v.99c0 .319-.28.593-.58.593h-1.98c-.3 0-.567-.274-.567-.593v-.99c0-.671-.267-1.309-.762-1.791a2.59 2.59 0 00-1.798-.73c-.69 0-1.355.293-1.83.808l-.606.606a.603.603 0 01-.41.156c-.156 0-.313-.052-.397-.143l-.007-.008-.007-.007-1.453-1.446a.57.57 0 010-.795l.593-.586a2.511 2.511 0 00.091-3.641 2.471 2.471 0 00-1.791-.749h-.997c-.326 0-.599-.28-.599-.573v-1.987c0-.293.274-.573.599-.573h.99c.671 0 1.309-.254 1.791-.749.476-.489.736-1.12.736-1.791 0-.703-.293-1.361-.827-1.85l-.599-.593a.549.549 0 01-.162-.397.56.56 0 01.163-.397l1.446-1.44a.603.603 0 01.41-.156c.156 0 .313.052.397.143l.007.007.007.007.612.612a2.473 2.473 0 001.83.808c.677 0 1.309-.261 1.798-.73a2.481 2.481 0 00.769-1.791v-.99c0-.319.261-.593.554-.593h1.987c.293 0 .521.274.521.593v.99c0 .671.287 1.309.782 1.791.489.469 1.133.73 1.811.73.703 0 1.368-.293 1.863-.821l.593-.593a.603.603 0 01.41-.156.62.62 0 01.41.15l1.453 1.44c.104.104.169.248.169.397s-.059.293-.163.397l-.619.612a2.483 2.483 0 00-.814 1.837c0 .677.261 1.296.736 1.785.482.495 1.12.749 1.791.749h.99c.352 0 .482.326.489.586l-.001.977z"/><path d="M12.5 14.981c-1.361 0-2.468-1.107-2.468-2.468s1.107-2.468 2.468-2.468 2.468 1.107 2.468 2.468-1.107 2.468-2.468 2.468zm0-3.901c-.79 0-1.433.643-1.433 1.433s.643 1.433 1.433 1.433 1.433-.643 1.433-1.433-.643-1.433-1.433-1.433z"/></symbol><g fill="#7B7B7B"><use width="15" height="15" y="4.5" xlink:href="#gears--a"><animateTransform attributeName="transform" attributeType="XML" begin="0s" dur="3s" from="0 7.5 12" repeatCount="indefinite" to="360 7.5 12" type="rotate"/></use><use width="11.5" height="11.5" x="13.5" y="13.5" xlink:href="#gears--a"><animateTransform attributeName="transform" attributeType="XML" begin="0s" dur="2.3s" from="0 19.25 19.25" repeatCount="indefinite" to="-360 19.25 19.25" type="rotate"/></use><use width="10.5" height="10.5" x="14" xlink:href="#gears--a"><animateTransform attributeName="transform" attributeType="XML" begin="0s" dur="2.1s" from="0 19.25 5.25" repeatCount="indefinite" to="-360 19.25 5.25" type="rotate"/></use></g></svg>