<svg width="280" height="182" viewBox="0 0 280 182" fill="none" xmlns="http://www.w3.org/2000/svg">
<path d="M230.308 79.7633H209.41C205.637 79.7173 202.564 76.6183 202.564 72.8353C202.564 72.8003 202.566 72.7663 202.567 72.7313H202.561C202.506 68.9663 199.411 65.9023 195.633 65.9023H159.918C156.106 65.9023 152.988 69.0213 152.988 72.8323C152.988 76.6443 156.107 79.7623 159.918 79.7623H166.389L166.418 79.7653H165.79C169.567 79.7653 172.661 82.8273 172.718 86.5903C172.717 86.6243 172.715 86.6583 172.715 86.6923C172.715 86.7273 172.717 86.7623 172.718 86.7973C172.718 86.7973 172.718 86.7993 172.718 86.8003C172.776 90.5633 175.87 93.6233 179.646 93.6233H230.308C234.12 93.6233 237.238 90.5043 237.238 86.6933C237.238 82.8823 234.119 79.7633 230.308 79.7633Z" fill="#EEF4F7"/>
<path d="M139.989 176.702C163.78 176.702 183.067 175.031 183.067 172.97C183.067 170.909 163.78 169.238 139.989 169.238C116.197 169.238 96.9106 170.909 96.9106 172.97C96.9106 175.031 116.197 176.702 139.989 176.702Z" fill="url(#paint0_radial_710_44832)"/>
<path d="M205.502 118.676H156.146C152.334 118.676 149.216 115.557 149.216 111.746C149.216 107.934 152.335 104.816 156.146 104.816H205.502C209.314 104.816 212.432 107.935 212.432 111.746C212.433 115.557 209.314 118.676 205.502 118.676Z" fill="#EEF4F7"/>
<path d="M179.071 95.7387L168.051 95.7547L165.331 85.1447L170.847 85.1367C173.881 85.1327 176.975 87.5157 177.723 90.4337C178.471 93.3507 179.071 95.7387 179.071 95.7387Z" fill="#C3D2DB"/>
<path d="M171.871 92.3789H177.696C178.311 92.3789 178.814 92.8819 178.814 93.4969C178.814 94.1119 178.311 94.6149 177.696 94.6149H171.871C171.256 94.6149 170.753 94.1119 170.753 93.4969C170.754 92.8819 171.257 92.3789 171.871 92.3789Z" fill="#8C9FAF"/>
<path d="M58.8178 102.381H38.2698C34.4578 102.381 31.3398 99.2625 31.3398 95.4515C31.3398 91.6395 34.4588 88.5215 38.2698 88.5215H58.8188C62.6308 88.5215 65.7488 91.6405 65.7488 95.4515C65.7488 99.2635 62.6298 102.381 58.8178 102.381Z" fill="#EEF4F7"/>
<path d="M115.849 136.153H89.5247C85.7127 136.153 82.5947 133.034 82.5947 129.223C82.5947 125.411 85.7137 122.293 89.5247 122.293H115.849C119.661 122.293 122.779 125.412 122.779 129.223C122.78 133.034 119.661 136.153 115.849 136.153Z" fill="#EEF4F7"/>
<path d="M200.284 52.1666H189.288C185.476 52.1666 182.358 49.0476 182.358 45.2366C182.358 41.4246 185.477 38.3066 189.288 38.3066H200.284C204.096 38.3066 207.214 41.4256 207.214 45.2366C207.215 49.0486 204.096 52.1666 200.284 52.1666Z" fill="#EEF4F7"/>
<path d="M141.138 52.858H116.473C112.661 52.858 109.543 49.739 109.543 45.928C109.543 45.893 109.545 45.859 109.546 45.824H109.534C109.478 42.06 106.383 38.998 102.606 38.998H53.348C49.536 38.998 46.418 42.117 46.418 45.928C46.418 49.74 49.537 52.858 53.348 52.858H80.103C79.948 52.858 79.794 52.865 79.641 52.875C83.239 53.115 86.11 56.132 86.11 59.788C86.11 63.444 83.24 66.461 79.641 66.701C79.794 66.711 79.947 66.718 80.103 66.718H66.519C62.707 66.718 59.589 69.837 59.589 73.648C59.589 77.46 62.708 80.578 66.519 80.578H122.194C125.97 80.578 129.064 77.517 129.122 73.755H129.124C129.124 73.739 129.123 73.723 129.123 73.707C129.123 73.687 129.125 73.667 129.125 73.648C129.125 73.629 129.124 73.611 129.124 73.592C129.156 69.808 132.261 66.721 136.053 66.721H135.366L135.397 66.718H141.138C144.95 66.718 148.068 63.599 148.068 59.788C148.068 55.977 144.949 52.858 141.138 52.858Z" fill="#EEF4F7"/>
<path d="M100.914 95.7387L111.934 95.7547L114.654 85.1447L109.138 85.1367C106.104 85.1327 103.01 87.5157 102.262 90.4337C101.514 93.3507 100.914 95.7387 100.914 95.7387Z" fill="#C3D2DB"/>
<path d="M129.123 127.578H121.265V159.674H129.123V127.578Z" fill="#C3D2DB"/>
<path d="M125.194 147.451C128.049 147.451 130.364 145.137 130.364 142.281C130.364 139.426 128.049 137.111 125.194 137.111C122.339 137.111 120.024 139.426 120.024 142.281C120.024 145.137 122.339 147.451 125.194 147.451Z" fill="#9DAEBC"/>
<path d="M125.194 146.21C127.364 146.21 129.123 144.45 129.123 142.281C129.123 140.111 127.364 138.352 125.194 138.352C123.024 138.352 121.265 140.111 121.265 142.281C121.265 144.45 123.024 146.21 125.194 146.21Z" fill="#DDE6EB"/>
<path d="M125.194 145.232C126.823 145.232 128.145 143.911 128.145 142.281C128.145 140.651 126.823 139.33 125.194 139.33C123.564 139.33 122.243 140.651 122.243 142.281C122.243 143.911 123.564 145.232 125.194 145.232Z" fill="#8C9FAF"/>
<path d="M122.064 159.48H128.324C129.584 159.48 130.614 160.511 130.614 161.77C130.614 163.03 129.583 164.06 128.324 164.06H122.064C120.804 164.06 119.774 163.029 119.774 161.77C119.774 160.51 120.804 159.48 122.064 159.48Z" fill="#8C9FAF"/>
<path d="M155.975 69.1547H123.98C123.767 69.1547 123.593 68.9807 123.593 68.7677V67.5237C123.593 67.3107 123.767 67.1367 123.98 67.1367H155.975C156.188 67.1367 156.362 67.3107 156.362 67.5237V68.7677C156.361 68.9807 156.187 69.1547 155.975 69.1547Z" fill="#C3D2DB"/>
<path fill-rule="evenodd" clip-rule="evenodd" d="M158.092 58.7703L160.334 57.7593V48.1523H158.092V58.7703Z" fill="#C3D2DB"/>
<path fill-rule="evenodd" clip-rule="evenodd" d="M121.826 58.7703L119.584 57.7593V48.1523H121.826V58.7703Z" fill="#C3D2DB"/>
<path d="M155.692 67.3545H124.109C122.525 67.3545 121.229 66.0585 121.229 64.4745V46.4445C121.229 44.8605 122.525 43.5645 124.109 43.5645H155.692C157.276 43.5645 158.572 44.8605 158.572 46.4445V64.4755C158.572 66.0585 157.276 67.3545 155.692 67.3545Z" fill="#C3D2DB"/>
<path d="M149.153 45.8652C149.069 45.8652 148.982 45.8662 148.893 45.8662C148.807 45.8672 148.719 45.8672 148.629 45.8672H131.258C131.169 45.8672 131.081 45.8662 130.994 45.8662C130.906 45.8652 130.819 45.8652 130.734 45.8652C130.125 45.8652 128.27 45.8652 128.27 47.8532V53.7352C128.27 55.3822 129.61 56.7222 131.257 56.7222H148.628C150.275 56.7222 151.615 55.3822 151.615 53.7352V47.8532C151.617 45.8652 149.763 45.8652 149.153 45.8652Z" fill="#6F98C1"/>
<path d="M148.315 55.7221H131.574C130.309 55.7221 129.274 54.6871 129.274 53.4221V48.0111C129.274 47.3821 129.784 46.8711 130.414 46.8711H148.316C149.586 46.8711 150.616 47.9011 150.616 49.1711V53.4211C150.615 54.6871 149.58 55.7221 148.315 55.7221Z" fill="#9EC5DD"/>
<path opacity="0.6" d="M144.521 46.8711H143.76V55.7221H144.521V46.8711Z" fill="white"/>
<path opacity="0.6" d="M147.21 46.8711H145.276V55.7221H147.21V46.8711Z" fill="white"/>
<path d="M160.832 42.6611C160.832 31.3181 151.551 22.0371 140.208 22.0371C128.865 22.0371 119.584 31.3181 119.584 42.6611V48.1531H160.832V42.6611Z" fill="#627689"/>
<path fill-rule="evenodd" clip-rule="evenodd" d="M119.584 48.1526C119.584 48.1526 127.172 42.8496 146.03 41.9056C166.925 40.8586 167.689 48.1526 167.689 48.1526H119.584Z" fill="#849AAD"/>
<path fill-rule="evenodd" clip-rule="evenodd" d="M120.511 48.1524C120.511 48.1524 128.755 43.8974 145.573 43.0994C166.614 42.1014 167.271 48.1524 167.271 48.1524H120.511Z" fill="#627689"/>
<path opacity="0.1" d="M140.114 52.7913C158.034 52.8363 160.333 49.8453 160.333 49.8453V48.1523H119.583C119.591 48.1773 120.831 52.7423 140.114 52.7913Z" fill="black"/>
<path d="M144.702 35.7114L146.484 30.8184H140.941C138.368 30.8184 135.795 32.1874 135.795 34.9284C135.795 37.6694 139.358 38.2554 141.139 36.2984C141.139 36.8854 141.535 37.2774 142.723 37.2774H147.05L147.62 35.7114H144.702V35.7114ZM141.139 35.7114C140.149 35.7114 139.555 35.5154 139.555 34.9284C139.555 34.5364 140.398 32.7754 140.596 32.1884H142.525L141.139 35.7114Z" fill="#C1D4E0"/>
<path d="M125.194 161.234C118.814 161.234 113.453 165.595 111.93 171.499H138.458C136.934 165.595 131.574 161.234 125.194 161.234Z" fill="#C3D2DB"/>
<path d="M137.917 172.971H112.47C111.828 172.971 111.303 172.446 111.303 171.804V171.755C111.303 171.113 111.828 170.588 112.47 170.588H137.917C138.559 170.588 139.084 171.113 139.084 171.755V171.804C139.084 172.445 138.559 172.971 137.917 172.971Z" fill="#8C9FAF"/>
<path d="M158.714 127.578H150.856V159.674H158.714V127.578Z" fill="#C3D2DB"/>
<path d="M154.785 147.451C157.64 147.451 159.955 145.137 159.955 142.281C159.955 139.426 157.64 137.111 154.785 137.111C151.929 137.111 149.615 139.426 149.615 142.281C149.615 145.137 151.929 147.451 154.785 147.451Z" fill="#9DAEBC"/>
<path d="M154.785 146.21C156.955 146.21 158.714 144.45 158.714 142.281C158.714 140.111 156.955 138.352 154.785 138.352C152.615 138.352 150.856 140.111 150.856 142.281C150.856 144.45 152.615 146.21 154.785 146.21Z" fill="#DDE6EB"/>
<path d="M154.785 145.232C156.415 145.232 157.736 143.911 157.736 142.281C157.736 140.651 156.415 139.33 154.785 139.33C153.155 139.33 151.834 140.651 151.834 142.281C151.834 143.911 153.155 145.232 154.785 145.232Z" fill="#8C9FAF"/>
<path d="M151.655 159.48H157.915C159.175 159.48 160.205 160.511 160.205 161.77C160.205 163.03 159.174 164.06 157.915 164.06H151.655C150.395 164.06 149.365 163.029 149.365 161.77C149.365 160.51 150.396 159.48 151.655 159.48Z" fill="#8C9FAF"/>
<path d="M154.785 161.234C148.405 161.234 143.044 165.595 141.521 171.499H168.049C166.526 165.595 161.165 161.234 154.785 161.234Z" fill="#C3D2DB"/>
<path d="M144.257 60.1066C144.257 60.8056 143.688 61.3736 142.99 61.3736H136.698C135.999 61.3736 135.431 60.8056 135.431 60.1066V59.9336H133.497V60.1066C133.497 61.8716 134.933 63.3076 136.698 63.3076H142.99C144.756 63.3076 146.192 61.8716 146.192 60.1066V59.9336H144.257V60.1066Z" fill="#8C9FAF"/>
<path d="M167.508 172.971H142.061C141.419 172.971 140.894 172.446 140.894 171.804V171.755C140.894 171.113 141.419 170.588 142.061 170.588H167.508C168.15 170.588 168.675 171.113 168.675 171.755V171.804C168.676 172.445 168.15 172.971 167.508 172.971Z" fill="#8C9FAF"/>
<path opacity="0.6" d="M124.103 67.3547H155.686C156.554 67.3547 157.326 66.9577 157.855 66.3457H121.935C122.464 66.9577 123.236 67.3547 124.103 67.3547Z" fill="#8C9FAF"/>
<path d="M108.114 92.3789H102.289C101.674 92.3789 101.171 92.8819 101.171 93.4969C101.171 94.1119 101.674 94.6149 102.289 94.6149H108.114C108.729 94.6149 109.232 94.1119 109.232 93.4969C109.231 92.8819 108.728 92.3789 108.114 92.3789Z" fill="#8C9FAF"/>
<path d="M172.937 136.695H107.042C106.737 136.695 106.489 136.448 106.489 136.142V71.2483C106.489 70.9433 106.736 70.6953 107.042 70.6953H172.937C173.242 70.6953 173.49 70.9423 173.49 71.2483V136.143C173.49 136.448 173.242 136.695 172.937 136.695Z" fill="#C8C8C8"/>
<path d="M172.937 136.153H107.042C106.737 136.153 106.489 135.906 106.489 135.6V70.7053C106.489 70.4003 106.736 70.1523 107.042 70.1523H172.937C173.242 70.1523 173.49 70.3993 173.49 70.7053V135.6C173.49 135.905 173.242 136.153 172.937 136.153Z" fill="#F7F7F7"/>
<path d="M160.433 123H119.567C118.705 123 118 122.325 118 121.5C118 120.675 118.705 120 119.567 120H160.433C161.295 120 162 120.675 162 121.5C162 122.325 161.295 123 160.433 123Z" fill="#E0E0E0"/>
<path d="M119.531 120C118.689 120 118 120.689 118 121.531C118 122.374 118.689 123.063 119.531 123.063H147.162V120H119.531Z" fill="#86D291"/>
<path d="M137.804 126.538L136.35 129.948H135.398L136.854 126.752H135V126.057H137.803V126.538H137.804Z" fill="#627689"/>
<path d="M140.446 126V126.708H140.406C140.069 126.708 139.793 126.789 139.576 126.95C139.36 127.11 139.227 127.335 139.177 127.622C139.38 127.422 139.637 127.323 139.947 127.323C140.284 127.323 140.552 127.446 140.752 127.692C140.951 127.938 141.05 128.26 141.05 128.659C141.05 128.906 140.992 129.134 140.876 129.34C140.759 129.547 140.596 129.709 140.387 129.825C140.177 129.941 139.946 130 139.691 130C139.415 130 139.168 129.937 138.951 129.811C138.733 129.686 138.564 129.506 138.443 129.273C138.322 129.039 138.259 128.77 138.256 128.465V128.105C138.256 127.704 138.343 127.344 138.515 127.024C138.686 126.704 138.932 126.454 139.251 126.272C139.569 126.09 139.923 126 140.311 126H140.446ZM139.633 128.012C139.514 128.012 139.414 128.04 139.334 128.095C139.254 128.15 139.194 128.218 139.155 128.297V128.568C139.155 129.059 139.325 129.306 139.666 129.306C139.803 129.306 139.917 129.244 140.01 129.121C140.102 128.998 140.148 128.844 140.148 128.659C140.148 128.468 140.101 128.313 140.008 128.192C139.912 128.072 139.788 128.012 139.633 128.012Z" fill="#627689"/>
<path d="M141.441 126.805C141.441 126.564 141.52 126.37 141.677 126.222C141.834 126.074 142.044 126 142.308 126C142.575 126 142.786 126.074 142.941 126.221C143.096 126.368 143.174 126.566 143.174 126.817V127.01C143.174 127.251 143.096 127.444 142.941 127.59C142.786 127.736 142.577 127.81 142.314 127.81C142.051 127.81 141.841 127.737 141.682 127.592C141.522 127.447 141.442 127.248 141.442 126.995V126.805H141.441ZM142.021 127.009C142.021 127.102 142.047 127.176 142.099 127.234C142.151 127.291 142.222 127.32 142.313 127.32C142.499 127.32 142.594 127.202 142.594 126.964V126.805C142.594 126.713 142.569 126.637 142.519 126.578C142.469 126.519 142.399 126.489 142.308 126.489C142.22 126.489 142.151 126.518 142.099 126.575C142.047 126.633 142.021 126.711 142.021 126.81V127.009V127.009ZM142.483 129.655L142.064 129.444L143.964 126.402L144.384 126.614L142.483 129.655ZM143.291 128.993C143.291 128.75 143.369 128.557 143.527 128.41C143.685 128.264 143.895 128.19 144.157 128.19C144.422 128.19 144.634 128.263 144.791 128.407C144.948 128.551 145.026 128.752 145.026 129.011V129.197C145.026 129.44 144.949 129.633 144.794 129.78C144.639 129.927 144.428 130 144.163 130C143.901 130 143.69 129.927 143.531 129.782C143.371 129.637 143.292 129.438 143.292 129.186V128.993H143.291ZM143.868 129.197C143.868 129.281 143.897 129.353 143.953 129.417C144.01 129.481 144.08 129.511 144.162 129.511C144.335 129.511 144.428 129.43 144.443 129.267L144.446 128.994C144.446 128.899 144.42 128.824 144.369 128.766C144.317 128.709 144.246 128.68 144.157 128.68C144.072 128.68 144.003 128.707 143.951 128.761C143.9 128.816 143.872 128.889 143.869 128.981V129.197H143.868Z" fill="#627689"/>
<path d="M121.248 120L119.534 123.062H120.47L122.183 120H121.248Z" fill="#70BA78"/>
<path d="M123.259 120L121.546 123.062H122.482L124.195 120H123.259Z" fill="#70BA78"/>
<path d="M125.272 120L123.558 123.062H124.494L126.207 120H125.272Z" fill="#70BA78"/>
<path d="M127.285 120L125.571 123.062H126.506L128.22 120H127.285Z" fill="#70BA78"/>
<path d="M129.296 120L127.583 123.062H128.518L130.231 120H129.296Z" fill="#70BA78"/>
<path d="M131.309 120L129.595 123.062H130.531L132.244 120H131.309Z" fill="#70BA78"/>
<path d="M133.321 120L131.607 123.062H132.543L134.257 120H133.321Z" fill="#70BA78"/>
<path d="M135.333 120L133.62 123.062H134.556L136.268 120H135.333Z" fill="#70BA78"/>
<path d="M137.346 120L135.632 123.062H136.567L138.281 120H137.346Z" fill="#70BA78"/>
<path d="M139.358 120L137.644 123.062H138.58L140.293 120H139.358Z" fill="#70BA78"/>
<path d="M141.37 120L139.657 123.062H140.592L142.306 120H141.37Z" fill="#70BA78"/>
<path d="M143.382 120L141.668 123.062H142.604L144.318 120H143.382Z" fill="#70BA78"/>
<path d="M145.395 120L143.681 123.062H144.617L146.33 120H145.395Z" fill="#70BA78"/>
<path d="M145.693 123.062H146.629L147.162 122.11V120.438L145.693 123.062Z" fill="#70BA78"/>
<path d="M119.531 120C119.424 120 119.318 120.012 119.216 120.034L118.094 122.039C118.197 122.33 118.383 122.579 118.627 122.759L120.171 120H119.531Z" fill="#70BA78"/>
<path d="M165.615 111H114.587C114.264 111 114 110.741 114 110.424V87.5758C114 87.2592 114.264 87 114.587 87H165.615C165.938 87 166.202 87.2592 166.202 87.5758V110.424C166.202 110.741 165.938 111 165.615 111Z" fill="white"/>
<path d="M165.615 111H114.587C114.264 111 114 110.741 114 110.424V87.5758C114 87.2592 114.264 87 114.587 87H165.615C165.938 87 166.202 87.2592 166.202 87.5758V110.424C166.202 110.741 165.938 111 165.615 111Z" stroke="#C1C1C1" stroke-miterlimit="10" stroke-linecap="round" stroke-dasharray="1.3 2"/>
<path d="M137.273 107.77C137.273 107.947 137.334 108.096 137.455 108.216C137.575 108.338 137.724 108.398 137.901 108.398L142.382 108.405C142.558 108.405 142.708 108.343 142.831 108.22C142.954 108.097 143.016 107.947 143.016 107.77L143.015 105.922H137.273V107.77V107.77Z" fill="url(#paint1_linear_710_44832)"/>
<path d="M146.134 96.6842L140.644 90.2305C140.519 90.0848 140.337 90 140.145 90C139.954 90 139.771 90.0848 139.647 90.2305L134.156 96.6842C133.991 96.8783 133.953 97.1512 134.06 97.3826C134.167 97.614 134.399 97.7624 134.654 97.7624H137.274V102.197H143.015L143.014 97.7624H145.635C145.89 97.7624 146.122 97.614 146.229 97.3826C146.337 97.1512 146.299 96.8792 146.134 96.6842Z" fill="#719AC6"/>
<path d="M143.015 103.441H137.275V104.682H143.015V103.441Z" fill="#719AC6"/>
<path d="M106.49 73.7636V76.7346H173.49V73.7636V72.1426H106.49V73.7636Z" fill="#424242"/>
<path d="M121.328 73.4199H118.636C118.457 73.4199 118.336 73.5059 118.274 73.6509H121.08C121.221 73.6219 121.304 73.5399 121.328 73.4199ZM118.174 73.7659C118.054 73.7969 117.971 73.8769 117.923 73.9929H120.155C120.338 73.9829 120.446 73.8989 120.479 73.7659H118.174ZM118.332 74.3249L118.118 74.8999C117.965 74.8999 117.843 74.8999 117.843 74.7789C117.843 74.7189 118.003 74.4109 118.003 74.3209L118.332 74.3249ZM113.652 74.3249L113.438 74.8689C113.285 74.8689 113.193 74.8389 113.193 74.7479C113.193 74.6869 113.323 74.4149 113.354 74.3249H113.652ZM119.037 74.3249C119.22 74.3249 119.343 74.2649 119.404 74.1139H118.041C117.357 74.1399 117.324 74.7809 117.384 74.8699H116.65L116.834 74.3259H116.926C117.14 74.3259 117.262 74.2659 117.324 74.1139H116.926L117.14 73.5089H116.834C116.742 73.7209 116.62 73.8419 116.528 73.9319C116.283 74.1439 116.008 74.1139 115.702 74.1139L115.121 74.8399V74.1139H114.57L114.631 74.8699H113.989L114.264 74.1139H113.407C113.009 74.1139 112.612 74.3259 112.612 74.7489C112.612 75.1719 113.163 75.2629 113.438 74.9609C113.438 75.0519 113.499 75.1119 113.683 75.1119H115.243L115.885 74.3249H116.313L116.099 74.8689C116.068 75.0199 116.13 75.1109 116.313 75.1109L118.14 75.1139C118.507 75.1139 118.73 74.9899 118.761 74.5969C118.761 74.5369 118.73 74.3849 118.669 74.3249H119.037ZM119.027 74.9429C119.027 75.0429 119.109 75.1249 119.211 75.1249C119.313 75.1249 119.395 75.0439 119.395 74.9429C119.395 74.8429 119.313 74.7609 119.211 74.7609C119.109 74.7619 119.027 74.8429 119.027 74.9429ZM121.896 74.6529L122.025 74.6499C122.025 74.6499 122.172 74.6309 122.124 74.7779C122.076 74.9249 121.989 75.0079 121.92 75.0199C121.85 75.0319 121.735 75.0249 121.735 75.0249C121.735 75.0249 121.854 74.6939 121.896 74.6529ZM122.357 74.7779C122.373 74.6749 122.302 74.6559 122.263 74.6529H122.239C122.239 74.6529 122.249 74.6519 122.263 74.6529H122.84C122.9 74.6529 122.98 74.6089 123.016 74.5749H121.763C121.66 74.6119 121.534 74.6959 121.508 74.8229C121.508 74.9079 121.551 74.9499 121.594 75.0349H121.287L121.482 74.5739H121.015L120.992 74.5519L121.051 74.3599C120.965 74.3599 120.822 74.3439 120.736 74.3859C120.587 74.5049 120.714 74.6209 120.772 74.6529L120.643 75.0349H120.243C120.303 75.0199 120.394 75.0149 120.501 74.9079C120.587 74.7809 120.587 74.6109 120.415 74.5679L120.152 74.5669L120.227 74.3599L119.943 74.3549L119.556 75.4599H119.814L120.115 74.6529C120.158 74.6529 120.215 74.6599 120.258 74.6599C120.381 74.7239 120.287 74.9079 120.244 74.9509L120.158 75.0359C120.051 75.0359 120.062 75.0939 120.118 75.1139H120.678C120.788 75.0939 120.797 75.0359 120.815 74.9929L120.944 74.6529H121.159C121.159 74.6529 121.03 74.9929 121.03 75.0349C121.03 75.0839 121.044 75.1039 121.072 75.1129H122.01C122.092 75.0919 122.321 75.0119 122.357 74.7779Z" fill="white"/>
<path d="M155.523 75.5317H124.457C124.35 75.5317 124.262 75.4437 124.262 75.3367V73.5427C124.262 73.4357 124.35 73.3477 124.457 73.3477H155.523C155.63 73.3477 155.718 73.4357 155.718 73.5427V75.3367C155.718 75.4437 155.63 75.5317 155.523 75.5317Z" fill="white"/>
<path d="M167.351 73.8597C167.34 73.8487 167.328 73.8438 167.314 73.8438H167.223H165.985H165.894C165.88 73.8438 165.867 73.8487 165.857 73.8597C165.847 73.8707 165.841 73.8828 165.841 73.8968V74.0027C165.841 74.0167 165.846 74.0297 165.857 74.0397C165.867 74.0497 165.88 74.0557 165.894 74.0557H165.985H167.223H167.314C167.328 74.0557 167.341 74.0507 167.351 74.0397C167.361 74.0287 167.367 74.0167 167.367 74.0027V73.8968C167.367 73.8828 167.362 73.8697 167.351 73.8597Z" fill="#C8C8C8"/>
<path d="M167.351 74.3461C167.34 74.3351 167.328 74.3301 167.314 74.3301H167.223H165.985H165.894C165.88 74.3301 165.867 74.3351 165.857 74.3461C165.847 74.3571 165.841 74.3691 165.841 74.3831V74.4891C165.841 74.5031 165.846 74.5161 165.857 74.5261C165.867 74.5361 165.88 74.5421 165.894 74.5421H165.985H167.223H167.314C167.328 74.5421 167.341 74.5371 167.351 74.5261C167.361 74.5151 167.367 74.5031 167.367 74.4891V74.3831C167.367 74.3691 167.362 74.3561 167.351 74.3461Z" fill="#C8C8C8"/>
<path d="M167.351 74.8305C167.34 74.8195 167.328 74.8145 167.314 74.8145H167.223H165.985H165.894C165.88 74.8145 165.867 74.8195 165.857 74.8305C165.847 74.8415 165.841 74.8534 165.841 74.8674V74.9734C165.841 74.9874 165.846 75.0005 165.857 75.0105C165.867 75.0205 165.88 75.0265 165.894 75.0265H165.985H167.223H167.314C167.328 75.0265 167.341 75.0215 167.351 75.0105C167.361 74.9995 167.367 74.9874 167.367 74.9734V74.8674C167.367 74.8534 167.362 74.8405 167.351 74.8305Z" fill="#C8C8C8"/>
<path d="M163.646 74.5672L163.84 73.9872C163.85 73.9592 163.842 73.9422 163.834 73.9312C163.814 73.9032 163.773 73.9022 163.765 73.9022H162.669L162.64 73.7632C162.632 73.7302 162.609 73.6992 162.562 73.6992H162.254C162.222 73.6992 162.205 73.7142 162.205 73.7442V73.8242C162.205 73.8532 162.222 73.8602 162.255 73.8602H162.515L162.714 74.7052C162.682 74.7392 162.665 74.7872 162.665 74.8332C162.665 74.9332 162.745 75.0252 162.847 75.0252C162.943 75.0252 163.015 74.9352 163.027 74.8812H163.414C163.426 74.9352 163.484 75.0272 163.594 75.0272C163.694 75.0272 163.776 74.9402 163.776 74.8402C163.776 74.7402 163.716 74.6522 163.596 74.6522C163.546 74.6522 163.487 74.6792 163.459 74.7192H162.983C162.948 74.6652 162.901 74.6492 162.853 74.6472L162.846 74.6122H163.571C163.626 74.6142 163.636 74.5942 163.646 74.5672ZM163.596 74.7712C163.634 74.7712 163.664 74.8022 163.664 74.8392C163.664 74.8762 163.633 74.9072 163.596 74.9072C163.558 74.9072 163.528 74.8772 163.528 74.8392C163.527 74.8022 163.558 74.7712 163.596 74.7712ZM162.914 74.8392C162.914 74.8772 162.883 74.9082 162.845 74.9082C162.807 74.9082 162.776 74.8772 162.776 74.8392C162.776 74.8012 162.807 74.7702 162.845 74.7702C162.883 74.7702 162.914 74.8012 162.914 74.8392Z" fill="#C8C8C8"/>
<path d="M124.457 73.3477C124.35 73.3477 124.262 73.4357 124.262 73.5427V75.3367C124.262 75.4437 124.35 75.5317 124.457 75.5317H132.023V73.3487H124.457V73.3477Z" fill="#719AC6"/>
<path d="M125.598 74.6719H125.024V74.8859C125.024 74.8969 125.035 74.9089 125.047 74.9089H125.148C125.159 74.9089 125.171 74.8979 125.171 74.8859V74.7849H125.599H126.027V74.8859C126.027 74.8969 126.038 74.9089 126.05 74.9089H126.151C126.162 74.9089 126.174 74.8979 126.174 74.8859V74.6719H125.598Z" fill="white"/>
<path d="M126.149 74.2773C126.149 74.2883 126.16 74.3333 126.149 74.3113C126.138 74.3003 126.132 74.2883 126.121 74.2773C126.093 74.1983 126.014 74.0013 125.963 73.9733C125.912 73.9503 125.749 73.9453 125.648 73.9453C125.631 73.9453 125.62 73.9453 125.603 73.9453C125.586 73.9453 125.575 73.9453 125.558 73.9453C125.451 73.9453 125.288 73.9513 125.243 73.9733C125.192 73.9963 125.114 74.1983 125.085 74.2773C125.074 74.2883 125.068 74.3003 125.057 74.3113C125.046 74.3343 125.057 74.2883 125.057 74.2773C125.051 74.2493 124.911 74.1873 124.894 74.2433C124.883 74.2883 124.95 74.3443 124.984 74.3443C125.001 74.3443 125.018 74.3613 125.029 74.3723C125.018 74.4343 125.006 74.4563 125.006 74.5353C125.006 74.5693 125.029 74.5863 125.029 74.5913V74.6473H125.603H126.177V74.5913C126.177 74.5913 126.194 74.5743 126.2 74.5353C126.194 74.4563 126.183 74.4343 126.177 74.3723C126.188 74.3613 126.205 74.3443 126.222 74.3443C126.245 74.3443 126.306 74.2883 126.301 74.2433C126.284 74.1923 126.144 74.2493 126.149 74.2773ZM125.209 74.1363C125.226 74.1083 125.237 74.0573 125.277 74.0463C125.333 74.0293 125.401 74.0183 125.598 74.0233C125.795 74.0173 125.863 74.0293 125.919 74.0463C125.958 74.0573 125.97 74.1143 125.987 74.1363C126.004 74.1703 126.021 74.2153 126.038 74.2603C125.999 74.2773 125.976 74.2833 125.903 74.2943C125.796 74.3053 125.689 74.3113 125.599 74.3113C125.509 74.3113 125.408 74.3053 125.295 74.2943C125.222 74.2833 125.199 74.2773 125.16 74.2603C125.175 74.2153 125.192 74.1703 125.209 74.1363ZM125.192 74.4853C125.147 74.4793 125.119 74.4513 125.119 74.4123C125.119 74.3733 125.153 74.3393 125.198 74.3393C125.215 74.3393 125.232 74.3453 125.243 74.3503C125.243 74.3503 125.322 74.4013 125.327 74.4233C125.332 74.4453 125.321 74.4793 125.288 74.4853C125.26 74.4913 125.215 74.4853 125.192 74.4853ZM125.924 74.5583C125.924 74.5703 125.914 74.5803 125.902 74.5803H125.795H125.603H125.305C125.293 74.5803 125.283 74.5703 125.283 74.5583C125.283 74.5463 125.293 74.5363 125.305 74.5363H125.902C125.914 74.5363 125.924 74.5463 125.924 74.5583ZM126.003 74.4853C125.975 74.4913 125.935 74.4913 125.902 74.4913C125.869 74.4913 125.857 74.4523 125.863 74.4293C125.869 74.4063 125.936 74.3613 125.947 74.3563C125.958 74.3513 125.975 74.3453 125.992 74.3453C126.037 74.3453 126.071 74.3793 126.071 74.4183C126.076 74.4513 126.048 74.4793 126.003 74.4853Z" fill="white"/>
<path d="M130.938 74.5358H126.976C126.923 74.5358 126.88 74.4928 126.88 74.4398C126.88 74.3868 126.923 74.3438 126.976 74.3438H130.938C130.991 74.3438 131.034 74.3868 131.034 74.4398C131.034 74.4928 130.991 74.5358 130.938 74.5358Z" fill="white"/>
<path d="M141.523 74.5358H133.712C133.659 74.5358 133.616 74.4928 133.616 74.4398C133.616 74.3868 133.659 74.3438 133.712 74.3438H141.523C141.576 74.3438 141.619 74.3868 141.619 74.4398C141.619 74.4928 141.577 74.5358 141.523 74.5358Z" fill="#BABABA"/>
<path d="M154.595 74.7697C154.513 74.7697 154.434 74.7437 154.368 74.6947C154.361 74.7017 154.354 74.7087 154.346 74.7167L154.054 75.0087C154.031 75.0327 153.993 75.0337 153.97 75.0107C153.946 74.9877 153.945 74.9497 153.968 74.9267C153.968 74.9267 153.969 74.9257 153.97 74.9247L154.262 74.6327C154.27 74.6247 154.277 74.6177 154.284 74.6107C154.159 74.4387 154.197 74.1967 154.369 74.0717C154.541 73.9467 154.783 73.9847 154.908 74.1567C155.033 74.3287 154.995 74.5707 154.823 74.6957C154.756 74.7437 154.676 74.7697 154.595 74.7697ZM154.595 74.1007C154.439 74.1007 154.312 74.2277 154.312 74.3837C154.312 74.5397 154.439 74.6667 154.595 74.6667C154.751 74.6667 154.878 74.5397 154.878 74.3837C154.878 74.2277 154.751 74.1007 154.595 74.1007Z" fill="#BABABA"/>
<path d="M173.49 69.7173C173.49 69.4073 173.236 69.1543 172.927 69.1543H107.054C106.744 69.1543 106.491 69.4083 106.491 69.7173V72.1433H173.491V69.7173H173.49Z" fill="#627689"/>
<path d="M108.743 71.1136C109 71.1136 109.208 70.9054 109.208 70.6486C109.208 70.3918 109 70.1836 108.743 70.1836C108.486 70.1836 108.278 70.3918 108.278 70.6486C108.278 70.9054 108.486 71.1136 108.743 71.1136Z" fill="#8C9FAF"/>
<path d="M110.692 71.1136C110.948 71.1136 111.157 70.9054 111.157 70.6486C111.157 70.3918 110.948 70.1836 110.692 70.1836C110.435 70.1836 110.227 70.3918 110.227 70.6486C110.227 70.9054 110.435 71.1136 110.692 71.1136Z" fill="#8C9FAF"/>
<path d="M112.641 71.1136C112.898 71.1136 113.106 70.9054 113.106 70.6486C113.106 70.3918 112.898 70.1836 112.641 70.1836C112.384 70.1836 112.176 70.3918 112.176 70.6486C112.176 70.9054 112.384 71.1136 112.641 71.1136Z" fill="#8C9FAF"/>
<path opacity="0.08" d="M108.495 97.4816H107.874C108.116 97.4816 108.315 97.2836 108.315 97.0406C108.315 96.7976 108.117 96.5996 107.874 96.5996H106.49V109.206H107.874C108.116 109.206 108.315 109.008 108.315 108.765C108.315 108.523 108.117 108.324 107.874 108.324H108.495C109.218 108.324 109.809 107.733 109.809 107.01V98.7936C109.809 98.0726 109.218 97.4816 108.495 97.4816Z" fill="#424242"/>
<path d="M106.853 107.448H100.937V96.6075L100.939 96.6055H106.853C107.576 96.6055 108.167 97.1965 108.167 97.9195V106.135C108.166 106.857 107.575 107.448 106.853 107.448Z" fill="#C3D2DB"/>
<path d="M100.348 96.1656C100.348 96.4076 100.546 96.6066 100.789 96.6066H106.231C106.473 96.6066 106.672 96.4086 106.672 96.1656C106.672 95.9236 106.474 95.7246 106.231 95.7246H100.789C100.547 95.7246 100.348 95.9226 100.348 96.1656Z" fill="#9DAEBC"/>
<path d="M100.348 107.888C100.348 108.13 100.546 108.329 100.789 108.329H106.231C106.473 108.329 106.672 108.131 106.672 107.888C106.672 107.646 106.474 107.447 106.231 107.447H100.789C100.547 107.447 100.348 107.646 100.348 107.888Z" fill="#9DAEBC"/>
<path d="M100.325 98.0406V98.7856C100.325 98.9116 100.428 99.0155 100.555 99.0155H107.082C107.208 99.0155 107.312 98.9126 107.312 98.7856V98.0406C107.312 97.9146 107.209 97.8105 107.082 97.8105H100.555C100.428 97.8105 100.325 97.9136 100.325 98.0406Z" fill="#8C9FAF"/>
<path d="M100.325 100.449V101.194C100.325 101.32 100.428 101.424 100.555 101.424H107.082C107.208 101.424 107.312 101.321 107.312 101.194V100.449C107.312 100.323 107.209 100.219 107.082 100.219H100.555C100.428 100.22 100.325 100.323 100.325 100.449Z" fill="#8C9FAF"/>
<path d="M100.325 102.859V103.604C100.325 103.73 100.428 103.834 100.555 103.834H107.082C107.208 103.834 107.312 103.731 107.312 103.604V102.859C107.312 102.733 107.209 102.629 107.082 102.629H100.555C100.428 102.629 100.325 102.733 100.325 102.859Z" fill="#8C9FAF"/>
<path d="M100.325 105.269V106.014C100.325 106.14 100.428 106.244 100.555 106.244H107.082C107.208 106.244 107.312 106.141 107.312 106.014V105.269C107.312 105.143 107.209 105.039 107.082 105.039H100.555C100.428 105.04 100.325 105.143 100.325 105.269Z" fill="#8C9FAF"/>
<path opacity="0.5" d="M103.119 97.8105H101.914V99.0155H103.119V97.8105Z" fill="#F8FDFF"/>
<path opacity="0.5" d="M103.119 100.221H101.914V101.426H103.119V100.221Z" fill="#F8FDFF"/>
<path opacity="0.5" d="M103.119 102.629H101.914V103.834H103.119V102.629Z" fill="#F8FDFF"/>
<path opacity="0.5" d="M103.119 105.039H101.914V106.244H103.119V105.039Z" fill="#F8FDFF"/>
<path opacity="0.08" d="M172.111 96.5996C171.869 96.5996 171.67 96.7976 171.67 97.0406C171.67 97.2836 171.868 97.4816 172.111 97.4816H171.49C170.768 97.4816 170.176 98.0726 170.176 98.7956V107.012C170.176 107.735 170.767 108.326 171.49 108.326H172.111C171.869 108.326 171.67 108.524 171.67 108.767C171.67 109.009 171.868 109.208 172.111 109.208H173.49V96.5996H172.111Z" fill="#424242"/>
<path d="M173.132 107.448H179.048V96.6075L179.046 96.6055H173.132C172.409 96.6055 171.818 97.1965 171.818 97.9195V106.135C171.818 106.857 172.41 107.448 173.132 107.448Z" fill="#C3D2DB"/>
<path d="M179.637 96.1656C179.637 96.4076 179.439 96.6066 179.196 96.6066H173.754C173.512 96.6066 173.313 96.4086 173.313 96.1656C173.313 95.9236 173.511 95.7246 173.754 95.7246H179.196C179.438 95.7246 179.637 95.9226 179.637 96.1656Z" fill="#9DAEBC"/>
<path d="M179.637 107.888C179.637 108.13 179.439 108.329 179.196 108.329H173.754C173.512 108.329 173.313 108.131 173.313 107.888C173.313 107.646 173.511 107.447 173.754 107.447H179.196C179.438 107.447 179.637 107.646 179.637 107.888Z" fill="#9DAEBC"/>
<path d="M179.66 98.0406V98.7856C179.66 98.9116 179.557 99.0155 179.43 99.0155H172.903C172.777 99.0155 172.673 98.9126 172.673 98.7856V98.0406C172.673 97.9146 172.776 97.8105 172.903 97.8105H179.43C179.557 97.8105 179.66 97.9136 179.66 98.0406Z" fill="#8C9FAF"/>
<path d="M179.66 100.449V101.194C179.66 101.32 179.557 101.424 179.43 101.424H172.903C172.777 101.424 172.673 101.321 172.673 101.194V100.449C172.673 100.323 172.776 100.219 172.903 100.219H179.43C179.557 100.22 179.66 100.323 179.66 100.449Z" fill="#8C9FAF"/>
<path d="M179.66 102.859V103.604C179.66 103.73 179.557 103.834 179.43 103.834H172.903C172.777 103.834 172.673 103.731 172.673 103.604V102.859C172.673 102.733 172.776 102.629 172.903 102.629H179.43C179.557 102.629 179.66 102.733 179.66 102.859Z" fill="#8C9FAF"/>
<path d="M179.66 105.269V106.014C179.66 106.14 179.557 106.244 179.43 106.244H172.903C172.777 106.244 172.673 106.141 172.673 106.014V105.269C172.673 105.143 172.776 105.039 172.903 105.039H179.43C179.557 105.04 179.66 105.143 179.66 105.269Z" fill="#8C9FAF"/>
<path opacity="0.5" d="M176.866 99.0156L178.071 99.0156L178.071 97.8106L176.866 97.8106L176.866 99.0156Z" fill="#F8FDFF"/>
<path opacity="0.5" d="M176.866 101.424L178.071 101.424L178.071 100.219L176.866 100.219L176.866 101.424Z" fill="#F8FDFF"/>
<path opacity="0.5" d="M176.866 103.834L178.071 103.834L178.071 102.629L176.866 102.629L176.866 103.834Z" fill="#F8FDFF"/>
<path opacity="0.5" d="M176.866 106.244L178.071 106.244L178.071 105.039L176.866 105.039L176.866 106.244Z" fill="#F8FDFF"/>
<defs>
<radialGradient id="paint0_radial_710_44832" cx="0" cy="0" r="1" gradientUnits="userSpaceOnUse" gradientTransform="translate(139.954 172.986) scale(43.0787 3.73236)">
<stop stop-color="#A0B3BA"/>
<stop offset="0.5446" stop-color="#C3D2DB" stop-opacity="0.6"/>
<stop offset="1" stop-color="#C3D2DB" stop-opacity="0"/>
</radialGradient>
<linearGradient id="paint1_linear_710_44832" x1="140.145" y1="108.426" x2="140.145" y2="105.728" gradientUnits="userSpaceOnUse">
<stop stop-color="#D5E2EB" stop-opacity="0"/>
<stop offset="0.1263" stop-color="#C1D3E3" stop-opacity="0.1263"/>
<stop offset="0.3748" stop-color="#9EBAD7" stop-opacity="0.3748"/>
<stop offset="0.6102" stop-color="#85A9CD" stop-opacity="0.6102"/>
<stop offset="0.8249" stop-color="#769EC8" stop-opacity="0.8249"/>
<stop offset="1" stop-color="#719AC6"/>
</linearGradient>
</defs>
</svg>
