<svg xmlns="http://www.w3.org/2000/svg" viewBox="0 0 280 181.079"><path fill="#FFF" d="M0 0h280v181.079H0z"/><path fill="#EEF4F7" d="M245.782 98.055h-50.805c-3.215 0-5.845-2.63-5.845-5.845l.002-.088h-.01c-.047-3.175-2.657-5.757-5.843-5.757h-37.542c-3.215 0-5.845 2.63-5.845 5.845s2.63 5.845 5.845 5.845h18.564c-.131 0-.26.006-.389.015 3.035.202 5.456 2.747 5.456 5.83 0 3.084-2.421 5.628-5.456 5.83.129.009.258.015.389.015h-8.456c-3.215 0-5.845 2.63-5.845 5.845s2.63 5.845 5.845 5.845h43.955c3.184 0 5.794-2.581 5.843-5.755h.002l-.001-.04.001-.05-.001-.048c.027-3.192 2.646-5.795 5.844-5.795h-.579l.026-.003h34.845c3.215 0 5.845-2.63 5.845-5.845.001-3.214-2.63-5.844-5.845-5.844z"/><radialGradient id="a" cx="574.696" cy="-14.862" r="13.101" gradientTransform="matrix(3.2883 0 0 .2849 -1802.418 176.778)" gradientUnits="userSpaceOnUse"><stop offset="0" stop-color="#a0b3ba"/><stop offset=".545" stop-color="#c3d2db" stop-opacity=".6"/><stop offset="1" stop-color="#c3d2db" stop-opacity="0"/></radialGradient><ellipse fill="url(#a)" cx="87.341" cy="172.544" rx="43.078" ry="3.732"/><path fill="#EEF4F7" d="M31.849 117.952h-14.33c-3.215 0-5.845-2.63-5.845-5.845s2.63-5.845 5.845-5.845h14.33c3.215 0 5.845 2.63 5.845 5.845.001 3.214-2.63 5.845-5.845 5.845zM68.519 139.623H47.222c-3.215 0-5.845-2.63-5.845-5.845s2.63-5.845 5.845-5.845H68.52c3.215 0 5.845 2.63 5.845 5.845 0 3.214-2.631 5.845-5.846 5.845zM147.683 11.69h-26.625c-3.215 0-5.845-2.63-5.845-5.845S117.843 0 121.058 0h26.625c3.215 0 5.845 2.63 5.845 5.845s-2.631 5.845-5.845 5.845zM51.896 27.423h-6.623c-3.215 0-5.845-2.63-5.845-5.845s2.63-5.845 5.845-5.845h6.623c3.215 0 5.845 2.63 5.845 5.845 0 3.214-2.63 5.845-5.845 5.845zM137.598 69.528h-17.791c-3.215 0-5.845-2.63-5.845-5.845s2.63-5.845 5.845-5.845h17.791c3.215 0 5.845 2.63 5.845 5.845s-2.63 5.845-5.845 5.845zM7.108 70.11H27.91c3.215 0 5.845-2.63 5.845-5.845l-.002-.088h.01c.047-3.175 2.657-5.757 5.843-5.757h41.542c3.215 0 5.845 2.63 5.845 5.845s-2.63 5.845-5.845 5.845H58.583c.131 0 .26.006.389.015-3.035.202-5.456 2.747-5.456 5.83s2.421 5.628 5.456 5.83a5.57 5.57 0 01-.389.015H70.04c3.215 0 5.845 2.63 5.845 5.845s-2.63 5.845-5.845 5.845H23.084c-3.184 0-5.794-2.581-5.843-5.755h-.002l.001-.04-.001-.05.001-.048c-.027-3.192-2.646-5.795-5.844-5.795h.579l-.026-.002H7.108c-3.215 0-5.845-2.63-5.845-5.845s2.63-5.845 5.845-5.845zM237.087 41.343h-17.626c-3.182-.039-5.773-2.652-5.773-5.843l.002-.088h-.005c-.046-3.175-2.657-5.759-5.843-5.759h-30.121c-3.215 0-5.845 2.63-5.845 5.845s2.63 5.845 5.845 5.845h5.458l.024.003h-.53c3.185 0 5.795 2.582 5.843 5.756l-.002.086.002.088v.002c.049 3.173 2.658 5.755 5.843 5.755h42.728c3.215 0 5.845-2.63 5.845-5.845s-2.63-5.845-5.845-5.845z"/><path fill="#C3D2DB" d="M59.776 86.114c-3.992-2.957-6.898-5.282-8.007-10.951h-5.344v.646c-.017 9.961 5.377 17.52 12.515 20.47h.267c.204-.003.354-.072.563 0h.003v.001l.003.001V86.114z"/><path fill="#8C9FAF" d="M58.191 83.558H59.2v12.723h-1.009a1.99 1.99 0 01-1.985-1.985v-8.752a1.99 1.99 0 011.985-1.986z"/><path fill="#C3D2DB" d="M68.423 127.119h7.858v32.096h-7.858z"/><circle fill="#9DAEBC" cx="72.352" cy="141.822" r="5.17"/><circle fill="#DDE6EB" cx="72.352" cy="141.822" r="3.929"/><circle fill="#8C9FAF" cx="72.352" cy="141.822" r="2.951"/><path fill="#8C9FAF" d="M77.269 127.119h-9.834a2.958 2.958 0 01-2.949-2.949v-.749a2.958 2.958 0 012.949-2.949h9.834a2.958 2.958 0 012.949 2.949v.749a2.959 2.959 0 01-2.949 2.949zM69.222 159.022h6.26c1.26 0 2.29 1.031 2.29 2.29 0 1.26-1.031 2.29-2.29 2.29h-6.26a2.297 2.297 0 01-2.29-2.29c0-1.26 1.03-2.29 2.29-2.29zM106.86 127.119h-9.834a2.958 2.958 0 01-2.949-2.949v-.749a2.958 2.958 0 012.949-2.949h9.834a2.958 2.958 0 012.949 2.949v.749a2.958 2.958 0 01-2.949 2.949zM103.132 70.713H71.138a.388.388 0 01-.387-.387v-1.244c0-.213.174-.387.387-.387h31.995c.213 0 .387.174.387.387v1.244a.39.39 0 01-.388.387z"/><path fill="#C3D2DB" d="M103.132 68.695H71.138a.388.388 0 01-.387-.387v-1.244c0-.213.174-.387.387-.387h31.995c.213 0 .387.174.387.387v1.244a.39.39 0 01-.388.387z"/><path fill="#8C9FAF" d="M103.08 75.336H71.19a.441.441 0 01-.44-.44V73.17c0-.242.198-.44.44-.44h31.889c.242 0 .44.198.44.44v1.726a.44.44 0 01-.439.44z"/><path fill="#C3D2DB" d="M103.132 72.731H71.138a.388.388 0 01-.387-.387V71.1c0-.213.174-.387.387-.387h31.995c.213 0 .387.174.387.387v1.244a.39.39 0 01-.388.387z"/><path fill-rule="evenodd" clip-rule="evenodd" fill="#C3D2DB" d="M105.25 58.311l2.242-1.011v-9.607h-2.242zM68.984 58.311L66.742 57.3v-9.607h2.242z"/><path fill="#C3D2DB" d="M102.85 66.895H71.267a2.888 2.888 0 01-2.88-2.88V45.984a2.888 2.888 0 012.88-2.88h31.583a2.888 2.888 0 012.88 2.88v18.031a2.888 2.888 0 01-2.88 2.88z"/><path fill="#6F98C1" d="M96.311 45.407l-.26.001-.264.001h-17.37l-.264-.001-.26-.001c-.609 0-2.464 0-2.464 1.988v5.882a2.99 2.99 0 002.987 2.987h17.371a2.99 2.99 0 002.987-2.987v-5.882c.001-1.988-1.854-1.988-2.463-1.988z"/><path fill="#9EC5DD" d="M95.473 55.262H78.732a2.307 2.307 0 01-2.3-2.3v-5.411c0-.629.51-1.14 1.14-1.14h17.902a2.3 2.3 0 012.3 2.3v4.25a2.308 2.308 0 01-2.301 2.301z"/><path opacity=".6" fill="#FFF" d="M90.918 46.411h.761v8.851h-.761zM92.433 46.411h1.934v8.851h-1.934z"/><path fill="#627689" d="M107.99 42.201c0-11.343-9.281-20.624-20.624-20.624-11.343 0-20.624 9.281-20.624 20.624v5.492h41.248v-5.492z"/><path fill-rule="evenodd" clip-rule="evenodd" fill="#849AAD" d="M66.742 47.693s7.588-5.303 26.446-6.247c20.895-1.047 21.659 6.247 21.659 6.247H66.742z"/><path fill-rule="evenodd" clip-rule="evenodd" fill="#627689" d="M67.669 47.693s8.244-4.255 25.062-5.053c21.041-.998 21.698 5.053 21.698 5.053h-46.76z"/><path opacity=".1" d="M87.272 52.333c17.92.045 20.219-2.946 20.219-2.946v-1.693h-40.75c.008.025 1.248 4.59 20.531 4.639z"/><path fill="#C1D4E0" d="M91.86 35.253l1.782-4.893h-5.543c-2.573 0-5.146 1.369-5.146 4.11 0 2.741 3.563 3.327 5.344 1.37 0 .587.396.979 1.584.979h4.327l.57-1.566H91.86zm-3.563 0c-.99 0-1.584-.196-1.584-.783 0-.392.843-2.153 1.041-2.74h1.929l-1.386 3.523z"/><path fill="#C3D2DB" d="M109.156 124.378H65.139c-3.267 0-5.94-2.673-5.94-5.94v-37.75c0-3.267 2.673-5.94 5.94-5.94h44.017c3.267 0 5.94 2.673 5.94 5.94v37.75c-.001 3.267-2.673 5.94-5.94 5.94z"/><path fill="#8C9FAF" d="M59.199 114.931h55.896v.484H59.199z"/><path fill="#F8FDFF" d="M59.199 118.346h55.896v.484H59.199z"/><path fill="#8C9FAF" d="M59.199 81.859h55.896v.484H59.199z"/><path fill="#F8FDFF" d="M59.199 85.274h55.896v.484H59.199z"/><path fill="#8C9FAF" d="M101.991 96.408v-1.37a5.718 5.718 0 00-3.928-1.558 5.752 5.752 0 00-5.5 4.07h-10.83a5.752 5.752 0 00-5.5-4.07 5.716 5.716 0 00-3.928 1.558v1.37h3.882l1.9 2.823-1.9 2.823h-3.882v1.37a5.718 5.718 0 003.928 1.558 5.752 5.752 0 005.5-4.07h10.83a5.752 5.752 0 005.5 4.07 5.716 5.716 0 003.928-1.558v-1.37h-3.882l-1.9-2.823 1.9-2.823h3.882z"/><path fill="#C3D2DB" d="M72.352 160.775c-6.38 0-11.741 4.362-13.264 10.265h26.528c-1.524-5.904-6.885-10.265-13.264-10.265z"/><path fill="#8C9FAF" d="M85.075 172.512H59.628a1.17 1.17 0 01-1.167-1.167v-.049a1.17 1.17 0 011.167-1.167h25.447a1.17 1.17 0 011.167 1.167v.049a1.17 1.17 0 01-1.167 1.167z"/><path fill="#C3D2DB" d="M98.014 127.119h7.858v32.096h-7.858z"/><circle fill="#9DAEBC" cx="101.943" cy="141.822" r="5.17"/><circle fill="#DDE6EB" cx="101.943" cy="141.822" r="3.929"/><circle fill="#8C9FAF" cx="101.943" cy="141.822" r="2.951"/><path fill="#8C9FAF" d="M98.813 159.022h6.26c1.26 0 2.29 1.031 2.29 2.29 0 1.26-1.031 2.29-2.29 2.29h-6.26a2.297 2.297 0 01-2.29-2.29c0-1.26 1.031-2.29 2.29-2.29z"/><path fill="#C3D2DB" d="M101.943 160.775c-6.38 0-11.741 4.362-13.264 10.265h26.528c-1.523-5.904-6.884-10.265-13.264-10.265z"/><path fill="none" d="M83.856 59.474h6.292c.698 0 1.267-.568 1.267-1.267v-1.946h-8.826v1.946c0 .699.569 1.267 1.267 1.267zM83.856 61.475h6.292c.698 0 1.267-.568 1.267-1.267v-.173h-8.826v.173a1.27 1.27 0 001.267 1.267z"/><path fill="#8C9FAF" d="M91.415 59.647c0 .699-.569 1.267-1.267 1.267h-6.292a1.268 1.268 0 01-1.267-1.267v-.173h-1.934v.173a3.205 3.205 0 003.201 3.201h6.292a3.205 3.205 0 003.202-3.201v-.173h-1.935v.173zM114.666 172.512H89.22a1.17 1.17 0 01-1.167-1.167v-.049a1.17 1.17 0 011.167-1.167h25.447a1.17 1.17 0 011.167 1.167v.049c0 .641-.526 1.167-1.168 1.167z"/><path opacity=".6" fill="#8C9FAF" d="M71.261 66.895h31.583c.868 0 1.64-.397 2.169-1.009h-35.92a2.863 2.863 0 002.168 1.009z"/><path fill="#C3D2DB" d="M51.269 53.559h-4.862l.012 13.733h4.85z"/><path fill="#8C9FAF" d="M45.879 68.413h5.822c.615 0 1.119-.504 1.119-1.119v-.003c0-.615-.504-1.119-1.119-1.119h-5.822c-.615 0-1.119.504-1.119 1.119v.003c0 .615.503 1.119 1.119 1.119zM45.879 71.255h5.822c.615 0 1.119-.504 1.119-1.119v-.003c0-.615-.504-1.119-1.119-1.119h-5.822c-.615 0-1.119.504-1.119 1.119v.003c0 .615.503 1.119 1.119 1.119zM45.879 74.096h5.822c.615 0 1.119-.504 1.119-1.119v-.003c0-.615-.504-1.119-1.119-1.119h-5.822c-.615 0-1.119.504-1.119 1.119v.003c0 .616.503 1.119 1.119 1.119zM45.879 76.936h5.822c.615 0 1.119-.504 1.119-1.119v-.003c0-.615-.504-1.119-1.119-1.119h-5.822c-.615 0-1.119.504-1.119 1.119v.003c0 .615.503 1.119 1.119 1.119z"/><path opacity=".6" fill="#8C9FAF" d="M49.899 59.006c.487 0 .949.101 1.37.28V53.63l-.419.919-4.443 2.742v5.207a3.492 3.492 0 013.492-3.492z"/><path fill="#C3D2DB" d="M114.518 86.114c3.992-2.957 6.898-5.282 8.007-10.951h5.344v.646c.017 9.961-5.377 17.52-12.515 20.47h-.267c-.204-.003-.354-.072-.563 0h-.003v.001l-.003.001V86.114z"/><path fill="#8C9FAF" d="M116.104 83.558h-1.009v12.723h1.009a1.99 1.99 0 001.985-1.985v-8.752a1.99 1.99 0 00-1.985-1.986z"/><path fill="#C3D2DB" d="M123.025 53.799h4.862l-.012 13.493h-4.85z"/><path fill="#8C9FAF" d="M128.416 68.413h-5.822a1.123 1.123 0 01-1.119-1.119v-.003c0-.615.504-1.119 1.119-1.119h5.822c.615 0 1.119.504 1.119 1.119v.003c0 .615-.504 1.119-1.119 1.119zM128.416 71.255h-5.822a1.123 1.123 0 01-1.119-1.119v-.003c0-.615.504-1.119 1.119-1.119h5.822c.615 0 1.119.504 1.119 1.119v.003c0 .615-.504 1.119-1.119 1.119zM128.416 74.096h-5.822a1.123 1.123 0 01-1.119-1.119v-.003c0-.615.504-1.119 1.119-1.119h5.822c.615 0 1.119.504 1.119 1.119v.003c0 .616-.504 1.119-1.119 1.119zM128.416 76.936h-5.822a1.123 1.123 0 01-1.119-1.119v-.003c0-.615.504-1.119 1.119-1.119h5.822c.615 0 1.119.504 1.119 1.119v.003c0 .615-.504 1.119-1.119 1.119z"/><path opacity=".6" fill="#8C9FAF" d="M124.395 59.006a3.49 3.49 0 00-1.37.28v-5.594l4.862 3.598v5.207a3.492 3.492 0 00-3.492-3.491z"/><path fill="none" d="M59.207 96.279h.563c-.21-.072-.359-.002-.563 0z"/><path fill="#8C9FAF" d="M135.965 36.534l-1.877-.526-8.019 13.432 2.035 1.224 2.45-3.975z"/><path fill="#C3D2DB" d="M135.904 36.5l-1.675-.179-1.183 2.104.958.541-.254.373-1.046-.274-1.307 2.162.634.579-.058.304-.867-.298-1.119 1.848.802.368-.426.707-1.014-.177-1.321 2.34.244 3.35 2.224-3.727z"/><path fill="#8C9FAF" d="M132.759 38.209l-1.393-.39-5.956 9.974 1.512.909 1.819-2.952z"/><path fill="#C3D2DB" d="M132.714 38.184l-1.244-.133-.878 1.562.711.402-.189.277-.776-.203-.971 1.605.471.43-.043.226-.644-.222-.831 1.373.596.273-.317.525-.753-.132-.981 1.738.182 2.488 1.651-2.768z"/><path fill="#8C9FAF" d="M140.909 35.436l-1.877-.526-8.02 13.431 2.036 1.225 2.45-3.975z"/><path fill="#C3D2DB" d="M140.848 35.402l-1.675-.179-1.183 2.104.958.541-.255.373-1.045-.274-1.307 2.162.634.579-.058.304-.867-.298-1.119 1.848.802.368-.426.707-1.014-.178-1.321 2.341.244 3.349 2.223-3.726z"/><path fill="#8C9FAF" d="M138.445 36.017l-1.876-.526-8.02 13.431 2.036 1.224 2.45-3.975z"/><path fill="#C3D2DB" d="M138.385 35.982l-1.676-.179-1.182 2.105.958.54-.255.374-1.045-.274-1.308 2.162.635.578-.058.304-.867-.298-1.119 1.849.802.367-.427.707-1.013-.177-1.322 2.34.245 3.35 2.223-3.727z"/><path fill="#C3D2DB" d="M133.148 45.996l-3.564-2.012a1.77 1.77 0 00-2.404.669l-4.496 7.965a1.77 1.77 0 00.669 2.404l3.564 2.012a1.77 1.77 0 002.404-.669l4.496-7.965a1.77 1.77 0 00-.669-2.404z"/><path opacity=".7" fill="#8C9FAF" d="M123.212 51.675l6.646 3.752-.239.422-6.646-3.751z"/><path opacity=".7" fill="#F8FDFF" d="M126.876 45.174l6.646 3.752-.239.423-6.646-3.752z"/><ellipse transform="rotate(-60.554 131.636 50.076)" fill="#9DAEBC" cx="131.63" cy="50.074" rx="2.602" ry="2.596"/><ellipse transform="rotate(-60.554 131.636 50.076)" fill="#DDE6EB" cx="131.63" cy="50.074" rx="1.988" ry="1.984"/><ellipse transform="rotate(-60.554 131.636 50.076)" fill="#8C9FAF" cx="131.63" cy="50.074" rx="1.493" ry="1.49"/><path fill="#8C9FAF" d="M38.291 36.542l1.876-.526 8.02 13.431-2.036 1.224-2.45-3.974z"/><path fill="#C3D2DB" d="M38.351 36.508l1.676-.179 1.182 2.104-.958.541.255.373 1.045-.274 1.308 2.162-.635.579.058.304.867-.299 1.119 1.849-.802.368.427.707 1.013-.178 1.321 2.341-.244 3.349-2.223-3.727z"/><path fill="#8C9FAF" d="M41.496 38.217l1.394-.391 5.955 9.975-1.511.909-1.82-2.952z"/><path fill="#C3D2DB" d="M41.541 38.191l1.244-.132.878 1.562-.711.402.189.277.776-.203.971 1.605-.47.43.042.226.644-.222.831 1.373-.595.273.316.525.753-.132.981 1.738-.181 2.488-1.651-2.768z"/><path fill="#8C9FAF" d="M33.347 35.444l1.876-.526 8.02 13.431-2.036 1.224-2.45-3.974z"/><path fill="#C3D2DB" d="M33.408 35.41l1.675-.179 1.182 2.104-.957.541.254.373 1.045-.274 1.308 2.162-.634.579.057.304.867-.299 1.119 1.849-.801.368.426.707 1.014-.178 1.321 2.341-.245 3.349-2.223-3.727z"/><path fill="#8C9FAF" d="M35.81 36.024l1.876-.525 8.02 13.431-2.035 1.224-2.451-3.975z"/><path fill="#C3D2DB" d="M35.871 35.99l1.675-.179 1.182 2.105-.957.54.254.374 1.045-.275 1.308 2.162-.634.579.058.304.867-.298 1.119 1.849-.802.367.426.707 1.014-.177 1.321 2.34-.244 3.35-2.224-3.727z"/><path fill="#C3D2DB" d="M41.107 46.004l3.564-2.012a1.77 1.77 0 012.404.669l4.496 7.965a1.77 1.77 0 01-.669 2.404l-3.564 2.012a1.77 1.77 0 01-2.404-.669l-4.496-7.965a1.77 1.77 0 01.669-2.404z"/><path opacity=".7" fill="#8C9FAF" d="M51.276 52.108l-6.645 3.752-.239-.423 6.646-3.752z"/><path opacity=".7" fill="#F8FDFF" d="M47.613 45.606l-6.646 3.751-.238-.422 6.646-3.752z"/><ellipse transform="rotate(-29.448 42.62 50.081)" fill="#9DAEBC" cx="42.625" cy="50.082" rx="2.596" ry="2.602"/><ellipse transform="rotate(-29.448 42.62 50.081)" fill="#DDE6EB" cx="42.625" cy="50.082" rx="1.984" ry="1.988"/><ellipse transform="rotate(-29.448 42.62 50.081)" fill="#8C9FAF" cx="42.625" cy="50.082" rx="1.49" ry="1.493"/><path fill="#BB8955" d="M233.424 72.714h7.995v99.798h-7.995z"/><path fill="#96622F" d="M233.424 72.714h3.495v99.798h-3.495z"/><path fill="#8CB770" d="M259.864 170.335a4.128 4.128 0 00-4.128-4.128c-.827 0-1.593.249-2.239.667-1.353-1.429-3.17-2.48-5.244-2.943-.847-2.862-2.842-5.299-5.51-6.858a4.035 4.035 0 00-3.95-3.963 4.04 4.04 0 00-1.293.187 6.095 6.095 0 00-.296-.283c.2-.389.326-.823.336-1.29a2.974 2.974 0 00-2.912-3.035 2.961 2.961 0 00-2.588 1.427 2.986 2.986 0 00-.893-.162 2.997 2.997 0 00-3.058 2.934c-.002.117.017.228.027.341a5.847 5.847 0 00-.626.755c-.112-.015-.222-.039-.338-.041a2.974 2.974 0 00-3.035 2.912 2.949 2.949 0 00.683 1.938 2.659 2.659 0 00-.77 1.82c-.01.481.117.928.33 1.324a10.979 10.979 0 00-.82 2.082 2.952 2.952 0 00-1.705-.588 2.97 2.97 0 00-3.025 2.831 4.229 4.229 0 00-.856 1.125 7.95 7.95 0 00-1.495-1.526c.154-.349.24-.72.24-1.106 0-.705-.288-1.358-.767-1.913.003-.065.02-.127.02-.193a4.113 4.113 0 00-8.226 0c0 .038.01.073.011.11a3.29 3.29 0 00-.626.955c-3.579.561-6.439 2.53-7.457 5.078-2.669.43-4.805 1.86-5.696 3.72h65.273a4.099 4.099 0 00.633-2.177z"/><path fill="#9EC683" d="M245.128 168.393a5.91 5.91 0 00-.157-2.082 2.465 2.465 0 00-1.744-4.079 2.562 2.562 0 00-.128-.369 2.62 2.62 0 00-3.338-1.384 2.488 2.488 0 00-4.596 1.865 4.817 4.817 0 00-3.627.109c-.076.034-.147.074-.221.111a3.54 3.54 0 10-2.898 6.028c-.021-.041-.044-.079-.063-.121a2.775 2.775 0 011.418-3.66 2.762 2.762 0 012.741.299c.208-.183.443-.342.711-.46a2.796 2.796 0 013.687 1.428c.044.1.068.202.099.304.283.119.553.262.811.425.091-.053.177-.113.276-.157a2.775 2.775 0 013.66 1.418 2.75 2.75 0 01.108 1.915c.504.211.93.593 1.209 1.1a4.562 4.562 0 012.052-2.69zM214.402 168.721c0-.155.028-.302.068-.444.051-.183.137-.35.243-.502a1.946 1.946 0 00-.828-.19 1.957 1.957 0 101.79 2.744 1.653 1.653 0 01-1.273-1.608z"/><path fill="#9EC683" d="M212.844 166.508a1.654 1.654 0 01-1.392.763c-.134 0-.262-.02-.386-.05a1.647 1.647 0 01-1.252-1.493 2.456 2.456 0 00-1.339 1.652 3.514 3.514 0 012.487 3.001 2.448 2.448 0 002.35-2.443 2.453 2.453 0 00-.468-1.43z"/><path fill="#EDA04B" d="M268.757 92.716h-34.333c-.55 0-1-.45-1-1V65.819c0-9.992 8.175-18.167 18.167-18.167s18.167 8.175 18.167 18.167v25.897c-.001.55-.451 1-1.001 1z"/><path fill="#EDA04B" d="M200.585 47.652h51.005v45.064h-51.005z"/><path fill="#F8BD60" d="M209.419 53.132v10.5h60.192a18.126 18.126 0 00-5.06-10.5h-55.132z"/><path fill="#F8BD60" d="M217.752 92.716h-34.333c-.55 0-1-.45-1-1V65.819c0-9.992 8.175-18.167 18.167-18.167s18.167 8.175 18.167 18.167v25.897c-.001.55-.451 1-1.001 1z"/><path fill="#EDA04B" d="M183.373 92.716h34.426c.525 0 .954.429.954.954v21.88c0 9.992-8.175 18.167-18.167 18.167s-18.167-8.175-18.167-18.167V93.67c0-.525.429-.954.954-.954z"/><path fill="#627689" d="M216.427 90.716h-31.682a.925.925 0 01-.923-.923V65.895c0-9.22 7.544-16.764 16.764-16.764 9.22 0 16.764 7.544 16.764 16.764v23.897a.927.927 0 01-.923.924z"/><linearGradient id="b" gradientUnits="userSpaceOnUse" x1="215.825" y1="73.955" x2="197.992" y2="54.955"><stop offset="0" stop-color="#405261" stop-opacity=".2"/><stop offset="1" stop-color="#3b4c5b"/></linearGradient><path opacity=".6" fill="url(#b)" d="M217.349 89.793V65.895c0-9.22-7.544-16.764-16.764-16.764-6.44 0-12.052 3.686-14.857 9.047l31.62 31.62.001-.005z"/><path fill="#F1AA52" d="M218.692 116.74l-24.024-24.024h-6.835l29.594 29.594a17.995 17.995 0 001.265-5.57zM183.373 92.716a.956.956 0 00-.954.954v1.703l31.954 31.954a18.251 18.251 0 001.579-2.153l-32.458-32.458h-.121zM182.419 110.63l22.53 22.53a18.04 18.04 0 004.929-2.042L182.42 103.66v6.97z"/><path fill="#D88736" d="M188.554 93.548h-3.955a.78.78 0 01-.778-.778v-.007a.78.78 0 01.778-.778h3.955a.78.78 0 01.778.778v.007a.78.78 0 01-.778.778zM216.572 93.548h-3.955a.78.78 0 01-.778-.778v-.007a.78.78 0 01.778-.778h3.955a.78.78 0 01.778.778v.007a.781.781 0 01-.778.778z"/><linearGradient id="c" gradientUnits="userSpaceOnUse" x1="215.779" y1="50.346" x2="227.612" y2="65.346"><stop offset="0" stop-color="#bd6b21" stop-opacity="0"/><stop offset="1" stop-color="#cc6e19"/></linearGradient><path opacity=".5" fill="url(#c)" d="M233.523 68.965c-.263 0-.516.034-.762.089L218.05 47.652h-9.15l21.371 23.535a3.483 3.483 0 00-.249 1.278 3.5 3.5 0 103.501-3.5z"/><g><circle fill="#3C4349" cx="235.086" cy="72.465" r="3.5"/><path fill="#3C4349" d="M233.586 36.611h3v33.823h-3z"/><path fill="#3C4349" d="M233.586 36.611h9.959v6.092h-9.959z"/><circle fill="#9DADBA" cx="235.086" cy="72.465" r="1.642"/></g><g fill-rule="evenodd" clip-rule="evenodd"><path fill="#6E534A" d="M163.34 64.847c.612.091 8.089 1.872 12.134 2.702 4.045.83 4.917 1.157 4.998 1.468.081.311-4.284.85-4.284.85s4.524.907 4.488 1.41c-.036.503-3.538 1.137-9.041-.74-5.503-1.876-8.82-3.635-8.82-3.635l.525-2.055z"/><path fill="#947765" d="M163.246 65.69c.478.071 5.214 2.256 8.377 2.905 3.163.649 4.955.112 5.019.355.063.243-3.349.665-3.349.665s-1.202-.057-1.23.337c-.028.393.749.573-2.735-.542-4.353-1.392-6.285-2.921-6.285-2.921l.203-.799z"/><path fill="#584330" d="M166.719 53.215c-.406.08-.79.974-.868 1.074.037-.112 1.081-3.352.816-4.839-.01-.054-.695 1.041-.963 1.265.454-1.768-.142-3.52-.478-4.032-1.494 2.849-5.089 8.087-8.035 8.586-5.828.988-4.161 8.036 1.157 7.553 5.929-.54 8.011-5.921 8.371-9.607z"/><path fill="#FF893F" d="M155.728 69.389c-.332.386-.471.791-.587 1.215-.403-.82.132-1.321.76-1.62l-1.163-1.14.278-.284 1.287 1.261c.211-.187.537-.284.689-.25-.709.363-.282 1.653-.042 1.888-.658-.43-.869-.87-.724-1.272-.201.322-.329.748.06 1.288-.528-.227-.74-.685-.558-1.086zM147.892 52.198a4.958 4.958 0 01-1.751-1.005 10.44 10.44 0 002.063.249l-.312.756z"/><path fill="#FF893F" d="M149.224 50.523a4.038 4.038 0 00-2.164-1.174 293.396 293.396 0 01.826 2.547c.145-.028.596-.135.953-.548.281-.324.36-.67.385-.825z"/><path fill="#AD9380" d="M157.191 55.268c-.382-4.346-4.147-6.444-8.203-4.842-7.777 4.516-.534 16.384 6.831 17.893 5.766 1.182 9.406-.348 9.425-.344 4.106-3.941-7.133-7.272-8.053-12.707z"/><path fill="#CCB5A6" d="M145.651 56.466c.227 5.031 5.168 10.829 10.168 11.854 2.397.492 4.427.514 5.982.373-2.083-.743-4.777-1.865-7.264-3.399-4.759-2.936-5.344-4.707-5.116-4.519.228.188 3.309 1.824 2.738 1.513-.571-.311-3.323-3.072-3.177-2.974.147.098 1.237.279 1.237.279s-2.871-3.057-4.568-3.127z"/><path fill="#725E54" d="M171.085 59.412c-.453-.114-1.276.613-1.404.676.092-.096 2.72-2.897 3.167-4.542.016-.06-1.211.727-1.593.825 1.316-1.585 1.553-3.659 1.458-4.344-2.898 2.185-11.215 4.941-14.461 4.028-6.422-1.805-6 7.044-.343 9.116 6.309 2.313 11.029-2.172 13.176-5.759z"/><circle transform="rotate(-56.22 150.763 51.92)" fill="#584330" cx="150.76" cy="51.923" r=".816"/><circle transform="rotate(-56.22 150.53 51.595)" fill="#FFF" cx="150.526" cy="51.598" r=".287"/><path fill="#FF893F" d="M158.07 69.894c-.353.41-.501.84-.625 1.29-.427-.871.141-1.402.808-1.72l-1.235-1.21c-.265-.265.06-.522.295-.301l1.366 1.338c.224-.199.571-.301.733-.265-.754.386-.3 1.754-.044 2.005-.7-.456-.924-.923-.769-1.351-.213.342-.35.793.063 1.367-.56-.24-.784-.727-.592-1.153z"/><path fill="#947765" d="M171.085 59.412c-1.14 1.904-3.005 4.062-5.448 5.321-.294.151-.596.29-.906.413a9.457 9.457 0 01-1.59.477c-1.583.324-3.336.244-5.232-.451-2.728-.999-4.239-3.574-4.352-5.77a4.318 4.318 0 01.217-1.657c.141.949.634 3.103 2.265 4.059 1.451.85 2.09 1.004 2.455 1.002.154-.001.26-.029.356-.044l.027-.004h.001c.33-.042-.81.403-1.144.427-.334.024.856.36 3.662.185 1.008-.063 1.88-.23 2.592-.429 1.272-.355 2.037-.812 2.157-.958.188-.228-.818 1.222-1.063 1.377-.245.155.808-.097 2.816-1.301 2.01-1.204 3.187-2.647 3.187-2.647z"/></g><path fill-rule="evenodd" clip-rule="evenodd" fill="#947765" d="M177.889 59.259c.267-.184 2.283-.094 2.662-.567.175-.219.186-1.01-.607-1.051-.762-.039-1.442.84-2.071 1.319-.407.31.016.299.016.299zM164.367 75.271c.275.255 2.064 2.285 2.549 1.473.79-1.321-1.193-1.148-2.027-1.524-.188-.084-1.265-.64-.522.051zM174.008 62.219c.25.207 2.076.978 2.483.846 1.42-.462.537-1.741-.367-1.473-.731.217-.938.456-1.726.386-.176-.017-1.449-.635-.39.241z"/></svg>