<svg width="280" height="182" viewBox="0 0 280 182" fill="none" xmlns="http://www.w3.org/2000/svg"><path d="M150.336 70.378h8.123l.026.003h-.579c3.198 0 5.816 2.603 5.844 5.795l-.001.048.001.05-.001.04h.002c.049 3.173 2.658 5.755 5.843 5.755h41.653c3.215 0 5.845-2.63 5.845-5.845s-2.63-5.845-5.845-5.845h-22.423l-.026-.003h.579c-3.198 0-5.816-2.603-5.844-5.795l.001-.048-.001-.05.001-.04h-.002c-.049-3.173-2.658-5.755-5.843-5.755h-27.353c-3.215 0-5.845 2.63-5.845 5.845s2.63 5.845 5.845 5.845zM119.303 30.4H97.501c-3.215 0-5.845-2.63-5.845-5.845l.002-.088h-.01c-.047-3.175-2.657-5.757-5.843-5.757H44.262c-3.215 0-5.845 2.63-5.845 5.845s2.63 5.845 5.845 5.845h22.565c-.131 0-.26.006-.389.015 3.035.202 5.456 2.747 5.456 5.83 0 3.084-2.421 5.628-5.456 5.83.129.009.258.015.389.015H55.371c-3.215 0-5.845 2.63-5.845 5.845s2.63 5.845 5.845 5.845h46.956c3.184 0 5.794-2.581 5.843-5.755h.002l-.001-.04.001-.05-.001-.048c.027-3.192 2.646-5.795 5.844-5.795h-.579l.026-.003h5.842c3.215 0 5.845-2.63 5.845-5.845-.001-3.213-2.631-5.844-5.846-5.844zM210.208 29.986h-18.791c-3.215 0-5.845-2.63-5.845-5.845s2.63-5.845 5.845-5.845h18.791c3.215 0 5.845 2.63 5.845 5.845s-2.63 5.845-5.845 5.845zM233.208 106.667h-18.791c-3.215 0-5.845-2.63-5.845-5.845s2.63-5.845 5.845-5.845h18.791c3.215 0 5.845 2.63 5.845 5.845s-2.63 5.845-5.845 5.845zM63.516 88.747H37.914c-3.215 0-5.845-2.63-5.845-5.845s2.63-5.845 5.845-5.845h25.602c3.215 0 5.845 2.63 5.845 5.845s-2.63 5.845-5.845 5.845zM198.242 129.004h-31.77c-3.215 0-5.845-2.63-5.845-5.845s2.63-5.845 5.845-5.845h31.77c3.215 0 5.845 2.63 5.845 5.845.001 3.214-2.63 5.845-5.845 5.845zM122.238 136.004h-31.77c-3.215 0-5.845-2.63-5.845-5.845s2.63-5.845 5.845-5.845h31.77c3.215 0 5.845 2.63 5.845 5.845s-2.631 5.845-5.845 5.845zM231.773 29.986a5.845 5.845 0 100-11.69 5.845 5.845 0 000 11.69zM48.799 136.004a5.845 5.845 0 100-11.69 5.845 5.845 0 000 11.69z" fill="#EEF4F7"/><path d="M87.318 172.971c-5.353 0-9.826-1.082-13.417-3.244-3.593-2.162-6.307-5.15-8.139-8.964-1.833-3.812-2.75-8.248-2.75-13.308v-30.362c0-5.205.861-9.77 2.584-13.692 1.722-3.922 4.38-6.984 7.974-9.184 3.592-2.2 8.175-3.3 13.748-3.3 5.571 0 10.135 1.1 13.693 3.3 3.555 2.199 6.195 5.262 7.918 9.184 1.722 3.923 2.584 8.487 2.584 13.692v30.362c0 4.987-.917 9.403-2.75 13.253-1.833 3.85-4.547 6.856-8.139 9.019-3.592 2.162-8.027 3.244-13.306 3.244zm0-16.387c1.76 0 3.024-.567 3.794-1.705.77-1.136 1.246-2.455 1.43-3.959.182-1.502.275-2.805.275-3.904v-29.483c0-1.246-.074-2.656-.22-4.234-.148-1.575-.605-2.969-1.375-4.179-.77-1.21-2.072-1.814-3.904-1.814-1.833 0-3.134.604-3.904 1.814s-1.229 2.604-1.375 4.179a45.747 45.747 0 00-.22 4.234v29.483c0 1.1.11 2.402.33 3.904.22 1.504.715 2.823 1.485 3.959.769 1.138 1.996 1.705 3.684 1.705z" fill="#DABF91"/><path d="M139.989 176.703c23.791 0 43.078-1.671 43.078-3.732s-19.287-3.732-43.078-3.732c-23.791 0-43.078 1.671-43.078 3.732s19.287 3.732 43.078 3.732z" fill="url(#paint0_radial)"/><path d="M179.071 95.74l-11.02.015-2.72-10.61 5.516-.008c3.034-.004 6.128 2.38 6.876 5.297.748 2.917 1.348 5.305 1.348 5.305z" fill="#C3D2DB"/><path d="M171.871 92.378h5.825c.615 0 1.118.503 1.118 1.118 0 .615-.503 1.118-1.118 1.118h-5.825a1.121 1.121 0 01-1.118-1.118 1.122 1.122 0 011.118-1.118z" fill="#8C9FAF"/><path d="M100.914 95.74l11.02.015 2.72-10.61-5.516-.008c-3.034-.004-6.128 2.38-6.876 5.297-.748 2.917-1.348 5.305-1.348 5.305zM129.123 127.578h-7.858v32.096h7.858v-32.096z" fill="#C3D2DB"/><path d="M125.194 147.451a5.17 5.17 0 100-10.34 5.17 5.17 0 000 10.34z" fill="#9DAEBC"/><path d="M125.194 146.21a3.929 3.929 0 100-7.858 3.929 3.929 0 000 7.858z" fill="#DDE6EB"/><path d="M125.194 145.232a2.95 2.95 0 100-5.901 2.95 2.95 0 000 5.901zM122.064 159.481h6.26c1.26 0 2.29 1.031 2.29 2.29 0 1.26-1.031 2.29-2.29 2.29h-6.26a2.297 2.297 0 01-2.29-2.29c0-1.26 1.03-2.29 2.29-2.29z" fill="#8C9FAF"/><path d="M155.975 69.154H123.98a.388.388 0 01-.387-.387v-1.244c0-.213.174-.387.387-.387h31.995c.213 0 .387.174.387.387v1.244a.39.39 0 01-.387.387z" fill="#C3D2DB"/><path fill-rule="evenodd" clip-rule="evenodd" d="M158.092 58.77l2.242-1.011v-9.607h-2.242V58.77zM121.826 58.77l-2.242-1.011v-9.607h2.242V58.77z" fill="#C3D2DB"/><path d="M155.692 67.354h-31.583a2.888 2.888 0 01-2.88-2.88v-18.03a2.888 2.888 0 012.88-2.88h31.583a2.888 2.888 0 012.88 2.88v18.031a2.888 2.888 0 01-2.88 2.879z" fill="#C3D2DB"/><path d="M149.153 45.866l-.26.001-.264.001H130.994c-.088-.002-.175-.002-.26-.002-.609 0-2.464 0-2.464 1.988v5.882a2.99 2.99 0 002.987 2.987h17.371a2.99 2.99 0 002.987-2.987v-5.882c.002-1.988-1.852-1.988-2.462-1.988z" fill="#6F98C1"/><path d="M148.315 55.721h-16.741a2.307 2.307 0 01-2.3-2.3v-5.41c0-.63.51-1.14 1.14-1.14h17.902a2.3 2.3 0 012.3 2.3v4.25a2.308 2.308 0 01-2.301 2.3z" fill="#9EC5DD"/><path opacity=".6" d="M144.521 46.87h-.761v8.851h.761v-8.85zM147.21 46.87h-1.934v8.851h1.934v-8.85z" fill="#fff"/><path d="M160.832 42.661c0-11.343-9.281-20.624-20.624-20.624-11.343 0-20.624 9.281-20.624 20.624v5.492h41.248v-5.492z" fill="#627689"/><path fill-rule="evenodd" clip-rule="evenodd" d="M119.584 48.152s7.588-5.303 26.446-6.247c20.895-1.047 21.659 6.247 21.659 6.247h-48.105z" fill="#849AAD"/><path fill-rule="evenodd" clip-rule="evenodd" d="M120.511 48.152s8.244-4.255 25.062-5.053c21.041-.998 21.698 5.053 21.698 5.053h-46.76z" fill="#627689"/><path opacity=".1" d="M140.114 52.792c17.92.045 20.219-2.946 20.219-2.946v-1.693h-40.75c.008.025 1.248 4.59 20.531 4.639z" fill="#000"/><path d="M144.702 35.712l1.782-4.893h-5.543c-2.573 0-5.146 1.369-5.146 4.11 0 2.74 3.563 3.327 5.344 1.37 0 .587.396.979 1.584.979h4.327l.57-1.566h-2.918zm-3.563 0c-.99 0-1.584-.196-1.584-.783 0-.392.843-2.153 1.041-2.74h1.929l-1.386 3.523z" fill="#C1D4E0"/><path d="M125.194 161.234c-6.38 0-11.741 4.361-13.264 10.265h26.528c-1.524-5.904-6.884-10.265-13.264-10.265z" fill="#C3D2DB"/><path d="M137.917 172.971H112.47a1.17 1.17 0 01-1.167-1.167v-.049a1.17 1.17 0 011.167-1.167h25.447a1.17 1.17 0 011.167 1.167v.049a1.17 1.17 0 01-1.167 1.167z" fill="#8C9FAF"/><path d="M158.714 127.578h-7.858v32.096h7.858v-32.096z" fill="#C3D2DB"/><path d="M154.785 147.451a5.17 5.17 0 100-10.34 5.17 5.17 0 000 10.34z" fill="#9DAEBC"/><path d="M154.785 146.21a3.929 3.929 0 100-7.858 3.929 3.929 0 000 7.858z" fill="#DDE6EB"/><path d="M154.785 145.232a2.95 2.95 0 100-5.901 2.95 2.95 0 000 5.901zM151.655 159.481h6.26c1.26 0 2.29 1.031 2.29 2.29 0 1.26-1.031 2.29-2.29 2.29h-6.26a2.297 2.297 0 01-2.29-2.29c0-1.26 1.031-2.29 2.29-2.29z" fill="#8C9FAF"/><path d="M154.785 161.234c-6.38 0-11.741 4.361-13.264 10.265h26.528c-1.523-5.904-6.884-10.265-13.264-10.265z" fill="#C3D2DB"/><path d="M144.257 60.106c0 .7-.569 1.267-1.267 1.267h-6.292a1.268 1.268 0 01-1.267-1.267v-.173h-1.934v.173a3.205 3.205 0 003.201 3.201h6.292a3.205 3.205 0 003.202-3.2v-.174h-1.935v.173zM167.508 172.971h-25.447a1.17 1.17 0 01-1.167-1.167v-.049a1.17 1.17 0 011.167-1.167h25.447a1.17 1.17 0 011.167 1.167v.049a1.17 1.17 0 01-1.167 1.167z" fill="#8C9FAF"/><path opacity=".6" d="M124.103 67.354h31.583c.868 0 1.64-.397 2.169-1.009h-35.92a2.863 2.863 0 002.168 1.01z" fill="#8C9FAF"/><path d="M108.114 92.378h-5.825c-.615 0-1.118.503-1.118 1.118 0 .615.503 1.118 1.118 1.118h5.825c.615 0 1.118-.503 1.118-1.118a1.122 1.122 0 00-1.118-1.118z" fill="#8C9FAF"/><path d="M106.49 121.107v12.654a2.786 2.786 0 002.777 2.777l61.446.008a2.786 2.786 0 002.777-2.777V121.114l-67-.007z" fill="#C8C8C8"/><path d="M170.713 69.162l-47.555-.008H120.381v.042c-.005 0-.009.003-.014.004V80.3a2.786 2.786 0 01-2.777 2.777h-11.1v50.292a2.786 2.786 0 002.777 2.777l61.446.008a2.786 2.786 0 002.777-2.777V71.939a2.786 2.786 0 00-2.777-2.777z" fill="#F7F7F7"/><path opacity=".22" d="M120.38 69.154l-.177.073-13.713 13.78v1.255h12.286a2.786 2.786 0 002.777-2.777V69.153h-1.173z" fill="#C8C8C8"/><path d="M120.367 80.299v-7.775l.014-3.371a1.46 1.46 0 00-.764.406l-12.72 12.72c-.272.309-.407.764-.407.764v.03h11.1a2.782 2.782 0 002.777-2.774z" fill="#D8D8D8"/><path d="M117.68 99.802v-4.365c0-.745.607-1.353 1.353-1.353h41.914c.746 0 1.353.607 1.353 1.353v4.365h-44.62z" fill="#EDEDED"/><path d="M160.947 94.185c.691 0 1.253.562 1.253 1.253v4.264h-44.42v-4.264c0-.691.562-1.253 1.253-1.253h41.914zm0-.2h-41.914c-.802 0-1.453.65-1.453 1.453v4.465h44.82v-4.465c0-.803-.651-1.453-1.453-1.453z" fill="#BCBCBC"/><path d="M162.299 99.752H117.68v5.719h44.619v-5.719z" fill="#fff"/><path d="M162.2 99.853v5.517h-44.42v-5.517h44.42zm.2-.2h-44.82v5.917h44.82v-5.917z" fill="#BCBCBC"/><path d="M162.299 105.47H117.68v5.718h44.619v-5.718z" fill="#fff"/><path d="M162.2 105.57v5.517h-44.42v-5.517h44.42zm.2-.2h-44.82v5.917h44.82v-5.917z" fill="#BCBCBC"/><path d="M162.299 111.184H117.68v5.719h44.619v-5.719z" fill="#fff"/><path d="M162.2 111.285v5.517h-44.42v-5.517h44.42zm.2-.2h-44.82v5.917h44.82v-5.917z" fill="#BCBCBC"/><path d="M119.052 122.617a1.373 1.373 0 01-1.372-1.372v-4.346h44.619v4.346c0 .757-.615 1.372-1.372 1.372h-41.875z" fill="#fff"/><path d="M162.2 116.999v4.245c0 .701-.571 1.272-1.272 1.272h-41.875a1.273 1.273 0 01-1.272-1.272v-4.245H162.2zm.2-.2h-44.82v4.445c0 .813.659 1.472 1.472 1.472h41.875c.813 0 1.472-.659 1.472-1.472v-4.445h.001z" fill="#BCBCBC"/><path d="M124.025 94.12v28.596M140.932 94.12v28.596" stroke="#BCBCBC" stroke-width=".2" stroke-miterlimit="10"/><path d="M147.219 83.902h-14.458a.501.501 0 01-.5-.5c0-.275.225-.5.5-.5h14.458c.275 0 .5.225.5.5s-.225.5-.5.5z" fill="#424242"/><path d="M152.239 87.38H127.74a.501.501 0 01-.5-.5c0-.274.225-.5.5-.5h24.499c.275 0 .5.226.5.5 0 .276-.225.5-.5.5z" fill="#C8C8C8"/><path opacity=".08" d="M108.495 97.482h-.621a.442.442 0 000-.882h-1.384v12.606h1.384a.442.442 0 00.441-.441.442.442 0 00-.441-.441h.621c.723 0 1.314-.591 1.314-1.314v-8.216c0-.72-.591-1.312-1.314-1.312z" fill="#424242"/><path d="M106.853 107.448h-5.916V96.607l.002-.002h5.914c.723 0 1.314.591 1.314 1.314v8.216a1.319 1.319 0 01-1.314 1.313z" fill="#C3D2DB"/><path d="M100.348 96.165c0 .242.198.441.441.441h5.442a.442.442 0 00.441-.44.442.442 0 00-.441-.442h-5.442a.442.442 0 00-.441.441zM100.348 107.889c0 .242.198.441.441.441h5.442a.442.442 0 00.441-.441.442.442 0 00-.441-.441h-5.442a.443.443 0 00-.441.441z" fill="#9DAEBC"/><path d="M100.325 98.04v.745c0 .126.103.23.23.23h6.527a.23.23 0 00.23-.23v-.745a.23.23 0 00-.23-.23h-6.527a.23.23 0 00-.23.23zM100.325 100.449v.745c0 .126.103.23.23.23h6.527a.23.23 0 00.23-.23v-.745a.23.23 0 00-.23-.23h-6.527a.231.231 0 00-.23.23zM100.325 102.859v.745c0 .126.103.23.23.23h6.527a.23.23 0 00.23-.23v-.745a.23.23 0 00-.23-.23h-6.527a.23.23 0 00-.23.23zM100.325 105.268v.745c0 .126.103.23.23.23h6.527a.23.23 0 00.23-.23v-.745a.23.23 0 00-.23-.23h-6.527a.231.231 0 00-.23.23z" fill="#8C9FAF"/><path d="M103.119 97.81h-1.205v1.205h1.205V97.81zM103.119 100.22h-1.205v1.205h1.205v-1.205zM103.119 102.629h-1.205v1.205h1.205v-1.205zM103.119 105.039h-1.205v1.205h1.205v-1.205z" fill="#C3D2DB"/><path opacity=".08" d="M172.111 96.6a.442.442 0 000 .882h-.621c-.722 0-1.314.591-1.314 1.314v8.216c0 .723.591 1.314 1.314 1.314h.621a.442.442 0 00-.441.441c0 .242.198.441.441.441h1.379V96.6h-1.379z" fill="#424242"/><path d="M173.132 107.448h5.916V96.607l-.002-.002h-5.914c-.723 0-1.314.591-1.314 1.314v8.216c0 .722.592 1.313 1.314 1.313z" fill="#C3D2DB"/><path d="M179.637 96.165a.442.442 0 01-.441.441h-5.442a.442.442 0 01-.441-.44c0-.243.198-.442.441-.442h5.442c.242 0 .441.198.441.441zM179.637 107.889a.442.442 0 01-.441.441h-5.442a.442.442 0 01-.441-.441c0-.242.198-.441.441-.441h5.442c.242 0 .441.199.441.441z" fill="#9DAEBC"/><path d="M179.66 98.04v.745a.23.23 0 01-.23.23h-6.527a.23.23 0 01-.23-.23v-.745a.23.23 0 01.23-.23h6.527a.23.23 0 01.23.23zM179.66 100.449v.745a.23.23 0 01-.23.23h-6.527a.23.23 0 01-.23-.23v-.745a.23.23 0 01.23-.23h6.527c.127.001.23.104.23.23zM179.66 102.859v.745a.23.23 0 01-.23.23h-6.527a.23.23 0 01-.23-.23v-.745a.23.23 0 01.23-.23h6.527a.23.23 0 01.23.23zM179.66 105.268v.745a.23.23 0 01-.23.23h-6.527a.23.23 0 01-.23-.23v-.745a.23.23 0 01.23-.23h6.527c.127.001.23.104.23.23z" fill="#8C9FAF"/><path d="M176.867 99.015h1.205V97.81h-1.205v1.205zM176.867 101.424h1.205v-1.205h-1.205v1.205zM176.867 103.834h1.205v-1.205h-1.205v1.205zM176.867 106.243h1.205v-1.205h-1.205v1.205z" fill="#C3D2DB"/><defs><radialGradient id="paint0_radial" cx="0" cy="0" r="1" gradientUnits="userSpaceOnUse" gradientTransform="matrix(43.0787 0 0 3.73236 140.009 172.973)"><stop stop-color="#A0B3BA"/><stop offset=".545" stop-color="#C3D2DB" stop-opacity=".6"/><stop offset="1" stop-color="#C3D2DB" stop-opacity="0"/></radialGradient></defs></svg>