<svg width="280" height="182" viewBox="0 0 280 182" fill="none" xmlns="http://www.w3.org/2000/svg">
<path d="M139.8 17H147.4H148H147.4C150.6 17 153.2 14.4 153.2 11.2C153.2 11.2 153.2 11.2 153.2 11.1C153.2 7.90005 155.9 5.30005 159 5.30005H160.8H162.3H181.8H200.7C203.9 5.30005 206.5 7.90005 206.5 11.1C206.5 14.3 203.9 16.9 200.7 16.9H178.3H178.9C175.7 16.9 173.1 19.5001 173.1 22.7001C173.1 22.7001 173.1 22.7 173.1 22.8C173.1 26 170.4 28.6 167.3 28.6H165H139.8C136.6 28.6 134 26 134 22.8C134 19.6 136.6 17 139.8 17Z" fill="#EEF4F7"/>
<path d="M114 112.3H96.7C93.5 112.3 90.9 109.7 90.9 106.5C90.9 103.3 93.5 100.7 96.7 100.7H114C117.2 100.7 119.8 103.3 119.8 106.5C119.9 109.7 117.2 112.3 114 112.3Z" fill="#EEF4F7"/>
<path d="M119.5 40.4H82.7C79.5 40.4 76.9 37.7999 76.9 34.5999V34.5C76.9 31.3 74.2 28.7 71.1 28.7H29.5C26.3 28.7 23.7 31.3 23.7 34.5C23.7 37.7 26.3 40.2999 29.5 40.2999H52.1C52 40.2999 51.8 40.2999 51.7 40.2999C54.7 40.4999 57.2 42.9999 57.2 46.0999C57.2 49.1999 54.8 51.7 51.7 51.9C51.8 51.9 52 51.9 52.1 51.9H40.6C37.4 51.9 34.8 54.5 34.8 57.7C34.8 60.9 37.4 63.5 40.6 63.5H87.6C90.8 63.5 93.4 60.9 93.4 57.7C93.4 57.7 93.4 57.6999 93.4 57.5999C93.4 54.3999 96 51.7999 99.2 51.7999H98.6H119.4C122.6 51.7999 125.2 49.2 125.2 46C125.4 43 122.8 40.4 119.5 40.4Z" fill="#EEF4F7"/>
<path d="M173.9 140.1H139.6C136.4 140.1 133.8 137.5 133.8 134.3C133.8 131.1 136.4 128.5 139.6 128.5H173.9C177.1 128.5 179.7 131.1 179.7 134.3C179.7 137.5 177.1 140.1 173.9 140.1Z" fill="#EEF4F7"/>
<path d="M229.3 126.1H187.7C184.5 126.1 181.9 123.5 181.9 120.3C181.9 117.1 184.5 114.5 187.7 114.5H229.3C232.5 114.5 235.1 117.1 235.1 120.3C235.2 123.5 232.6 126.1 229.3 126.1Z" fill="#EEF4F7"/>
<path d="M212.9 70.0001H194.1C190.9 70.0001 188.3 67.4001 188.3 64.2001C188.3 61.0001 190.9 58.4001 194.1 58.4001H212.9C216.1 58.4001 218.7 61.0001 218.7 64.2001C218.8 67.4001 216.2 70.0001 212.9 70.0001Z" fill="#EEF4F7"/>
<path d="M81.2 113.4H63.4C60.2 113.4 57.6 110.8 57.6 107.6C57.6 104.4 60.2 101.8 63.4 101.8H81.2C84.4 101.8 87 104.4 87 107.6C87.1 110.8 84.4 113.4 81.2 113.4Z" fill="#EEF4F7"/>
<path d="M255.3 93.3001H237.7C234.5 93.3001 231.9 90.6001 231.9 87.5001V87.4001C231.9 84.2001 229.2 81.6001 226.1 81.6001H196C192.8 81.6001 190.2 84.2001 190.2 87.4001C190.2 90.6001 192.8 93.2001 196 93.2001H201.5H201C204.2 93.2001 206.8 95.8001 206.8 99.0001V99.1001V99.2001C206.8 102.4 209.5 105 212.6 105H255.3C258.5 105 261.1 102.4 261.1 99.2001C261.1 95.9001 258.5 93.3001 255.3 93.3001Z" fill="#EEF4F7"/>
<path d="M234.5 69.9001C237.703 69.9001 240.3 67.3033 240.3 64.1C240.3 60.8968 237.703 58.3 234.5 58.3C231.297 58.3 228.7 60.8968 228.7 64.1C228.7 67.3033 231.297 69.9001 234.5 69.9001Z" fill="#EEF4F7"/>
<path d="M185 176.7C208.803 176.7 228.1 175.043 228.1 173C228.1 170.957 208.803 169.3 185 169.3C161.197 169.3 141.9 170.957 141.9 173C141.9 175.043 161.197 176.7 185 176.7Z" fill="url(#paint0_radial_2_8807)"/>
<path d="M158.1 94.2001C154.1 97.2001 151.2 99.5001 150.1 105.2H144.8V104.6C144.8 94.6001 150.2 87.1001 157.3 84.1001H157.6C157.8 84.1001 158 84.2001 158.2 84.1001V94.2001H158.1Z" fill="#C3D2DB"/>
<path d="M156.5 84H157.5V96.7H156.5C155.4 96.7 154.5 95.8 154.5 94.7V86C154.6 84.9 155.4 84 156.5 84Z" fill="#8C9FAF"/>
<path d="M174.7 127.6H166.8V159.7H174.7V127.6Z" fill="#C3D2DB"/>
<path d="M170.7 147.5C173.572 147.5 175.9 145.172 175.9 142.3C175.9 139.428 173.572 137.1 170.7 137.1C167.828 137.1 165.5 139.428 165.5 142.3C165.5 145.172 167.828 147.5 170.7 147.5Z" fill="#9DAEBC"/>
<path d="M170.7 146.2C172.854 146.2 174.6 144.454 174.6 142.3C174.6 140.146 172.854 138.4 170.7 138.4C168.546 138.4 166.8 140.146 166.8 142.3C166.8 144.454 168.546 146.2 170.7 146.2Z" fill="#DDE6EB"/>
<path d="M170.7 145.3C172.357 145.3 173.7 143.957 173.7 142.3C173.7 140.643 172.357 139.3 170.7 139.3C169.043 139.3 167.7 140.643 167.7 142.3C167.7 143.957 169.043 145.3 170.7 145.3Z" fill="#8C9FAF"/>
<path d="M175.6 127.6H165.8C164.2 127.6 162.9 126.3 162.9 124.7V124C162.9 122.4 164.2 121.1 165.8 121.1H175.6C177.2 121.1 178.5 122.4 178.5 124V124.7C178.6 126.3 177.2 127.6 175.6 127.6Z" fill="#8C9FAF"/>
<path d="M167.6 159.5H173.9C175.2 159.5 176.2 160.5 176.2 161.8C176.2 163.1 175.2 164.1 173.9 164.1H167.6C166.3 164.1 165.3 163.1 165.3 161.8C165.3 160.5 166.3 159.5 167.6 159.5Z" fill="#8C9FAF"/>
<path d="M205.2 127.6H195.4C193.8 127.6 192.5 126.3 192.5 124.7V124C192.5 122.4 193.8 121.1 195.4 121.1H205.2C206.8 121.1 208.1 122.4 208.1 124V124.7C208.2 126.3 206.8 127.6 205.2 127.6Z" fill="#8C9FAF"/>
<path d="M201.5 71.2002H169.5C169.3 71.2002 169.1 71.0002 169.1 70.8002V69.6002C169.1 69.4002 169.3 69.2002 169.5 69.2002H201.5C201.7 69.2002 201.9 69.4002 201.9 69.6002V70.8002C201.9 71.0002 201.7 71.2002 201.5 71.2002Z" fill="#8C9FAF"/>
<path d="M201.5 69.2002H169.5C169.3 69.2002 169.1 69.0002 169.1 68.8002V67.6002C169.1 67.4002 169.3 67.2002 169.5 67.2002H201.5C201.7 67.2002 201.9 67.4002 201.9 67.6002V68.8002C201.9 69.0002 201.7 69.2002 201.5 69.2002Z" fill="#C3D2DB"/>
<path d="M201.4 75.8H169.5C169.3 75.8 169.1 75.6 169.1 75.4V73.7C169.1 73.5 169.3 73.3 169.5 73.3H201.4C201.6 73.3 201.8 73.5 201.8 73.7V75.4C201.9 75.6 201.7 75.8 201.4 75.8Z" fill="#8C9FAF"/>
<path d="M201.5 73.2002H169.5C169.3 73.2002 169.1 73.0002 169.1 72.8002V71.6002C169.1 71.4002 169.3 71.2002 169.5 71.2002H201.5C201.7 71.2002 201.9 71.4002 201.9 71.6002V72.8002C201.9 73.0002 201.7 73.2002 201.5 73.2002Z" fill="#C3D2DB"/>
<path fill-rule="evenodd" clip-rule="evenodd" d="M203.6 58.8002L205.8 57.8002V48.2002H203.6V58.8002Z" fill="#C3D2DB"/>
<path fill-rule="evenodd" clip-rule="evenodd" d="M167.3 58.8002L165.1 57.8002V48.2002H167.3V58.8002Z" fill="#C3D2DB"/>
<path d="M201.2 67.4001H169.6C168 67.4001 166.7 66.1001 166.7 64.5001V46.5001C166.7 44.9001 168 43.6001 169.6 43.6001H201.2C202.8 43.6001 204.1 44.9001 204.1 46.5001V64.5001C204.1 66.1001 202.8 67.4001 201.2 67.4001Z" fill="#C3D2DB"/>
<path d="M194.7 45.9001C194.6 45.9001 194.5 45.9001 194.4 45.9001C194.3 45.9001 194.2 45.9001 194.1 45.9001H176.7C176.6 45.9001 176.5 45.9001 176.4 45.9001C176.3 45.9001 176.2 45.9001 176.1 45.9001C175.5 45.9001 173.6 45.9001 173.6 47.9001V53.8001C173.6 55.4001 174.9 56.8001 176.6 56.8001H194C195.6 56.8001 197 55.5001 197 53.8001V47.9001C197.1 45.9001 195.3 45.9001 194.7 45.9001Z" fill="#6F98C1"/>
<path d="M193.8 55.7001H177.1C175.8 55.7001 174.8 54.7001 174.8 53.4001V48.0001C174.8 47.4001 175.3 46.9001 175.9 46.9001H193.8C195.1 46.9001 196.1 47.9001 196.1 49.2001V53.4001C196.1 54.7001 195.1 55.7001 193.8 55.7001Z" fill="#9EC5DD"/>
<path opacity="0.6" d="M190.1 46.9001H189.3V55.8001H190.1V46.9001Z" fill="white"/>
<path opacity="0.6" d="M192.7 46.9001H190.8V55.8001H192.7V46.9001Z" fill="white"/>
<path d="M206.3 42.7001C206.3 31.4001 197 22.1001 185.7 22.1001C174.4 22.1001 165.1 31.4001 165.1 42.7001V48.2001H206.3V42.7001Z" fill="#627689"/>
<path fill-rule="evenodd" clip-rule="evenodd" d="M165.1 48.2001C165.1 48.2001 172.7 42.9001 191.5 42.0001C212.4 41.0001 213.2 48.2001 213.2 48.2001H165.1Z" fill="#849AAD"/>
<path fill-rule="evenodd" clip-rule="evenodd" d="M166 48.2C166 48.2 174.2 43.9 191.1 43.1C212.1 42.1 212.8 48.2 212.8 48.2H166Z" fill="#627689"/>
<path opacity="0.1" d="M185.6 52.8002C203.5 52.8002 205.8 49.9002 205.8 49.9002V48.2002H165.1C165.1 48.2002 166.3 52.7002 185.6 52.8002Z" fill="black"/>
<path d="M190.2 35.7001L192 30.8H186.5C183.9 30.8 181.4 32.2001 181.4 34.9001C181.4 37.6001 185 38.2 186.7 36.3C186.7 36.9 187.1 37.3 188.3 37.3H192.6L193.2 35.7001H190.2ZM186.6 35.7001C185.6 35.7001 185 35.5001 185 34.9001C185 34.5001 185.8 32.7001 186 32.2001H187.9L186.6 35.7001Z" fill="#C1D4E0"/>
<path d="M207.5 124.8H163.5C160.2 124.8 157.6 122.1 157.6 118.9V81.1002C157.6 77.8002 160.3 75.2002 163.5 75.2002H207.5C210.8 75.2002 213.4 77.9002 213.4 81.1002V118.9C213.4 122.2 210.8 124.8 207.5 124.8Z" fill="#C3D2DB"/>
<path d="M213.4 115.4H157.5V115.9H213.4V115.4Z" fill="#8C9FAF"/>
<path d="M213.4 118.8H157.5V119.3H213.4V118.8Z" fill="#F8FDFF"/>
<path d="M213.4 82.3H157.5V82.8H213.4V82.3Z" fill="#8C9FAF"/>
<path d="M213.4 85.7002H157.5V86.2002H213.4V85.7002Z" fill="#F8FDFF"/>
<path d="M200.3 96.9001V95.5001C199.3 94.5001 197.9 93.9001 196.4 93.9001C193.8 93.9001 191.6 95.6001 190.9 98.0001H180.1C179.4 95.6001 177.2 93.9001 174.6 93.9001C173.1 93.9001 171.7 94.5001 170.7 95.5001V96.9001H174.6L176.5 99.7001L174.6 102.5H170.7V103.9C171.7 104.9 173.1 105.5 174.6 105.5C177.2 105.5 179.4 103.8 180.1 101.4H190.9C191.6 103.8 193.8 105.5 196.4 105.5C197.9 105.5 199.3 104.9 200.3 103.9V102.5H196.4L194.5 99.7001L196.4 96.9001H200.3Z" fill="#8C9FAF"/>
<path d="M170.7 161.2C164.3 161.2 159 165.6 157.4 171.5H184C182.4 165.6 177.1 161.2 170.7 161.2Z" fill="#C3D2DB"/>
<path d="M183.4 173H158C157.4 173 156.8 172.5 156.8 171.8C156.8 171.2 157.3 170.6 158 170.6H183.4C184 170.6 184.6 171.1 184.6 171.8C184.6 172.4 184.1 173 183.4 173Z" fill="#8C9FAF"/>
<path d="M204.3 127.6H196.4V159.7H204.3V127.6Z" fill="#C3D2DB"/>
<path d="M200.3 147.5C203.172 147.5 205.5 145.172 205.5 142.3C205.5 139.428 203.172 137.1 200.3 137.1C197.428 137.1 195.1 139.428 195.1 142.3C195.1 145.172 197.428 147.5 200.3 147.5Z" fill="#9DAEBC"/>
<path d="M200.3 146.2C202.454 146.2 204.2 144.454 204.2 142.3C204.2 140.146 202.454 138.4 200.3 138.4C198.146 138.4 196.4 140.146 196.4 142.3C196.4 144.454 198.146 146.2 200.3 146.2Z" fill="#DDE6EB"/>
<path d="M200.3 145.3C201.957 145.3 203.3 143.957 203.3 142.3C203.3 140.643 201.957 139.3 200.3 139.3C198.643 139.3 197.3 140.643 197.3 142.3C197.3 143.957 198.643 145.3 200.3 145.3Z" fill="#8C9FAF"/>
<path d="M197.2 159.5H203.5C204.8 159.5 205.8 160.5 205.8 161.8C205.8 163.1 204.8 164.1 203.5 164.1H197.2C195.9 164.1 194.9 163.1 194.9 161.8C194.9 160.5 195.9 159.5 197.2 159.5Z" fill="#8C9FAF"/>
<path d="M200.3 161.2C193.9 161.2 188.6 165.6 187 171.5H213.5C212 165.6 206.7 161.2 200.3 161.2Z" fill="#C3D2DB"/>
<path d="M180.9 60.1001C180.9 60.8001 181.5 61.4001 182.2 61.4001H188.5C189.2 61.4001 189.8 60.8001 189.8 60.1001V59.9001H191.7V60.1001C191.7 61.9001 190.3 63.3001 188.5 63.3001H182.2C180.4 63.3001 179 61.9001 179 60.1001V59.9001H180.9V60.1001Z" fill="#8C9FAF"/>
<path d="M213 173H187.6C187 173 186.4 172.5 186.4 171.8C186.4 171.2 186.9 170.6 187.6 170.6H213C213.6 170.6 214.2 171.1 214.2 171.8C214.2 172.4 213.7 173 213 173Z" fill="#8C9FAF"/>
<path opacity="0.6" d="M169.6 67.4001H201.2C202.1 67.4001 202.8 67.0001 203.4 66.4001H167.5C168 67.0001 168.7 67.4001 169.6 67.4001Z" fill="#8C9FAF"/>
<path d="M216.1 96.1C220.1 99.1 223 101.4 224.1 107.1H229.4V106.5C229.4 96.5 224 89 216.9 86H216.6C216.4 86 216.2 86.1 216 86V96.1H216.1Z" fill="#C3D2DB"/>
<path d="M214.5 84H213.5V96.7H214.5C215.6 96.7 216.5 95.8 216.5 94.7V86C216.4 84.9 215.5 84 214.5 84Z" fill="#8C9FAF"/>
<path opacity="0.1" d="M224.845 103.681C224.407 102.055 223.117 100.775 221.478 100.341C218.508 99.551 206.598 99.551 206.598 99.551C206.598 99.551 194.689 99.551 191.718 100.341C190.08 100.775 188.789 102.055 188.351 103.681C187.555 106.628 187.555 112.775 187.555 112.775C187.555 112.775 187.555 118.923 188.351 121.87C188.789 123.496 190.08 124.776 191.718 125.21C194.689 126 206.598 126 206.598 126C206.598 126 218.508 126 221.478 125.21C223.117 124.776 224.407 123.496 224.845 121.87C225.641 118.923 225.641 112.775 225.641 112.775C225.641 112.775 225.641 106.628 224.845 103.681Z" fill="#1D1D1B"/>
<path d="M224.29 103.13C223.852 101.504 222.562 100.224 220.923 99.7895C217.952 99 206.043 99 206.043 99C206.043 99 194.133 99 191.163 99.7895C189.524 100.224 188.234 101.504 187.796 103.13C187 106.077 187 112.224 187 112.224C187 112.224 187 118.372 187.796 121.319C188.234 122.944 189.524 124.225 191.163 124.659C194.133 125.449 206.043 125.449 206.043 125.449C206.043 125.449 217.953 125.449 220.923 124.659C222.562 124.225 223.852 122.944 224.29 121.319C225.086 118.372 225.086 112.224 225.086 112.224C225.086 112.224 225.086 106.077 224.29 103.13Z" fill="#ED1F24"/>
<path d="M202.234 117.892L212.129 112.224L202.234 106.557V117.892Z" fill="white"/>
<path d="M224.215 119.051H230.761V107.053L230.758 107.051H224.215C223.415 107.051 222.761 107.705 222.761 108.505V117.598C222.761 118.397 223.415 119.051 224.215 119.051Z" fill="#C3D2DB"/>
<path d="M230.761 106.551C230.761 106.826 230.573 107.051 230.342 107.051H225.179C224.949 107.051 224.761 106.827 224.761 106.551C224.761 106.277 224.948 106.051 225.179 106.051H230.342C230.573 106.051 230.761 106.276 230.761 106.551Z" fill="#9DAEBC"/>
<path d="M230.761 119.551C230.761 119.826 230.573 120.051 230.342 120.051H225.179C224.949 120.051 224.761 119.827 224.761 119.551C224.761 119.277 224.948 119.051 225.179 119.051H230.342C230.573 119.051 230.761 119.277 230.761 119.551Z" fill="#9DAEBC"/>
<path d="M230.761 109.242V109.86C230.761 109.965 230.657 110.051 230.53 110.051H223.991C223.865 110.051 223.761 109.966 223.761 109.86V109.242C223.761 109.138 223.864 109.051 223.991 109.051H230.53C230.656 109.051 230.761 109.137 230.761 109.242Z" fill="#8C9FAF"/>
<path d="M230.761 111.242V111.86C230.761 111.965 230.657 112.051 230.53 112.051H223.991C223.865 112.051 223.761 111.966 223.761 111.86V111.242C223.761 111.138 223.864 111.051 223.991 111.051H230.53C230.656 111.052 230.761 111.138 230.761 111.242Z" fill="#8C9FAF"/>
<path d="M230.761 114.242V114.86C230.761 114.965 230.657 115.051 230.53 115.051H223.991C223.865 115.051 223.761 114.966 223.761 114.86V114.242C223.761 114.138 223.864 114.051 223.991 114.051H230.53C230.656 114.051 230.761 114.138 230.761 114.242Z" fill="#8C9FAF"/>
<path d="M230.761 116.242V116.86C230.761 116.965 230.657 117.051 230.53 117.051H223.991C223.865 117.051 223.761 116.966 223.761 116.86V116.242C223.761 116.138 223.864 116.051 223.991 116.051H230.53C230.656 116.052 230.761 116.138 230.761 116.242Z" fill="#8C9FAF"/>
<path d="M151 101H77V129H151V101Z" fill="#EFEFEF"/>
<path opacity="0.5" d="M78 127H150V126H78V127ZM78 124H150V123H78V124ZM78 121H150V120H78V121ZM78 118H150V117H78V118ZM78 115H150V114H78V115ZM78 112H150V111H78V112ZM78 109H150V108H78V109ZM78 106H150V105H78V106ZM78 102V103H150V102H78Z" fill="white"/>
<path d="M154 101H74C74 97.1 77.1 94 81 94H147C150.9 94 154 97.1 154 101Z" fill="#7AC1E5"/>
<path d="M151 101H77V102H151V101Z" fill="#4089C6"/>
<path opacity="0.1" d="M146 120H83C81.9 120 81 119.1 81 118V106C81 104.9 81.9 104 83 104H146C147.1 104 148 104.9 148 106V118C148 119.1 147.1 120 146 120Z" fill="#001833"/>
<path d="M145 119H83C81.9 119 81 118.1 81 117V106C81 104.9 81.9 104 83 104H145C146.1 104 147 104.9 147 106V117C147 118.1 146.1 119 145 119Z" fill="white"/>
<path d="M96 106H84V117H96V106Z" fill="#636363"/>
<path d="M112 106H100V117H112V106Z" fill="#636363"/>
<path d="M128 106H116V117H128V106Z" fill="#636363"/>
<path d="M144 106H132V117H144V106Z" fill="#636363"/>
<path d="M96 106H84V116H96V106Z" fill="#AFDBF2"/>
<path d="M112 106H100V116H112V106Z" fill="#AFDBF2"/>
<path d="M128 106H116V116H128V106Z" fill="#AFDBF2"/>
<path d="M144 106H132V116H144V106Z" fill="#AFDBF2"/>
<path opacity="0.5" d="M101 106L100 107V111.2L105.3 105.9H101V106ZM95.3 116L96 115.3V111L91 116H95.3ZM89.8 116L96 109.8V108L88 116H89.8ZM106.8 116L112 110.8V109L105 116H106.8ZM139 106L132 113V116H133.3L143.3 106H139ZM84.7 106L84 106.7V113.8L91.8 106H84.7ZM135 116H136.8L144 108.8V107L135 116ZM112 116V113L109 116H112ZM116 106V106.8L116.8 106H116ZM116 109V113.2L123.3 105.9H119L116 109Z" fill="#80ABCE"/>
<path opacity="0.3" d="M138 96H89C88.4 96 88 95.6 88 95C88 94.4 88.4 94 89 94H138C138.6 94 139 94.4 139 95C139 95.6 138.6 96 138 96Z" fill="#4089C6"/>
<path d="M102.7 88.9001H100.9V94.0001H102.7V88.9001Z" fill="#BCBCBC"/>
<path opacity="0.68" d="M101.3 88.9001H100.9V94.0001H101.3V88.9001Z" fill="white"/>
<path opacity="0.26" d="M102.6 88.9001H101.9V94.0001H102.6V88.9001Z" fill="#424242"/>
<path d="M127.7 88.9001H125.9V94.0001H127.7V88.9001Z" fill="#BCBCBC"/>
<path opacity="0.68" d="M126.3 88.9001H125.9V94.0001H126.3V88.9001Z" fill="white"/>
<path opacity="0.26" d="M127.6 88.9001H126.9V94.0001H127.6V88.9001Z" fill="#424242"/>
<path d="M135.4 80.1002V78.3002C134 77.0002 132.2 76.2002 130.2 76.2002C127.1 76.2002 124.4 78.1002 123.3 80.7002H105.2C104 78.0002 101.4 76.2002 98.3 76.2002C96.3 76.2002 94.5 77.0002 93.1 78.3002V80.1002H98.2L100.7 83.8002L98.2 87.5002H93.1V89.3002C94.5 90.6002 96.3 91.4002 98.3 91.4002C101.4 91.4002 104.1 89.5002 105.2 86.9002H123.3C124.5 89.6002 127.1 91.4002 130.2 91.4002C132.2 91.4002 134 90.6002 135.4 89.3002V87.5002H130.3L127.8 83.8002L130.3 80.1002H135.4Z" fill="#A4B7C1"/>
<path d="M135.4 78.5001V76.7001C134 75.4001 132.2 74.6001 130.2 74.6001C127.1 74.6001 124.4 76.5001 123.3 79.1001H105.2C104 76.4001 101.4 74.6001 98.3 74.6001C96.3 74.6001 94.5 75.4001 93.1 76.7001V78.5001H98.2L100.7 82.2001L98.2 86.0001H93.1V87.8001C94.5 89.1001 96.3 89.9001 98.3 89.9001C101.4 89.9001 104.1 88.0001 105.2 85.4001H123.3C124.5 88.1001 127.1 89.9001 130.2 89.9001C132.2 89.9001 134 89.1001 135.4 87.8001V86.0001H130.3L127.8 82.3001L130.3 78.6001H135.4V78.5001Z" fill="#C3D2DB"/>
<path d="M120.6 83.3H107.8C107.3 83.3 106.9 82.9 106.9 82.4C106.9 81.9 107.3 81.5 107.8 81.5H120.6C121.1 81.5 121.5 81.9 121.5 82.4C121.5 82.9 121.1 83.3 120.6 83.3Z" fill="#A4B7C1"/>
<path d="M170 167.7C169.3 166 167.5 164.8 165.1 164.4C165 164.2 164.9 164 164.7 163.8C164.7 163.8 164.7 163.8 164.7 163.7C164.7 162.2 163.5 161 162 161C160.5 161 159.3 162.2 159.3 163.7V163.8C159 164.2 158.8 164.6 158.8 165C158.8 165.3 158.9 165.5 159 165.7C158.6 166 158.3 166.3 158 166.7C157.6 165.8 156.7 165.2 155.6 165.2C154.1 165.2 152.9 166.4 152.9 167.9C152.9 169 153.6 170 154.6 170.4C154.6 170.6 154.5 170.7 154.5 170.9H174C173.8 169.4 172.2 168 170 167.7Z" fill="#9EC683"/>
<path d="M57.1 173C59.1 172.8 60.3 172.4 60.3 172C60.1 169.2 58 166.9 55.1 166.3C54.5 164.4 53.2 162.7 51.4 161.7C51.4 160.2 50.2 159.1 48.7 159C48.4 159 48.1 159 47.8 159.1C47.7 159 47.7 159 47.6 158.9C47.7 158.6 47.8 158.3 47.8 158C47.8 156.9 46.9 156 45.8 156C45.1 156 44.4 156.4 44.1 157C43.9 156.9 43.7 156.9 43.5 156.9C42.4 156.9 41.5 157.8 41.4 158.9C41.4 159 41.4 159.1 41.4 159.1C41.2 159.3 41.1 159.4 41 159.6C40.9 159.6 40.9 159.6 40.8 159.6C39.7 159.6 38.8 160.5 38.8 161.6C38.8 162.1 39 162.6 39.3 162.9C39 163.2 38.8 163.6 38.8 164.1C38.8 164.4 38.9 164.7 39 165C38.8 165.4 38.6 165.9 38.4 166.4C38.1 166.2 37.7 166 37.2 166C36.1 166 35.2 166.9 35.2 168C35.2 168.3 35.3 168.6 35.4 168.8C34.9 169.5 33.7 170.6 34.2 173.1H52.3H57.1V173Z" fill="#8CB770"/>
<path d="M39.9 167.3C39.8 167.8 39.7 168.3 39.8 168.8C39.4 168.9 39 169.2 38.8 169.6C38.5 170.3 38.8 171.1 39.5 171.4C39.8 171.5 40.1 171.5 40.4 171.5C40.5 171.4 40.7 171.2 40.8 171.1C40.8 170.8 40.8 170.6 40.9 170.3C41.1 169.9 41.4 169.7 41.7 169.5C41.6 169.1 41.6 168.7 41.8 168.3C42.2 167.4 43.2 167.1 44 167.4C44.1 167.4 44.1 167.5 44.2 167.5C44.4 167.4 44.5 167.3 44.7 167.2C44.7 167.1 44.7 167.1 44.8 167C45.2 166.1 46.2 165.8 47 166.1C47.2 166.2 47.3 166.3 47.4 166.4C47.9 166.1 48.5 166 49.1 166.2C50 166.6 50.3 167.6 50 168.4C50 168.4 50 168.4 50 168.5C50.7 168.4 51.4 168 51.7 167.2C52.2 166.1 51.7 164.8 50.6 164.4C49.8 164 48.8 164.2 48.2 164.8C48.2 164.8 48.1 164.8 48.1 164.7C47.4 164.4 46.6 164.4 45.9 164.6C46.1 163.9 45.8 163.1 45.1 162.8C44.4 162.5 43.5 162.8 43.1 163.5C42.3 163.2 41.4 163.6 41.1 164.3C41.1 164.4 41 164.4 41 164.5C40.5 164.5 39.9 164.9 39.7 165.4C39.4 166.3 39.5 166.9 39.9 167.3Z" fill="#9EC683"/>
<path d="M174 173H23C22.4 173 22 172.6 22 172C22 171.4 22.4 171 23 171H174C174.6 171 175 171.4 175 172C175 172.6 174.6 173 174 173Z" fill="#8CB770"/>
<path d="M49 171H47V151C47 150.4 47.4 150 48 150C48.6 150 49 150.4 49 151V171Z" fill="#7F5F3B"/>
<path d="M58.8 143.4C59 142.9 59.1 142.4 59.1 141.8C59.1 141 58.8 140.3 58.4 139.7C59.2 139 59.7 138 59.7 136.9C59.7 135.6 59.1 134.5 58.1 133.8C58.7 133.1 59.1 132.3 59.1 131.3C59.1 129.2 57.4 127.6 55.4 127.6C54.7 127.6 54.1 127.8 53.5 128.1C53.5 127.9 53.5 127.8 53.5 127.6C53.5 125.5 51.8 123.9 49.8 123.9C49.1 123.9 48.5 124.1 48 124.4C47.3 123.4 46.2 122.7 44.9 122.7C42.8 122.7 41.2 124.4 41.2 126.4C41.2 126.8 41.3 127.1 41.3 127.4C40.1 128 39.3 129.3 39.3 130.7C39.3 131.2 39.4 131.6 39.6 132.1C38.7 132.8 38.1 133.9 38.1 135.1C38.1 135.8 38.3 136.4 38.6 137C36.6 137.1 35 138.7 35 140.7C35 141.8 35.5 142.8 36.3 143.5C35.9 144.1 35.6 144.8 35.6 145.6C35.6 147.7 37.3 149.3 39.3 149.3C39.5 149.3 39.7 149.3 40 149.2C40.3 151 41.8 152.4 43.7 152.4C44.3 152.4 44.9 152.2 45.4 152C46.1 152.7 47 153.1 48 153.1C49 153.1 49.8 152.7 50.5 152.1C51.2 152.7 52 153.1 53 153.1C54.7 153.1 56 152 56.5 150.5C56.8 150.6 57 150.6 57.3 150.6C59.4 150.6 61 148.9 61 146.9C61 145.3 60.1 144 58.8 143.4Z" fill="#8CB770"/>
<path d="M47.5 134.8C47.5 133.5 48.1 132.3 49 131.5C48.2 131.3 47.4 131.3 46.6 131.7C45.8 132.1 45.2 132.9 45 133.8C44.4 133.7 43.7 133.8 43.2 134.1C41.7 134.9 41.1 136.8 41.9 138.3C42 138.5 42.1 138.6 42.2 138.8C41 139.7 40.6 141.4 41.3 142.7C41.5 143.2 41.9 143.5 42.3 143.8C42.1 144.5 42.1 145.4 42.5 146.1C42.7 146.5 43.1 146.9 43.5 147.2C43.8 146.7 44.1 146.3 44.6 145.9C44.7 145.8 44.9 145.7 45 145.6C44.4 145.3 43.9 144.9 43.5 144.4C42.4 142.8 42.8 140.5 44.4 139.4C45.2 138.9 46.1 138.7 47 138.8C47 138 47.3 137.2 47.8 136.6C47.7 136.1 47.5 135.5 47.5 134.8Z" fill="#9EC683"/>
<path d="M155 136H63V173H155V136Z" fill="#C7E2EF"/>
<path opacity="0.1" d="M155 166H63V167H155V166Z" fill="#001833"/>
<path opacity="0.1" d="M155 160H63V161H155V160Z" fill="#001833"/>
<path opacity="0.1" d="M155 154H63V155H155V154Z" fill="#001833"/>
<path opacity="0.1" d="M155 148H63V149H155V148Z" fill="#001833"/>
<path opacity="0.1" d="M155 142H63V143H155V142Z" fill="#001833"/>
<path opacity="0.1" d="M155 136H63V137H155V136Z" fill="#001833"/>
<path opacity="0.1" d="M155 172H63V173H155V172Z" fill="#001833"/>
<path opacity="0.1" d="M108 173H72V142C72 140.9 72.9 140 74 140H106C107.1 140 108 140.9 108 142V173Z" fill="#001833"/>
<path opacity="0.1" d="M149 173H113V142C113 140.9 113.9 140 115 140H147C148.1 140 149 140.9 149 142V173Z" fill="#001833"/>
<path d="M107 173H71V142C71 140.9 71.9 140 73 140H105C106.1 140 107 140.9 107 142V173Z" fill="white"/>
<path d="M148 173H112V142C112 140.9 112.9 140 114 140H146C147.1 140 148 140.9 148 142V173Z" fill="white"/>
<path d="M104 144H74V173H104V144Z" fill="#444444"/>
<path d="M104 143H74V153H104V143Z" fill="#61ACD6"/>
<path d="M104 148H74V149H104V148Z" fill="#7AC1E5"/>
<path d="M104 146H74V147H104V146Z" fill="#7AC1E5"/>
<path d="M104 144H74V145H104V144Z" fill="#7AC1E5"/>
<path opacity="0.2" d="M104 143H74V144H104V143Z" fill="url(#paint1_linear_2_8807)"/>
<path d="M151 128H67C63.1 128 60 131.1 60 135H158C158 131.1 154.9 128 151 128Z" fill="#7AC1E5"/>
<path d="M155 135H63V136H155V135Z" fill="#4089C6"/>
<path d="M145 144H115V173H145V144Z" fill="#444444"/>
<path d="M123 147H120V172H123V147Z" fill="#262626"/>
<path d="M145 147H138V172H145V147Z" fill="#262626"/>
<path d="M145 143H115V147H145V143Z" fill="#61ACD6"/>
<path d="M145 146H115V147H145V146Z" fill="#7AC1E5"/>
<path d="M145 144H115V145H145V144Z" fill="#7AC1E5"/>
<path opacity="0.2" d="M145 143H115V144H145V143Z" fill="url(#paint2_linear_2_8807)"/>
<path d="M104 150H74V151H104V150Z" fill="#7AC1E5"/>
<path d="M104 152H74V153H104V152Z" fill="#7AC1E5"/>
<path d="M101 164H74V172H101V164Z" fill="#262626"/>
<path d="M83 157H76V172H83V157Z" fill="#233866"/>
<path d="M82 158H77V161H82V158Z" fill="#172E56"/>
<path d="M80.4 159H78.7V160H80.4V159Z" fill="#32373F"/>
<path d="M82 162H77V165H82V162Z" fill="#172E56"/>
<path d="M79 163H77.7V165H79V163Z" fill="#6B6B6B"/>
<path d="M81 164H77.7V165H81V164Z" fill="#32373F"/>
<path d="M82 166H77V169H82V166Z" fill="#172E56"/>
<path d="M82 170H77V172H82V170Z" fill="#172E56"/>
<path d="M79.8 167.4H77V168.6H79.8V167.4Z" fill="#32373F"/>
<path d="M79.8 167.4H77V167.8H79.8V167.4Z" fill="#1B2735"/>
<path d="M79.8 168.6H77V169H79.8V168.6Z" fill="#1B2735"/>
<path d="M79 167H77.8V167.4H79V167Z" fill="#6B6B6B"/>
<path d="M123 157H116V172H123V157Z" fill="#233866"/>
<path d="M122 158H117V161H122V158Z" fill="#172E56"/>
<path d="M120.4 159H118.7V160H120.4V159Z" fill="#32373F"/>
<path d="M122 162H117V165H122V162Z" fill="#172E56"/>
<path d="M119 163H117.7V165H119V163Z" fill="#6B6B6B"/>
<path d="M121 164H117.7V165H121V164Z" fill="#32373F"/>
<path d="M122 166H117V169H122V166Z" fill="#172E56"/>
<path d="M122 170H117V172H122V170Z" fill="#172E56"/>
<path d="M119.8 167.4H117V168.6H119.8V167.4Z" fill="#32373F"/>
<path d="M119.8 167.4H117V167.8H119.8V167.4Z" fill="#1B2735"/>
<path d="M119.8 168.6H117V169H119.8V168.6Z" fill="#1B2735"/>
<path d="M119 167H117.8V167.4H119V167Z" fill="#6B6B6B"/>
<path d="M104 172H74V173H104V172Z" fill="#353535"/>
<path d="M145 172H115V173H145V172Z" fill="#353535"/>
<path opacity="0.2" d="M145.9 172.6C145.9 173.2 140.6 173.2 134 173.2C127.4 173.2 122.1 173.1 122.1 172.6C122.1 172.1 127.4 171.1 134 171.1C140.6 171.1 145.9 172.1 145.9 172.6Z" fill="url(#paint3_radial_2_8807)"/>
<path d="M143.2 172.8H145.3C145.9 172.8 146.3 172.4 146.3 171.8V166.8C146.3 166.2 145.9 165.8 145.3 165.8H143.2C142.6 165.8 142.2 166.2 142.2 166.8V171.8C142.2 172.3 142.6 172.8 143.2 172.8Z" fill="#222326"/>
<path d="M124.8 172.8H122.7C122.1 172.8 121.7 172.4 121.7 171.8V166.8C121.7 166.2 122.1 165.8 122.7 165.8H124.8C125.4 165.8 125.8 166.2 125.8 166.8V171.8C125.8 172.3 125.4 172.8 124.8 172.8Z" fill="#222326"/>
<path opacity="0.2" d="M144 173.1C146.209 173.1 148 172.876 148 172.6C148 172.324 146.209 172.1 144 172.1C141.791 172.1 140 172.324 140 172.6C140 172.876 141.791 173.1 144 173.1Z" fill="url(#paint4_radial_2_8807)"/>
<path opacity="0.2" d="M124.1 173.1C126.309 173.1 128.1 172.876 128.1 172.6C128.1 172.324 126.309 172.1 124.1 172.1C121.891 172.1 120.1 172.324 120.1 172.6C120.1 172.876 121.891 173.1 124.1 173.1Z" fill="url(#paint5_radial_2_8807)"/>
<path d="M142.8 161.5C142.8 161 138.8 161 134 161C129.1 161 125.2 161.1 125.2 161.5C125.2 162 129.2 162.2 134 162.2C138.9 162.2 142.8 162 142.8 161.5Z" fill="#EF9841"/>
<path d="M133.9 166.2H125.3L126.5 160.4C126.7 159.6 127.4 159 128.2 159H131.1C131.9 159 132.6 159.6 132.8 160.4L133.9 166.2Z" fill="#A87648"/>
<path d="M131.5 159.1H127.7C127.7 158.5 128.2 158 128.8 158H130.4C131 157.9 131.5 158.4 131.5 159.1Z" fill="#A87648"/>
<path d="M132.6 167H126.7L127.5 161.2C127.6 160.4 128.1 159.8 128.7 159.8H130.7C131.3 159.8 131.8 160.4 131.9 161.2L132.6 167Z" fill="#93633B"/>
<path d="M142.6 166.2H134L135.2 160.4C135.4 159.6 136.1 159 136.9 159H139.8C140.6 159 141.3 159.6 141.5 160.4L142.6 166.2Z" fill="#A87648"/>
<path d="M140.1 159.1H136.3C136.3 158.5 136.8 158 137.4 158H139C139.6 157.9 140.1 158.4 140.1 159.1Z" fill="#A87648"/>
<path d="M141.2 167H135.3L136.1 161.2C136.2 160.4 136.7 159.8 137.3 159.8H139.3C139.9 159.8 140.4 160.4 140.5 161.2L141.2 167Z" fill="#93633B"/>
<path d="M138.1 160.8C136.5 160.8 135.2 162.1 135.2 163.7C135.2 165.3 136.5 166.6 138.1 166.6C139.7 166.6 141 165.3 141 163.7C141 162 139.7 160.8 138.1 160.8ZM138.1 165.7C136.9 165.7 136 164.8 136 163.6C136 162.4 136.9 161.5 138.1 161.5C139.3 161.5 140.2 162.4 140.2 163.6C140.2 164.8 139.3 165.7 138.1 165.7Z" fill="#494E5B"/>
<path d="M143.7 161.7C143.7 162 139.3 162.4 134 162.4C128.7 162.4 124.3 162 124.3 161.7C124.3 161.4 128.7 162 134 162C139.3 162 143.7 161.5 143.7 161.7Z" fill="#FFC043"/>
<path d="M123.8 161C123.6 161 121.3 160.6 121.4 161.7C121.6 162.8 124.2 163.1 124.2 163.1L124.6 162.5L124.1 162.4C124.4 162 124.4 161.1 123.8 161ZM144.1 161C143.5 161.1 143.6 162 143.8 162.4L143.3 162.5L143.7 163.1C143.7 163.1 146.3 162.8 146.5 161.7C146.7 160.6 144.4 161 144.1 161Z" fill="#FFC043"/>
<g opacity="0.3">
<g opacity="0.3">
<path opacity="0.3" d="M143.8 161.3C143.7 161.6 143.7 162.1 143.9 162.4L143.4 162.5L143.8 163.1C143.8 163.1 144.6 163 145.4 162.7C144.7 162.1 144.1 161.8 143.8 161.3Z" fill="#EF9841"/>
<path opacity="0.3" d="M122.7 162.7C123.5 163 124.3 163.1 124.3 163.1L124.7 162.5L124.2 162.4C124.4 162.1 124.4 161.7 124.3 161.3C123.9 161.8 123.3 162.1 122.7 162.7Z" fill="#EF9841"/>
</g>
</g>
<path d="M135 157.2H133C132.5 157.2 132.1 156.8 132.1 156.3H136C135.9 156.8 135.5 157.2 135 157.2Z" fill="#FFC043"/>
<path opacity="0.3" d="M124.9 161.8C124.9 161.8 125 161.4 125.2 160.7C125.9 158.2 128.1 156.5 130.6 156.5C131.6 156.5 132.7 156.5 133.9 156.5C135.1 156.5 136.3 156.5 137.2 156.5C139.7 156.5 141.9 158.2 142.6 160.7C142.8 161.3 142.9 161.8 142.9 161.8C141.6 162.2 136.3 162.2 133.8 162.2C131.5 162.3 126.3 162.3 124.9 161.8Z" fill="#ADBCC9"/>
<path opacity="0.3" d="M134 156.6C132.8 156.6 131.6 156.6 130.7 156.6C128.2 156.6 126 158.3 125.3 160.8C125.1 161.4 125 161.9 125 161.9C125.9 162.2 128.7 162.3 131.1 162.3L134.2 156.6C134.1 156.6 134 156.6 134 156.6ZM135.2 156.6L132.1 162.3C132.7 162.3 133.3 162.3 133.7 162.3L136.8 156.6C136.4 156.6 135.8 156.6 135.2 156.6Z" fill="white"/>
<path d="M143.7 161.5C143.6 161.2 143.3 160.6 143.1 160C142.2 157.9 140.2 156.4 137.9 156.4C136.9 156.4 135.6 156.4 134 156.3C132.4 156.3 131.1 156.4 130.1 156.4C127.8 156.4 125.7 157.9 124.9 160C124.7 160.6 124.4 161.2 124.3 161.5C123.8 162.6 121.6 162.8 121.6 165.7C121.6 166 121.6 166.8 121.6 167.1C121.7 168 121.7 168.8 121.8 169.7C121.9 170.6 122.9 171.1 123.5 171.2C123.9 171.2 130.8 171.3 134.1 171.4C137.4 171.3 144.2 171.2 144.7 171.2C145.2 171.2 146.3 170.6 146.4 169.7C146.5 168.8 146.5 168 146.6 167.1C146.6 166.8 146.6 166 146.6 165.7C146.4 162.8 144.1 162.5 143.7 161.5ZM134 162.2C131.7 162.2 127.5 162.1 125.8 161.8C125.5 161.7 125.3 161.5 125.4 161.2C125.4 161.1 125.4 161 125.5 160.9C126.2 158.7 128 156.8 130.7 156.8C131.7 156.8 132.8 156.8 134 156.8C135.2 156.8 136.4 156.8 137.3 156.8C139.9 156.8 141.8 158.8 142.5 160.9C142.5 161 142.6 161.1 142.6 161.2C142.7 161.5 142.5 161.8 142.2 161.8C140.5 162.1 136.3 162.2 134 162.2Z" fill="#FFC840"/>
<path d="M144.5 169C144.4 168.8 144 168.9 144 168.9C141.4 169.2 134 169.1 134 169.1C134 169.1 126.5 169.1 124 168.9C124 168.9 123.6 168.8 123.5 169C123.4 169.2 123.2 170.2 127.1 170.4C131 170.6 134.1 170.5 134.1 170.5C134.1 170.5 137.1 170.5 141.1 170.4C144.9 170.2 144.6 169.2 144.5 169Z" fill="#525866"/>
<path d="M145.1 163C145.1 162.9 143.9 161.8 143.7 161.3C143.6 161 143.3 160.4 143.1 159.8C142.2 157.6 140.2 156.1 137.9 156.1C136.9 156.1 135.6 156.1 134 156C132.4 156 131.1 156.1 130.1 156.1C127.8 156.1 125.7 157.6 124.9 159.8C124.7 160.4 124.4 161 124.3 161.3C124.1 161.8 122.9 162.9 122.9 163C122.9 163.8 127.9 164.4 134 164.4C140.1 164.4 145.1 163.8 145.1 163ZM124.9 161.8C124.9 161.8 125 161.4 125.2 160.7C125.9 158.2 128.1 156.5 130.6 156.5C131.6 156.5 132.7 156.5 133.9 156.5C135.1 156.5 136.3 156.5 137.2 156.5C139.7 156.5 141.9 158.2 142.6 160.7C142.8 161.3 142.9 161.8 142.9 161.8C141.6 162.2 136.3 162.2 133.8 162.2C131.5 162.3 126.3 162.3 124.9 161.8Z" fill="#FFD45A"/>
<path opacity="0.5" d="M127.6 166.1C127.6 166.7 124.8 166.9 124 166.9C123.2 166.9 122.6 166.4 122.6 165.8C122.6 165.2 123.2 164.7 124 164.7C124.8 164.7 127.6 165.5 127.6 166.1Z" fill="#EF9841"/>
<path opacity="0.5" d="M140.4 166.1C140.4 166.7 143.2 166.9 144 166.9C144.8 166.9 145.4 166.4 145.4 165.8C145.4 165.2 144.8 164.7 144 164.7C143.2 164.7 140.4 165.5 140.4 166.1Z" fill="#EF9841"/>
<path d="M126.9 165.9C126.9 166.5 124.5 166.6 123.8 166.6C123.1 166.6 122.6 166.1 122.6 165.6C122.6 165 123.1 164.6 123.8 164.6C124.5 164.6 126.9 165.3 126.9 165.9Z" fill="#E5E5E5"/>
<path d="M141.1 165.9C141.1 166.5 143.5 166.6 144.2 166.6C144.9 166.6 145.4 166.1 145.4 165.6C145.4 165 144.9 164.6 144.2 164.6C143.5 164.5 141.1 165.3 141.1 165.9Z" fill="#E5E5E5"/>
<path d="M144.9 167.6C144.9 168 140 168.3 134 168.3C128 168.3 123.1 168 123.1 167.6C123.1 167.2 128 167.9 134 167.9C140 167.8 144.9 167.1 144.9 167.6Z" fill="#FFD45A"/>
<path d="M125.5 166.3C123.3 166 123.9 164.9 123.9 164.9H123.8C123.4 164.9 123.1 165.2 123.1 165.5C123.1 165.6 123.1 165.7 123.2 165.9C123.4 166.4 125.5 166.3 125.5 166.3Z" fill="white"/>
<path d="M144.2 164.9C144.2 164.9 142.9 165.5 142.1 166.2C142 166.2 140.3 165.8 144.2 164.9Z" fill="white"/>
<path d="M143 169.1V169.9C144.5 169.6 144.3 169.2 144.3 169.1C144.2 169 143.3 169.1 143 169.1Z" fill="#A5A5A5"/>
<path d="M125 169.1C124.7 169.1 123.8 168.9 123.7 169.1C123.6 169.2 123.5 169.7 125 169.9V169.1Z" fill="#A5A5A5"/>
<path d="M128.4 166.4C128.4 166.6 128.5 166.6 128.6 166.7L130.3 166.8C130.7 166.8 131.1 166.8 131.6 166.8V166.4L128.6 166.3C128.5 166.2 128.4 166.3 128.4 166.4ZM132.2 166.4H131.9V166.8C133.3 166.8 134.7 166.8 136 166.8V166.4H135.8C134.6 166.4 133.4 166.4 132.2 166.4ZM139.4 166.3L136.2 166.4V166.8C136.7 166.8 137.1 166.8 137.6 166.8L139.3 166.7C139.4 166.7 139.5 166.6 139.5 166.5C139.6 166.3 139.5 166.2 139.4 166.3Z" fill="#525866"/>
<path d="M138.1 169.9H129.9C129.8 169.9 129.8 169.9 129.8 169.8V168.2C129.8 168.1 129.8 168.1 129.9 168.1H138.1C138.2 168.1 138.2 168.1 138.2 168.2V169.8C138.2 169.9 138.2 169.9 138.1 169.9Z" fill="white"/>
<path d="M130.6 168.1H129.8V169H130.6V168.1Z" fill="#1986C1"/>
<path d="M130.6 169H129.8V169.9H130.6V169Z" fill="#FFD45A"/>
<path d="M130.2 169.4H130V169.7H130.2V169.4Z" fill="#EF9841"/>
<path d="M130 168.7L130.1 168.8L130.3 168.7V168.4H130V168.7Z" stroke="#FFD45A" stroke-width="0.05" stroke-miterlimit="10"/>
<path d="M130.2 168.5V168.7L130.1 168.5V168.7V168.5H130V168.7H130.1H130.2V168.5Z" fill="#FFD45A"/>
<path d="M138.1 169.9H130C129.9 169.9 129.9 169.8 129.9 169.7V168.2C129.9 168.1 130 168 130 168H138.1C138.2 168 138.3 168.1 138.3 168.2V169.7C138.2 169.9 138.1 169.9 138.1 169.9Z" stroke="#494949" stroke-width="0.2" stroke-miterlimit="10"/>
<path d="M131.6 168.5H131V169.6H131.6V168.5Z" fill="#727272"/>
<path d="M132.5 168.5H131.9V169.6H132.5V168.5Z" fill="#727272"/>
<path d="M133.6 168.5H133V169.6H133.6V168.5Z" fill="#727272"/>
<path d="M134.3 168.5H133.7V169.6H134.3V168.5Z" fill="#727272"/>
<path d="M135.1 168.5H134.5V169.6H135.1V168.5Z" fill="#727272"/>
<path d="M135.8 168.5H135.2V169.6H135.8V168.5Z" fill="#727272"/>
<path d="M136.9 168.5H136.3V169.6H136.9V168.5Z" fill="#727272"/>
<path d="M137.7 168.5H137.1V169.6H137.7V168.5Z" fill="#727272"/>
<path d="M89.5 171H84.5C84.2 171 84 170.8 84 170.5V165.5C84 165.2 84.2 165 84.5 165H89.5C89.8 165 90 165.2 90 165.5V170.5C90 170.8 89.8 171 89.5 171Z" fill="#418899"/>
<path d="M89.1 170.6H85C84.7 170.6 84.5 170.4 84.5 170.1V166C84.5 165.7 84.7 165.5 85 165.5H89.1C89.4 165.5 89.6 165.7 89.6 166V170.1C89.6 170.3 89.3 170.6 89.1 170.6Z" fill="#336A7F"/>
<path d="M89 166H85V167H89V166Z" fill="#32373F"/>
<path d="M86 171H85V172H86V171Z" fill="#32373F"/>
<path d="M89 171H88V172H89V171Z" fill="#32373F"/>
<path d="M87.8 166.3H86.3V166.7H87.8V166.3Z" fill="#6B6B6B"/>
<path d="M89 168H85V169H89V168Z" fill="#32373F"/>
<path d="M87.8 168.3H86.3V168.7H87.8V168.3Z" fill="#6B6B6B"/>
<path d="M104 162H101V172H104V162Z" fill="#ED6845"/>
<path d="M104 172H102V168.1C102 167.5 102.4 167.1 103 167.1C103.6 167.1 104 167.5 104 168.1V172Z" fill="#594743"/>
<path d="M103 168.7C103.331 168.7 103.6 168.431 103.6 168.1C103.6 167.769 103.331 167.5 103 167.5C102.669 167.5 102.4 167.769 102.4 168.1C102.4 168.431 102.669 168.7 103 168.7Z" fill="#383838"/>
<path d="M91 158H84V163H91V158Z" fill="#383838"/>
<path d="M85.8 162H85.9C86 161.9 86 161.8 86 161.7C86 161.5 85.9 161.3 85.7 161.3V160C85.9 159.9 86 159.8 86 159.6C86 159.5 86 159.4 85.9 159.3H85.8V159.6L85.6 159.8L85.4 159.6V159.3H85.3C85.2 159.4 85.2 159.5 85.2 159.6C85.2 159.8 85.3 160 85.5 160V161.3C85.3 161.4 85.2 161.5 85.2 161.7C85.2 161.8 85.2 161.9 85.3 162H85.4V161.7L85.6 161.5L85.8 161.7V162Z" fill="#262626"/>
<path d="M87.8 162H87.9C88 161.9 88 161.8 88 161.7C88 161.5 87.9 161.3 87.7 161.3V160C87.9 159.9 88 159.8 88 159.6C88 159.5 88 159.4 87.9 159.3H87.8V159.6L87.6 159.8L87.4 159.6V159.3H87.3C87.2 159.4 87.2 159.5 87.2 159.6C87.2 159.8 87.3 160 87.5 160V161.3C87.3 161.4 87.2 161.5 87.2 161.7C87.2 161.8 87.2 161.9 87.3 162H87.4V161.7L87.6 161.5L87.8 161.7V162Z" fill="#262626"/>
<path d="M89.8 162H89.9C90 161.9 90 161.8 90 161.7C90 161.5 89.9 161.3 89.7 161.3V160C89.9 159.9 90 159.8 90 159.6C90 159.5 90 159.4 89.9 159.3H89.8V159.6L89.6 159.8L89.4 159.6V159.3H89.3C89.2 159.4 89.2 159.5 89.2 159.6C89.2 159.8 89.3 160 89.5 160V161.3C89.3 161.4 89.2 161.5 89.2 161.7C89.2 161.8 89.2 161.9 89.3 162H89.4V161.7L89.6 161.5L89.8 161.7V162Z" fill="#262626"/>
<path d="M100.5 172H95.5C95.2 172 95 171.8 95 171.5V166.5C95 166.2 95.2 166 95.5 166H100.5C100.8 166 101 166.2 101 166.5V171.5C101 171.8 100.8 172 100.5 172Z" fill="#444444"/>
<path d="M148 154H145V173H148V154Z" fill="white"/>
<path d="M144 133H83V126C83 123.2 85.2 121 88 121H139C141.8 121 144 123.2 144 126V133Z" fill="#4299CE"/>
<path d="M93.9 128.3C93.9 129 93.7 129.5 93.3 129.8C92.9 130.1 92.4 130.3 91.8 130.3C91.1 130.3 90.6 130.1 90.1 129.7C89.7 129.3 89.5 128.7 89.5 128.1V127C89.5 126.3 89.7 125.8 90.1 125.4C90.5 125 91 124.8 91.7 124.8C92.4 124.8 92.9 125 93.3 125.3C93.7 125.6 93.9 126.1 93.9 126.8H92.7C92.7 126.4 92.6 126.2 92.5 126C92.4 125.8 92.1 125.7 91.8 125.7C91.5 125.7 91.3 125.8 91.1 126C90.9 126.2 90.9 126.5 90.9 126.9V128.1C90.9 128.5 91 128.8 91.2 129C91.4 129.2 91.6 129.4 91.9 129.4C92.2 129.4 92.4 129.3 92.6 129.2C92.7 129 92.8 128.8 92.8 128.4H93.9V128.3Z" fill="#B1DDEF"/>
<path d="M97.5 129.2H95.8L95.5 130.3H94.2L96 124.8H97.4L99.2 130.3H97.9L97.5 129.2ZM96.1 128.2H97.3L96.7 126.2L96.1 128.2Z" fill="#B1DDEF"/>
<path d="M100.8 128.1V130.2H99.5V124.7H101.6C102.2 124.7 102.7 124.8 103.1 125.1C103.5 125.4 103.7 125.8 103.7 126.3C103.7 126.6 103.6 126.8 103.5 127C103.4 127.2 103.1 127.4 102.8 127.5C103.1 127.6 103.4 127.8 103.5 128C103.6 128.2 103.7 128.5 103.7 128.8V129.1C103.7 129.2 103.7 129.4 103.8 129.6C103.8 129.8 103.9 129.9 104 130V130.1H102.7C102.6 130 102.5 129.9 102.5 129.7C102.5 129.5 102.5 129.3 102.5 129.1V129C102.5 128.7 102.4 128.5 102.3 128.4C102.2 128.3 102 128.2 101.7 128.2H100.8V128.1ZM100.8 127.2H101.6C101.9 127.2 102.1 127.1 102.2 127C102.3 126.9 102.4 126.7 102.4 126.5C102.4 126.3 102.3 126.1 102.2 126C102.1 125.9 101.9 125.8 101.6 125.8H100.8V127.2Z" fill="#B1DDEF"/>
<path d="M109.5 128.8C109.5 128.6 109.4 128.5 109.3 128.4C109.2 128.3 108.9 128.2 108.6 128.1C107.9 127.9 107.4 127.6 107.1 127.4C106.8 127.1 106.6 126.8 106.6 126.3C106.6 125.8 106.8 125.5 107.2 125.2C107.6 124.9 108.1 124.8 108.7 124.8C109.3 124.8 109.8 125 110.2 125.3C110.6 125.6 110.8 126 110.8 126.5H109.6C109.6 126.3 109.5 126.1 109.4 126C109.3 125.9 109 125.8 108.8 125.8C108.5 125.8 108.3 125.9 108.2 126C108.1 126.1 108 126.3 108 126.4C108 126.6 108.1 126.7 108.2 126.8C108.3 126.9 108.6 127 109 127.2C109.6 127.4 110.1 127.6 110.4 127.9C110.7 128.2 110.9 128.5 110.9 129C110.9 129.5 110.7 129.9 110.3 130.1C109.9 130.3 109.4 130.5 108.8 130.5C108.2 130.5 107.6 130.3 107.2 130C106.7 129.7 106.5 129.2 106.5 128.6H107.7C107.7 128.9 107.8 129.1 108 129.3C108.2 129.4 108.4 129.5 108.8 129.5C109.1 129.5 109.3 129.4 109.4 129.3C109.4 129.1 109.5 129 109.5 128.8Z" fill="#B1DDEF"/>
<path d="M114.9 127.9H112.7V129.3H115.2V130.3H111.4V124.8H115.2V125.8H112.7V127H114.9V127.9Z" fill="#B1DDEF"/>
<path d="M117.1 128.1V130.2H115.8V124.7H117.9C118.5 124.7 119 124.8 119.4 125.1C119.8 125.4 120 125.8 120 126.3C120 126.6 119.9 126.8 119.8 127C119.7 127.2 119.4 127.4 119.1 127.5C119.4 127.6 119.7 127.8 119.8 128C119.9 128.2 120 128.5 120 128.8V129.1C120 129.2 120 129.4 120.1 129.6C120.1 129.8 120.2 129.9 120.3 130V130.1H119C118.9 130 118.8 129.9 118.8 129.7C118.8 129.5 118.8 129.3 118.8 129.1V129C118.8 128.7 118.7 128.5 118.6 128.4C118.5 128.3 118.3 128.2 118 128.2H117.1V128.1ZM117.1 127.2H117.9C118.2 127.2 118.4 127.1 118.5 127C118.6 126.9 118.7 126.7 118.7 126.5C118.7 126.3 118.6 126.1 118.5 126C118.4 125.9 118.2 125.8 117.9 125.8H117.1V127.2Z" fill="#B1DDEF"/>
<path d="M122.8 128.8V129V128.8L124 124.8H125.3L123.5 130.3H122.1L120.3 124.8H121.6L122.8 128.8Z" fill="#B1DDEF"/>
<path d="M127.1 130.3H125.8V124.8H127.1V130.3Z" fill="#B1DDEF"/>
<path d="M132.3 128.3C132.3 129 132.1 129.5 131.7 129.8C131.3 130.1 130.8 130.3 130.2 130.3C129.5 130.3 129 130.1 128.5 129.7C128.1 129.3 127.9 128.7 127.9 128.1V127C127.9 126.3 128.1 125.8 128.5 125.4C128.9 125 129.4 124.8 130.1 124.8C130.8 124.8 131.3 125 131.7 125.3C132.1 125.6 132.3 126.1 132.3 126.8H131.1C131.1 126.4 131 126.2 130.9 126C130.8 125.8 130.5 125.7 130.2 125.7C129.9 125.7 129.7 125.8 129.5 126C129.3 126.2 129.3 126.5 129.3 126.9V128.1C129.3 128.5 129.4 128.8 129.6 129C129.8 129.2 130 129.4 130.3 129.4C130.6 129.4 130.8 129.3 131 129.2C131.1 129 131.2 128.8 131.2 128.4H132.3V128.3Z" fill="#B1DDEF"/>
<path d="M136.5 127.9H134.3V129.3H136.8V130.3H133V124.8H136.8V125.8H134.3V127H136.5V127.9Z" fill="#B1DDEF"/>
<path opacity="0.2" d="M96 106H84V117H85V107H96V106Z" fill="#32546B"/>
<path opacity="0.2" d="M112 106H100V117H101V107H112V106Z" fill="#32546B"/>
<path opacity="0.2" d="M128 106H116V117H117V107H128V106Z" fill="#32546B"/>
<path opacity="0.2" d="M144 106H132V117H133V107H144V106Z" fill="#32546B"/>
<path d="M79.4 162.7C76.3 158.5 71.6 155.7 66.4 155.7C61.2 155.7 56.5 158.5 53.4 162.8H53.3V170.2H82.4C82.9 170.2 83.3 169.8 83.2 169.3C82.4 165.7 81.5 163 79.4 162.7ZM69.4 162.7C69.4 162.7 60.6 162.7 56.2 162.7C56.2 162.7 59.8 155 69.4 156.9V162.7ZM75.4 162.5L70.9 162.7H70.7L70.6 157.2C73.5 158 74.8 160 75.8 161.9C75.9 162.2 75.7 162.5 75.4 162.5Z" fill="#474747"/>
<path d="M68.7 169.7L68.3 169.6C67.6 169.5 67.2 168.9 67.3 168.2L68.5 160.9C68.6 160.2 69.2 159.8 69.9 159.9L70.3 160C71 160.1 71.4 160.7 71.3 161.4L70.1 168.7C70 169.4 69.4 169.8 68.7 169.7Z" fill="#303030"/>
<path d="M70.4 160.2H70.1C69.6 160.1 69.3 159.7 69.4 159.2L69.5 158.5C69.6 158 70 157.7 70.5 157.8H70.8C71.3 157.9 71.6 158.3 71.5 158.8L71.4 159.5C71.3 160 70.8 160.3 70.4 160.2Z" fill="#303030"/>
<path d="M85.2 170.5C84.4 166.3 83.3 163.3 81 162.9C77.5 158 72.4 155 66.7 155C60.9 155 55.8 158.1 52.3 163C49.8 163.4 47.5 162.9 45.1 165.7C44.2 166.8 43.9 168.5 43.9 169.6V170.8C43.9 171.2 44.2 171.5 44.6 171.5H46.7C46.7 170.9 48.7 170.4 51.1 170.4C53.5 170.4 55.5 170.9 55.5 171.5H73.7C73.7 170.9 75.7 170.4 78.1 170.4C80.5 170.4 82.5 170.9 82.5 171.5H84.6C84.9 171.6 85.3 171.1 85.2 170.5ZM55.9 162.3C58.4 158.4 61.8 156.2 66.6 156.2C67.6 156.2 68.5 156.3 69.3 156.4L69.1 163.1H56.4C55.9 163.2 55.7 162.7 55.9 162.3ZM76.4 162.9L70.8 163.2H70.5L70.4 156.4C73.9 157.4 75.6 159.8 76.8 162.3C77 162.6 76.7 162.9 76.4 162.9Z" fill="#E85252"/>
<path d="M57.6 161.9C56.9 161.9 55.6 162.7 55.6 162.7C55.6 162.7 55.5 163.1 55.6 163.3C55.7 163.4 55.7 163.5 56.3 163.7C56.9 163.9 58.1 164.2 58.3 164.1C59.1 163.7 58.3 161.9 57.6 161.9ZM56 164.9C54.3 163.4 52 163 49.7 163.4C49.7 163.4 53.4 163.1 55.7 165.4C57.1 166.7 57.9 168.4 57.9 170.4L58.2 170.3C58.3 168.2 57.5 166.2 56 164.9ZM68.3 164.6H67C66.9 164.6 66.7 164.7 66.7 164.9V165C66.7 165.1 66.8 165.3 67 165.3H68.3C68.4 165.3 68.6 165.2 68.6 165V164.9C68.6 164.7 68.4 164.6 68.3 164.6ZM73.3 164.6C71.7 165.9 70.9 168.1 70.8 170.2C70.8 170.2 71.3 166.4 73.8 164.8C76.5 163 79.6 164.1 79.6 164.1C78 163.1 75.1 163.2 73.3 164.6Z" fill="#CE3E3E"/>
<path d="M76.8 162.2C75.6 159.8 74 157.3 70.4 156.3L70.5 163.1H70.8L76.4 162.8C76.7 162.9 77 162.6 76.8 162.2ZM76 162.8L71 163.1H70.7L70.6 156.8C73.8 157.7 75.3 160 76.4 162.2C76.5 162.5 76.3 162.8 76 162.8Z" fill="#333333"/>
<path opacity="0.7" d="M76.4 162.2C75.3 159.9 73.8 157.7 70.6 156.8L70.7 163.1H71L76 162.8C76.3 162.8 76.5 162.5 76.4 162.2Z" fill="#596668"/>
<path d="M73.1 156.4C73.1 156.4 72.8 156.5 72.9 156.6C73 156.7 76.8 158.8 79 162.6C79 162.6 79.3 162.8 80.5 162.5C80.6 162.5 78 158.6 73.1 156.4Z" fill="#333333"/>
<path d="M79.1 162.4C79.1 162.4 79.4 162.6 80.4 162.3C79.8 161.5 77.4 158.4 73.3 156.5C73.2 156.5 73.2 156.6 73.2 156.7C73.5 156.8 77 158.8 79.1 162.4Z" fill="#596668"/>
<path d="M77.9 166.1C75.4 166.1 73.4 168.1 73.4 170.6C73.4 171 73.4 171.3 73.5 171.6C73.5 171 75.5 170.5 77.9 170.5C80.3 170.5 82.3 171 82.3 171.6C82.4 171.3 82.4 170.9 82.4 170.6C82.4 168.1 80.4 166.1 77.9 166.1Z" fill="#893D3D"/>
<path d="M59.2 156.8C56.2 158.3 53.5 160.5 51.4 163.1H52.5C53 163.1 53.4 162.9 53.6 162.5C54.3 161.4 56.2 158.9 59.2 156.9C59.4 156.9 59.3 156.8 59.2 156.8Z" fill="#333333"/>
<path d="M46.9124 166.455C47.387 165.709 47.5074 164.937 47.1813 164.729C46.8552 164.521 46.2061 164.957 45.7315 165.703C45.2569 166.448 45.1365 167.221 45.4626 167.428C45.7887 167.636 46.4378 167.2 46.9124 166.455Z" fill="#CECECE"/>
<path d="M46.5636 166.284C46.9788 165.631 47.1267 164.983 46.8938 164.834C46.6608 164.686 46.1353 165.094 45.7201 165.747C45.3048 166.399 45.1569 167.048 45.3899 167.196C45.6228 167.344 46.1483 166.936 46.5636 166.284Z" fill="#E9E5E4"/>
<path d="M51 166.1C48.5 166.1 46.5 168.1 46.5 170.6C46.5 171 46.5 171.3 46.6 171.6C46.6 171 48.6 170.5 51 170.5C53.4 170.5 55.4 171 55.4 171.6C55.5 171.3 55.5 170.9 55.5 170.6C55.5 168.1 53.5 166.1 51 166.1Z" fill="#893D3D"/>
<path d="M51 172.1C51.8837 172.1 52.6 171.384 52.6 170.5C52.6 169.616 51.8837 168.9 51 168.9C50.1163 168.9 49.4 169.616 49.4 170.5C49.4 171.384 50.1163 172.1 51 172.1Z" fill="#B7B7B7"/>
<path d="M82.4412 166.297C82.5427 166.166 82.1298 165.675 81.5189 165.201C80.908 164.727 80.3305 164.449 80.2289 164.58C80.1273 164.711 80.5402 165.201 81.1511 165.675C81.762 166.149 82.3396 166.427 82.4412 166.297Z" fill="#9E1904"/>
<path d="M51.6 163H52.6C53.1 163 53.5 162.7 53.7 162.3C54.4 161.2 56.3 158.8 59.2 156.9C56.3 158.2 53.6 160.4 51.6 163Z" fill="#7C8786"/>
<path d="M51 172.7C52.215 172.7 53.2 171.715 53.2 170.5C53.2 169.285 52.215 168.3 51 168.3C49.785 168.3 48.8 169.285 48.8 170.5C48.8 171.715 49.785 172.7 51 172.7Z" fill="#CCCCCC"/>
<path d="M77.9 174.1C79.8882 174.1 81.5 172.488 81.5 170.5C81.5 168.512 79.8882 166.9 77.9 166.9C75.9118 166.9 74.3 168.512 74.3 170.5C74.3 172.488 75.9118 174.1 77.9 174.1Z" fill="#303030"/>
<path d="M77.9 172.4C78.9493 172.4 79.8 171.549 79.8 170.5C79.8 169.451 78.9493 168.6 77.9 168.6C76.8507 168.6 76 169.451 76 170.5C76 171.549 76.8507 172.4 77.9 172.4Z" fill="#B7B7B7"/>
<path d="M77.9 168.9C77 168.9 76.3 169.6 76.3 170.5C76.3 170.7 76.3 170.9 76.4 171.1C76.5 170.9 76.6 170.7 76.8 170.6V170.5C76.8 169.9 77.3 169.4 77.9 169.4C78.5 169.4 79 169.9 79 170.5V170.6C79.1 170.7 79.3 170.9 79.4 171.1C79.5 170.9 79.5 170.7 79.5 170.5C79.5 169.6 78.8 168.9 77.9 168.9Z" fill="#D1D1D1"/>
<path d="M51.2 174.1C53.1882 174.1 54.8 172.488 54.8 170.5C54.8 168.512 53.1882 166.9 51.2 166.9C49.2118 166.9 47.6 168.512 47.6 170.5C47.6 172.488 49.2118 174.1 51.2 174.1Z" fill="#303030"/>
<path d="M51.2 172.4C52.2493 172.4 53.1 171.549 53.1 170.5C53.1 169.451 52.2493 168.6 51.2 168.6C50.1507 168.6 49.3 169.451 49.3 170.5C49.3 171.549 50.1507 172.4 51.2 172.4Z" fill="#B7B7B7"/>
<path d="M51.2 168.9C50.3 168.9 49.6 169.6 49.6 170.5C49.6 170.7 49.6 170.9 49.7 171.1C49.8 170.9 49.9 170.7 50.1 170.6V170.5C50.1 169.9 50.6 169.4 51.2 169.4C51.8 169.4 52.3 169.9 52.3 170.5V170.6C52.4 170.7 52.6 170.9 52.7 171.1C52.8 170.9 52.8 170.7 52.8 170.5C52.8 169.6 52 168.9 51.2 168.9Z" fill="#D1D1D1"/>
<path opacity="0.4" d="M77.9 174.6C80.6062 174.6 82.8 174.331 82.8 174C82.8 173.669 80.6062 173.4 77.9 173.4C75.1938 173.4 73 173.669 73 174C73 174.331 75.1938 174.6 77.9 174.6Z" fill="url(#paint6_radial_2_8807)"/>
<path opacity="0.4" d="M51.4 174.6C54.1062 174.6 56.3 174.331 56.3 174C56.3 173.669 54.1062 173.4 51.4 173.4C48.6938 173.4 46.5 173.669 46.5 174C46.5 174.331 48.6938 174.6 51.4 174.6Z" fill="url(#paint7_radial_2_8807)"/>
<path opacity="0.4" d="M64.3 174.5C75.898 174.5 85.3 174.097 85.3 173.6C85.3 173.103 75.898 172.7 64.3 172.7C52.702 172.7 43.3 173.103 43.3 173.6C43.3 174.097 52.702 174.5 64.3 174.5Z" fill="url(#paint8_radial_2_8807)"/>
<path opacity="0.7" d="M56.2 162.2C56 162.6 56.2 163 56.7 163H68.9L69.1 156.6C68.3 156.4 67.5 156.4 66.5 156.4C61.8 156.3 58.5 158.5 56.2 162.2Z" fill="#596668"/>
<path opacity="0.25" d="M68 156.4L64.1 163.2H65.4L69.2 156.6C68.8 156.4 68.4 156.4 68 156.4ZM66.4 156.3C65.7 156.3 65.1 156.3 64.4 156.4L60.5 163.1H63.4L67.3 156.3C67.1 156.3 66.8 156.3 66.4 156.3Z" fill="white"/>
<path d="M66.6 156.1C61.8 156.1 58.4 158.4 55.9 162.3C55.7 162.7 55.9 163.2 56.4 163.2H69.1L69.3 156.4C68.5 156.2 67.6 156.1 66.6 156.1ZM68.8 163H56.6C56.2 163 55.9 162.5 56.1 162.2C58.5 158.5 61.8 156.4 66.3 156.4C67.3 156.4 68.1 156.5 68.9 156.6L68.8 163Z" fill="black"/>
<path d="M55.6 162.3C55.6 162.3 57.1 161.2 57.9 161.1C58.7 160.9 59.6 162.6 58.7 163.2C58.5 163.3 57 163.4 56.4 163.2C55.8 163 55.8 163 55.6 162.9C55.5 162.8 55.6 162.3 55.6 162.3Z" fill="#E85252"/>
<defs>
<radialGradient id="paint0_radial_2_8807" cx="0" cy="0" r="1" gradientUnits="userSpaceOnUse" gradientTransform="translate(185.011 173.024) scale(43.0787 3.73236)">
<stop stop-color="#A0B3BA"/>
<stop offset="0.5446" stop-color="#C3D2DB" stop-opacity="0.6"/>
<stop offset="1" stop-color="#C3D2DB" stop-opacity="0"/>
</radialGradient>
<linearGradient id="paint1_linear_2_8807" x1="89" y1="144" x2="89" y2="143" gradientUnits="userSpaceOnUse">
<stop stop-opacity="0.1"/>
<stop offset="1"/>
</linearGradient>
<linearGradient id="paint2_linear_2_8807" x1="130" y1="144" x2="130" y2="143" gradientUnits="userSpaceOnUse">
<stop stop-opacity="0.1"/>
<stop offset="1"/>
</linearGradient>
<radialGradient id="paint3_radial_2_8807" cx="0" cy="0" r="1" gradientUnits="userSpaceOnUse" gradientTransform="translate(133.96 172.15) scale(11.9441 1.04108)">
<stop/>
<stop offset="1" stop-opacity="0"/>
</radialGradient>
<radialGradient id="paint4_radial_2_8807" cx="0" cy="0" r="1" gradientUnits="userSpaceOnUse" gradientTransform="translate(143.939 172.658) scale(4.03986 0.539772)">
<stop/>
<stop offset="1" stop-opacity="0"/>
</radialGradient>
<radialGradient id="paint5_radial_2_8807" cx="0" cy="0" r="1" gradientUnits="userSpaceOnUse" gradientTransform="translate(124.108 172.658) scale(4.03986 0.539772)">
<stop/>
<stop offset="1" stop-opacity="0"/>
</radialGradient>
<radialGradient id="paint6_radial_2_8807" cx="0" cy="0" r="1" gradientUnits="userSpaceOnUse" gradientTransform="translate(77.913 174.018) scale(4.86361 0.557384)">
<stop/>
<stop offset="1" stop-opacity="0"/>
</radialGradient>
<radialGradient id="paint7_radial_2_8807" cx="0" cy="0" r="1" gradientUnits="userSpaceOnUse" gradientTransform="translate(51.4652 174.018) scale(4.86361 0.557384)">
<stop/>
<stop offset="1" stop-opacity="0"/>
</radialGradient>
<radialGradient id="paint8_radial_2_8807" cx="0" cy="0" r="1" gradientUnits="userSpaceOnUse" gradientTransform="translate(64.3113 173.581) scale(20.9857 0.894663)">
<stop/>
<stop offset="1" stop-opacity="0"/>
</radialGradient>
</defs>
</svg>
