<svg width="280" height="182" viewBox="0 0 280 182" fill="none" xmlns="http://www.w3.org/2000/svg"><path d="M139.8 17h8.2-.6c3.2 0 5.8-2.6 5.8-5.8v-.1c0-3.2 2.7-5.8 5.8-5.8h41.7c3.2 0 5.8 2.6 5.8 5.8 0 3.2-2.6 5.8-5.8 5.8h-22.4.6c-3.2 0-5.8 2.6-5.8 5.8v.1c0 3.2-2.7 5.8-5.8 5.8h-27.5c-3.2 0-5.8-2.6-5.8-5.8 0-3.2 2.6-5.8 5.8-5.8zM114 112.3H96.7c-3.2 0-5.8-2.6-5.8-5.8 0-3.2 2.6-5.8 5.8-5.8H114c3.2 0 5.8 2.6 5.8 5.8.1 3.2-2.6 5.8-5.8 5.8zm5.5-71.9H82.7c-3.2 0-5.8-2.6-5.8-5.8v-.1c0-3.2-2.7-5.8-5.8-5.8H29.5c-3.2 0-5.8 2.6-5.8 5.8 0 3.2 2.6 5.8 5.8 5.8h22.6-.4c3 .2 5.5 2.7 5.5 5.8 0 3.1-2.4 5.6-5.5 5.8h.4-11.5c-3.2 0-5.8 2.6-5.8 5.8 0 3.2 2.6 5.8 5.8 5.8h47c3.2 0 5.8-2.6 5.8-5.8v-.1c0-3.2 2.6-5.8 5.8-5.8h-.6 20.8c3.2 0 5.8-2.6 5.8-5.8.2-3-2.4-5.6-5.7-5.6zm54.4 99.7h-34.3c-3.2 0-5.8-2.6-5.8-5.8 0-3.2 2.6-5.8 5.8-5.8h34.3c3.2 0 5.8 2.6 5.8 5.8 0 3.2-2.6 5.8-5.8 5.8zm55.4-14h-41.6c-3.2 0-5.8-2.6-5.8-5.8 0-3.2 2.6-5.8 5.8-5.8h41.6c3.2 0 5.8 2.6 5.8 5.8.1 3.2-2.5 5.8-5.8 5.8zM212.9 70h-18.8c-3.2 0-5.8-2.6-5.8-5.8 0-3.2 2.6-5.8 5.8-5.8h18.8c3.2 0 5.8 2.6 5.8 5.8.1 3.2-2.5 5.8-5.8 5.8zM81.2 113.4H63.4c-3.2 0-5.8-2.6-5.8-5.8 0-3.2 2.6-5.8 5.8-5.8h17.8c3.2 0 5.8 2.6 5.8 5.8.1 3.2-2.6 5.8-5.8 5.8zm174.1-20.1h-17.6c-3.2 0-5.8-2.7-5.8-5.8v-.1c0-3.2-2.7-5.8-5.8-5.8H196c-3.2 0-5.8 2.6-5.8 5.8 0 3.2 2.6 5.8 5.8 5.8h5.5-.5c3.2 0 5.8 2.6 5.8 5.8v.2c0 3.2 2.7 5.8 5.8 5.8h42.7c3.2 0 5.8-2.6 5.8-5.8 0-3.3-2.6-5.9-5.8-5.9zm-20.8-23.4a5.8 5.8 0 100-11.6 5.8 5.8 0 000 11.6z" fill="#EEF4F7"/><path d="M185 176.7c23.804 0 43.1-1.657 43.1-3.7s-19.296-3.7-43.1-3.7c-23.803 0-43.1 1.657-43.1 3.7s19.297 3.7 43.1 3.7z" fill="url(#paint0_radial)"/><path d="M158.1 94.2c-4 3-6.9 5.3-8 11h-5.3v-.6c0-10 5.4-17.5 12.5-20.5h.3c.2 0 .4.1.6 0v10.1h-.1z" fill="#C3D2DB"/><path d="M156.5 84h1v12.7h-1c-1.1 0-2-.9-2-2V86c.1-1.1.9-2 2-2z" fill="#8C9FAF"/><path d="M174.7 127.6h-7.9v32.1h7.9v-32.1z" fill="#C3D2DB"/><path d="M170.7 147.5a5.2 5.2 0 100-10.4 5.2 5.2 0 000 10.4z" fill="#9DAEBC"/><path d="M170.7 146.2a3.9 3.9 0 100-7.8 3.9 3.9 0 000 7.8z" fill="#DDE6EB"/><path d="M170.7 145.3a3 3 0 100-6 3 3 0 000 6zm4.9-17.7h-9.8c-1.6 0-2.9-1.3-2.9-2.9v-.7c0-1.6 1.3-2.9 2.9-2.9h9.8c1.6 0 2.9 1.3 2.9 2.9v.7c.1 1.6-1.3 2.9-2.9 2.9zm-8 31.9h6.3c1.3 0 2.3 1 2.3 2.3 0 1.3-1 2.3-2.3 2.3h-6.3c-1.3 0-2.3-1-2.3-2.3 0-1.3 1-2.3 2.3-2.3zm37.6-31.9h-9.8c-1.6 0-2.9-1.3-2.9-2.9v-.7c0-1.6 1.3-2.9 2.9-2.9h9.8c1.6 0 2.9 1.3 2.9 2.9v.7c.1 1.6-1.3 2.9-2.9 2.9zm-3.7-56.4h-32c-.2 0-.4-.2-.4-.4v-1.2c0-.2.2-.4.4-.4h32c.2 0 .4.2.4.4v1.2c0 .2-.2.4-.4.4z" fill="#8C9FAF"/><path d="M201.5 69.2h-32c-.2 0-.4-.2-.4-.4v-1.2c0-.2.2-.4.4-.4h32c.2 0 .4.2.4.4v1.2c0 .2-.2.4-.4.4z" fill="#C3D2DB"/><path d="M201.4 75.8h-31.9c-.2 0-.4-.2-.4-.4v-1.7c0-.2.2-.4.4-.4h31.9c.2 0 .4.2.4.4v1.7c.1.2-.1.4-.4.4z" fill="#8C9FAF"/><path d="M201.5 73.2h-32c-.2 0-.4-.2-.4-.4v-1.2c0-.2.2-.4.4-.4h32c.2 0 .4.2.4.4v1.2c0 .2-.2.4-.4.4z" fill="#C3D2DB"/><path fill-rule="evenodd" clip-rule="evenodd" d="M203.6 58.8l2.2-1v-9.6h-2.2v10.6zm-36.3 0l-2.2-1v-9.6h2.2v10.6z" fill="#C3D2DB"/><path d="M201.2 67.4h-31.6c-1.6 0-2.9-1.3-2.9-2.9v-18c0-1.6 1.3-2.9 2.9-2.9h31.6c1.6 0 2.9 1.3 2.9 2.9v18c0 1.6-1.3 2.9-2.9 2.9z" fill="#C3D2DB"/><path d="M194.7 45.9h-18.6c-.6 0-2.5 0-2.5 2v5.9c0 1.6 1.3 3 3 3H194c1.6 0 3-1.3 3-3v-5.9c.1-2-1.7-2-2.3-2z" fill="#6F98C1"/><path d="M193.8 55.7h-16.7c-1.3 0-2.3-1-2.3-2.3V48c0-.6.5-1.1 1.1-1.1h17.9c1.3 0 2.3 1 2.3 2.3v4.2c0 1.3-1 2.3-2.3 2.3z" fill="#9EC5DD"/><path opacity=".6" d="M190.1 46.9h-.8v8.9h.8v-8.9zm2.6 0h-1.9v8.9h1.9v-8.9z" fill="#fff"/><path d="M206.3 42.7c0-11.3-9.3-20.6-20.6-20.6s-20.6 9.3-20.6 20.6v5.5h41.2v-5.5z" fill="#627689"/><path fill-rule="evenodd" clip-rule="evenodd" d="M165.1 48.2s7.6-5.3 26.4-6.2c20.9-1 21.7 6.2 21.7 6.2h-48.1z" fill="#849AAD"/><path fill-rule="evenodd" clip-rule="evenodd" d="M166 48.2s8.2-4.3 25.1-5.1c21-1 21.7 5.1 21.7 5.1H166z" fill="#627689"/><path opacity=".1" d="M185.6 52.8c17.9 0 20.2-2.9 20.2-2.9v-1.7h-40.7s1.2 4.5 20.5 4.6z" fill="#000"/><path d="M190.2 35.7l1.8-4.9h-5.5c-2.6 0-5.1 1.4-5.1 4.1 0 2.7 3.6 3.3 5.3 1.4 0 .6.4 1 1.6 1h4.3l.6-1.6h-3zm-3.6 0c-1 0-1.6-.2-1.6-.8 0-.4.8-2.2 1-2.7h1.9l-1.3 3.5z" fill="#C1D4E0"/><path d="M207.5 124.8h-44c-3.3 0-5.9-2.7-5.9-5.9V81.1c0-3.3 2.7-5.9 5.9-5.9h44c3.3 0 5.9 2.7 5.9 5.9v37.8c0 3.3-2.6 5.9-5.9 5.9z" fill="#C3D2DB"/><path d="M213.4 115.4h-55.9v.5h55.9v-.5z" fill="#8C9FAF"/><path d="M213.4 118.8h-55.9v.5h55.9v-.5z" fill="#F8FDFF"/><path d="M213.4 82.3h-55.9v.5h55.9v-.5z" fill="#8C9FAF"/><path d="M213.4 85.7h-55.9v.5h55.9v-.5z" fill="#F8FDFF"/><path d="M200.3 96.9v-1.4c-1-1-2.4-1.6-3.9-1.6a5.7 5.7 0 00-5.5 4.1h-10.8a5.7 5.7 0 00-5.5-4.1c-1.5 0-2.9.6-3.9 1.6v1.4h3.9l1.9 2.8-1.9 2.8h-3.9v1.4c1 1 2.4 1.6 3.9 1.6 2.6 0 4.8-1.7 5.5-4.1h10.8a5.7 5.7 0 005.5 4.1c1.5 0 2.9-.6 3.9-1.6v-1.4h-3.9l-1.9-2.8 1.9-2.8h3.9z" fill="#8C9FAF"/><path d="M170.7 161.2c-6.4 0-11.7 4.4-13.3 10.3H184c-1.6-5.9-6.9-10.3-13.3-10.3z" fill="#C3D2DB"/><path d="M183.4 173H158c-.6 0-1.2-.5-1.2-1.2 0-.6.5-1.2 1.2-1.2h25.4c.6 0 1.2.5 1.2 1.2 0 .6-.5 1.2-1.2 1.2z" fill="#8C9FAF"/><path d="M204.3 127.6h-7.9v32.1h7.9v-32.1z" fill="#C3D2DB"/><path d="M200.3 147.5a5.2 5.2 0 100-10.4 5.2 5.2 0 000 10.4z" fill="#9DAEBC"/><path d="M200.3 146.2a3.9 3.9 0 100-7.8 3.9 3.9 0 000 7.8z" fill="#DDE6EB"/><path d="M200.3 145.3a3 3 0 100-6 3 3 0 000 6zm-3.1 14.2h6.3c1.3 0 2.3 1 2.3 2.3 0 1.3-1 2.3-2.3 2.3h-6.3c-1.3 0-2.3-1-2.3-2.3 0-1.3 1-2.3 2.3-2.3z" fill="#8C9FAF"/><path d="M200.3 161.2c-6.4 0-11.7 4.4-13.3 10.3h26.5c-1.5-5.9-6.8-10.3-13.2-10.3z" fill="#C3D2DB"/><path d="M180.9 60.1c0 .7.6 1.3 1.3 1.3h6.3c.7 0 1.3-.6 1.3-1.3v-.2h1.9v.2c0 1.8-1.4 3.2-3.2 3.2h-6.3c-1.8 0-3.2-1.4-3.2-3.2v-.2h1.9v.2zM213 173h-25.4c-.6 0-1.2-.5-1.2-1.2 0-.6.5-1.2 1.2-1.2H213c.6 0 1.2.5 1.2 1.2 0 .6-.5 1.2-1.2 1.2z" fill="#8C9FAF"/><path opacity=".6" d="M169.6 67.4h31.6c.9 0 1.6-.4 2.2-1h-35.9c.5.6 1.2 1 2.1 1z" fill="#8C9FAF"/><path d="M221.4 129.3h4.8v-16h-4.8v16zm4.8-24.5c0-10.3-5.8-18.1-13.4-20.7v10.5c4 3 6.9 5.3 8 10.9h5.3l.1-.7z" fill="#C3D2DB"/><path fill-rule="evenodd" clip-rule="evenodd" d="M224 137.8h2v4.8l-2.3 3.9-3.3.1v-1.8l2.3-.1 1.2-2.3.1-4.6z" fill="#C3D2DB"/><path fill-rule="evenodd" clip-rule="evenodd" d="M224.8 137.9l-.2 4.5.7.1-.1.6-.8-.2-1 2 .2.9-.6.2-.3-.8-1.8.2-.5 1.2v-1.8l2.3-.1 1.2-2.2.1-4.7.8.1z" fill="#8C9FAF"/><path fill-rule="evenodd" clip-rule="evenodd" d="M221.9 134.9l-1.8-.9-2.2 4.3.3 4.5 2.9 1.6.8-1.6-2-1.2-.1-2.5 2.1-4.2z" fill="#C3D2DB"/><path fill-rule="evenodd" clip-rule="evenodd" d="M221.2 134.6l-2 4.1-.7-.2-.1.6.8.2v2.2l-.6.7.4.4.7-.5 1.5.9-.1 1.4.8-1.5-2-1.2-.1-2.6 2.1-4.2-.7-.3z" fill="#8C9FAF"/><path fill-rule="evenodd" clip-rule="evenodd" d="M225.6 138.4h1.9l.1 4.7-2.4 4-3.2.1-.1-1.8 2.4-.2 1.2-2.2.1-4.6z" fill="#C3D2DB"/><path fill-rule="evenodd" clip-rule="evenodd" d="M226.3 138.4l-.1 4.6.7.1-.1.5-.8-.1-1.1 1.9.3 1-.6.2-.3-.8-1.8.1-.6 1.3v-1.8l2.4-.2 1.2-2.2v-4.6h.8z" fill="#8C9FAF"/><path d="M226.8 112.1H221c-.6 0-1.1.5-1.1 1.1 0 .6.5 1.1 1.1 1.1h5.8c.6 0 1.1-.5 1.1-1.1 0-.6-.5-1.1-1.1-1.1zm0-2.8H221c-.6 0-1.1.5-1.1 1.1 0 .6.5 1.1 1.1 1.1h5.8c.6 0 1.1-.5 1.1-1.1 0-.6-.5-1.1-1.1-1.1zm0-2.8H221c-.6 0-1.1.5-1.1 1.1 0 .6.5 1.1 1.1 1.1h5.8c.6 0 1.1-.5 1.1-1.1 0-.6-.5-1.1-1.1-1.1zm0-2.9H221c-.6 0-1.1.5-1.1 1.1 0 .6.5 1.1 1.1 1.1h5.8c.6 0 1.1-.5 1.1-1.1 0-.6-.5-1.1-1.1-1.1z" fill="#8C9FAF"/><path opacity=".6" d="M226.2 127.7h-4.9v-5s.6 1 1.9 1.6c1.2.6 3 .6 3 .6v2.8z" fill="#8C9FAF"/><path d="M225.8 140.1h-4.1c-1 0-1.8-.8-1.8-1.8v-9.1c0-1 .8-1.8 1.8-1.8h4.1c1 0 1.8.8 1.8 1.8v9.1c-.1 1-.8 1.8-1.8 1.8z" fill="#C3D2DB"/><path d="M214.5 84h-1v12.7h1c1.1 0 2-.9 2-2V86c-.1-1.1-1-2-2-2z" fill="#8C9FAF"/><path opacity=".7" d="M227.5 129.8h-7.6v.5h7.6v-.5z" fill="#8C9FAF"/><path opacity=".7" d="M227.5 137.2h-7.6v.5h7.6v-.5z" fill="#F8FDFF"/><path d="M226.5 138.4a2.6 2.6 0 100-5.2 2.6 2.6 0 000 5.2z" fill="#9DAEBC"/><path d="M226.5 137.8a2 2 0 100-4 2 2 0 000 4z" fill="#DDE6EB"/><path d="M226.5 137.3a1.5 1.5 0 10-.001-3.001 1.5 1.5 0 00.001 3.001z" fill="#8C9FAF"/><path d="M151 101H77v28h74v-28z" fill="#EFEFEF"/><path opacity=".5" d="M78 127h72v-1H78v1zm0-3h72v-1H78v1zm0-3h72v-1H78v1zm0-3h72v-1H78v1zm0-3h72v-1H78v1zm0-3h72v-1H78v1zm0-3h72v-1H78v1zm0-3h72v-1H78v1zm0-4v1h72v-1H78z" fill="#fff"/><path d="M154 101H74c0-3.9 3.1-7 7-7h66c3.9 0 7 3.1 7 7z" fill="#7AC1E5"/><path d="M151 101H77v1h74v-1z" fill="#4089C6"/><path opacity=".1" d="M146 120H83c-1.1 0-2-.9-2-2v-12c0-1.1.9-2 2-2h63c1.1 0 2 .9 2 2v12c0 1.1-.9 2-2 2z" fill="#001833"/><path d="M145 119H83c-1.1 0-2-.9-2-2v-11c0-1.1.9-2 2-2h62c1.1 0 2 .9 2 2v11c0 1.1-.9 2-2 2z" fill="#fff"/><path d="M96 106H84v11h12v-11zm16 0h-12v11h12v-11zm16 0h-12v11h12v-11zm16 0h-12v11h12v-11z" fill="#636363"/><path d="M96 106H84v10h12v-10zm16 0h-12v10h12v-10zm16 0h-12v10h12v-10zm16 0h-12v10h12v-10z" fill="#AFDBF2"/><path opacity=".5" d="M101 106l-1 1v4.2l5.3-5.3H101v.1zm-5.7 10l.7-.7V111l-5 5h4.3zm-5.5 0l6.2-6.2V108l-8 8h1.8zm17 0l5.2-5.2V109l-7 7h1.8zm32.2-10l-7 7v3h1.3l10-10H139zm-54.3 0l-.7.7v7.1l7.8-7.8h-7.1zm50.3 10h1.8l7.2-7.2V107l-9 9zm-23 0v-3l-3 3h3zm4-10v.8l.8-.8h-.8zm0 3v4.2l7.3-7.3H119l-3 3.1z" fill="#80ABCE"/><path opacity=".3" d="M138 96H89c-.6 0-1-.4-1-1s.4-1 1-1h49c.6 0 1 .4 1 1s-.4 1-1 1z" fill="#4089C6"/><path d="M102.7 88.9h-1.8V94h1.8v-5.1z" fill="#BCBCBC"/><path opacity=".68" d="M101.3 88.9h-.4V94h.4v-5.1z" fill="#fff"/><path opacity=".26" d="M102.6 88.9h-.7V94h.7v-5.1z" fill="#424242"/><path d="M127.7 88.9h-1.8V94h1.8v-5.1z" fill="#BCBCBC"/><path opacity=".68" d="M126.3 88.9h-.4V94h.4v-5.1z" fill="#fff"/><path opacity=".26" d="M127.6 88.9h-.7V94h.7v-5.1z" fill="#424242"/><path d="M135.4 80.1v-1.8c-1.4-1.3-3.2-2.1-5.2-2.1-3.1 0-5.8 1.9-6.9 4.5h-18.1c-1.2-2.7-3.8-4.5-6.9-4.5-2 0-3.8.8-5.2 2.1v1.8h5.1l2.5 3.7-2.5 3.7h-5.1v1.8c1.4 1.3 3.2 2.1 5.2 2.1 3.1 0 5.8-1.9 6.9-4.5h18.1c1.2 2.7 3.8 4.5 6.9 4.5 2 0 3.8-.8 5.2-2.1v-1.8h-5.1l-2.5-3.7 2.5-3.7h5.1z" fill="#A4B7C1"/><path d="M135.4 78.5v-1.8c-1.4-1.3-3.2-2.1-5.2-2.1-3.1 0-5.8 1.9-6.9 4.5h-18.1c-1.2-2.7-3.8-4.5-6.9-4.5-2 0-3.8.8-5.2 2.1v1.8h5.1l2.5 3.7-2.5 3.8h-5.1v1.8c1.4 1.3 3.2 2.1 5.2 2.1 3.1 0 5.8-1.9 6.9-4.5h18.1c1.2 2.7 3.8 4.5 6.9 4.5 2 0 3.8-.8 5.2-2.1V86h-5.1l-2.5-3.7 2.5-3.7h5.1v-.1z" fill="#C3D2DB"/><path d="M120.6 83.3h-12.8c-.5 0-.9-.4-.9-.9s.4-.9.9-.9h12.8c.5 0 .9.4.9.9s-.4.9-.9.9z" fill="#A4B7C1"/><path d="M170 167.7c-.7-1.7-2.5-2.9-4.9-3.3-.1-.2-.2-.4-.4-.6v-.1c0-1.5-1.2-2.7-2.7-2.7-1.5 0-2.7 1.2-2.7 2.7v.1c-.3.4-.5.8-.5 1.2 0 .3.1.5.2.7-.4.3-.7.6-1 1-.4-.9-1.3-1.5-2.4-1.5-1.5 0-2.7 1.2-2.7 2.7 0 1.1.7 2.1 1.7 2.5 0 .2-.1.3-.1.5H174c-.2-1.5-1.8-2.9-4-3.2z" fill="#9EC683"/><path d="M57.1 173c2-.2 3.2-.6 3.2-1-.2-2.8-2.3-5.1-5.2-5.7-.6-1.9-1.9-3.6-3.7-4.6 0-1.5-1.2-2.6-2.7-2.7-.3 0-.6 0-.9.1l-.2-.2c.1-.3.2-.6.2-.9 0-1.1-.9-2-2-2-.7 0-1.4.4-1.7 1-.2-.1-.4-.1-.6-.1-1.1 0-2 .9-2.1 2v.2c-.2.2-.3.3-.4.5h-.2c-1.1 0-2 .9-2 2 0 .5.2 1 .5 1.3-.3.3-.5.7-.5 1.2 0 .3.1.6.2.9-.2.4-.4.9-.6 1.4-.3-.2-.7-.4-1.2-.4-1.1 0-2 .9-2 2 0 .3.1.6.2.8-.5.7-1.7 1.8-1.2 4.3h22.9v-.1z" fill="#8CB770"/><path d="M39.9 167.3c-.1.5-.2 1-.1 1.5-.4.1-.8.4-1 .8-.3.7 0 1.5.7 1.8.3.1.6.1.9.1l.4-.4c0-.3 0-.5.1-.8.2-.4.5-.6.8-.8-.1-.4-.1-.8.1-1.2.4-.9 1.4-1.2 2.2-.9.1 0 .1.1.2.1.2-.1.3-.2.5-.3 0-.1 0-.1.1-.2.4-.9 1.4-1.2 2.2-.9.2.1.3.2.4.3.5-.3 1.1-.4 1.7-.2.9.4 1.2 1.4.9 2.2v.1c.7-.1 1.4-.5 1.7-1.3.5-1.1 0-2.4-1.1-2.8-.8-.4-1.8-.2-2.4.4 0 0-.1 0-.1-.1-.7-.3-1.5-.3-2.2-.1.2-.7-.1-1.5-.8-1.8-.7-.3-1.6 0-2 .7-.8-.3-1.7.1-2 .8 0 .1-.1.1-.1.2-.5 0-1.1.4-1.3.9-.3.9-.2 1.5.2 1.9z" fill="#9EC683"/><path d="M174 173H23c-.6 0-1-.4-1-1s.4-1 1-1h151c.6 0 1 .4 1 1s-.4 1-1 1z" fill="#8CB770"/><path d="M49 171h-2v-20c0-.6.4-1 1-1s1 .4 1 1v20z" fill="#7F5F3B"/><path d="M58.8 143.4c.2-.5.3-1 .3-1.6 0-.8-.3-1.5-.7-2.1.8-.7 1.3-1.7 1.3-2.8 0-1.3-.6-2.4-1.6-3.1.6-.7 1-1.5 1-2.5 0-2.1-1.7-3.7-3.7-3.7-.7 0-1.3.2-1.9.5v-.5c0-2.1-1.7-3.7-3.7-3.7-.7 0-1.3.2-1.8.5-.7-1-1.8-1.7-3.1-1.7-2.1 0-3.7 1.7-3.7 3.7 0 .4.1.7.1 1-1.2.6-2 1.9-2 3.3 0 .5.1.9.3 1.4-.9.7-1.5 1.8-1.5 3 0 .7.2 1.3.5 1.9-2 .1-3.6 1.7-3.6 3.7 0 1.1.5 2.1 1.3 2.8-.4.6-.7 1.3-.7 2.1 0 2.1 1.7 3.7 3.7 3.7.2 0 .4 0 .7-.1.3 1.8 1.8 3.2 3.7 3.2.6 0 1.2-.2 1.7-.4.7.7 1.6 1.1 2.6 1.1s1.8-.4 2.5-1c.7.6 1.5 1 2.5 1 1.7 0 3-1.1 3.5-2.6.3.1.5.1.8.1 2.1 0 3.7-1.7 3.7-3.7 0-1.6-.9-2.9-2.2-3.5z" fill="#8CB770"/><path d="M47.5 134.8c0-1.3.6-2.5 1.5-3.3-.8-.2-1.6-.2-2.4.2-.8.4-1.4 1.2-1.6 2.1-.6-.1-1.3 0-1.8.3-1.5.8-2.1 2.7-1.3 4.2.1.2.2.3.3.5-1.2.9-1.6 2.6-.9 3.9.2.5.6.8 1 1.1-.2.7-.2 1.6.2 2.3.2.4.6.8 1 1.1.3-.5.6-.9 1.1-1.3.1-.1.3-.2.4-.3-.6-.3-1.1-.7-1.5-1.2-1.1-1.6-.7-3.9.9-5 .8-.5 1.7-.7 2.6-.6 0-.8.3-1.6.8-2.2-.1-.5-.3-1.1-.3-1.8z" fill="#9EC683"/><path d="M155 136H63v37h92v-37z" fill="#C7E2EF"/><path opacity=".1" d="M155 166H63v1h92v-1zm0-6H63v1h92v-1zm0-6H63v1h92v-1zm0-6H63v1h92v-1zm0-6H63v1h92v-1zm0-6H63v1h92v-1zm0 36H63v1h92v-1z" fill="#001833"/><path opacity=".1" d="M108 173H72v-31c0-1.1.9-2 2-2h32c1.1 0 2 .9 2 2v31zm41 0h-36v-31c0-1.1.9-2 2-2h32c1.1 0 2 .9 2 2v31z" fill="#001833"/><path d="M107 173H71v-31c0-1.1.9-2 2-2h32c1.1 0 2 .9 2 2v31zm41 0h-36v-31c0-1.1.9-2 2-2h32c1.1 0 2 .9 2 2v31z" fill="#fff"/><path d="M104 144H74v29h30v-29z" fill="#444"/><path d="M104 143H74v10h30v-10z" fill="#61ACD6"/><path d="M104 148H74v1h30v-1zm0-2H74v1h30v-1zm0-2H74v1h30v-1z" fill="#7AC1E5"/><path opacity=".2" d="M104 143H74v1h30v-1z" fill="url(#paint1_linear)"/><path d="M151 128H67c-3.9 0-7 3.1-7 7h98c0-3.9-3.1-7-7-7z" fill="#7AC1E5"/><path d="M155 135H63v1h92v-1z" fill="#4089C6"/><path d="M145 144h-30v29h30v-29z" fill="#444"/><path d="M123 147h-3v25h3v-25zm22 0h-7v25h7v-25z" fill="#262626"/><path d="M145 143h-30v4h30v-4z" fill="#61ACD6"/><path d="M145 146h-30v1h30v-1zm0-2h-30v1h30v-1z" fill="#7AC1E5"/><path opacity=".2" d="M145 143h-30v1h30v-1z" fill="url(#paint2_linear)"/><path d="M104 150H74v1h30v-1zm0 2H74v1h30v-1z" fill="#7AC1E5"/><path d="M101 164H74v8h27v-8z" fill="#262626"/><path d="M83 157h-7v15h7v-15z" fill="#233866"/><path d="M82 158h-5v3h5v-3z" fill="#172E56"/><path d="M80.4 159h-1.7v1h1.7v-1z" fill="#32373F"/><path d="M82 162h-5v3h5v-3z" fill="#172E56"/><path d="M79 163h-1.3v2H79v-2z" fill="#6B6B6B"/><path d="M81 164h-3.3v1H81v-1z" fill="#32373F"/><path d="M82 166h-5v3h5v-3zm0 4h-5v2h5v-2z" fill="#172E56"/><path d="M79.8 167.4H77v1.2h2.8v-1.2z" fill="#32373F"/><path d="M79.8 167.4H77v.4h2.8v-.4zm0 1.2H77v.4h2.8v-.4z" fill="#1B2735"/><path d="M79 167h-1.2v.4H79v-.4z" fill="#6B6B6B"/><path d="M123 157h-7v15h7v-15z" fill="#233866"/><path d="M122 158h-5v3h5v-3z" fill="#172E56"/><path d="M120.4 159h-1.7v1h1.7v-1z" fill="#32373F"/><path d="M122 162h-5v3h5v-3z" fill="#172E56"/><path d="M119 163h-1.3v2h1.3v-2z" fill="#6B6B6B"/><path d="M121 164h-3.3v1h3.3v-1z" fill="#32373F"/><path d="M122 166h-5v3h5v-3zm0 4h-5v2h5v-2z" fill="#172E56"/><path d="M119.8 167.4H117v1.2h2.8v-1.2z" fill="#32373F"/><path d="M119.8 167.4H117v.4h2.8v-.4zm0 1.2H117v.4h2.8v-.4z" fill="#1B2735"/><path d="M119 167h-1.2v.4h1.2v-.4z" fill="#6B6B6B"/><path d="M104 172H74v1h30v-1zm41 0h-30v1h30v-1z" fill="#353535"/><path opacity=".2" d="M145.9 172.6c0 .6-5.3.6-11.9.6-6.6 0-11.9-.1-11.9-.6s5.3-1.5 11.9-1.5c6.6 0 11.9 1 11.9 1.5z" fill="url(#paint3_radial)"/><path d="M143.2 172.8h2.1c.6 0 1-.4 1-1v-5c0-.6-.4-1-1-1h-2.1c-.6 0-1 .4-1 1v5c0 .5.4 1 1 1zm-18.4 0h-2.1c-.6 0-1-.4-1-1v-5c0-.6.4-1 1-1h2.1c.6 0 1 .4 1 1v5c0 .5-.4 1-1 1z" fill="#222326"/><path opacity=".2" d="M144 173.1c2.209 0 4-.224 4-.5s-1.791-.5-4-.5-4 .224-4 .5 1.791.5 4 .5z" fill="url(#paint4_radial)"/><path opacity=".2" d="M124.1 173.1c2.209 0 4-.224 4-.5s-1.791-.5-4-.5-4 .224-4 .5 1.791.5 4 .5z" fill="url(#paint5_radial)"/><path d="M142.8 161.5c0-.5-4-.5-8.8-.5-4.9 0-8.8.1-8.8.5 0 .5 4 .7 8.8.7 4.9 0 8.8-.2 8.8-.7z" fill="#EF9841"/><path d="M133.9 166.2h-8.6l1.2-5.8c.2-.8.9-1.4 1.7-1.4h2.9c.8 0 1.5.6 1.7 1.4l1.1 5.8z" fill="#A87648"/><path d="M131.5 159.1h-3.8c0-.6.5-1.1 1.1-1.1h1.6c.6-.1 1.1.4 1.1 1.1z" fill="#A87648"/><path d="M132.6 167h-5.9l.8-5.8c.1-.8.6-1.4 1.2-1.4h2c.6 0 1.1.6 1.2 1.4l.7 5.8z" fill="#93633B"/><path d="M142.6 166.2H134l1.2-5.8c.2-.8.9-1.4 1.7-1.4h2.9c.8 0 1.5.6 1.7 1.4l1.1 5.8z" fill="#A87648"/><path d="M140.1 159.1h-3.8c0-.6.5-1.1 1.1-1.1h1.6c.6-.1 1.1.4 1.1 1.1z" fill="#A87648"/><path d="M141.2 167h-5.9l.8-5.8c.1-.8.6-1.4 1.2-1.4h2c.6 0 1.1.6 1.2 1.4l.7 5.8z" fill="#93633B"/><path d="M138.1 160.8c-1.6 0-2.9 1.3-2.9 2.9 0 1.6 1.3 2.9 2.9 2.9 1.6 0 2.9-1.3 2.9-2.9 0-1.7-1.3-2.9-2.9-2.9zm0 4.9c-1.2 0-2.1-.9-2.1-2.1 0-1.2.9-2.1 2.1-2.1 1.2 0 2.1.9 2.1 2.1 0 1.2-.9 2.1-2.1 2.1z" fill="#494E5B"/><path d="M143.7 161.7c0 .3-4.4.7-9.7.7-5.3 0-9.7-.4-9.7-.7 0-.3 4.4.3 9.7.3 5.3 0 9.7-.5 9.7-.3z" fill="#FFC043"/><path d="M123.8 161c-.2 0-2.5-.4-2.4.7.2 1.1 2.8 1.4 2.8 1.4l.4-.6-.5-.1c.3-.4.3-1.3-.3-1.4zm20.3 0c-.6.1-.5 1-.3 1.4l-.5.1.4.6s2.6-.3 2.8-1.4c.2-1.1-2.1-.7-2.4-.7z" fill="#FFC043"/><path opacity=".3" d="M143.8 161.3c-.1.3-.1.8.1 1.1l-.5.1.4.6s.8-.1 1.6-.4c-.7-.6-1.3-.9-1.6-1.4zm-21.1 1.4c.8.3 1.6.4 1.6.4l.4-.6-.5-.1c.2-.3.2-.7.1-1.1-.4.5-1 .8-1.6 1.4z" fill="#EF9841"/><path d="M135 157.2h-2c-.5 0-.9-.4-.9-.9h3.9c-.1.5-.5.9-1 .9z" fill="#FFC043"/><path opacity=".3" d="M124.9 161.8s.1-.4.3-1.1c.7-2.5 2.9-4.2 5.4-4.2h6.6c2.5 0 4.7 1.7 5.4 4.2.2.6.3 1.1.3 1.1-1.3.4-6.6.4-9.1.4-2.3.1-7.5.1-8.9-.4z" fill="#ADBCC9"/><path opacity=".3" d="M134 156.6h-3.3c-2.5 0-4.7 1.7-5.4 4.2-.2.6-.3 1.1-.3 1.1.9.3 3.7.4 6.1.4l3.1-5.7h-.2zm1.2 0l-3.1 5.7h1.6l3.1-5.7h-1.6z" fill="#fff"/><path d="M143.7 161.5c-.1-.3-.4-.9-.6-1.5-.9-2.1-2.9-3.6-5.2-3.6-1 0-2.3 0-3.9-.1-1.6 0-2.9.1-3.9.1-2.3 0-4.4 1.5-5.2 3.6-.2.6-.5 1.2-.6 1.5-.5 1.1-2.7 1.3-2.7 4.2v1.4c.1.9.1 1.7.2 2.6.1.9 1.1 1.4 1.7 1.5.4 0 7.3.1 10.6.2 3.3-.1 10.1-.2 10.6-.2s1.6-.6 1.7-1.5c.1-.9.1-1.7.2-2.6v-1.4c-.2-2.9-2.5-3.2-2.9-4.2zm-9.7.7c-2.3 0-6.5-.1-8.2-.4-.3-.1-.5-.3-.4-.6 0-.1 0-.2.1-.3.7-2.2 2.5-4.1 5.2-4.1h6.6c2.6 0 4.5 2 5.2 4.1 0 .1.1.2.1.3.1.3-.1.6-.4.6-1.7.3-5.9.4-8.2.4z" fill="#FFC840"/><path d="M144.5 169c-.1-.2-.5-.1-.5-.1-2.6.3-10 .2-10 .2s-7.5 0-10-.2c0 0-.4-.1-.5.1-.1.2-.3 1.2 3.6 1.4 3.9.2 7 .1 7 .1s3 0 7-.1c3.8-.2 3.5-1.2 3.4-1.4z" fill="#525866"/><path d="M145.1 163c0-.1-1.2-1.2-1.4-1.7-.1-.3-.4-.9-.6-1.5-.9-2.2-2.9-3.7-5.2-3.7-1 0-2.3 0-3.9-.1-1.6 0-2.9.1-3.9.1-2.3 0-4.4 1.5-5.2 3.7-.2.6-.5 1.2-.6 1.5-.2.5-1.4 1.6-1.4 1.7 0 .8 5 1.4 11.1 1.4s11.1-.6 11.1-1.4zm-20.2-1.2s.1-.4.3-1.1c.7-2.5 2.9-4.2 5.4-4.2h6.6c2.5 0 4.7 1.7 5.4 4.2.2.6.3 1.1.3 1.1-1.3.4-6.6.4-9.1.4-2.3.1-7.5.1-8.9-.4z" fill="#FFD45A"/><path opacity=".5" d="M127.6 166.1c0 .6-2.8.8-3.6.8-.8 0-1.4-.5-1.4-1.1 0-.6.6-1.1 1.4-1.1.8 0 3.6.8 3.6 1.4zm12.8 0c0 .6 2.8.8 3.6.8.8 0 1.4-.5 1.4-1.1 0-.6-.6-1.1-1.4-1.1-.8 0-3.6.8-3.6 1.4z" fill="#EF9841"/><path d="M126.9 165.9c0 .6-2.4.7-3.1.7-.7 0-1.2-.5-1.2-1 0-.6.5-1 1.2-1s3.1.7 3.1 1.3zm14.2 0c0 .6 2.4.7 3.1.7.7 0 1.2-.5 1.2-1 0-.6-.5-1-1.2-1-.7-.1-3.1.7-3.1 1.3z" fill="#E5E5E5"/><path d="M144.9 167.6c0 .4-4.9.7-10.9.7s-10.9-.3-10.9-.7c0-.4 4.9.3 10.9.3 6-.1 10.9-.8 10.9-.3z" fill="#FFD45A"/><path d="M125.5 166.3c-2.2-.3-1.6-1.4-1.6-1.4h-.1c-.4 0-.7.3-.7.6 0 .1 0 .2.1.4.2.5 2.3.4 2.3.4zm18.7-1.4s-1.3.6-2.1 1.3c-.1 0-1.8-.4 2.1-1.3z" fill="#fff"/><path d="M143 169.1v.8c1.5-.3 1.3-.7 1.3-.8-.1-.1-1 0-1.3 0zm-18 0c-.3 0-1.2-.2-1.3 0-.1.1-.2.6 1.3.8v-.8z" fill="#A5A5A5"/><path d="M128.4 166.4c0 .2.1.2.2.3l1.7.1h1.3v-.4l-3-.1c-.1-.1-.2 0-.2.1zm3.8 0h-.3v.4h4.1v-.4h-3.8zm7.2-.1l-3.2.1v.4h1.4l1.7-.1c.1 0 .2-.1.2-.2.1-.2 0-.3-.1-.2z" fill="#525866"/><path d="M138.1 169.9h-8.2c-.1 0-.1 0-.1-.1v-1.6c0-.1 0-.1.1-.1h8.2c.1 0 .1 0 .1.1v1.6c0 .1 0 .1-.1.1z" fill="#fff"/><path d="M130.6 168.1h-.8v.9h.8v-.9z" fill="#1986C1"/><path d="M130.6 169h-.8v.9h.8v-.9z" fill="#FFD45A"/><path d="M130.2 169.4h-.2v.3h.2v-.3z" fill="#EF9841"/><path d="M130 168.7l.1.1.2-.1v-.3h-.3v.3z" stroke="#FFD45A" stroke-width=".05" stroke-miterlimit="10"/><path d="M130.2 168.5v.2l-.1-.2v.2-.2h-.1v.2h.2v-.2z" fill="#FFD45A"/><path d="M138.1 169.9H130c-.1 0-.1-.1-.1-.2v-1.5c0-.1.1-.2.1-.2h8.1c.1 0 .2.1.2.2v1.5c-.1.2-.2.2-.2.2z" stroke="#494949" stroke-width=".2" stroke-miterlimit="10"/><path d="M131.6 168.5h-.6v1.1h.6v-1.1zm.9 0h-.6v1.1h.6v-1.1zm1.1 0h-.6v1.1h.6v-1.1zm.7 0h-.6v1.1h.6v-1.1zm.8 0h-.6v1.1h.6v-1.1zm.7 0h-.6v1.1h.6v-1.1zm1.1 0h-.6v1.1h.6v-1.1zm.8 0h-.6v1.1h.6v-1.1z" fill="#727272"/><path d="M89.5 171h-5c-.3 0-.5-.2-.5-.5v-5c0-.3.2-.5.5-.5h5c.3 0 .5.2.5.5v5c0 .3-.2.5-.5.5z" fill="#418899"/><path d="M89.1 170.6H85c-.3 0-.5-.2-.5-.5V166c0-.3.2-.5.5-.5h4.1c.3 0 .5.2.5.5v4.1c0 .2-.3.5-.5.5z" fill="#336A7F"/><path d="M89 166h-4v1h4v-1zm-3 5h-1v1h1v-1zm3 0h-1v1h1v-1z" fill="#32373F"/><path d="M87.8 166.3h-1.5v.4h1.5v-.4z" fill="#6B6B6B"/><path d="M89 168h-4v1h4v-1z" fill="#32373F"/><path d="M87.8 168.3h-1.5v.4h1.5v-.4z" fill="#6B6B6B"/><path d="M104 162h-3v10h3v-10z" fill="#ED6845"/><path d="M104 172h-2v-3.9c0-.6.4-1 1-1s1 .4 1 1v3.9z" fill="#594743"/><path d="M103 168.7a.6.6 0 10-.001-1.201.6.6 0 00.001 1.201zM91 158h-7v5h7v-5z" fill="#383838"/><path d="M85.8 162h.1c.1-.1.1-.2.1-.3 0-.2-.1-.4-.3-.4V160c.2-.1.3-.2.3-.4 0-.1 0-.2-.1-.3h-.1v.3l-.2.2-.2-.2v-.3h-.1c-.1.1-.1.2-.1.3 0 .2.1.4.3.4v1.3c-.2.1-.3.2-.3.4 0 .1 0 .2.1.3h.1v-.3l.2-.2.2.2v.3zm2 0h.1c.1-.1.1-.2.1-.3 0-.2-.1-.4-.3-.4V160c.2-.1.3-.2.3-.4 0-.1 0-.2-.1-.3h-.1v.3l-.2.2-.2-.2v-.3h-.1c-.1.1-.1.2-.1.3 0 .2.1.4.3.4v1.3c-.2.1-.3.2-.3.4 0 .1 0 .2.1.3h.1v-.3l.2-.2.2.2v.3zm2 0h.1c.1-.1.1-.2.1-.3 0-.2-.1-.4-.3-.4V160c.2-.1.3-.2.3-.4 0-.1 0-.2-.1-.3h-.1v.3l-.2.2-.2-.2v-.3h-.1c-.1.1-.1.2-.1.3 0 .2.1.4.3.4v1.3c-.2.1-.3.2-.3.4 0 .1 0 .2.1.3h.1v-.3l.2-.2.2.2v.3z" fill="#262626"/><path d="M100.5 172h-5c-.3 0-.5-.2-.5-.5v-5c0-.3.2-.5.5-.5h5c.3 0 .5.2.5.5v5c0 .3-.2.5-.5.5z" fill="#444"/><path d="M148 154h-3v19h3v-19z" fill="#fff"/><path d="M144 133H83v-7c0-2.8 2.2-5 5-5h51c2.8 0 5 2.2 5 5v7z" fill="#4299CE"/><path d="M93.9 128.3c0 .7-.2 1.2-.6 1.5-.4.3-.9.5-1.5.5-.7 0-1.2-.2-1.7-.6-.4-.4-.6-1-.6-1.6V127c0-.7.2-1.2.6-1.6.4-.4.9-.6 1.6-.6.7 0 1.2.2 1.6.5.4.3.6.8.6 1.5h-1.2c0-.4-.1-.6-.2-.8-.1-.2-.4-.3-.7-.3-.3 0-.5.1-.7.3-.2.2-.2.5-.2.9v1.2c0 .4.1.7.3.9.2.2.4.4.7.4.3 0 .5-.1.7-.2.1-.2.2-.4.2-.8h1.1v-.1zm3.6.9h-1.7l-.3 1.1h-1.3l1.8-5.5h1.4l1.8 5.5h-1.3l-.4-1.1zm-1.4-1h1.2l-.6-2-.6 2zm4.7-.1v2.1h-1.3v-5.5h2.1c.6 0 1.1.1 1.5.4.4.3.6.7.6 1.2 0 .3-.1.5-.2.7-.1.2-.4.4-.7.5.3.1.6.3.7.5.1.2.2.5.2.8v.3c0 .1 0 .3.1.5 0 .2.1.3.2.4v.1h-1.3c-.1-.1-.2-.2-.2-.4v-.7c0-.3-.1-.5-.2-.6-.1-.1-.3-.2-.6-.2h-.9v-.1zm0-.9h.8c.3 0 .5-.1.6-.2.1-.1.2-.3.2-.5s-.1-.4-.2-.5c-.1-.1-.3-.2-.6-.2h-.8v1.4zm8.7 1.6c0-.2-.1-.3-.2-.4-.1-.1-.4-.2-.7-.3-.7-.2-1.2-.5-1.5-.7-.3-.3-.5-.6-.5-1.1 0-.5.2-.8.6-1.1.4-.3.9-.4 1.5-.4s1.1.2 1.5.5c.4.3.6.7.6 1.2h-1.2c0-.2-.1-.4-.2-.5-.1-.1-.4-.2-.6-.2-.3 0-.5.1-.6.2-.1.1-.2.3-.2.4 0 .2.1.3.2.4.1.1.4.2.8.4.6.2 1.1.4 1.4.7.3.3.5.6.5 1.1 0 .5-.2.9-.6 1.1-.4.2-.9.4-1.5.4s-1.2-.2-1.6-.5c-.5-.3-.7-.8-.7-1.4h1.2c0 .3.1.5.3.7.2.1.4.2.8.2.3 0 .5-.1.6-.2 0-.2.1-.3.1-.5zm5.4-.9h-2.2v1.4h2.5v1h-3.8v-5.5h3.8v1h-2.5v1.2h2.2v.9zm2.2.2v2.1h-1.3v-5.5h2.1c.6 0 1.1.1 1.5.4.4.3.6.7.6 1.2 0 .3-.1.5-.2.7-.1.2-.4.4-.7.5.3.1.6.3.7.5.1.2.2.5.2.8v.3c0 .1 0 .3.1.5 0 .2.1.3.2.4v.1H119c-.1-.1-.2-.2-.2-.4v-.7c0-.3-.1-.5-.2-.6-.1-.1-.3-.2-.6-.2h-.9v-.1zm0-.9h.8c.3 0 .5-.1.6-.2.1-.1.2-.3.2-.5s-.1-.4-.2-.5c-.1-.1-.3-.2-.6-.2h-.8v1.4zm5.7 1.6v.2-.2l1.2-4h1.3l-1.8 5.5h-1.4l-1.8-5.5h1.3l1.2 4zm4.3 1.5h-1.3v-5.5h1.3v5.5zm5.2-2c0 .7-.2 1.2-.6 1.5-.4.3-.9.5-1.5.5-.7 0-1.2-.2-1.7-.6-.4-.4-.6-1-.6-1.6V127c0-.7.2-1.2.6-1.6.4-.4.9-.6 1.6-.6.7 0 1.2.2 1.6.5.4.3.6.8.6 1.5h-1.2c0-.4-.1-.6-.2-.8-.1-.2-.4-.3-.7-.3-.3 0-.5.1-.7.3-.2.2-.2.5-.2.9v1.2c0 .4.1.7.3.9.2.2.4.4.7.4.3 0 .5-.1.7-.2.1-.2.2-.4.2-.8h1.1v-.1zm4.2-.4h-2.2v1.4h2.5v1H133v-5.5h3.8v1h-2.5v1.2h2.2v.9z" fill="#B1DDEF"/><path opacity=".2" d="M96 106H84v11h1v-10h11v-1zm16 0h-12v11h1v-10h11v-1zm16 0h-12v11h1v-10h11v-1zm16 0h-12v11h1v-10h11v-1z" fill="#32546B"/><path d="M79.4 162.7c-3.1-4.2-7.8-7-13-7s-9.9 2.8-13 7.1h-.1v7.4h29.1c.5 0 .9-.4.8-.9-.8-3.6-1.7-6.3-3.8-6.6zm-10 0H56.2s3.6-7.7 13.2-5.8v5.8zm6-.2l-4.5.2h-.2l-.1-5.5c2.9.8 4.2 2.8 5.2 4.7.1.3-.1.6-.4.6z" fill="#474747"/><path d="M68.7 169.7l-.4-.1c-.7-.1-1.1-.7-1-1.4l1.2-7.3c.1-.7.7-1.1 1.4-1l.4.1c.7.1 1.1.7 1 1.4l-1.2 7.3c-.1.7-.7 1.1-1.4 1z" fill="#303030"/><path d="M70.4 160.2h-.3c-.5-.1-.8-.5-.7-1l.1-.7c.1-.5.5-.8 1-.7h.3c.5.1.8.5.7 1l-.1.7c-.1.5-.6.8-1 .7z" fill="#303030"/><path d="M85.2 170.5c-.8-4.2-1.9-7.2-4.2-7.6-3.5-4.9-8.6-7.9-14.3-7.9-5.8 0-10.9 3.1-14.4 8-2.5.4-4.8-.1-7.2 2.7-.9 1.1-1.2 2.8-1.2 3.9v1.2c0 .4.3.7.7.7h2.1c0-.6 2-1.1 4.4-1.1 2.4 0 4.4.5 4.4 1.1h18.2c0-.6 2-1.1 4.4-1.1 2.4 0 4.4.5 4.4 1.1h2.1c.3.1.7-.4.6-1zm-29.3-8.2c2.5-3.9 5.9-6.1 10.7-6.1 1 0 1.9.1 2.7.2l-.2 6.7H56.4c-.5.1-.7-.4-.5-.8zm20.5.6l-5.6.3h-.3l-.1-6.8c3.5 1 5.2 3.4 6.4 5.9.2.3-.1.6-.4.6z" fill="#E85252"/><path d="M57.6 161.9c-.7 0-2 .8-2 .8s-.1.4 0 .6c.1.1.1.2.7.4s1.8.5 2 .4c.8-.4 0-2.2-.7-2.2zm-1.6 3c-1.7-1.5-4-1.9-6.3-1.5 0 0 3.7-.3 6 2 1.4 1.3 2.2 3 2.2 5l.3-.1c.1-2.1-.7-4.1-2.2-5.4zm12.3-.3H67c-.1 0-.3.1-.3.3v.1c0 .1.1.3.3.3h1.3c.1 0 .3-.1.3-.3v-.1c0-.2-.2-.3-.3-.3zm5 0c-1.6 1.3-2.4 3.5-2.5 5.6 0 0 .5-3.8 3-5.4 2.7-1.8 5.8-.7 5.8-.7-1.6-1-4.5-.9-6.3.5z" fill="#CE3E3E"/><path d="M76.8 162.2c-1.2-2.4-2.8-4.9-6.4-5.9l.1 6.8h.3l5.6-.3c.3.1.6-.2.4-.6zm-.8.6l-5 .3h-.3l-.1-6.3c3.2.9 4.7 3.2 5.8 5.4.1.3-.1.6-.4.6z" fill="#333"/><path opacity=".7" d="M76.4 162.2c-1.1-2.3-2.6-4.5-5.8-5.4l.1 6.3h.3l5-.3c.3 0 .5-.3.4-.6z" fill="#596668"/><path d="M73.1 156.4s-.3.1-.2.2c.1.1 3.9 2.2 6.1 6 0 0 .3.2 1.5-.1.1 0-2.5-3.9-7.4-6.1z" fill="#333"/><path d="M79.1 162.4s.3.2 1.3-.1c-.6-.8-3-3.9-7.1-5.8-.1 0-.1.1-.1.2.3.1 3.8 2.1 5.9 5.7z" fill="#596668"/><path d="M77.9 166.1c-2.5 0-4.5 2-4.5 4.5 0 .4 0 .7.1 1 0-.6 2-1.1 4.4-1.1 2.4 0 4.4.5 4.4 1.1.1-.3.1-.7.1-1 0-2.5-2-4.5-4.5-4.5z" fill="#893D3D"/><path d="M59.2 156.8c-3 1.5-5.7 3.7-7.8 6.3h1.1c.5 0 .9-.2 1.1-.6.7-1.1 2.6-3.6 5.6-5.6.2 0 .1-.1 0-.1z" fill="#333"/><path d="M46.912 166.455c.475-.746.595-1.518.27-1.726-.327-.208-.976.228-1.45.974-.475.745-.596 1.518-.27 1.725.327.208.976-.228 1.45-.973z" fill="#CECECE"/><path d="M46.563 166.284c.416-.653.564-1.301.33-1.45-.232-.148-.758.26-1.173.913-.415.652-.563 1.301-.33 1.449.233.148.758-.26 1.173-.912z" fill="#E9E5E4"/><path d="M51 166.1c-2.5 0-4.5 2-4.5 4.5 0 .4 0 .7.1 1 0-.6 2-1.1 4.4-1.1 2.4 0 4.4.5 4.4 1.1.1-.3.1-.7.1-1 0-2.5-2-4.5-4.5-4.5z" fill="#893D3D"/><path d="M51 172.1a1.6 1.6 0 100-3.2 1.6 1.6 0 000 3.2z" fill="#B7B7B7"/><path d="M82.441 166.297c.102-.131-.311-.622-.922-1.096-.611-.474-1.189-.752-1.29-.621-.102.131.311.621.922 1.095s1.189.752 1.29.622z" fill="#9E1904"/><path d="M51.6 163h1c.5 0 .9-.3 1.1-.7.7-1.1 2.6-3.5 5.5-5.4-2.9 1.3-5.6 3.5-7.6 6.1z" fill="#7C8786"/><path d="M51 172.7a2.2 2.2 0 100-4.4 2.2 2.2 0 000 4.4z" fill="#CCC"/><path d="M77.9 174.1a3.6 3.6 0 100-7.2 3.6 3.6 0 000 7.2z" fill="#303030"/><path d="M77.9 172.4a1.9 1.9 0 100-3.8 1.9 1.9 0 000 3.8z" fill="#B7B7B7"/><path d="M77.9 168.9c-.9 0-1.6.7-1.6 1.6 0 .2 0 .4.1.6.1-.2.2-.4.4-.5v-.1c0-.6.5-1.1 1.1-1.1.6 0 1.1.5 1.1 1.1v.1c.1.1.3.3.4.5.1-.2.1-.4.1-.6 0-.9-.7-1.6-1.6-1.6z" fill="#D1D1D1"/><path d="M51.2 174.1a3.6 3.6 0 100-7.2 3.6 3.6 0 000 7.2z" fill="#303030"/><path d="M51.2 172.4a1.9 1.9 0 100-3.8 1.9 1.9 0 000 3.8z" fill="#B7B7B7"/><path d="M51.2 168.9c-.9 0-1.6.7-1.6 1.6 0 .2 0 .4.1.6.1-.2.2-.4.4-.5v-.1c0-.6.5-1.1 1.1-1.1.6 0 1.1.5 1.1 1.1v.1c.1.1.3.3.4.5.1-.2.1-.4.1-.6 0-.9-.8-1.6-1.6-1.6z" fill="#D1D1D1"/><path opacity=".4" d="M77.9 174.6c2.706 0 4.9-.269 4.9-.6 0-.331-2.194-.6-4.9-.6-2.706 0-4.9.269-4.9.6 0 .331 2.194.6 4.9.6z" fill="url(#paint6_radial)"/><path opacity=".4" d="M51.4 174.6c2.706 0 4.9-.269 4.9-.6 0-.331-2.194-.6-4.9-.6-2.706 0-4.9.269-4.9.6 0 .331 2.194.6 4.9.6z" fill="url(#paint7_radial)"/><path opacity=".4" d="M64.3 174.5c11.598 0 21-.403 21-.9s-9.402-.9-21-.9-21 .403-21 .9 9.402.9 21 .9z" fill="url(#paint8_radial)"/><path opacity=".7" d="M56.2 162.2c-.2.4 0 .8.5.8h12.2l.2-6.4c-.8-.2-1.6-.2-2.6-.2-4.7-.1-8 2.1-10.3 5.8z" fill="#596668"/><path opacity=".25" d="M68 156.4l-3.9 6.8h1.3l3.8-6.6c-.4-.2-.8-.2-1.2-.2zm-1.6-.1c-.7 0-1.3 0-2 .1l-3.9 6.7h2.9l3.9-6.8h-.9z" fill="#fff"/><path d="M66.6 156.1c-4.8 0-8.2 2.3-10.7 6.2-.2.4 0 .9.5.9h12.7l.2-6.8c-.8-.2-1.7-.3-2.7-.3zm2.2 6.9H56.6c-.4 0-.7-.5-.5-.8 2.4-3.7 5.7-5.8 10.2-5.8 1 0 1.8.1 2.6.2l-.1 6.4z" fill="#000"/><path d="M55.6 162.3s1.5-1.1 2.3-1.2c.8-.2 1.7 1.5.8 2.1-.2.1-1.7.2-2.3 0-.6-.2-.6-.2-.8-.3-.1-.1 0-.6 0-.6z" fill="#E85252"/><defs><radialGradient id="paint0_radial" cx="0" cy="0" r="1" gradientUnits="userSpaceOnUse" gradientTransform="matrix(43.0787 0 0 3.73236 185.011 173.024)"><stop stop-color="#A0B3BA"/><stop offset=".545" stop-color="#C3D2DB" stop-opacity=".6"/><stop offset="1" stop-color="#C3D2DB" stop-opacity="0"/></radialGradient><radialGradient id="paint3_radial" cx="0" cy="0" r="1" gradientUnits="userSpaceOnUse" gradientTransform="matrix(11.9441 0 0 1.04108 133.96 172.15)"><stop/><stop offset="1" stop-opacity="0"/></radialGradient><radialGradient id="paint4_radial" cx="0" cy="0" r="1" gradientUnits="userSpaceOnUse" gradientTransform="matrix(4.03986 0 0 .53977 143.939 172.658)"><stop/><stop offset="1" stop-opacity="0"/></radialGradient><radialGradient id="paint5_radial" cx="0" cy="0" r="1" gradientUnits="userSpaceOnUse" gradientTransform="matrix(4.03986 0 0 .53977 124.108 172.658)"><stop/><stop offset="1" stop-opacity="0"/></radialGradient><radialGradient id="paint6_radial" cx="0" cy="0" r="1" gradientUnits="userSpaceOnUse" gradientTransform="matrix(4.86361 0 0 .55738 77.913 174.018)"><stop/><stop offset="1" stop-opacity="0"/></radialGradient><radialGradient id="paint7_radial" cx="0" cy="0" r="1" gradientUnits="userSpaceOnUse" gradientTransform="matrix(4.86361 0 0 .55738 51.465 174.018)"><stop/><stop offset="1" stop-opacity="0"/></radialGradient><radialGradient id="paint8_radial" cx="0" cy="0" r="1" gradientUnits="userSpaceOnUse" gradientTransform="matrix(20.9857 0 0 .89466 64.311 173.581)"><stop/><stop offset="1" stop-opacity="0"/></radialGradient><linearGradient id="paint1_linear" x1="89" y1="144" x2="89" y2="143" gradientUnits="userSpaceOnUse"><stop stop-opacity=".1"/><stop offset="1"/></linearGradient><linearGradient id="paint2_linear" x1="130" y1="144" x2="130" y2="143" gradientUnits="userSpaceOnUse"><stop stop-opacity=".1"/><stop offset="1"/></linearGradient></defs></svg>