<svg viewBox="0 0 280 182" fill="none" xmlns="http://www.w3.org/2000/svg">
<path d="M139.79 16.9799H147.361H147.913L147.939 16.9769H147.36C150.558 16.9769 153.176 14.3739 153.204 11.1819C153.204 11.1659 153.203 11.1499 153.203 11.1339C153.203 11.1169 153.204 11.1009 153.204 11.0839C153.204 11.0709 153.203 11.0569 153.203 11.0439H153.205C153.254 7.87094 155.863 5.28894 159.048 5.28894H159.074H160.828H162.363H181.83H200.701C203.916 5.28894 206.546 7.91894 206.546 11.1339C206.546 14.3489 203.916 16.9789 200.701 16.9789H178.278L178.252 16.9819H178.831C175.633 16.9819 173.015 19.5849 172.987 22.7769C172.987 22.7929 172.988 22.8089 172.988 22.8249C172.988 22.8419 172.987 22.8579 172.987 22.8749C172.987 22.8879 172.988 22.9019 172.988 22.9149H172.986C172.937 26.0879 170.328 28.6699 167.143 28.6699H164.955H164.954H139.79C136.575 28.6699 133.945 26.0399 133.945 22.8249C133.945 19.6099 136.575 16.9799 139.79 16.9799Z" fill="#EEF4F7"/>
<path d="M114.008 112.339H96.678C93.463 112.339 90.833 109.709 90.833 106.494C90.833 103.279 93.463 100.649 96.678 100.649H114.008C117.223 100.649 119.853 103.279 119.853 106.494C119.853 109.709 117.222 112.339 114.008 112.339Z" fill="#EEF4F7"/>
<path d="M119.536 40.4009H82.732C79.517 40.4009 76.887 37.7709 76.887 34.5559C76.887 34.5269 76.889 34.4979 76.889 34.4679H76.879C76.832 31.2929 74.222 28.7109 71.036 28.7109H29.493C26.278 28.7109 23.648 31.3409 23.648 34.5559C23.648 37.7709 26.278 40.4009 29.493 40.4009H52.058C51.927 40.4009 51.798 40.4069 51.669 40.4159C54.704 40.6179 57.125 43.1629 57.125 46.2459C57.125 49.3299 54.704 51.8739 51.669 52.0759C51.798 52.0849 51.927 52.0909 52.058 52.0909H40.602C37.387 52.0909 34.757 54.7209 34.757 57.9359C34.757 61.1509 37.387 63.7809 40.602 63.7809H87.558C90.742 63.7809 93.352 61.1999 93.401 58.0259H93.403C93.403 58.0129 93.402 57.9989 93.402 57.9859C93.402 57.9689 93.403 57.9529 93.403 57.9359C93.403 57.9199 93.402 57.9039 93.402 57.8879C93.429 54.6959 96.048 52.0929 99.246 52.0929H98.667L98.693 52.0899H119.536C122.751 52.0899 125.381 49.4599 125.381 46.2449C125.381 43.0309 122.75 40.4009 119.536 40.4009Z" fill="#EEF4F7"/>
<path d="M178.988 176.704C202.779 176.704 222.066 175.033 222.066 172.972C222.066 170.911 202.779 169.24 178.988 169.24C155.197 169.24 135.91 170.911 135.91 172.972C135.91 175.033 155.197 176.704 178.988 176.704Z" fill="url(#paint0_radial)"/>
<path d="M173.867 140.083H139.568C136.353 140.083 133.723 137.453 133.723 134.238C133.723 131.023 136.353 128.393 139.568 128.393H173.867C177.082 128.393 179.712 131.023 179.712 134.238C179.712 137.453 177.082 140.083 173.867 140.083Z" fill="#EEF4F7"/>
<path d="M229.345 126.082H187.719C184.504 126.082 181.874 123.452 181.874 120.237C181.874 117.022 184.504 114.392 187.719 114.392H229.345C232.56 114.392 235.19 117.022 235.19 120.237C235.19 123.452 232.56 126.082 229.345 126.082Z" fill="#EEF4F7"/>
<path d="M212.943 69.988H194.152C190.937 69.988 188.307 67.358 188.307 64.143C188.307 60.928 190.937 58.298 194.152 58.298H212.943C216.158 58.298 218.788 60.928 218.788 64.143C218.788 67.358 216.157 69.988 212.943 69.988Z" fill="#EEF4F7"/>
<path d="M81.228 113.434H63.437C60.222 113.434 57.592 110.804 57.592 107.589C57.592 104.374 60.222 101.744 63.437 101.744H81.228C84.443 101.744 87.073 104.374 87.073 107.589C87.073 110.804 84.443 113.434 81.228 113.434Z" fill="#EEF4F7"/>
<path d="M255.266 93.2619H237.64C234.458 93.2229 231.867 90.6099 231.867 87.4189C231.867 87.3899 231.869 87.3609 231.869 87.3309H231.864C231.818 84.1559 229.207 81.5719 226.021 81.5719H195.9C192.685 81.5719 190.055 84.2019 190.055 87.4169C190.055 90.6319 192.685 93.2619 195.9 93.2619H201.358L201.382 93.2649H200.852C204.037 93.2649 206.647 95.8469 206.695 99.0209C206.695 99.0499 206.693 99.0779 206.693 99.1069C206.693 99.1369 206.695 99.1659 206.695 99.1949C206.695 99.1959 206.695 99.1959 206.695 99.1959V99.1969C206.744 102.37 209.353 104.952 212.538 104.952H255.266C258.481 104.952 261.111 102.322 261.111 99.1069C261.111 95.8919 258.481 93.2619 255.266 93.2619Z" fill="#EEF4F7"/>
<path d="M152.122 94.1849C148.13 97.1419 145.224 99.4669 144.115 105.136H138.771V104.49C138.754 94.5289 144.148 86.9699 151.286 84.0199H151.553C151.757 84.0229 151.907 84.0919 152.116 84.0199H152.119V84.0189C152.12 84.0189 152.121 84.0189 152.122 84.0179V94.1849Z" fill="#C3D2DB"/>
<path d="M150.537 84.0179H151.546V96.7409H150.537C149.445 96.7409 148.552 95.8479 148.552 94.7559V86.0039C148.551 84.9119 149.445 84.0179 150.537 84.0179Z" fill="#8C9FAF"/>
<path d="M168.627 127.579H160.769V159.675H168.627V127.579Z" fill="#C3D2DB"/>
<path d="M164.698 147.453C167.553 147.453 169.868 145.138 169.868 142.283C169.868 139.428 167.553 137.113 164.698 137.113C161.843 137.113 159.528 139.428 159.528 142.283C159.528 145.138 161.843 147.453 164.698 147.453Z" fill="#9DAEBC"/>
<path d="M164.698 146.212C166.868 146.212 168.627 144.453 168.627 142.283C168.627 140.113 166.868 138.354 164.698 138.354C162.528 138.354 160.769 140.113 160.769 142.283C160.769 144.453 162.528 146.212 164.698 146.212Z" fill="#DDE6EB"/>
<path d="M164.698 145.234C166.328 145.234 167.649 143.913 167.649 142.283C167.649 140.653 166.328 139.332 164.698 139.332C163.068 139.332 161.747 140.653 161.747 142.283C161.747 143.913 163.068 145.234 164.698 145.234Z" fill="#8C9FAF"/>
<path d="M169.615 127.579H159.781C158.159 127.579 156.832 126.252 156.832 124.63V123.881C156.832 122.259 158.159 120.932 159.781 120.932H169.615C171.237 120.932 172.564 122.259 172.564 123.881V124.63C172.563 126.252 171.236 127.579 169.615 127.579Z" fill="#8C9FAF"/>
<path d="M161.568 159.482H167.828C169.088 159.482 170.118 160.513 170.118 161.772C170.118 163.032 169.087 164.062 167.828 164.062H161.568C160.308 164.062 159.278 163.031 159.278 161.772C159.278 160.513 160.308 159.482 161.568 159.482Z" fill="#8C9FAF"/>
<path d="M199.206 127.579H189.372C187.75 127.579 186.423 126.252 186.423 124.63V123.881C186.423 122.259 187.75 120.932 189.372 120.932H199.206C200.828 120.932 202.155 122.259 202.155 123.881V124.63C202.155 126.252 200.828 127.579 199.206 127.579Z" fill="#8C9FAF"/>
<path d="M195.478 71.1729H163.483C163.27 71.1729 163.096 70.9989 163.096 70.7859V69.5419C163.096 69.3289 163.27 69.1549 163.483 69.1549H195.478C195.691 69.1549 195.865 69.3289 195.865 69.5419V70.7859C195.865 70.9989 195.691 71.1729 195.478 71.1729Z" fill="#8C9FAF"/>
<path d="M195.478 69.155H163.483C163.27 69.155 163.096 68.981 163.096 68.768V67.524C163.096 67.311 163.27 67.137 163.483 67.137H195.478C195.691 67.137 195.865 67.311 195.865 67.524V68.768C195.865 68.981 195.691 69.155 195.478 69.155Z" fill="#C3D2DB"/>
<path d="M195.426 75.7959H163.537C163.295 75.7959 163.097 75.5979 163.097 75.3559V73.6299C163.097 73.3879 163.295 73.1899 163.537 73.1899H195.426C195.668 73.1899 195.866 73.3879 195.866 73.6299V75.3559C195.865 75.5979 195.668 75.7959 195.426 75.7959Z" fill="#8C9FAF"/>
<path d="M195.478 73.191H163.483C163.27 73.191 163.096 73.017 163.096 72.804V71.56C163.096 71.347 163.27 71.173 163.483 71.173H195.478C195.691 71.173 195.865 71.347 195.865 71.56V72.804C195.865 73.017 195.691 73.191 195.478 73.191Z" fill="#C3D2DB"/>
<path fill-rule="evenodd" clip-rule="evenodd" d="M197.596 58.7719L199.838 57.7609V48.1539H197.596V58.7719Z" fill="#C3D2DB"/>
<path fill-rule="evenodd" clip-rule="evenodd" d="M161.33 58.7719L159.088 57.7609V48.1539H161.33V58.7719Z" fill="#C3D2DB"/>
<path d="M195.196 67.3559H163.613C162.029 67.3559 160.733 66.0599 160.733 64.4759V46.4449C160.733 44.8609 162.029 43.5649 163.613 43.5649H195.196C196.78 43.5649 198.076 44.8609 198.076 46.4449V64.4759C198.076 66.0599 196.78 67.3559 195.196 67.3559Z" fill="#C3D2DB"/>
<path d="M188.657 45.8669C188.572 45.8669 188.486 45.8679 188.397 45.8679C188.311 45.8689 188.223 45.8689 188.133 45.8689H170.762C170.673 45.8689 170.585 45.8679 170.498 45.8679C170.41 45.8669 170.323 45.8669 170.238 45.8669C169.629 45.8669 167.774 45.8669 167.774 47.8549V53.7369C167.774 55.3839 169.114 56.7239 170.761 56.7239H188.132C189.779 56.7239 191.119 55.3839 191.119 53.7369V47.8549C191.121 45.8669 189.266 45.8669 188.657 45.8669Z" fill="#6F98C1"/>
<path d="M187.819 55.7229H171.078C169.813 55.7229 168.778 54.6879 168.778 53.4229V48.0119C168.778 47.3829 169.288 46.8719 169.918 46.8719H187.82C189.09 46.8719 190.12 47.9019 190.12 49.1719V53.4219C190.119 54.6869 189.084 55.7229 187.819 55.7229Z" fill="#9EC5DD"/>
<path opacity="0.6" d="M184.025 46.8719H183.264V55.7229H184.025V46.8719Z" fill="white"/>
<path opacity="0.6" d="M186.713 46.8719H184.779V55.7229H186.713V46.8719Z" fill="white"/>
<path d="M200.336 42.662C200.336 31.319 191.055 22.038 179.712 22.038C168.369 22.038 159.088 31.319 159.088 42.662V48.154H200.336V42.662Z" fill="#627689"/>
<path fill-rule="evenodd" clip-rule="evenodd" d="M159.088 48.1539C159.088 48.1539 166.676 42.8509 185.534 41.9069C206.429 40.8599 207.193 48.1539 207.193 48.1539H159.088Z" fill="#849AAD"/>
<path fill-rule="evenodd" clip-rule="evenodd" d="M160.015 48.1539C160.015 48.1539 168.259 43.8989 185.077 43.1009C206.118 42.1029 206.775 48.1539 206.775 48.1539H160.015Z" fill="#627689"/>
<path opacity="0.1" d="M179.618 52.7929C197.538 52.8379 199.837 49.8469 199.837 49.8469V48.1539H159.087C159.095 48.1799 160.334 52.7449 179.618 52.7929Z" fill="black"/>
<path d="M184.206 35.7139L185.988 30.8209H180.445C177.872 30.8209 175.299 32.1899 175.299 34.9309C175.299 37.6719 178.862 38.2579 180.643 36.3009C180.643 36.8879 181.039 37.2799 182.227 37.2799H186.554L187.124 35.7139H184.206ZM180.643 35.7129C179.653 35.7129 179.059 35.5169 179.059 34.9299C179.059 34.5379 179.902 32.7769 180.1 32.1899H182.029L180.643 35.7129Z" fill="#C1D4E0"/>
<path d="M201.502 124.839H157.485C154.218 124.839 151.545 122.166 151.545 118.899V81.149C151.545 77.882 154.218 75.209 157.485 75.209H201.502C204.769 75.209 207.442 77.882 207.442 81.149V118.899C207.441 122.166 204.769 124.839 201.502 124.839Z" fill="#C3D2DB"/>
<path d="M207.441 115.392H151.545V115.876H207.441V115.392Z" fill="#8C9FAF"/>
<path d="M207.441 118.806H151.545V119.29H207.441V118.806Z" fill="#F8FDFF"/>
<path d="M207.441 82.3199H151.545V82.8039H207.441V82.3199Z" fill="#8C9FAF"/>
<path d="M207.441 85.7339H151.545V86.2179H207.441V85.7339Z" fill="#F8FDFF"/>
<path d="M194.337 96.8679V95.4979C193.309 94.5329 191.93 93.9399 190.409 93.9399C187.818 93.9399 185.628 95.6539 184.909 98.0099H174.079C173.36 95.6539 171.17 93.9399 168.579 93.9399C167.058 93.9399 165.678 94.5329 164.651 95.4979V96.8679H168.533L170.433 99.6909L168.533 102.514H164.651V103.884C165.679 104.849 167.058 105.442 168.579 105.442C171.17 105.442 173.36 103.728 174.079 101.372H184.909C185.628 103.728 187.818 105.442 190.409 105.442C191.93 105.442 193.31 104.849 194.337 103.884V102.514H190.455L188.555 99.6909L190.455 96.8679H194.337Z" fill="#8C9FAF"/>
<path d="M164.698 161.235C158.318 161.235 152.957 165.597 151.434 171.5H177.962C176.438 165.597 171.077 161.235 164.698 161.235Z" fill="#C3D2DB"/>
<path d="M177.421 172.972H151.974C151.332 172.972 150.807 172.447 150.807 171.805V171.756C150.807 171.114 151.332 170.589 151.974 170.589H177.421C178.063 170.589 178.588 171.114 178.588 171.756V171.805C178.588 172.447 178.063 172.972 177.421 172.972Z" fill="#8C9FAF"/>
<path d="M198.218 127.579H190.36V159.675H198.218V127.579Z" fill="#C3D2DB"/>
<path d="M194.289 147.453C197.144 147.453 199.459 145.138 199.459 142.283C199.459 139.428 197.144 137.113 194.289 137.113C191.434 137.113 189.119 139.428 189.119 142.283C189.119 145.138 191.434 147.453 194.289 147.453Z" fill="#9DAEBC"/>
<path d="M194.289 146.212C196.459 146.212 198.218 144.453 198.218 142.283C198.218 140.113 196.459 138.354 194.289 138.354C192.119 138.354 190.36 140.113 190.36 142.283C190.36 144.453 192.119 146.212 194.289 146.212Z" fill="#DDE6EB"/>
<path d="M194.289 145.234C195.919 145.234 197.24 143.913 197.24 142.283C197.24 140.653 195.919 139.332 194.289 139.332C192.659 139.332 191.338 140.653 191.338 142.283C191.338 143.913 192.659 145.234 194.289 145.234Z" fill="#8C9FAF"/>
<path d="M191.159 159.482H197.419C198.679 159.482 199.709 160.513 199.709 161.772C199.709 163.032 198.678 164.062 197.419 164.062H191.159C189.899 164.062 188.869 163.031 188.869 161.772C188.869 160.513 189.9 159.482 191.159 159.482Z" fill="#8C9FAF"/>
<path d="M194.289 161.235C187.909 161.235 182.548 165.597 181.025 171.5H207.553C206.03 165.597 200.669 161.235 194.289 161.235Z" fill="#C3D2DB"/>
<path d="M174.935 60.1079C174.935 60.8069 175.504 61.3749 176.202 61.3749H182.494C183.193 61.3749 183.761 60.8069 183.761 60.1079V59.9349H185.695V60.1079C185.695 61.8729 184.259 63.3089 182.494 63.3089H176.202C174.436 63.3089 173 61.8729 173 60.1079V59.9349H174.935V60.1079Z" fill="#8C9FAF"/>
<path d="M207.012 172.972H181.565C180.923 172.972 180.398 172.447 180.398 171.805V171.756C180.398 171.114 180.923 170.589 181.565 170.589H207.012C207.654 170.589 208.179 171.114 208.179 171.756V171.805C208.18 172.447 207.654 172.972 207.012 172.972Z" fill="#8C9FAF"/>
<path opacity="0.6" d="M163.607 67.3559H195.19C196.058 67.3559 196.83 66.9589 197.359 66.3469H161.439C161.968 66.9589 162.74 67.3559 163.607 67.3559Z" fill="#8C9FAF"/>
<path d="M157.555 148.812H154.991V171.777H157.555V148.812Z" fill="#7F5F3B"/>
<path d="M161.349 133.799C165.397 137.872 170.529 154.664 156.273 154.664C142.018 154.664 147.149 137.872 151.197 133.799C152.757 132.229 154.718 131.524 156.273 131.524C157.828 131.524 159.789 132.23 161.349 133.799Z" fill="#8CB770"/>
<path d="M153.192 143.706C154.416 143.706 155.409 142.398 155.409 140.785C155.409 139.172 154.416 137.864 153.192 137.864C151.968 137.864 150.975 139.172 150.975 140.785C150.975 142.398 151.968 143.706 153.192 143.706Z" fill="#9EC683"/>
<path d="M159.325 149.164C160.262 149.164 161.022 148.163 161.022 146.929C161.022 145.695 160.262 144.694 159.325 144.694C158.388 144.694 157.628 145.695 157.628 146.929C157.628 148.163 158.388 149.164 159.325 149.164Z" fill="#9EC683"/>
<path d="M158.294 138.757C158.863 138.757 159.325 138.149 159.325 137.399C159.325 136.649 158.863 136.041 158.294 136.041C157.725 136.041 157.263 136.649 157.263 137.399C157.263 138.149 157.725 138.757 158.294 138.757Z" fill="#9EC683"/>
<path d="M65.594 149.311H63.03V172.276H65.594V149.311Z" fill="#7F5F3B"/>
<path d="M164.006 172.972H61.528C60.956 172.972 60.487 172.504 60.487 171.931C60.487 171.359 60.955 170.89 61.528 170.89H164.007C164.579 170.89 165.048 171.358 165.048 171.931C165.047 172.504 164.579 172.972 164.006 172.972Z" fill="#8CB770"/>
<path d="M156.892 168.81H68.63V164.4C68.63 163.504 69.356 162.778 70.252 162.778H155.269C156.165 162.778 156.891 163.504 156.891 164.4V168.81H156.892Z" fill="#494949"/>
<path d="M153.717 101.5H71.805V162.777H153.717V101.5Z" fill="#EFEFEF"/>
<path d="M99.896 133.886H76.402V158.19H99.896V133.886Z" fill="#9EC5DD"/>
<path d="M149.12 133.886H125.626V158.19H149.12V133.886Z" fill="#9EC5DD"/>
<path d="M146.628 128.631H79.462C77.377 128.631 75.687 126.941 75.687 124.856C75.687 122.771 77.377 121.081 79.462 121.081H146.627C148.712 121.081 150.402 122.771 150.402 124.856C150.403 126.941 148.713 128.631 146.628 128.631Z" fill="white"/>
<path d="M150.028 106.499H76.062V116.332H150.028V106.499Z" fill="#9EC5DD"/>
<path d="M149.653 106.874V115.957H76.437V106.874H149.653ZM150.403 106.124H75.687V116.707H150.403V106.124Z" fill="#494949"/>
<path d="M122.029 132.886H103.494V169.81H122.029V132.886Z" fill="#494949"/>
<path d="M121.028 133.886V168.81H104.493V133.886H121.028ZM123.028 131.886H121.028H104.493H102.493V133.886V168.81V170.81H104.493H121.028H123.028V168.81V133.886V131.886Z" fill="#EFEFEF"/>
<path d="M156.988 101.5H68.533C67.34 101.5 66.783 100.542 67.278 99.3829L68.127 97.3939C68.594 96.3009 69.878 95.4319 71.004 95.4319H154.518C155.644 95.4319 156.928 96.3009 157.395 97.3939L158.244 99.3829C158.739 100.542 158.181 101.5 156.988 101.5Z" fill="#E85252"/>
<path d="M92.444 90.881H90.189V95.432H92.444V90.881Z" fill="#BCBCBC"/>
<path opacity="0.68" d="M90.664 90.881H90.189V95.432H90.664V90.881Z" fill="white"/>
<path opacity="0.26" d="M92.444 90.881H91.494V95.432H92.444V90.881Z" fill="#424242"/>
<path d="M135.333 90.881H133.078V95.432H135.333V90.881Z" fill="#BCBCBC"/>
<path opacity="0.68" d="M133.553 90.881H133.078V95.432H133.553V90.881Z" fill="white"/>
<path opacity="0.26" d="M135.334 90.881H134.384V95.432H135.334V90.881Z" fill="#424242"/>
<path d="M122.722 168.81H102.8V170.891H122.722V168.81Z" fill="#D3D3D3"/>
<path d="M102.801 170.891H67.111V170.318C67.111 169.485 67.786 168.809 68.62 168.809H102.801V170.891Z" fill="#6D6D6D"/>
<path d="M122.721 170.891H158.411V170.318C158.411 169.485 157.736 168.809 156.902 168.809H122.721V170.891Z" fill="#6D6D6D"/>
<path d="M122.722 170.891H102.8V172.972H122.722V170.891Z" fill="#6D6D6D"/>
<path d="M119.335 135.549H106.186V151.601H119.335V135.549Z" fill="#9EC5DD"/>
<path d="M119.335 153.265H106.186V167.146H119.335V153.265Z" fill="#9EC5DD"/>
<path opacity="0.5" d="M91.166 133.886L76.402 148.65V155.086L97.602 133.886H91.166Z" fill="#80ABCE"/>
<path opacity="0.5" d="M99.896 133.886H99.549L76.402 157.032V158.189H77.639L99.896 135.932V133.886Z" fill="#80ABCE"/>
<path opacity="0.5" d="M83.982 133.886L76.402 141.466V142.662L85.179 133.886H83.982Z" fill="#80ABCE"/>
<path opacity="0.5" d="M99.896 149.105L90.812 158.189H92.506L99.896 150.799V149.105Z" fill="#80ABCE"/>
<path opacity="0.5" d="M149.12 144.842L135.772 158.189H139.77L149.12 148.84V144.842Z" fill="#80ABCE"/>
<path opacity="0.5" d="M143.719 133.886L125.625 151.98V155.87L147.609 133.886H143.719Z" fill="#80ABCE"/>
<path opacity="0.5" d="M149.12 135.669L126.6 158.189H128.993L149.12 138.063V135.669Z" fill="#80ABCE"/>
<path opacity="0.5" d="M149.12 152.433L143.363 158.189H144.56L149.12 153.63V152.433Z" fill="#80ABCE"/>
<path opacity="0.5" d="M119.335 161.39L113.579 167.146H114.776L119.335 162.587V161.39Z" fill="#80ABCE"/>
<path opacity="0.5" d="M136.036 133.886L125.625 144.297V145.991L137.73 133.886H136.036Z" fill="#80ABCE"/>
<path d="M125.789 84.1559H99.732C98.216 87.5349 94.83 89.8929 90.886 89.8929C88.448 89.8929 86.231 88.9809 84.528 87.4939H84.261V89.8049C85.994 91.4319 88.321 92.4329 90.886 92.4329C94.83 92.4329 98.216 90.0749 99.732 86.6949H125.789C127.305 90.0739 130.691 92.4329 134.634 92.4329C137.199 92.4329 139.526 91.4319 141.259 89.8049V87.4939H140.992C139.29 88.9809 137.073 89.8929 134.634 89.8929C130.691 89.8929 127.305 87.5349 125.789 84.1559Z" fill="#A4B7C1"/>
<path opacity="0.5" d="M119.335 137.196L106.186 150.345V151.601H107.324L119.335 139.59V137.196Z" fill="#80ABCE"/>
<path opacity="0.5" d="M119.335 142.395L110.129 151.601H114.019L119.335 146.285V142.395Z" fill="#80ABCE"/>
<path opacity="0.5" d="M108.454 153.265L106.186 155.532V159.422L112.344 153.265H108.454Z" fill="#80ABCE"/>
<path opacity="0.5" d="M108.676 167.146H111.07L119.335 158.881V156.487L108.676 167.146Z" fill="#80ABCE"/>
<path d="M117.143 143.094H108.378C108.072 143.094 107.822 142.844 107.822 142.538V140.157C107.822 139.851 108.072 139.601 108.378 139.601H117.143C117.449 139.601 117.699 139.851 117.699 140.157V142.538C117.7 142.844 117.449 143.094 117.143 143.094Z" fill="#EEF4F7"/>
<path d="M108.115 155.474C107.954 155.474 107.823 155.342 107.823 155.182V149.708C107.823 149.547 107.955 149.416 108.115 149.416C108.276 149.416 108.407 149.548 108.407 149.708V155.182C108.407 155.342 108.275 155.474 108.115 155.474Z" fill="#EEF4F7"/>
<path d="M100.407 158.189H75.89V159.224H100.407V158.189Z" fill="white"/>
<path d="M100.409 159.224H75.892V159.897H100.409V159.224Z" fill="#D3D3D3"/>
<path d="M100.407 133.886H75.89V135.549H100.407V133.886Z" fill="#E85252"/>
<path d="M149.635 133.886H125.118V135.549H149.635V133.886Z" fill="#E85252"/>
<path d="M153.717 101.5H71.805V102.791H153.717V101.5Z" fill="#D3D3D3"/>
<path d="M149.635 158.189H125.118V159.224H149.635V158.189Z" fill="white"/>
<path d="M149.636 159.224H125.119V159.897H149.636V159.224Z" fill="#D3D3D3"/>
<path d="M99.552 125.422C99.526 125.788 99.391 126.075 99.147 126.285C98.904 126.495 98.583 126.6 98.185 126.6C97.749 126.6 97.407 126.453 97.157 126.16C96.907 125.867 96.783 125.464 96.783 124.953V124.745C96.783 124.418 96.841 124.131 96.956 123.882C97.071 123.633 97.236 123.442 97.449 123.309C97.662 123.176 97.911 123.11 98.194 123.11C98.586 123.11 98.902 123.215 99.141 123.425C99.381 123.635 99.519 123.93 99.556 124.309H98.856C98.839 124.09 98.778 123.931 98.673 123.832C98.568 123.733 98.408 123.684 98.194 123.684C97.961 123.684 97.786 123.768 97.67 123.935C97.554 124.102 97.495 124.362 97.492 124.713V124.97C97.492 125.337 97.548 125.605 97.659 125.775C97.77 125.945 97.946 126.029 98.185 126.029C98.401 126.029 98.563 125.98 98.669 125.881C98.776 125.782 98.837 125.629 98.852 125.423H99.552V125.422Z" fill="#B2B2B2"/>
<path d="M102.885 125.854H101.658L101.425 126.554H100.681L101.945 123.157H102.594L103.865 126.554H103.121L102.885 125.854ZM101.847 125.287H102.696L102.269 124.016L101.847 125.287Z" fill="#B2B2B2"/>
<path d="M106.395 125.31H105.837V126.553H105.137V123.156H106.399C106.8 123.156 107.11 123.245 107.328 123.424C107.546 123.603 107.655 123.856 107.655 124.182C107.655 124.414 107.605 124.607 107.505 124.762C107.405 124.917 107.253 125.04 107.049 125.132L107.784 126.52V126.553H107.033L106.395 125.31ZM105.838 124.744H106.403C106.579 124.744 106.715 124.699 106.811 124.61C106.907 124.521 106.956 124.397 106.956 124.24C106.956 124.08 106.911 123.954 106.82 123.862C106.729 123.77 106.589 123.724 106.401 123.724H105.839V124.744H105.838Z" fill="#B2B2B2"/>
<path d="M111.988 125.357V126.554H111.288V123.157H112.613C112.868 123.157 113.092 123.204 113.286 123.297C113.48 123.39 113.629 123.523 113.733 123.695C113.837 123.867 113.889 124.062 113.889 124.282C113.889 124.615 113.775 124.877 113.547 125.069C113.319 125.261 113.004 125.357 112.601 125.357H111.988ZM111.988 124.79H112.613C112.798 124.79 112.939 124.746 113.036 124.659C113.133 124.572 113.182 124.447 113.182 124.286C113.182 124.12 113.133 123.985 113.035 123.882C112.937 123.779 112.802 123.726 112.629 123.723H111.987V124.79H111.988Z" fill="#B2B2B2"/>
<path d="M116.828 125.854H115.601L115.368 126.554H114.624L115.888 123.157H116.537L117.808 126.554H117.064L116.828 125.854ZM115.79 125.287H116.639L116.212 124.016L115.79 125.287Z" fill="#B2B2B2"/>
<path d="M120.339 125.31H119.781V126.553H119.081V123.156H120.343C120.744 123.156 121.054 123.245 121.272 123.424C121.49 123.603 121.599 123.856 121.599 124.182C121.599 124.414 121.549 124.607 121.449 124.762C121.349 124.917 121.197 125.04 120.993 125.132L121.728 126.52V126.553H120.977L120.339 125.31ZM119.781 124.744H120.346C120.522 124.744 120.658 124.699 120.754 124.61C120.85 124.521 120.899 124.397 120.899 124.24C120.899 124.08 120.854 123.954 120.763 123.862C120.672 123.77 120.532 123.724 120.344 123.724H119.782V124.744H119.781Z" fill="#B2B2B2"/>
<path d="M125.526 123.724H124.485V126.554H123.785V123.724H122.758V123.157H125.525V123.724H125.526Z" fill="#B2B2B2"/>
<path d="M128.605 125.663C128.605 125.531 128.558 125.429 128.465 125.359C128.372 125.288 128.204 125.214 127.961 125.135C127.718 125.056 127.526 124.979 127.385 124.903C126.999 124.695 126.806 124.414 126.806 124.061C126.806 123.877 126.858 123.714 126.961 123.57C127.064 123.426 127.213 123.314 127.407 123.233C127.601 123.152 127.818 123.112 128.059 123.112C128.302 123.112 128.518 123.156 128.708 123.244C128.898 123.332 129.045 123.456 129.15 123.616C129.255 123.776 129.307 123.958 129.307 124.162H128.607C128.607 124.006 128.558 123.886 128.46 123.799C128.362 123.713 128.224 123.67 128.047 123.67C127.876 123.67 127.743 123.706 127.648 123.778C127.553 123.85 127.506 123.946 127.506 124.064C127.506 124.174 127.562 124.267 127.673 124.342C127.784 124.417 127.948 124.487 128.164 124.552C128.562 124.672 128.852 124.82 129.034 124.998C129.216 125.175 129.307 125.396 129.307 125.661C129.307 125.955 129.196 126.186 128.973 126.353C128.75 126.52 128.451 126.604 128.075 126.604C127.814 126.604 127.576 126.556 127.361 126.461C127.146 126.365 126.983 126.234 126.87 126.068C126.757 125.902 126.701 125.709 126.701 125.489H127.403C127.403 125.864 127.627 126.051 128.075 126.051C128.241 126.051 128.371 126.017 128.465 125.95C128.558 125.879 128.605 125.784 128.605 125.663Z" fill="#B2B2B2"/>
<path d="M99.896 106.495H99.259V116.258H99.896V106.495Z" fill="#9EC5DD"/>
<path d="M99.896 106.495H99.259V116.258H99.896V106.495Z" fill="#494949"/>
<path opacity="0.5" d="M95.476 106.759H89.041L79.729 116.071H86.164L95.476 106.759Z" fill="#80ABCE"/>
<path opacity="0.5" d="M117.317 106.759H113.427L104.116 116.071H108.005L117.317 106.759Z" fill="#80ABCE"/>
<path opacity="0.5" d="M123.005 106.759H120.611L111.299 116.071H113.693L123.005 106.759Z" fill="#80ABCE"/>
<path opacity="0.5" d="M136.254 106.759H134.56L125.248 116.071H126.942L136.254 106.759Z" fill="#80ABCE"/>
<path opacity="0.5" d="M98.377 106.759H96.683L87.371 116.071H89.065L98.377 106.759Z" fill="#80ABCE"/>
<path opacity="0.5" d="M146.572 106.759H144.878L135.566 116.071H137.26L146.572 106.759Z" fill="#80ABCE"/>
<path opacity="0.5" d="M82.511 106.759H80.817L76.32 111.256V112.95L82.511 106.759Z" fill="#80ABCE"/>
<path opacity="0.5" d="M149.766 110.123V109.802V109.537V109.348V108.341V107.318V107.053V106.915V106.759H149.358L140.046 116.071H144.044L149.766 110.349V110.334V110.123Z" fill="#80ABCE"/>
<path d="M126.263 106.495H125.626V116.258H126.263V106.495Z" fill="#9EC5DD"/>
<path d="M126.263 106.495H125.626V116.258H126.263V106.495Z" fill="#494949"/>
<path d="M141.26 76.7019V74.3909C139.527 72.7639 137.2 71.7629 134.635 71.7629C130.691 71.7629 127.305 74.1209 125.79 77.4999H99.732C98.216 74.1209 94.83 71.7629 90.887 71.7629C88.322 71.7629 85.995 72.7639 84.262 74.3909V76.7019H90.809L94.013 81.4629L90.809 86.2239H84.262V88.5349C85.995 90.1619 88.322 91.1629 90.887 91.1629C94.831 91.1629 98.217 88.8049 99.732 85.4249H125.789C127.305 88.8039 130.691 91.1629 134.634 91.1629C137.199 91.1629 139.526 90.1619 141.259 88.5349V86.2239H134.712L131.508 81.4629L134.712 76.7019H141.26Z" fill="#C3D2DB"/>
<path d="M124.659 82.8039H100.869C100.246 82.8039 99.74 82.2989 99.74 81.6749C99.74 81.0519 100.245 80.5459 100.869 80.5459H124.659C125.282 80.5459 125.788 81.0509 125.788 81.6749C125.788 82.2979 125.283 82.8039 124.659 82.8039Z" fill="#A4B7C1"/>
<path d="M116.128 140.56H109.394V141.01H116.128V140.56Z" fill="#B2B2B2"/>
<path d="M114.772 141.685H110.75V142.135H114.772V141.685Z" fill="#B2B2B2"/>
<path d="M64.312 153.369C68.8418 153.369 72.514 146.253 72.514 137.476C72.514 128.698 68.8418 121.583 64.312 121.583C59.7821 121.583 56.11 128.698 56.11 137.476C56.11 146.253 59.7821 153.369 64.312 153.369Z" fill="#8CB770"/>
<path d="M61.496 136.524C62.7176 136.524 63.708 134.849 63.708 132.783C63.708 130.717 62.7176 129.042 61.496 129.042C60.2743 129.042 59.284 130.717 59.284 132.783C59.284 134.849 60.2743 136.524 61.496 136.524Z" fill="#9EC683"/>
<path d="M65.594 142.521C66.3131 142.521 66.896 141.535 66.896 140.319C66.896 139.103 66.3131 138.117 65.594 138.117C64.8749 138.117 64.292 139.103 64.292 140.319C64.292 141.535 64.8749 142.521 65.594 142.521Z" fill="#9EC683"/>
<path d="M98.716 160.295H90.91V170.891H98.716V160.295Z" fill="#FBCD4D"/>
<path d="M98.716 160.295H90.91V162.161H98.716V160.295Z" fill="#E5B439"/>
<path d="M158.878 162.778H143.751V170.891H158.878V162.778Z" fill="#DFB06D"/>
<path d="M158.878 162.778H143.751V163.801H158.878V162.778Z" fill="#CE995B"/>
<path d="M160.388 162.778H142.24V156.979C142.24 156.738 142.436 156.542 142.677 156.542H159.951C160.192 156.542 160.388 156.738 160.388 156.979V162.778Z" fill="#DFB06D"/>
<path d="M144.485 162.221H131.677V170.891H144.485V162.221Z" fill="#B88049"/>
<path d="M145.277 158.868H130.884V162.489H145.277V158.868Z" fill="#B88049"/>
<path d="M136.046 164.391H133.351V166.556H136.046V164.391Z" fill="#CE995B"/>
<path d="M144.485 162.49H131.677V163.513H144.485V162.49Z" fill="#A86F3D"/>
<path d="M163.755 166.286H156.988V170.867H163.755V166.286Z" fill="#B88049"/>
<path d="M164.174 164.515H156.569V166.428H164.174V164.515Z" fill="#B88049"/>
<path d="M159.296 167.433H157.872V168.577H159.296V167.433Z" fill="#CE995B"/>
<path opacity="0.5" d="M152.026 156.543H150.602V170.867H152.026V156.543Z" fill="#B78049"/>
<path d="M163.755 166.428H156.988V166.969H163.755V166.428Z" fill="#A86F3D"/>
<path d="M88.229 157.338H74.28V170.891H88.229V157.338Z" fill="#E5B57E"/>
<path d="M86.468 159.62H83.756V162.332H86.468V159.62Z" fill="#CE995B"/>
<path d="M81.8719 170.89V157.337H80.6349V170.89H81.8719Z" fill="#D3A06C"/>
<path d="M215.371 129.25H220.233L220.221 113.26H215.371V129.25Z" fill="#C3D2DB"/>
<path d="M220.215 104.763C220.233 94.4399 214.412 86.7019 206.864 84.0179V94.4819C210.856 97.4329 213.762 99.7519 214.871 105.408H220.215V104.763Z" fill="#C3D2DB"/>
<path fill-rule="evenodd" clip-rule="evenodd" d="M218.006 137.794L219.985 137.838L219.998 142.568L217.673 146.514L214.407 146.642L214.369 144.837L216.7 144.665L217.932 142.44L218.006 137.794Z" fill="#C3D2DB"/>
<path fill-rule="evenodd" clip-rule="evenodd" d="M218.757 137.852L218.618 142.4L219.329 142.535L219.191 143.061L218.406 142.928L217.366 144.855L217.609 145.784L217.017 145.983L216.702 145.205L214.917 145.355L214.385 146.631L214.369 144.837L216.7 144.665L217.911 142.481L217.986 137.835L218.757 137.852Z" fill="#8C9FAF"/>
<path fill-rule="evenodd" clip-rule="evenodd" d="M215.871 134.899L214.087 134.042L211.931 138.253L212.217 142.824L215.07 144.418L215.922 142.826L213.922 141.616L213.832 139.075L215.871 134.899Z" fill="#C3D2DB"/>
<path fill-rule="evenodd" clip-rule="evenodd" d="M215.175 134.611L213.238 138.729L212.543 138.527L212.428 139.058L213.188 139.295L213.242 141.484L212.605 142.202L213.042 142.648L213.675 142.097L215.199 143.039L215.094 144.418L215.922 142.871L213.922 141.662L213.832 139.121L215.871 134.945L215.175 134.611Z" fill="#8C9FAF"/>
<path fill-rule="evenodd" clip-rule="evenodd" d="M219.566 138.362L221.545 138.407L221.558 143.137L219.233 147.082L215.967 147.21L215.929 145.405L218.26 145.233L219.491 143.008L219.566 138.362Z" fill="#C3D2DB"/>
<path fill-rule="evenodd" clip-rule="evenodd" d="M220.317 138.42L220.178 142.969L220.889 143.103L220.751 143.629L219.966 143.496L218.925 145.423L219.168 146.352L218.576 146.551L218.262 145.774L216.477 145.923L215.945 147.199L215.929 145.405L218.26 145.233L219.471 143.049L219.545 138.403L220.317 138.42Z" fill="#8C9FAF"/>
<path d="M220.763 112.142H214.938C214.323 112.142 213.82 112.645 213.82 113.26C213.82 113.875 214.323 114.378 214.938 114.378H220.763C221.378 114.378 221.881 113.875 221.881 113.26C221.88 112.645 221.377 112.142 220.763 112.142Z" fill="#8C9FAF"/>
<path d="M220.763 109.307H214.938C214.323 109.307 213.82 109.81 213.82 110.425C213.82 111.04 214.323 111.543 214.938 111.543H220.763C221.378 111.543 221.881 111.04 221.881 110.425C221.88 109.81 221.377 109.307 220.763 109.307Z" fill="#8C9FAF"/>
<path d="M220.763 106.472H214.938C214.323 106.472 213.82 106.975 213.82 107.59C213.82 108.205 214.323 108.708 214.938 108.708H220.763C221.378 108.708 221.881 108.205 221.881 107.59C221.88 106.975 221.377 106.472 220.763 106.472Z" fill="#8C9FAF"/>
<path d="M220.763 103.639H214.938C214.323 103.639 213.82 104.142 213.82 104.757C213.82 105.372 214.323 105.875 214.938 105.875H220.763C221.378 105.875 221.881 105.372 221.881 104.757C221.88 104.142 221.377 103.639 220.763 103.639Z" fill="#8C9FAF"/>
<path opacity="0.6" d="M220.233 127.657H215.371V122.619C215.371 122.619 216.021 123.66 217.25 124.263C218.432 124.843 220.233 124.859 220.233 124.859V127.657Z" fill="#8C9FAF"/>
<path d="M219.786 140.053H215.689C214.72 140.053 213.927 139.26 213.927 138.291V129.169C213.927 128.2 214.72 127.407 215.689 127.407H219.786C220.755 127.407 221.548 128.2 221.548 129.169V138.291C221.548 139.26 220.755 140.053 219.786 140.053Z" fill="#C3D2DB"/>
<path d="M208.453 84.0179H207.444V96.7409H208.453C209.545 96.7409 210.438 95.8479 210.438 94.7559V86.0039C210.439 84.9119 209.545 84.0179 208.453 84.0179Z" fill="#8C9FAF"/>
<path opacity="0.7" d="M221.559 129.765H213.927V130.249H221.559V129.765Z" fill="#8C9FAF"/>
<path opacity="0.7" d="M221.553 137.211H213.921V137.695H221.553V137.211Z" fill="#F8FDFF"/>
<path d="M220.466 138.362C221.9 138.362 223.062 137.2 223.062 135.766C223.062 134.332 221.9 133.17 220.466 133.17C219.032 133.17 217.87 134.332 217.87 135.766C217.87 137.2 219.032 138.362 220.466 138.362Z" fill="#9DAEBC"/>
<path d="M220.466 137.75C221.562 137.75 222.45 136.862 222.45 135.766C222.45 134.67 221.562 133.782 220.466 133.782C219.37 133.782 218.482 134.67 218.482 135.766C218.482 136.862 219.37 137.75 220.466 137.75Z" fill="#DDE6EB"/>
<path d="M220.466 137.256C221.289 137.256 221.956 136.589 221.956 135.766C221.956 134.943 221.289 134.276 220.466 134.276C219.643 134.276 218.976 134.943 218.976 135.766C218.976 136.589 219.643 137.256 220.466 137.256Z" fill="#8C9FAF"/>
<path d="M234.507 69.988C237.735 69.988 240.352 67.3711 240.352 64.143C240.352 60.9149 237.735 58.298 234.507 58.298C231.279 58.298 228.662 60.9149 228.662 64.143C228.662 67.3711 231.279 69.988 234.507 69.988Z" fill="#EEF4F7"/>
<defs>
<radialGradient id="paint0_radial" cx="0" cy="0" r="1" gradientUnits="userSpaceOnUse" gradientTransform="translate(179 172.969) scale(43.0787 3.73236)">
<stop stop-color="#A0B3BA"/>
<stop offset="0.5446" stop-color="#C3D2DB" stop-opacity="0.6"/>
<stop offset="1" stop-color="#C3D2DB" stop-opacity="0"/>
</radialGradient>
</defs>
</svg>
