<svg xmlns="http://www.w3.org/2000/svg" viewBox="0 0 116 87">
    <path fill="#719AC6" d="M88.623 87H70.995c-2.943 0-5.351-2.408-5.351-5.351V64.021c0-2.943 2.408-5.35 5.351-5.35h17.628c2.943 0 5.351 2.408 5.351 5.35v17.628c0 2.943-2.408 5.351-5.351 5.351z"/>
    <g fill="#FFF">
        <circle cx="79.809" cy="66.412" r="2.267"/>
        <path d="M82.715 72.553a.496.496 0 0 0 .494-.494V70.78a.495.495 0 0 0-.494-.494h-5.811a.495.495 0 0 0-.494.494v1.278c0 .272.222.494.494.494h.639v5.668h-.639a.495.495 0 0 0-.494.494v1.278c0 .272.222.494.494.494h5.811a.495.495 0 0 0 .494-.494v-1.278a.495.495 0 0 0-.494-.494h-.639v-5.668h.639z"/>
    </g>
</svg>
