<svg width="180" height="152" viewBox="0 0 180 152" fill="none" xmlns="http://www.w3.org/2000/svg">
<g clip-path="url(#clip0)">
<path d="M144.764 85.1191H103.138C99.923 85.1191 97.293 82.4891 97.293 79.2741C97.293 76.0591 99.923 73.4291 103.138 73.4291H144.764C147.979 73.4291 150.609 76.0591 150.609 79.2741C150.609 82.4891 147.978 85.1191 144.764 85.1191Z" fill="#D8E8EF"/>
<path d="M128.98 74.768L117.96 74.784L115.24 64.174L120.756 64.166C123.79 64.162 126.884 66.545 127.632 69.463C128.38 72.381 128.98 74.768 128.98 74.768Z" fill="#C3D2DB"/>
<path d="M121.78 71.407H127.605C128.22 71.407 128.723 71.91 128.723 72.525C128.723 73.14 128.22 73.643 127.605 73.643H121.78C121.165 73.643 120.662 73.14 120.662 72.525C120.663 71.91 121.166 71.407 121.78 71.407Z" fill="#8C9FAF"/>
<path d="M24.426 71.377H7.095C3.88 71.377 1.25 68.747 1.25 65.532C1.25 62.317 3.88 59.687 7.095 59.687H24.425C27.64 59.687 30.27 62.317 30.27 65.532C30.271 68.746 27.641 71.377 24.426 71.377Z" fill="#D8E8EF"/>
<path d="M58.1859 99.121H35.9849C32.7699 99.121 30.1399 96.491 30.1399 93.276C30.1399 90.061 32.7699 87.431 35.9849 87.431H58.1859C61.4009 87.431 64.0309 90.061 64.0309 93.276C64.0309 96.491 61.4009 99.121 58.1859 99.121Z" fill="#D8E8EF"/>
<path d="M140.363 29.0261H131.089C127.874 29.0261 125.244 26.3961 125.244 23.1811C125.244 19.9661 127.874 17.3361 131.089 17.3361H140.363C143.578 17.3361 146.208 19.9661 146.208 23.1811C146.208 26.3961 143.577 29.0261 140.363 29.0261Z" fill="#D8E8EF"/>
<path d="M98.9141 29.6091H78.1121C74.8971 29.6091 72.2671 26.9791 72.2671 23.7641C72.2671 23.7351 72.2691 23.7061 72.2691 23.6761H72.2591C72.2121 20.5011 69.6021 17.9191 66.4161 17.9191H24.8731C21.6581 17.9191 19.0281 20.5491 19.0281 23.7641C19.0281 26.9791 21.6581 29.6091 24.8731 29.6091H47.4381C47.3071 29.6091 47.1781 29.6151 47.0491 29.6241C50.0841 29.8261 52.5051 32.3711 52.5051 35.4541C52.5051 38.5381 50.0841 41.0821 47.0491 41.2841C47.1781 41.2931 47.3071 41.2991 47.4381 41.2991H35.9821C32.7671 41.2991 30.1371 43.9291 30.1371 47.1441C30.1371 50.3591 32.7671 52.9891 35.9821 52.9891H82.9381C86.1221 52.9891 88.7321 50.4081 88.7811 47.2341H88.7831C88.7831 47.2211 88.7821 47.2071 88.7821 47.1941C88.7821 47.1771 88.7831 47.1611 88.7831 47.1441C88.7831 47.1281 88.7821 47.1121 88.7821 47.0961C88.8091 43.9041 91.4281 41.3011 94.6261 41.3011H94.0471L94.0731 41.2981H98.9151C102.13 41.2981 104.76 38.6681 104.76 35.4531C104.759 32.2391 102.129 29.6091 98.9141 29.6091Z" fill="#D8E8EF"/>
<path d="M165.684 52.3H148.058C144.876 52.261 142.285 49.648 142.285 46.457C142.285 46.428 142.287 46.399 142.287 46.369H142.282C142.236 43.194 139.625 40.61 136.439 40.61H106.318C103.103 40.61 100.473 43.24 100.473 46.455C100.473 49.67 103.103 52.3 106.318 52.3H111.776L111.8 52.303H111.27C114.455 52.303 117.065 54.885 117.113 58.059C117.113 58.088 117.111 58.116 117.111 58.145C117.111 58.175 117.113 58.204 117.113 58.233C117.113 58.234 117.113 58.234 117.113 58.235C117.162 61.408 119.771 63.99 122.956 63.99H165.684C168.899 63.99 171.529 61.36 171.529 58.145C171.529 54.93 168.899 52.3 165.684 52.3Z" fill="#D8E8EF"/>
<path d="M50.823 74.768L61.843 74.784L64.563 64.174L59.047 64.166C56.013 64.162 52.919 66.545 52.171 69.463C51.423 72.381 50.823 74.768 50.823 74.768Z" fill="#C3D2DB"/>
<path d="M79.0321 106.607H71.1741V138.703H79.0321V106.607Z" fill="#C3D2DB"/>
<path d="M75.1031 126.48C77.9584 126.48 80.2731 124.165 80.2731 121.31C80.2731 118.455 77.9584 116.14 75.1031 116.14C72.2478 116.14 69.9331 118.455 69.9331 121.31C69.9331 124.165 72.2478 126.48 75.1031 126.48Z" fill="#9DAEBC"/>
<path d="M75.1031 125.239C77.273 125.239 79.0321 123.48 79.0321 121.31C79.0321 119.14 77.273 117.381 75.1031 117.381C72.9331 117.381 71.1741 119.14 71.1741 121.31C71.1741 123.48 72.9331 125.239 75.1031 125.239Z" fill="#DDE6EB"/>
<path d="M75.1031 124.261C76.7329 124.261 78.0541 122.94 78.0541 121.31C78.0541 119.68 76.7329 118.359 75.1031 118.359C73.4733 118.359 72.1521 119.68 72.1521 121.31C72.1521 122.94 73.4733 124.261 75.1031 124.261Z" fill="#8C9FAF"/>
<path d="M71.9731 138.51H78.2331C79.4931 138.51 80.5231 139.541 80.5231 140.8C80.5231 142.06 79.4921 143.09 78.2331 143.09H71.9731C70.7131 143.09 69.6831 142.059 69.6831 140.8C69.6831 139.54 70.7141 138.51 71.9731 138.51Z" fill="#8C9FAF"/>
<path d="M105.884 48.183H73.889C73.676 48.183 73.502 48.009 73.502 47.796V46.552C73.502 46.339 73.676 46.165 73.889 46.165H105.884C106.097 46.165 106.271 46.339 106.271 46.552V47.796C106.271 48.009 106.097 48.183 105.884 48.183Z" fill="#C3D2DB"/>
<path fill-rule="evenodd" clip-rule="evenodd" d="M108.001 37.8L110.243 36.789V27.181H108.001V37.8Z" fill="#C3D2DB"/>
<path fill-rule="evenodd" clip-rule="evenodd" d="M71.7349 37.8L69.4929 36.789V27.181H71.7349V37.8Z" fill="#C3D2DB"/>
<path d="M105.601 46.383H74.0179C72.4339 46.383 71.1379 45.087 71.1379 43.503V25.473C71.1379 23.889 72.4339 22.593 74.0179 22.593H105.601C107.185 22.593 108.481 23.889 108.481 25.473V43.504C108.481 45.087 107.185 46.383 105.601 46.383Z" fill="#C3D2DB"/>
<path d="M99.0619 24.895C98.9779 24.895 98.8909 24.896 98.8019 24.896C98.7159 24.897 98.6279 24.897 98.5379 24.897H81.1679C81.0789 24.897 80.9909 24.896 80.9039 24.896C80.8159 24.895 80.7289 24.895 80.6439 24.895C80.0349 24.895 78.1799 24.895 78.1799 26.883V32.765C78.1799 34.412 79.5199 35.752 81.1669 35.752H98.5379C100.185 35.752 101.525 34.412 101.525 32.765V26.883C101.526 24.895 99.6719 24.895 99.0619 24.895Z" fill="#6F98C1"/>
<path d="M98.2241 34.75H81.4831C80.2181 34.75 79.1831 33.715 79.1831 32.45V27.039C79.1831 26.41 79.6931 25.899 80.3231 25.899H98.2251C99.4951 25.899 100.525 26.929 100.525 28.199V32.449C100.525 33.715 99.4891 34.75 98.2241 34.75Z" fill="#9EC5DD"/>
<path opacity="0.6" d="M94.4309 25.9H93.6699V34.751H94.4309V25.9Z" fill="white"/>
<path opacity="0.6" d="M97.1191 25.9H95.1851V34.751H97.1191V25.9Z" fill="white"/>
<path d="M110.741 21.69C110.741 10.347 101.46 1.06604 90.1169 1.06604C78.7739 1.06604 69.4929 10.347 69.4929 21.69V27.182H110.741V21.69Z" fill="#627689"/>
<path fill-rule="evenodd" clip-rule="evenodd" d="M69.4929 27.181C69.4929 27.181 77.0809 21.878 95.9389 20.934C116.834 19.887 117.598 27.181 117.598 27.181H69.4929Z" fill="#849AAD"/>
<path fill-rule="evenodd" clip-rule="evenodd" d="M70.4199 27.181C70.4199 27.181 78.6639 22.926 95.4819 22.128C116.523 21.13 117.18 27.181 117.18 27.181H70.4199Z" fill="#627689"/>
<path opacity="0.1" d="M90.0239 31.821C107.944 31.866 110.243 28.875 110.243 28.875V27.182H69.4929C69.4999 27.208 70.7399 31.773 90.0239 31.821Z" fill="black"/>
<path d="M94.6121 14.742L96.3941 9.849H90.8501C88.2771 9.849 85.7041 11.218 85.7041 13.959C85.7041 16.7 89.2671 17.286 91.0481 15.329C91.0481 15.916 91.4441 16.308 92.6321 16.308H96.9591L97.5291 14.742H94.6121ZM91.0481 14.741C90.0581 14.741 89.4641 14.545 89.4641 13.958C89.4641 13.566 90.3071 11.805 90.5051 11.218H92.4341L91.0481 14.741Z" fill="#C1D4E0"/>
<path d="M75.1031 140.263C68.7231 140.263 63.3621 144.625 61.8391 150.528H88.3671C86.8441 144.625 81.4831 140.263 75.1031 140.263Z" fill="#C3D2DB"/>
<path d="M87.8259 152H62.3799C61.7379 152 61.2129 151.475 61.2129 150.833V150.784C61.2129 150.142 61.7379 149.617 62.3799 149.617H87.8269C88.4689 149.617 88.9939 150.142 88.9939 150.784V150.833C88.9939 151.475 88.4679 152 87.8259 152Z" fill="#8C9FAF"/>
<path d="M108.623 106.607H100.765V138.703H108.623V106.607Z" fill="#C3D2DB"/>
<path d="M104.694 126.48C107.549 126.48 109.864 124.165 109.864 121.31C109.864 118.455 107.549 116.14 104.694 116.14C101.839 116.14 99.5239 118.455 99.5239 121.31C99.5239 124.165 101.839 126.48 104.694 126.48Z" fill="#9DAEBC"/>
<path d="M104.694 125.239C106.864 125.239 108.623 123.48 108.623 121.31C108.623 119.14 106.864 117.381 104.694 117.381C102.524 117.381 100.765 119.14 100.765 121.31C100.765 123.48 102.524 125.239 104.694 125.239Z" fill="#DDE6EB"/>
<path d="M104.694 124.261C106.324 124.261 107.645 122.94 107.645 121.31C107.645 119.68 106.324 118.359 104.694 118.359C103.064 118.359 101.743 119.68 101.743 121.31C101.743 122.94 103.064 124.261 104.694 124.261Z" fill="#8C9FAF"/>
<path d="M101.564 138.51H107.824C109.084 138.51 110.114 139.541 110.114 140.8C110.114 142.06 109.083 143.09 107.824 143.09H101.564C100.304 143.09 99.2739 142.059 99.2739 140.8C99.2739 139.54 100.305 138.51 101.564 138.51Z" fill="#8C9FAF"/>
<path d="M104.694 140.263C98.3139 140.263 92.9529 144.625 91.4299 150.528H117.958C116.435 144.625 111.074 140.263 104.694 140.263Z" fill="#C3D2DB"/>
<path d="M94.166 39.136C94.166 39.835 93.597 40.403 92.899 40.403H86.607C85.908 40.403 85.34 39.835 85.34 39.136V38.963H83.406V39.136C83.406 40.901 84.842 42.337 86.607 42.337H92.899C94.665 42.337 96.101 40.901 96.101 39.136V38.963H94.166V39.136Z" fill="#8C9FAF"/>
<path d="M117.418 152H91.971C91.329 152 90.804 151.475 90.804 150.833V150.784C90.804 150.142 91.329 149.617 91.971 149.617H117.418C118.06 149.617 118.585 150.142 118.585 150.784V150.833C118.585 151.475 118.06 152 117.418 152Z" fill="#8C9FAF"/>
<path opacity="0.6" d="M74.013 46.383H105.596C106.464 46.383 107.236 45.986 107.765 45.374H71.845C72.373 45.986 73.145 46.383 74.013 46.383Z" fill="#8C9FAF"/>
<path d="M58.0231 71.407H52.1981C51.5831 71.407 51.0801 71.91 51.0801 72.525C51.0801 73.14 51.5831 73.643 52.1981 73.643H58.0231C58.6381 73.643 59.1411 73.14 59.1411 72.525C59.1401 71.91 58.6371 71.407 58.0231 71.407Z" fill="#8C9FAF"/>
<path d="M110.745 115.183H69.0529C62.0929 115.183 56.3989 109.489 56.3989 102.529V60.837C56.3989 53.877 62.0929 48.183 69.0529 48.183H110.744C117.704 48.183 123.398 53.877 123.398 60.837V74.156V102.529C123.399 109.488 117.704 115.183 110.745 115.183Z" fill="#719AC6"/>
<path d="M89.8988 71.852C92.8596 71.852 95.2598 69.4518 95.2598 66.491C95.2598 63.5302 92.8596 61.13 89.8988 61.13C86.938 61.13 84.5378 63.5302 84.5378 66.491C84.5378 69.4518 86.938 71.852 89.8988 71.852Z" fill="white"/>
<path d="M96.7709 81.0141C97.4139 81.0141 97.9399 80.4881 97.9399 79.8451V76.8231C97.9399 76.1801 97.4139 75.6541 96.7709 75.6541H83.0269C82.3839 75.6541 81.8579 76.1801 81.8579 76.8231V79.8451C81.8579 80.4881 82.3839 81.0141 83.0269 81.0141H84.5379V94.4181H83.0269C82.3839 94.4181 81.8579 94.9441 81.8579 95.5871V98.6091C81.8579 99.2521 82.3839 99.7781 83.0269 99.7781H96.7709C97.4139 99.7781 97.9399 99.2521 97.9399 98.6091V95.5871C97.9399 94.9441 97.4139 94.4181 96.7709 94.4181H95.2599V81.0141H96.7709Z" fill="white"/>
<path d="M58.224 87.7951C58.224 87.5531 58.026 87.354 57.783 87.354H58.404C59.127 87.354 59.718 86.7631 59.718 86.0401V77.8241C59.718 77.1021 59.127 76.5101 58.404 76.5101H57.783C58.025 76.5101 58.224 76.3121 58.224 76.0691C58.224 75.8261 58.026 75.6281 57.783 75.6281H55.625C55.25 77.7671 55.043 79.9631 55.043 82.2091C55.043 84.2601 55.211 86.2711 55.525 88.2341H57.782C58.025 88.2351 58.224 88.0371 58.224 87.7951Z" fill="#517EA8"/>
<path d="M56.7619 86.478H50.8459V75.636C50.8469 75.635 50.8469 75.635 50.8479 75.634H56.7619C57.4849 75.634 58.0759 76.225 58.0759 76.948V85.164C58.0749 85.886 57.4839 86.478 56.7619 86.478Z" fill="#C3D2DB"/>
<path d="M50.2571 75.1941C50.2571 75.4361 50.4551 75.6351 50.6981 75.6351H56.1401C56.3821 75.6351 56.5811 75.4371 56.5811 75.1941C56.5811 74.9521 56.3831 74.7531 56.1401 74.7531H50.6981C50.4561 74.7531 50.2571 74.9511 50.2571 75.1941Z" fill="#9DAEBC"/>
<path d="M50.2571 86.9181C50.2571 87.1601 50.4551 87.3591 50.6981 87.3591H56.1401C56.3821 87.3591 56.5811 87.1611 56.5811 86.9181C56.5811 86.6761 56.3831 86.4771 56.1401 86.4771H50.6981C50.4561 86.4781 50.2571 86.6761 50.2571 86.9181Z" fill="#9DAEBC"/>
<path d="M50.2339 77.069V77.814C50.2339 77.94 50.3369 78.044 50.4639 78.044H56.9909C57.1169 78.044 57.2209 77.941 57.2209 77.814V77.069C57.2209 76.943 57.1179 76.839 56.9909 76.839H50.4639C50.3369 76.839 50.2339 76.943 50.2339 77.069Z" fill="#8C9FAF"/>
<path d="M50.2339 79.478V80.223C50.2339 80.349 50.3369 80.453 50.4639 80.453H56.9909C57.1169 80.453 57.2209 80.35 57.2209 80.223V79.478C57.2209 79.352 57.1179 79.248 56.9909 79.248H50.4639C50.3369 79.249 50.2339 79.352 50.2339 79.478Z" fill="#8C9FAF"/>
<path d="M50.2339 81.8881V82.6331C50.2339 82.7591 50.3369 82.8631 50.4639 82.8631H56.9909C57.1169 82.8631 57.2209 82.7601 57.2209 82.6331V81.8881C57.2209 81.7621 57.1179 81.6581 56.9909 81.6581H50.4639C50.3369 81.6581 50.2339 81.7621 50.2339 81.8881Z" fill="#8C9FAF"/>
<path d="M50.2339 84.298V85.043C50.2339 85.169 50.3369 85.273 50.4639 85.273H56.9909C57.1169 85.273 57.2209 85.17 57.2209 85.043V84.298C57.2209 84.172 57.1179 84.068 56.9909 84.068H50.4639C50.3369 84.068 50.2339 84.171 50.2339 84.298Z" fill="#8C9FAF"/>
<path opacity="0.5" d="M53.028 76.839H51.823V78.044H53.028V76.839Z" fill="#F8FDFF"/>
<path opacity="0.5" d="M53.028 79.249H51.823V80.454H53.028V79.249Z" fill="#F8FDFF"/>
<path opacity="0.5" d="M53.028 81.6581H51.823V82.8631H53.028V81.6581Z" fill="#F8FDFF"/>
<path opacity="0.5" d="M53.028 84.068H51.823V85.273H53.028V84.068Z" fill="#F8FDFF"/>
<path d="M121.58 87.7951C121.58 87.5531 121.778 87.354 122.021 87.354H121.4C120.677 87.354 120.086 86.7631 120.086 86.0401V77.8241C120.086 77.1021 120.677 76.5101 121.4 76.5101H122.021C121.779 76.5101 121.58 76.3121 121.58 76.0691C121.58 75.8261 121.778 75.6281 122.021 75.6281H124.179C124.554 77.7671 124.761 79.9631 124.761 82.2091C124.761 84.2601 124.593 86.2711 124.279 88.2341H122.022C121.778 88.2351 121.58 88.0371 121.58 87.7951Z" fill="#517EA8"/>
<path d="M123.041 86.478H128.957V75.636C128.956 75.635 128.956 75.635 128.955 75.634H123.041C122.318 75.634 121.727 76.225 121.727 76.948V85.164C121.728 85.886 122.319 86.478 123.041 86.478Z" fill="#C3D2DB"/>
<path d="M129.546 75.1941C129.546 75.4361 129.348 75.6351 129.105 75.6351H123.663C123.421 75.6351 123.222 75.4371 123.222 75.1941C123.222 74.9521 123.42 74.7531 123.663 74.7531H129.105C129.347 74.7531 129.546 74.9511 129.546 75.1941Z" fill="#9DAEBC"/>
<path d="M129.546 86.9181C129.546 87.1601 129.348 87.3591 129.105 87.3591H123.663C123.421 87.3591 123.222 87.1611 123.222 86.9181C123.222 86.6761 123.42 86.4771 123.663 86.4771H129.105C129.347 86.4781 129.546 86.6761 129.546 86.9181Z" fill="#9DAEBC"/>
<path d="M129.569 77.069V77.814C129.569 77.94 129.466 78.044 129.339 78.044H122.812C122.686 78.044 122.582 77.941 122.582 77.814V77.069C122.582 76.943 122.685 76.839 122.812 76.839H129.339C129.466 76.839 129.569 76.943 129.569 77.069Z" fill="#8C9FAF"/>
<path d="M129.569 79.478V80.223C129.569 80.349 129.466 80.453 129.339 80.453H122.812C122.686 80.453 122.582 80.35 122.582 80.223V79.478C122.582 79.352 122.685 79.248 122.812 79.248H129.339C129.466 79.249 129.569 79.352 129.569 79.478Z" fill="#8C9FAF"/>
<path d="M129.569 81.8881V82.6331C129.569 82.7591 129.466 82.8631 129.339 82.8631H122.812C122.686 82.8631 122.582 82.7601 122.582 82.6331V81.8881C122.582 81.7621 122.685 81.6581 122.812 81.6581H129.339C129.466 81.6581 129.569 81.7621 129.569 81.8881Z" fill="#8C9FAF"/>
<path d="M129.569 84.298V85.043C129.569 85.169 129.466 85.273 129.339 85.273H122.812C122.686 85.273 122.582 85.17 122.582 85.043V84.298C122.582 84.172 122.685 84.068 122.812 84.068H129.339C129.466 84.068 129.569 84.171 129.569 84.298Z" fill="#8C9FAF"/>
<path opacity="0.5" d="M126.776 78.0442L127.981 78.0442L127.981 76.8392L126.776 76.8392L126.776 78.0442Z" fill="#F8FDFF"/>
<path opacity="0.5" d="M126.776 80.4535L127.981 80.4535L127.981 79.2485L126.776 79.2485L126.776 80.4535Z" fill="#F8FDFF"/>
<path opacity="0.5" d="M126.776 82.8636L127.981 82.8636L127.981 81.6586L126.776 81.6586L126.776 82.8636Z" fill="#F8FDFF"/>
<path opacity="0.5" d="M126.776 85.2728L127.981 85.2728L127.981 84.0678L126.776 84.0678L126.776 85.2728Z" fill="#F8FDFF"/>
</g>
<defs>
<clipPath id="clip0">
<rect width="180" height="152" fill="white"/>
</clipPath>
</defs>
</svg>
