<svg xmlns="http://www.w3.org/2000/svg" width="116" height="87" viewBox="0 0 116 87">
    <path fill="#8c9faf" d="M75.47 72.875H41.589a.468.468 0 0 1-.467-.467v-1.834c0-.257.21-.467.467-.467H75.47c.257 0 .467.21.467.467v1.834c0 .257-.21.467-.467.467z"/>
    <path fill="#c3d2db" d="M28.848 87h.612v-2.68c-4.242-3.135-7.329-5.599-8.507-11.609h-5.678l.001.685c-.01 5.269 1.423 9.894 3.793 13.604h9.779z"/>
    <path fill="#c3d2db" d="M88.237 78.562c0-3.471-2.84-6.311-6.311-6.311H35.159c-3.471 0-6.311 2.84-6.311 6.311V87h50.883l5.878-2.593 2.627-1.094v-4.751z"/>
    <path fill="#8c9faf" d="M14.141 20.565h1.999l.417 17.07-2.523.069-.191-4.946z"/>
    <path fill="#c3d2db" d="M14.215 20.565l1.644.708-.005 2.558h-1.169l.041.478 1.11.291.081 2.677-.889.204-.106.311.958.177-1.922 3.502z"/>
    <path fill="#c3d2db" fill-rule="evenodd" d="M17.622 38.352l-2.103-.048-.014-5.025 2.471-4.192 3.47-.136.04 1.918-2.476.182-1.309 2.364z" clip-rule="evenodd"/>
    <path fill="#8c9faf" fill-rule="evenodd" d="M16.824 38.29l.148-4.833-.756-.143.147-.559.834.142 1.106-2.048-.259-.987.629-.211.334.826 1.897-.159.565-1.356.017 1.907-2.476.182-1.287 2.321-.079 4.936z" clip-rule="evenodd"/>
    <path fill="#c3d2db" fill-rule="evenodd" d="M19.891 41.427l1.895.91 2.29-4.473-.303-4.857-3.031-1.693-.905 1.691 2.124 1.285.096 2.7z" clip-rule="evenodd"/>
    <path fill="#8c9faf" fill-rule="evenodd" d="M20.63 41.733l2.058-4.375.738.215.123-.565-.808-.252-.058-2.326.678-.762-.465-.474-.672.585-1.62-1.001.112-1.464-.879 1.643 2.124 1.284.096 2.701-2.166 4.436z" clip-rule="evenodd"/>
    <path fill="#c3d2db" fill-rule="evenodd" d="M15.965 37.748l-2.103-.048-.014-5.025 2.47-4.192 3.47-.136.041 1.918-2.476.183-1.309 2.364z" clip-rule="evenodd"/>
    <path fill="#8c9faf" fill-rule="evenodd" d="M15.167 37.686l.147-4.833-.755-.143.147-.558.834.141 1.105-2.048-.258-.986.629-.212.334.826 1.897-.158.565-1.356.017 1.906-2.476.183-1.287 2.32-.079 4.936z" clip-rule="evenodd"/>
    <path fill="#8c9faf" d="M75.526 67.963H41.533a.412.412 0 0 1-.411-.411V66.23c0-.226.185-.411.411-.411h33.994c.226 0 .411.185.411.411v1.322a.414.414 0 0 1-.412.411z"/>
    <path fill="#c3d2db" d="M75.526 65.819H41.533a.412.412 0 0 1-.411-.411v-1.322c0-.226.185-.411.411-.411h33.994c.226 0 .411.185.411.411v1.322a.414.414 0 0 1-.412.411zM75.526 70.107H41.533a.412.412 0 0 1-.411-.411v-1.322c0-.226.185-.411.411-.411h33.994c.226 0 .411.185.411.411v1.322a.414.414 0 0 1-.412.411z"/>
    <path fill="#c3d2db" fill-rule="evenodd" d="M77.776 54.787l2.382-1.074V43.505h-2.382zM39.245 54.787l-2.383-1.074V43.505h2.383z" clip-rule="evenodd"/>
    <path fill="#c3d2db" d="M75.226 63.907H41.67a3.069 3.069 0 0 1-3.06-3.06V41.69a3.069 3.069 0 0 1 3.06-3.06h33.556a3.069 3.069 0 0 1 3.06 3.06v19.157a3.069 3.069 0 0 1-3.06 3.06z"/>
    <path fill="#6f98c1" d="M68.279 41.076l-.276.002-.28.002H49.267l-.28-.002-.276-.002c-.648 0-2.618 0-2.618 2.112v6.249a3.178 3.178 0 0 0 3.174 3.174h18.456a3.178 3.178 0 0 0 3.174-3.174v-6.249c0-2.112-1.971-2.112-2.618-2.112z"/>
    <path fill="#9ec5dd" d="M67.388 51.547H49.602a2.451 2.451 0 0 1-2.444-2.444v-5.749a1.21 1.21 0 0 1 1.211-1.211h19.02a2.444 2.444 0 0 1 2.444 2.444v4.515a2.453 2.453 0 0 1-2.445 2.445z"/>
    <path fill="#fff" d="M62.549 42.144h.808v9.404h-.808zM64.159 42.144h2.055v9.404h-2.055z" style="opacity:.6"/>
    <path fill="#627689" d="M80.687 37.671c0-12.052-9.86-21.912-21.912-21.912S36.863 25.62 36.863 37.671v5.835h43.824v-5.835z"/>
    <path fill="#849aad" fill-rule="evenodd" d="M36.862 43.505s8.062-5.634 28.099-6.638c22.2-1.112 23.012 6.638 23.012 6.638H36.862z" clip-rule="evenodd"/>
    <path fill="#627689" fill-rule="evenodd" d="M37.847 43.505s8.759-4.521 26.627-5.368c22.356-1.061 23.054 5.368 23.054 5.368H37.847z" clip-rule="evenodd"/>
    <path d="M58.675 48.435c19.04.048 21.483-3.13 21.483-3.13v-1.799H36.862c.008.027 1.325 4.877 21.813 4.929z" opacity=".1"/>
    <path fill="#c1d4e0" d="M63.55 30.288l1.893-5.199h-5.889c-2.734 0-5.468 1.455-5.468 4.367s3.786 3.535 5.678 1.456c0 .624.421 1.04 1.683 1.04h4.597l.606-1.664h-3.1zm-3.786 0c-1.051 0-1.683-.208-1.683-.832 0-.416.895-2.288 1.106-2.912h2.049l-1.472 3.744z"/>
    <path fill="#8c9faf" d="M28.848 79.806h59.388v.514H28.848z"/>
    <path fill="#f8fdff" d="M28.848 83.434h59.388v.514H28.848z"/>
    <path fill="#8c9faf" d="M63.077 56.206c0 .742-.604 1.346-1.346 1.346h-6.685a1.348 1.348 0 0 1-1.346-1.346v-.184h-2.055v.184a3.405 3.405 0 0 0 3.401 3.401h6.685a3.405 3.405 0 0 0 3.402-3.401v-.184h-2.055v.184z"/>
    <path fill="#c3d2db" d="M20.422 47.379h-5.165l.012 16.989h5.153z"/>
    <path fill="#8c9faf" d="M14.693 65.556h6.189c.653 0 1.188-.534 1.188-1.188 0-.653-.534-1.188-1.188-1.188h-6.189c-.653 0-1.188.534-1.188 1.188a1.193 1.193 0 0 0 1.188 1.188zM14.693 68.568h6.189c.653 0 1.188-.534 1.188-1.188 0-.653-.534-1.188-1.188-1.188h-6.189c-.653 0-1.188.534-1.188 1.188a1.192 1.192 0 0 0 1.188 1.188zM14.693 71.581h6.189c.653 0 1.188-.534 1.188-1.188 0-.653-.534-1.188-1.188-1.188h-6.189c-.653 0-1.188.534-1.188 1.188a1.193 1.193 0 0 0 1.188 1.188zM14.693 74.591h6.189c.653 0 1.188-.534 1.188-1.188 0-.653-.534-1.188-1.188-1.188h-6.189c-.653 0-1.188.534-1.188 1.188a1.193 1.193 0 0 0 1.188 1.188z"/>
    <path fill="#8c9faf" d="M15.257 49.071h5.166v5.352s-.69-1.106-1.997-1.747c-1.256-.617-3.169-.634-3.169-.634v-2.971z" style="opacity:.6"/>
    <path fill="#c3d2db" d="M15.732 35.901h4.353c1.03 0 1.872.843 1.872 1.872v9.692c0 1.03-.843 1.872-1.872 1.872h-4.353a1.878 1.878 0 0 1-1.872-1.872v-9.692a1.877 1.877 0 0 1 1.872-1.872z"/>
    <path fill="#8c9faf" d="M13.848 46.318h8.108v.514h-8.108z" opacity=".7" transform="rotate(-180 17.902 46.575)"/>
    <path fill="#f8fdff" d="M13.854 38.407h8.108v.514h-8.108z" opacity=".7" transform="rotate(-180 17.908 38.663)"/>
    <circle cx="15.008" cy="40.456" r="2.758" fill="#9daebc"/>
    <circle cx="15.008" cy="40.456" r="2.108" fill="#dde6eb"/>
    <circle cx="15.008" cy="40.456" r="1.583" fill="#8c9faf"/>
    <path fill="#8c9faf" d="M41.664 63.907H75.22c.922 0 1.742-.422 2.304-1.072H39.36a3.042 3.042 0 0 0 2.304 1.072z" style="opacity:.6"/>
    <path fill="#8c9faf" d="M28.848 81.611h-1.072c-1.16 0-2.109.949-2.109 2.109V87h3.181v-5.389z"/>
</svg>
