<svg xmlns="http://www.w3.org/2000/svg" viewBox="0 0 181.079 254.561"><rect fill="#FFF"/><radialGradient id="a" cx="541.899" cy="146.822" r="13.101" gradientTransform="matrix(3.2883 0 0 .2849 -1691.88 204.198)" gradientUnits="userSpaceOnUse"><stop offset="0" stop-color="#a0b3ba"/><stop offset=".545" stop-color="#c3d2db" stop-opacity=".6"/><stop offset="1" stop-color="#c3d2db" stop-opacity="0"/></radialGradient><ellipse fill="url(#a)" cx="90.034" cy="246.026" rx="43.078" ry="3.732"/><path fill="#EEF4F7" d="M25.054 185.393H7.723c-3.215 0-5.845-2.63-5.845-5.845s2.63-5.845 5.845-5.845h17.33c3.215 0 5.845 2.63 5.845 5.845.001 3.215-2.63 5.845-5.844 5.845zM84.913 213.137H50.614c-3.215 0-5.845-2.63-5.845-5.845s2.63-5.845 5.845-5.845h34.299c3.215 0 5.845 2.63 5.845 5.845s-2.63 5.845-5.845 5.845zM145.391 199.136h-41.626c-3.215 0-5.845-2.63-5.845-5.845s2.63-5.845 5.845-5.845h41.626c3.215 0 5.845 2.63 5.845 5.845 0 3.214-2.63 5.845-5.845 5.845zM140.991 143.042H123.2c-3.215 0-5.845-2.63-5.845-5.845s2.63-5.845 5.845-5.845h17.791c3.215 0 5.845 2.63 5.845 5.845s-2.631 5.845-5.845 5.845zM99.542 143.625H78.739c-3.215 0-5.845-2.63-5.845-5.845l.002-.088h-.01c-.047-3.175-2.657-5.757-5.843-5.757H25.501c-3.215 0-5.845 2.63-5.845 5.845s2.63 5.845 5.845 5.845h22.565c-.131 0-.26.006-.389.015 3.035.202 5.456 2.747 5.456 5.83s-2.421 5.628-5.456 5.83c.129.009.258.015.389.015H36.61c-3.215 0-5.845 2.63-5.845 5.845s2.63 5.845 5.845 5.845h46.956c3.184 0 5.794-2.581 5.843-5.755h.002l-.001-.04.001-.05-.001-.048c.027-3.192 2.646-5.795 5.844-5.795h-.579l.026-.003h4.842c3.215 0 5.845-2.63 5.845-5.845-.001-3.214-2.632-5.844-5.846-5.844zM169.312 166.316h-20.626c-3.182-.039-5.773-2.652-5.773-5.843l.002-.088h-.005c-.046-3.175-2.657-5.759-5.843-5.759h-30.121c-3.215 0-5.845 2.63-5.845 5.845s2.63 5.845 5.845 5.845h5.458l.024.003h-.53c3.185 0 5.795 2.582 5.843 5.756l-.002.086.002.088v.002c.049 3.173 2.658 5.755 5.843 5.755h45.728c3.215 0 5.845-2.63 5.845-5.845s-2.63-5.845-5.845-5.845z"/><path fill="#C3D2DB" d="M63.168 159.628c-3.992-2.957-6.898-5.282-8.007-10.951h-5.344v.646c-.017 9.961 5.377 17.52 12.515 20.47h.267c.204-.003.354-.072.563 0h.003v.001l.003.001v-10.167z"/><path fill="#8C9FAF" d="M61.583 157.072h1.009v12.723h-1.009a1.99 1.99 0 01-1.985-1.985v-8.752a1.99 1.99 0 011.985-1.986z"/><path fill="#C3D2DB" d="M71.815 200.633h7.858v32.096h-7.858z"/><circle fill="#9DAEBC" cx="75.744" cy="215.336" r="5.17"/><circle fill="#DDE6EB" cx="75.744" cy="215.336" r="3.929"/><circle fill="#8C9FAF" cx="75.744" cy="215.336" r="2.951"/><path fill="#8C9FAF" d="M80.661 200.633h-9.834a2.958 2.958 0 01-2.949-2.949v-.749a2.958 2.958 0 012.949-2.949h9.834a2.958 2.958 0 012.949 2.949v.749a2.958 2.958 0 01-2.949 2.949zM72.614 232.536h6.26c1.26 0 2.29 1.031 2.29 2.29 0 1.26-1.031 2.29-2.29 2.29h-6.26a2.297 2.297 0 01-2.29-2.29c0-1.26 1.031-2.29 2.29-2.29zM110.252 200.633h-9.834a2.958 2.958 0 01-2.949-2.949v-.749a2.958 2.958 0 012.949-2.949h9.834a2.958 2.958 0 012.949 2.949v.749a2.958 2.958 0 01-2.949 2.949zM106.525 144.227H74.53a.388.388 0 01-.387-.387v-1.244c0-.213.174-.387.387-.387h31.995c.213 0 .387.174.387.387v1.244a.389.389 0 01-.387.387z"/><path fill="#C3D2DB" d="M106.525 142.209H74.53a.388.388 0 01-.387-.387v-1.244c0-.213.174-.387.387-.387h31.995c.213 0 .387.174.387.387v1.244a.389.389 0 01-.387.387z"/><path fill="#8C9FAF" d="M106.472 148.85H74.583a.441.441 0 01-.44-.44v-1.726c0-.242.198-.44.44-.44h31.889c.242 0 .44.198.44.44v1.726c0 .242-.198.44-.44.44z"/><path fill="#C3D2DB" d="M106.525 146.245H74.53a.388.388 0 01-.387-.387v-1.244c0-.213.174-.387.387-.387h31.995c.213 0 .387.174.387.387v1.244a.389.389 0 01-.387.387z"/><path fill-rule="evenodd" clip-rule="evenodd" fill="#C3D2DB" d="M108.642 131.826l2.242-1.011v-9.608h-2.242zM72.376 131.826l-2.242-1.011v-9.608h2.242z"/><path fill="#C3D2DB" d="M106.242 140.409H74.659a2.888 2.888 0 01-2.88-2.88v-18.031a2.888 2.888 0 012.88-2.88h31.583a2.888 2.888 0 012.88 2.88v18.031a2.888 2.888 0 01-2.88 2.88z"/><path fill="#6F98C1" d="M99.703 118.921l-.26.001-.264.001h-17.37l-.264-.001-.26-.001c-.609 0-2.464 0-2.464 1.988v5.882a2.99 2.99 0 002.987 2.987H99.18a2.99 2.99 0 002.987-2.987v-5.882c0-1.988-1.854-1.988-2.464-1.988z"/><path fill="#9EC5DD" d="M98.865 128.776H82.124a2.307 2.307 0 01-2.3-2.3v-5.411c0-.629.51-1.14 1.14-1.14h17.902a2.3 2.3 0 012.3 2.3v4.25a2.308 2.308 0 01-2.301 2.301z"/><path opacity=".6" fill="#FFF" d="M94.31 119.926h.761v8.851h-.761zM95.826 119.926h1.934v8.851h-1.934z"/><path fill="#627689" d="M111.382 115.716c0-11.343-9.281-20.624-20.624-20.624-11.343 0-20.624 9.281-20.624 20.624v5.492h41.248v-5.492z"/><path fill-rule="evenodd" clip-rule="evenodd" fill="#849AAD" d="M70.134 121.207s7.588-5.303 26.446-6.247c20.895-1.047 21.659 6.247 21.659 6.247H70.134z"/><path fill-rule="evenodd" clip-rule="evenodd" fill="#627689" d="M71.061 121.207s8.244-4.255 25.062-5.053c21.041-.998 21.698 5.053 21.698 5.053h-46.76z"/><path opacity=".1" d="M90.665 125.847c17.92.045 20.219-2.946 20.219-2.946v-1.693h-40.75c.007.026 1.247 4.591 20.531 4.639z"/><path fill="#C1D4E0" d="M95.252 108.768l1.782-4.893h-5.543c-2.573 0-5.146 1.369-5.146 4.11s3.563 3.327 5.344 1.37c0 .587.396.979 1.584.979H97.6l.57-1.566h-2.918zm-3.563-.001c-.99 0-1.584-.196-1.584-.783 0-.392.843-2.153 1.041-2.74h1.929l-1.386 3.523z"/><path fill="#C3D2DB" d="M112.548 197.893H68.531c-3.267 0-5.94-2.673-5.94-5.94v-37.75c0-3.267 2.673-5.94 5.94-5.94h44.017c3.267 0 5.94 2.673 5.94 5.94v37.75c0 3.267-2.673 5.94-5.94 5.94z"/><path fill="#8C9FAF" d="M62.591 188.446h55.896v.484H62.591z"/><path fill="#F8FDFF" d="M62.591 191.86h55.896v.484H62.591z"/><path fill="#8C9FAF" d="M62.591 155.374h55.896v.484H62.591z"/><path fill="#F8FDFF" d="M62.591 158.788h55.896v.484H62.591z"/><path fill="#8C9FAF" d="M105.383 169.922v-1.37a5.718 5.718 0 00-3.928-1.558 5.752 5.752 0 00-5.5 4.07h-10.83a5.752 5.752 0 00-5.5-4.07 5.716 5.716 0 00-3.928 1.558v1.37h3.882l1.9 2.823-1.9 2.823h-3.882v1.37a5.718 5.718 0 003.928 1.558 5.752 5.752 0 005.5-4.07h10.83a5.752 5.752 0 005.5 4.07 5.716 5.716 0 003.928-1.558v-1.37h-3.882l-1.9-2.823 1.9-2.823h3.882z"/><path fill="#C3D2DB" d="M75.744 234.289c-6.38 0-11.741 4.362-13.264 10.265h26.528c-1.523-5.903-6.884-10.265-13.264-10.265z"/><path fill="#8C9FAF" d="M88.467 246.026H63.02a1.17 1.17 0 01-1.167-1.167v-.049a1.17 1.17 0 011.167-1.167h25.447a1.17 1.17 0 011.167 1.167v.049a1.17 1.17 0 01-1.167 1.167z"/><path fill="#C3D2DB" d="M101.406 200.633h7.858v32.096h-7.858z"/><circle fill="#9DAEBC" cx="105.335" cy="215.336" r="5.17"/><circle fill="#DDE6EB" cx="105.335" cy="215.336" r="3.929"/><circle fill="#8C9FAF" cx="105.335" cy="215.336" r="2.951"/><path fill="#8C9FAF" d="M102.205 232.536h6.26c1.26 0 2.29 1.031 2.29 2.29 0 1.26-1.031 2.29-2.29 2.29h-6.26a2.297 2.297 0 01-2.29-2.29c0-1.26 1.031-2.29 2.29-2.29z"/><path fill="#C3D2DB" d="M105.335 234.289c-6.38 0-11.741 4.362-13.264 10.265h26.528c-1.523-5.903-6.884-10.265-13.264-10.265z"/><path fill="none" d="M87.248 132.989h6.292c.698 0 1.267-.568 1.267-1.267v-1.946h-8.826v1.946a1.27 1.27 0 001.267 1.267zM87.248 134.989h6.292c.698 0 1.267-.568 1.267-1.267v-.173h-8.826v.173a1.27 1.27 0 001.267 1.267z"/><path fill="#8C9FAF" d="M85.982 133.162c0 .699.569 1.267 1.267 1.267h6.292c.699 0 1.267-.568 1.267-1.267v-.173h1.934v.173a3.205 3.205 0 01-3.201 3.201h-6.292a3.205 3.205 0 01-3.202-3.201v-.173h1.935v.173zM118.059 246.026H92.612a1.17 1.17 0 01-1.167-1.167v-.049a1.17 1.17 0 011.167-1.167h25.447a1.17 1.17 0 011.167 1.167v.049a1.17 1.17 0 01-1.167 1.167z"/><path opacity=".6" fill="#8C9FAF" d="M74.654 140.409h31.583c.868 0 1.64-.397 2.169-1.009h-35.92a2.86 2.86 0 002.168 1.009z"/><path fill="#C3D2DB" d="M54.661 127.073H49.8l.011 13.734h4.85z"/><path fill="#8C9FAF" d="M49.271 141.927h5.822c.615 0 1.119-.504 1.119-1.119v-.003c0-.615-.504-1.119-1.119-1.119h-5.822c-.615 0-1.119.504-1.119 1.119v.003c0 .615.503 1.119 1.119 1.119zM49.271 144.769h5.822c.615 0 1.119-.504 1.119-1.119v-.003c0-.615-.504-1.119-1.119-1.119h-5.822c-.615 0-1.119.504-1.119 1.119v.003c0 .615.503 1.119 1.119 1.119zM49.271 147.611h5.822c.615 0 1.119-.504 1.119-1.119v-.003c0-.615-.504-1.119-1.119-1.119h-5.822c-.615 0-1.119.504-1.119 1.119v.003c0 .615.503 1.119 1.119 1.119zM49.271 150.45h5.822c.615 0 1.119-.504 1.119-1.119v-.003c0-.615-.504-1.119-1.119-1.119h-5.822c-.615 0-1.119.504-1.119 1.119v.003c0 .616.503 1.119 1.119 1.119z"/><path opacity=".6" fill="#8C9FAF" d="M53.291 132.52c.487 0 .949.101 1.37.28v-5.656l-.419.919-4.443.741v7.208a3.493 3.493 0 013.492-3.492z"/><path fill="#C3D2DB" d="M117.91 159.628c3.992-2.957 6.898-5.282 8.007-10.951h5.344v.646c.017 9.961-5.377 17.52-12.515 20.47h-.267c-.204-.003-.354-.072-.563 0h-.003v.001l-.003.001v-10.167z"/><path fill="#8C9FAF" d="M119.496 157.072h-1.009v12.723h1.009a1.99 1.99 0 001.985-1.985v-8.752a1.99 1.99 0 00-1.985-1.986z"/><path fill="#C3D2DB" d="M126.417 127.313h4.862l-.012 13.494h-4.85z"/><path fill="#8C9FAF" d="M131.808 141.927h-5.822a1.123 1.123 0 01-1.119-1.119v-.003c0-.615.504-1.119 1.119-1.119h5.822c.615 0 1.119.504 1.119 1.119v.003c0 .615-.504 1.119-1.119 1.119zM131.808 144.769h-5.822a1.123 1.123 0 01-1.119-1.119v-.003c0-.615.504-1.119 1.119-1.119h5.822c.615 0 1.119.504 1.119 1.119v.003c0 .615-.504 1.119-1.119 1.119zM131.808 147.611h-5.822a1.123 1.123 0 01-1.119-1.119v-.003c0-.615.504-1.119 1.119-1.119h5.822c.615 0 1.119.504 1.119 1.119v.003c0 .615-.504 1.119-1.119 1.119zM131.808 150.45h-5.822a1.123 1.123 0 01-1.119-1.119v-.003c0-.615.504-1.119 1.119-1.119h5.822c.615 0 1.119.504 1.119 1.119v.003c0 .616-.504 1.119-1.119 1.119z"/><path opacity=".6" fill="#8C9FAF" d="M127.787 132.52a3.49 3.49 0 00-1.37.28v-5.594l4.862.106v8.699a3.492 3.492 0 00-3.492-3.491z"/><path fill="none" d="M62.599 169.794h.563c-.21-.073-.359-.003-.563 0z"/><path fill="#8C9FAF" d="M52.578 107.396l1.891.469.345 15.639-2.375.06-.169-4.666z"/><path fill="#C3D2DB" d="M52.648 107.396l1.545.671-.011 2.414-1.099-.002.037.45 1.044.277.07 2.526-.837.19-.1.293.901.169.061 2.16-.879-.076.022.825.969.346-.006 2.688-1.866 2.792-.094-4.338z"/><path fill="#8C9FAF" d="M54.539 110.435l1.405.348.255 11.614-1.763.045-.125-3.465z"/><path fill="#C3D2DB" d="M54.591 110.435l1.147.499-.008 1.792-.816-.002.027.335.776.206.052 1.875-.622.142-.074.217.669.125.045 1.605-.652-.057.016.613.719.257-.004 1.996-1.386 2.074-.07-3.223z"/><path fill="#8C9FAF" d="M48.89 104.001l1.822.468.344 15.64-2.374.06.166-4.558z"/><path fill="#C3D2DB" d="M48.89 104.001l1.545.671-.01 2.414-1.1-.003.037.451 1.045.277.07 2.526-.838.19-.099.293.901.169.06 2.16-.878-.077.021.826.969.346-.006 2.687-1.866 2.793-.094-4.339z"/><path fill="#8C9FAF" d="M50.676 105.721l1.892.469.344 15.64-2.374.06-.169-4.667z"/><path fill="#C3D2DB" d="M50.746 105.721l1.545.672-.01 2.414-1.1-.003.037.45 1.044.278.07 2.525-.837.191-.1.293.901.168.061 2.161-.879-.077.022.826.969.346-.006 2.687-1.866 2.793-.094-4.339z"/><path fill="#C3D2DB" d="M50.357 117.015l4.093.01a1.77 1.77 0 011.76 1.768l-.022 9.147a1.77 1.77 0 01-1.768 1.76l-4.093-.01a1.77 1.77 0 01-1.76-1.768l.022-9.147a1.768 1.768 0 011.768-1.76z"/><path opacity=".7" fill="#8C9FAF" d="M56.194 127.338l-7.632-.018.001-.485 7.632.018z"/><path opacity=".7" fill="#F8FDFF" d="M56.216 119.875l-7.632-.018.001-.485 7.632.018z"/><ellipse transform="rotate(-89.862 49.667 121.312)" fill="#9DAEBC" cx="49.664" cy="121.311" rx="2.602" ry="2.596"/><ellipse transform="rotate(-89.862 49.667 121.312)" fill="#DDE6EB" cx="49.664" cy="121.311" rx="1.988" ry="1.984"/><ellipse transform="rotate(-89.862 49.667 121.312)" fill="#8C9FAF" cx="49.664" cy="121.311" rx="1.493" ry="1.49"/><g><path fill="#8C9FAF" d="M128.703 107.404l-1.892.469-.344 15.639 2.374.06.169-4.666z"/><path fill="#C3D2DB" d="M128.633 107.404l-1.545.671.01 2.414 1.1-.003-.037.451-1.045.277-.069 2.526.837.19.1.293-.902.169-.06 2.16.878-.076-.021.825-.969.346.006 2.688 1.866 2.792.094-4.339z"/><path fill="#8C9FAF" d="M126.742 110.443l-1.405.348-.256 11.614 1.764.045.125-3.465z"/><path fill="#C3D2DB" d="M126.69 110.443l-1.148.498.008 1.793.817-.002-.028.335-.775.206-.052 1.875.621.142.075.217-.67.125-.045 1.604.653-.056-.016.613-.72.257.005 1.996 1.386 2.073.069-3.222z"/><path fill="#8C9FAF" d="M132.39 104.009l-1.822.468-.344 15.64 1.187-.86 1-3.769z"/><path fill="#C3D2DB" d="M132.39 104.009l-1.545.671.011 2.414 1.099-.003-.037.451-1.044.277-.07 2.526.837.19.1.293-.901.168-.061 2.161.879-.077-.022.826-.969.346.006 2.687 1.866 2.793.094-4.339z"/><path fill="#8C9FAF" d="M130.604 105.729l-1.891.469-.344 15.64 2.374.059.169-4.666z"/><path fill="#C3D2DB" d="M130.535 105.729l-1.546.672.011 2.413 1.099-.002-.036.45-1.045.278-.07 2.525.837.191.1.292-.901.169-.06 2.16.878-.076-.021.826-.97.346.007 2.687 1.866 2.793.094-4.339z"/><path fill="#C3D2DB" d="M130.924 117.023l-4.093.01a1.77 1.77 0 00-1.76 1.768l.022 9.147a1.77 1.77 0 001.768 1.76l4.093-.01a1.77 1.77 0 001.76-1.768l-.022-9.147a1.77 1.77 0 00-1.768-1.76z"/><path opacity=".7" fill="#8C9FAF" d="M125.096 126.86l7.632-.019v.485l-7.631.019z"/><path opacity=".7" fill="#F8FDFF" d="M125.072 119.397l7.632-.019.002.485-7.632.019z"/><ellipse transform="translate(-.286 .311)" fill="#9DAEBC" cx="131.617" cy="121.319" rx="2.596" ry="2.602"/><ellipse transform="translate(-.286 .311)" fill="#DDE6EB" cx="131.617" cy="121.319" rx="1.984" ry="1.988"/><ellipse transform="translate(-.286 .311)" fill="#8C9FAF" cx="131.617" cy="121.319" rx="1.49" ry="1.493"/></g><g><g><path fill="#7B7B7B" d="M106.998 8.314a8.256 8.256 0 00-5.88 2.434 8.26 8.26 0 00-2.434 5.88c0 2.225.866 4.304 2.434 5.88a8.273 8.273 0 005.88 2.434 8.256 8.256 0 005.88-2.434c1.568-1.568 2.434-3.655 2.434-5.88s-.866-4.304-2.434-5.88a8.256 8.256 0 00-5.88-2.434zm0 15.242c-3.837 0-6.928-3.109-6.928-6.928s3.092-6.928 6.928-6.928c3.837 0 6.928 3.109 6.928 6.928s-3.091 6.928-6.928 6.928z"/><path fill="#7B7B7B" d="M121.522 13.164h-1.316c-1.074 0-1.975-.901-1.975-2.009 0-.554.234-1.048.65-1.42l.849-.831c.84-.831.84-2.182 0-3.023l-1.931-1.914c-.381-.381-.944-.606-1.516-.606s-1.126.225-1.516.606l-.814.814c-.39.433-.927.667-1.49.667-1.109 0-2.053-.901-2.053-1.966V2.174c0-1.169-.909-2.174-2.079-2.174h-2.633c-1.195 0-2.148.996-2.148 2.174V3.49c0 1.065-.918 1.966-2.027 1.966a1.951 1.951 0 01-1.438-.641l-.84-.831c-.381-.39-.944-.606-1.516-.606s-1.126.225-1.516.606l-1.931 1.905a2.134 2.134 0 000 3.014l.814.814c.433.39.676.883.676 1.446 0 1.109-.901 2.009-1.975 2.009h-1.316c-1.186-.009-2.182.961-2.182 2.139v2.632c0 1.169.996 2.148 2.182 2.148H93.8c1.074 0 1.975.901 1.975 2.009 0 .554-.242 1.065-.676 1.455l-.814.797a2.134 2.134 0 000 3.014l1.931 1.923c.381.39.944.606 1.516.606s1.126-.225 1.516-.606l.84-.831a1.905 1.905 0 011.429-.641c1.109 0 2.027.901 2.027 1.966V31.1c0 1.169.953 2.174 2.139 2.174h2.633c1.178 0 2.156-.996 2.156-2.174v-1.316c0-1.065.909-1.966 2.018-1.966.554 0 1.065.242 1.464.667l.814.814c.39.381.944.606 1.516.606.572 0 1.126-.225 1.516-.606l1.931-1.923a2.144 2.144 0 000-3.023l-.849-.831a1.945 1.945 0 01-.65-1.446c0-1.109.901-2.044 1.975-2.044h1.316c1.178 0 2.018-.892 2.018-2.07V15.312c-.001-1.178-.841-2.148-2.019-2.148zm.649 3.464v1.308c0 .364-.199.684-.632.684h-1.316c-.892 0-1.741.381-2.382 1.039a3.44 3.44 0 00-.979 2.408c0 .935.381 1.801 1.083 2.442l.823.814a.768.768 0 010 1.065l-1.931 1.923a.806.806 0 01-.546.208.79.79 0 01-.546-.208l-.788-.788c-.667-.701-1.542-1.091-2.468-1.091-.901 0-1.732.346-2.382.97a3.282 3.282 0 00-1.005 2.382V31.1c0 .424-.372.788-.771.788h-2.633c-.398 0-.753-.364-.753-.788v-1.316c0-.892-.355-1.741-1.013-2.382a3.44 3.44 0 00-2.39-.97c-.918 0-1.801.39-2.434 1.074l-.805.805a.806.806 0 01-.546.208c-.208 0-.416-.069-.528-.191l-.009-.009-.009-.009-1.931-1.923a.758.758 0 010-1.057l.788-.779c.71-.658 1.1-1.533 1.1-2.468 0-.901-.346-1.723-.979-2.373a3.289 3.289 0 00-2.382-.996h-1.325c-.433 0-.797-.372-.797-.762v-2.641c0-.39.364-.762.797-.762H93.8c.892 0 1.741-.338 2.382-.996.632-.65.979-1.49.979-2.382 0-.935-.39-1.81-1.1-2.46l-.797-.788a.73.73 0 01-.217-.528.74.74 0 01.217-.528l1.923-1.914a.806.806 0 01.546-.208c.208 0 .416.069.528.191l.009.009.009.009.814.814a3.288 3.288 0 002.434 1.074c.901 0 1.741-.346 2.39-.97a3.3 3.3 0 001.022-2.382V2.174c0-.424.346-.788.736-.788h2.641c.39 0 .693.364.693.788V3.49c0 .892.381 1.741 1.039 2.382.65.624 1.507.97 2.408.97.935 0 1.819-.39 2.477-1.091l.788-.788a.806.806 0 01.546-.208c.208 0 .416.078.546.199l1.931 1.914c.139.139.225.329.225.528s-.078.39-.217.528l-.823.814a3.301 3.301 0 00-1.083 2.442c0 .901.346 1.723.979 2.373.641.658 1.49.996 2.382.996h1.316c.468 0 .641.433.65.779v1.3h-.002z"/><path fill="#7B7B7B" d="M106.92 19.918c-1.809 0-3.281-1.472-3.281-3.281s1.472-3.281 3.281-3.281c1.809 0 3.281 1.472 3.281 3.281s-1.472 3.281-3.281 3.281zm0-5.186c-1.05 0-1.905.855-1.905 1.905s.855 1.905 1.905 1.905 1.905-.855 1.905-1.905-.854-1.905-1.905-1.905z"/><animateTransform attributeName="transform" attributeType="XML" type="rotate" from="0 106.3 16.7" to="360 106.3 16.7" dur="3s" begin="0s" repeatCount="indefinite"/></g></g><g><g fill="#7B7B7B"><path d="M106.92 51.576c-2.535 0-4.911.986-6.697 2.771s-2.771 4.162-2.771 6.697.986 4.902 2.771 6.697a9.424 9.424 0 006.697 2.771 9.408 9.408 0 006.697-2.771c1.785-1.785 2.771-4.162 2.771-6.697s-.986-4.902-2.771-6.697a9.41 9.41 0 00-6.697-2.771zm0 17.358c-4.369 0-7.89-3.541-7.89-7.89s3.521-7.89 7.89-7.89 7.89 3.541 7.89 7.89-3.521 7.89-7.89 7.89z"/><path d="M123.46 57.099h-1.499c-1.223 0-2.249-1.026-2.249-2.288 0-.631.266-1.193.74-1.617l.967-.947a2.422 2.422 0 000-3.442l-2.199-2.18c-.434-.434-1.075-.69-1.726-.69a2.49 2.49 0 00-1.726.69l-.927.927a2.269 2.269 0 01-1.696.759c-1.262 0-2.337-1.026-2.337-2.239v-1.489c0-1.331-1.036-2.475-2.367-2.475h-2.998c-1.361 0-2.446 1.134-2.446 2.475v1.499c0 1.213-1.045 2.239-2.308 2.239a2.22 2.22 0 01-1.637-.73l-.957-.947c-.434-.444-1.075-.69-1.726-.69a2.49 2.49 0 00-1.726.69l-2.199 2.17a2.428 2.428 0 000 3.432l.927.927c.493.444.769 1.006.769 1.647 0 1.262-1.026 2.288-2.249 2.288h-1.499c-1.351-.01-2.485 1.095-2.485 2.436v2.998c0 1.331 1.134 2.446 2.485 2.446h1.499c1.223 0 2.249 1.026 2.249 2.288 0 .631-.276 1.213-.769 1.657l-.927.907a2.428 2.428 0 000 3.432l2.199 2.189c.434.444 1.075.69 1.726.69a2.49 2.49 0 001.726-.69l.957-.947c.414-.464.996-.73 1.627-.73 1.262 0 2.308 1.026 2.308 2.239v1.499c0 1.331 1.085 2.475 2.436 2.475h2.998c1.341 0 2.456-1.134 2.456-2.475v-1.499c0-1.213 1.036-2.239 2.298-2.239.631 0 1.213.276 1.667.759l.927.927a2.49 2.49 0 001.726.69 2.49 2.49 0 001.726-.69l2.199-2.189a2.44 2.44 0 000-3.442l-.967-.947a2.218 2.218 0 01-.74-1.647c0-1.262 1.026-2.328 2.249-2.328h1.499c1.341 0 2.298-1.016 2.298-2.357v-3.018c-.002-1.338-.958-2.443-2.299-2.443zm.739 3.945v1.489c0 .414-.227.779-.72.779h-1.499c-1.016 0-1.982.434-2.712 1.183a3.914 3.914 0 00-1.114 2.742c0 1.065.434 2.051 1.233 2.781l.937.927a.876.876 0 010 1.213l-2.199 2.189c-.158.148-.385.237-.621.237s-.473-.089-.621-.237l-.897-.897c-.759-.799-1.756-1.243-2.811-1.243a3.878 3.878 0 00-2.712 1.105 3.734 3.734 0 00-1.144 2.712v1.499c0 .483-.424.897-.878.897h-2.998c-.454 0-.858-.414-.858-.897v-1.499a3.76 3.76 0 00-1.154-2.712 3.92 3.92 0 00-2.722-1.105 3.782 3.782 0 00-2.771 1.223l-.917.917a.917.917 0 01-.621.237c-.237 0-.473-.079-.602-.217l-.01-.01-.01-.01-2.199-2.189a.864.864 0 010-1.203l.897-.888c.809-.75 1.253-1.746 1.253-2.811a3.823 3.823 0 00-1.114-2.702 3.74 3.74 0 00-2.712-1.134h-1.509c-.493 0-.907-.424-.907-.868v-3.008c0-.444.414-.868.907-.868h1.499a3.744 3.744 0 002.712-1.134 3.861 3.861 0 001.114-2.712 3.766 3.766 0 00-1.253-2.801l-.907-.897a.834.834 0 01-.247-.602c0-.128.03-.385.247-.602l2.189-2.18a.917.917 0 01.621-.237c.237 0 .473.079.602.217l.01.01.01.01.927.927a3.745 3.745 0 002.771 1.223 3.897 3.897 0 002.722-1.105 3.753 3.753 0 001.164-2.712v-1.499c0-.483.394-.897.838-.897h3.008c.444 0 .789.414.789.897v1.499c0 1.016.434 1.982 1.183 2.712a3.95 3.95 0 002.742 1.105c1.065 0 2.071-.444 2.821-1.243l.897-.897a.917.917 0 01.621-.237c.237 0 .473.089.621.227l2.199 2.18a.86.86 0 01.256.602.851.851 0 01-.247.602l-.937.927a3.76 3.76 0 00-1.233 2.781c0 1.026.395 1.963 1.114 2.702a3.74 3.74 0 002.712 1.134h1.499c.533 0 .73.493.74.888v1.48h.001z"/></g><path fill="#7B7B7B" d="M106.831 64.791a3.742 3.742 0 01-3.737-3.737c0-2.06 1.677-3.737 3.737-3.737s3.737 1.677 3.737 3.737a3.742 3.742 0 01-3.737 3.737zm0-5.906c-1.196 0-2.169.973-2.169 2.169s.973 2.169 2.169 2.169c1.196 0 2.169-.973 2.169-2.169s-.972-2.169-2.169-2.169z"/><animateTransform attributeName="transform" attributeType="XML" type="rotate" from="0 106.3 61" to="360 106.3 61" dur="3s" begin="0s" repeatCount="indefinite"/></g><g><g fill="#7B7B7B"><path d="M69.638 25.886a11.813 11.813 0 00-8.41 3.481c-2.242 2.242-3.481 5.227-3.481 8.41s1.239 6.156 3.481 8.41a11.834 11.834 0 008.41 3.481c3.183 0 6.168-1.239 8.41-3.481s3.481-5.227 3.481-8.41-1.239-6.156-3.481-8.41a11.806 11.806 0 00-8.41-3.481zm0 21.8c-5.487 0-9.909-4.447-9.909-9.909s4.422-9.909 9.909-9.909 9.909 4.447 9.909 9.909-4.421 9.909-9.909 9.909z"/><path d="M90.41 32.822h-1.883c-1.536 0-2.824-1.288-2.824-2.874 0-.793.334-1.499.929-2.031l1.214-1.189a3.044 3.044 0 000-4.323l-2.762-2.737c-.545-.545-1.35-.867-2.168-.867s-1.61.322-2.168.867l-1.164 1.164a2.85 2.85 0 01-2.13.954c-1.585 0-2.936-1.288-2.936-2.812v-1.87c0-1.672-1.301-3.109-2.973-3.109H67.78c-1.709 0-3.072 1.424-3.072 3.109v1.883c0 1.524-1.313 2.812-2.898 2.812-.793 0-1.511-.334-2.056-.917l-1.201-1.189c-.545-.557-1.35-.867-2.168-.867a3.13 3.13 0 00-2.168.867l-2.762 2.725c-1.189 1.189-1.189 3.134 0 4.31l1.164 1.164c.619.557.966 1.263.966 2.069 0 1.585-1.288 2.874-2.824 2.874h-1.883c-1.697-.012-3.121 1.375-3.121 3.059v3.766c0 1.672 1.424 3.072 3.121 3.072h1.883c1.536 0 2.824 1.288 2.824 2.874 0 .793-.347 1.524-.966 2.081l-1.164 1.14a3.05 3.05 0 000 4.31l2.762 2.75c.545.557 1.35.867 2.168.867s1.61-.322 2.168-.867l1.201-1.189a2.723 2.723 0 012.044-.917c1.585 0 2.898 1.288 2.898 2.812v1.883c0 1.672 1.362 3.109 3.059 3.109h3.765c1.685 0 3.084-1.424 3.084-3.109v-1.883c0-1.524 1.301-2.812 2.886-2.812.793 0 1.524.347 2.093.954l1.164 1.164c.557.545 1.35.867 2.168.867s1.61-.322 2.168-.867l2.762-2.75a3.065 3.065 0 000-4.323l-1.214-1.189a2.782 2.782 0 01-.929-2.069c0-1.585 1.288-2.923 2.824-2.923h1.883c1.685 0 2.886-1.276 2.886-2.96v-3.79c.001-1.686-1.2-3.073-2.885-3.073zm.929 4.955v1.87c0 .52-.285.979-.904.979h-1.883c-1.276 0-2.49.545-3.406 1.486a4.917 4.917 0 00-1.4 3.443c0 1.338.545 2.576 1.548 3.493l1.177 1.164c.409.421.409 1.115 0 1.524l-2.762 2.75c-.198.186-.483.297-.78.297s-.595-.111-.78-.297l-1.127-1.127c-.954-1.003-2.205-1.561-3.53-1.561a4.869 4.869 0 00-3.406 1.387 4.694 4.694 0 00-1.437 3.406v1.883c0 .607-.533 1.127-1.102 1.127H67.78c-.57 0-1.078-.52-1.078-1.127v-1.883c0-1.276-.508-2.49-1.449-3.406a4.921 4.921 0 00-3.419-1.387 4.75 4.75 0 00-3.481 1.536l-1.152 1.152c-.198.186-.483.297-.78.297s-.595-.099-.756-.273l-.012-.012-.012-.012-2.762-2.75a1.084 1.084 0 010-1.511l1.127-1.115c1.016-.941 1.573-2.192 1.573-3.53 0-1.288-.495-2.465-1.4-3.394a4.701 4.701 0 00-3.406-1.424h-1.895c-.619 0-1.14-.533-1.14-1.09v-3.778c0-.557.52-1.09 1.14-1.09h1.883a4.7 4.7 0 003.406-1.424 4.85 4.85 0 001.4-3.406c0-1.338-.557-2.589-1.573-3.518l-1.14-1.127a1.047 1.047 0 01-.31-.756c0-.161.037-.483.31-.756l2.75-2.737c.198-.186.483-.297.78-.297s.595.099.756.272l.012.012.012.012 1.164 1.164a4.703 4.703 0 003.481 1.536 4.9 4.9 0 003.419-1.387c.941-.917 1.462-2.118 1.462-3.406v-1.883c0-.607.495-1.127 1.053-1.127h3.778c.557 0 .991.52.991 1.127v1.883c0 1.276.545 2.49 1.486 3.406a4.957 4.957 0 003.443 1.387c1.338 0 2.601-.557 3.542-1.561l1.127-1.127c.198-.186.483-.297.78-.297s.595.111.78.285l2.762 2.737c.198.198.322.471.322.756 0 .285-.111.557-.31.756l-1.177 1.164c-.991.917-1.548 2.155-1.548 3.493 0 1.288.495 2.465 1.4 3.394a4.701 4.701 0 003.406 1.424h1.883c.669 0 .917.619.929 1.115v1.859h.002z"/></g><path fill="#7B7B7B" d="M69.527 42.482a4.7 4.7 0 01-4.693-4.693c0-2.587 2.106-4.693 4.693-4.693s4.693 2.106 4.693 4.693a4.7 4.7 0 01-4.693 4.693zm0-7.418c-1.502 0-2.725 1.222-2.725 2.725s1.222 2.725 2.725 2.725 2.725-1.222 2.725-2.725-1.223-2.725-2.725-2.725z"/><animateTransform attributeName="transform" attributeType="XML" type="rotate" from="0 70 38" to="360 70 38" dur="3s" begin="0s" repeatCount="indefinite"/></g><path fill="#D8E8EF" d="M133.693 93.928v-8.895c0-.418.342-.76.76-.76s.76.342.76.76v8.895c0 .418-.342.76-.76.76a.762.762 0 01-.76-.76zM128.58 102.045V81.241c0-.418.342-.76.76-.76s.76.342.76.76v20.804c0 .418-.342.76-.76.76a.762.762 0 01-.76-.76zM122.943 105.676v-14.31c0-.418.342-.76.76-.76s.76.342.76.76v14.31c0 .418-.342.76-.76.76a.763.763 0 01-.76-.76zM47.823 93.928v-8.895a.762.762 0 00-.76-.76.762.762 0 00-.76.76v8.895c0 .418.342.76.76.76s.76-.342.76-.76zM52.936 102.045V81.241a.762.762 0 00-.76-.76.762.762 0 00-.76.76v20.804c0 .418.342.76.76.76s.76-.342.76-.76zM58.573 105.676v-14.31a.762.762 0 00-.76-.76.762.762 0 00-.76.76v14.31c0 .418.342.76.76.76.417 0 .76-.342.76-.76z"/></svg>