<svg width="180" height="168" viewBox="0 0 180 168" fill="none" xmlns="http://www.w3.org/2000/svg">
<g clip-path="url(#clip0)">
<path d="M144.764 101.119H103.138C99.923 101.119 97.293 98.489 97.293 95.274C97.293 92.059 99.923 89.429 103.138 89.429H144.764C147.979 89.429 150.609 92.059 150.609 95.274C150.609 98.489 147.978 101.119 144.764 101.119Z" fill="#D8E8EF"/>
<path d="M24.426 87.377H7.095C3.88 87.377 1.25 84.747 1.25 81.532C1.25 78.317 3.88 75.687 7.095 75.687H24.425C27.64 75.687 30.27 78.317 30.27 81.532C30.271 84.746 27.641 87.377 24.426 87.377Z" fill="#D8E8EF"/>
<path d="M58.1861 115.121H35.9851C32.7701 115.121 30.1401 112.491 30.1401 109.276C30.1401 106.061 32.7701 103.431 35.9851 103.431H58.1861C61.4011 103.431 64.0311 106.061 64.0311 109.276C64.0311 112.491 61.4011 115.121 58.1861 115.121Z" fill="#D8E8EF"/>
<path d="M140.363 45.0259H131.089C127.874 45.0259 125.244 42.3959 125.244 39.1809C125.244 35.9659 127.874 33.3359 131.089 33.3359H140.363C143.578 33.3359 146.208 35.9659 146.208 39.1809C146.208 42.3959 143.577 45.0259 140.363 45.0259Z" fill="#D8E8EF"/>
<path d="M98.9141 45.6089H78.1121C74.8971 45.6089 72.2671 42.9789 72.2671 39.7639C72.2671 39.7349 72.2691 39.7059 72.2691 39.6759H72.2591C72.2121 36.5009 69.6021 33.9189 66.4161 33.9189H24.8731C21.6581 33.9189 19.0281 36.5489 19.0281 39.7639C19.0281 42.9789 21.6581 45.6089 24.8731 45.6089H47.4381C47.3071 45.6089 47.1781 45.6149 47.0491 45.6239C50.0841 45.8259 52.5051 48.3709 52.5051 51.4539C52.5051 54.5379 50.0841 57.0819 47.0491 57.2839C47.1781 57.2929 47.3071 57.2989 47.4381 57.2989H35.9821C32.7671 57.2989 30.1371 59.9289 30.1371 63.1439C30.1371 66.3589 32.7671 68.9889 35.9821 68.9889H82.9381C86.1221 68.9889 88.7321 66.4079 88.7811 63.2339H88.7831C88.7831 63.2209 88.7821 63.2069 88.7821 63.1939C88.7821 63.1769 88.7831 63.1609 88.7831 63.1439C88.7831 63.1279 88.7821 63.1119 88.7821 63.0959C88.8091 59.9039 91.4281 57.3009 94.6261 57.3009H94.0471L94.0731 57.2979H98.9151C102.13 57.2979 104.76 54.6679 104.76 51.4529C104.759 48.2389 102.129 45.6089 98.9141 45.6089Z" fill="#D8E8EF"/>
<path d="M165.684 68.3H148.058C144.876 68.261 142.285 65.648 142.285 62.457C142.285 62.428 142.287 62.399 142.287 62.369H142.282C142.236 59.194 139.625 56.61 136.439 56.61H86.3159C83.1009 56.61 80.4709 59.24 80.4709 62.455C80.4709 65.67 83.1009 68.3 86.3159 68.3H91.7739L91.7979 68.303H91.2679C94.4529 68.303 97.0629 70.885 97.1109 74.059C97.1109 74.088 97.1089 74.116 97.1089 74.145C97.1089 74.175 97.1109 74.204 97.1109 74.233C97.1109 74.234 97.1109 74.234 97.1109 74.235C97.1599 77.408 99.7689 79.99 102.954 79.99H165.684C168.899 79.99 171.529 77.36 171.529 74.145C171.529 70.93 168.899 68.3 165.684 68.3Z" fill="#D8E8EF"/>
<path d="M49.044 71.314C49.026 81.637 54.847 89.375 62.395 92.059V81.596C58.403 78.645 55.497 76.326 54.388 70.67H49.044V71.314Z" fill="#C3D2DB"/>
<path fill-rule="evenodd" clip-rule="evenodd" d="M53.4719 38.883L54.8819 40.273L58.2869 36.989L59.4999 32.573L57.3179 30.14L55.9959 31.369L57.4949 33.162L56.7549 35.595L53.4719 38.883Z" fill="#C3D2DB"/>
<path fill-rule="evenodd" clip-rule="evenodd" d="M54.0371 39.382L57.2051 36.115L57.7971 36.532L58.0781 36.067L57.4361 35.595L58.0951 33.507L58.9311 33.035L58.6621 32.472L57.8851 32.787L56.7491 31.401L57.2951 30.132L55.9961 31.369L57.4951 33.162L56.7701 35.552L53.4871 38.84L54.0371 39.382Z" fill="#8C9FAF"/>
<path fill-rule="evenodd" clip-rule="evenodd" d="M48.2961 38.208L46.9361 39.717L43.9381 35.42L43.6011 30.853L46.2111 28.886L47.2711 30.348L45.4541 31.817L45.7101 34.348L48.2961 38.208Z" fill="#C3D2DB"/>
<path fill-rule="evenodd" clip-rule="evenodd" d="M47.6461 38.5881L45.1681 34.7711L44.5071 35.0661L44.3211 34.5551L45.0421 34.2171L44.7991 32.0401L44.0701 31.4161L44.4431 30.9151L45.1441 31.3751L46.5261 30.2341L46.2361 28.8831L47.2711 30.3481L45.4541 31.8171L45.7041 34.3021L48.2901 38.1621L47.6461 38.5881Z" fill="#8C9FAF"/>
<path d="M78.9 122.607H71.042V154.703H78.9V122.607Z" fill="#C3D2DB"/>
<path d="M74.971 142.48C77.8263 142.48 80.141 140.165 80.141 137.31C80.141 134.455 77.8263 132.14 74.971 132.14C72.1157 132.14 69.801 134.455 69.801 137.31C69.801 140.165 72.1157 142.48 74.971 142.48Z" fill="#9DAEBC"/>
<path d="M74.971 141.239C77.1409 141.239 78.9 139.48 78.9 137.31C78.9 135.14 77.1409 133.381 74.971 133.381C72.8011 133.381 71.042 135.14 71.042 137.31C71.042 139.48 72.8011 141.239 74.971 141.239Z" fill="#DDE6EB"/>
<path d="M74.971 140.261C76.6008 140.261 77.922 138.94 77.922 137.31C77.922 135.68 76.6008 134.359 74.971 134.359C73.3412 134.359 72.02 135.68 72.02 137.31C72.02 138.94 73.3412 140.261 74.971 140.261Z" fill="#8C9FAF"/>
<path d="M79.888 122.607H70.054C68.432 122.607 67.105 121.28 67.105 119.658V118.909C67.105 117.287 68.432 115.96 70.054 115.96H79.888C81.51 115.96 82.837 117.287 82.837 118.909V119.658C82.837 121.28 81.51 122.607 79.888 122.607Z" fill="#8C9FAF"/>
<path d="M71.841 154.51H78.101C79.361 154.51 80.391 155.541 80.391 156.8C80.391 158.06 79.36 159.09 78.101 159.09H71.841C70.581 159.09 69.551 158.059 69.551 156.8C69.551 155.54 70.582 154.51 71.841 154.51Z" fill="#8C9FAF"/>
<path d="M109.479 122.607H99.645C98.023 122.607 96.696 121.28 96.696 119.658V118.909C96.696 117.287 98.023 115.96 99.645 115.96H109.479C111.101 115.96 112.428 117.287 112.428 118.909V119.658C112.428 121.28 111.101 122.607 109.479 122.607Z" fill="#8C9FAF"/>
<path d="M105.752 66.201H73.7571C73.5441 66.201 73.3701 66.027 73.3701 65.814V64.57C73.3701 64.357 73.5441 64.183 73.7571 64.183H105.752C105.965 64.183 106.139 64.357 106.139 64.57V65.814C106.139 66.027 105.965 66.201 105.752 66.201Z" fill="#8C9FAF"/>
<path d="M105.752 64.183H73.7571C73.5441 64.183 73.3701 64.009 73.3701 63.796V62.552C73.3701 62.339 73.5441 62.165 73.7571 62.165H105.752C105.965 62.165 106.139 62.339 106.139 62.552V63.796C106.139 64.009 105.965 64.183 105.752 64.183Z" fill="#C3D2DB"/>
<path d="M105.699 70.824H73.8101C73.5681 70.824 73.3701 70.626 73.3701 70.384V68.658C73.3701 68.416 73.5681 68.218 73.8101 68.218H105.699C105.941 68.218 106.139 68.416 106.139 68.658V70.384C106.139 70.626 105.941 70.824 105.699 70.824Z" fill="#8C9FAF"/>
<path d="M105.752 68.2191H73.7571C73.5441 68.2191 73.3701 68.0451 73.3701 67.8321V66.5881C73.3701 66.3751 73.5441 66.201 73.7571 66.201H105.752C105.965 66.201 106.139 66.3751 106.139 66.5881V67.8321C106.139 68.0451 105.965 68.2191 105.752 68.2191Z" fill="#C3D2DB"/>
<path fill-rule="evenodd" clip-rule="evenodd" d="M107.869 53.8L110.111 52.789V43.181H107.869V53.8Z" fill="#C3D2DB"/>
<path fill-rule="evenodd" clip-rule="evenodd" d="M71.6041 53.8L69.3621 52.789V43.181H71.6041V53.8Z" fill="#C3D2DB"/>
<path d="M105.469 62.383H73.8861C72.3021 62.383 71.0061 61.087 71.0061 59.503V41.473C71.0061 39.889 72.3021 38.593 73.8861 38.593H105.469C107.053 38.593 108.349 39.889 108.349 41.473V59.504C108.349 61.087 107.053 62.383 105.469 62.383Z" fill="#C3D2DB"/>
<path d="M98.9311 40.895C98.8471 40.895 98.7601 40.896 98.6711 40.896C98.5851 40.897 98.4971 40.897 98.4071 40.897H81.0371C80.9481 40.897 80.8601 40.896 80.7731 40.896C80.6851 40.895 80.5981 40.895 80.5131 40.895C79.9041 40.895 78.0491 40.895 78.0491 42.883V48.765C78.0491 50.412 79.3891 51.752 81.0361 51.752H98.4071C100.054 51.752 101.394 50.412 101.394 48.765V42.883C101.395 40.895 99.5401 40.895 98.9311 40.895Z" fill="#6F98C1"/>
<path d="M98.092 50.75H81.352C80.087 50.75 79.052 49.7151 79.052 48.4501V43.0391C79.052 42.4101 79.562 41.899 80.192 41.899H98.094C99.364 41.899 100.394 42.9291 100.394 44.1991V48.4491C100.393 49.7151 99.358 50.75 98.092 50.75Z" fill="#9EC5DD"/>
<path opacity="0.6" d="M94.2991 41.9H93.5381V50.751H94.2991V41.9Z" fill="white"/>
<path opacity="0.6" d="M96.987 41.9H95.053V50.751H96.987V41.9Z" fill="white"/>
<path d="M110.609 37.69C110.609 26.347 101.328 17.066 89.9851 17.066C78.6421 17.066 69.3611 26.347 69.3611 37.69V43.182H110.609V37.69Z" fill="#627689"/>
<path fill-rule="evenodd" clip-rule="evenodd" d="M69.3621 43.181C69.3621 43.181 76.9501 37.878 95.8081 36.934C116.703 35.887 117.467 43.181 117.467 43.181H69.3621Z" fill="#849AAD"/>
<path fill-rule="evenodd" clip-rule="evenodd" d="M70.2881 43.181C70.2881 43.181 78.5321 38.926 95.3501 38.128C116.391 37.13 117.048 43.181 117.048 43.181H70.2881Z" fill="#627689"/>
<path opacity="0.1" d="M89.8921 47.821C107.812 47.866 110.111 44.875 110.111 44.875V43.182H69.3611C69.3691 43.208 70.6081 47.773 89.8921 47.821Z" fill="black"/>
<path d="M94.48 30.742L96.262 25.849H90.719C88.146 25.849 85.573 27.218 85.573 29.959C85.573 32.7 89.136 33.286 90.917 31.329C90.917 31.916 91.313 32.308 92.501 32.308H96.828L97.398 30.742H94.48ZM90.917 30.741C89.927 30.741 89.333 30.545 89.333 29.958C89.333 29.566 90.176 27.805 90.374 27.218H92.303L90.917 30.741Z" fill="#C1D4E0"/>
<path d="M111.775 119.867H67.7581C64.4911 119.867 61.8181 117.194 61.8181 113.927V76.1771C61.8181 72.9101 64.4911 70.2371 67.7581 70.2371H111.775C115.042 70.2371 117.715 72.9101 117.715 76.1771V113.927C117.715 117.194 115.042 119.867 111.775 119.867Z" fill="#C3D2DB"/>
<path d="M117.715 110.42H61.8191V110.904H117.715V110.42Z" fill="#8C9FAF"/>
<path d="M117.715 113.834H61.8191V114.318H117.715V113.834Z" fill="#F8FDFF"/>
<path d="M117.715 77.348H61.8191V77.832H117.715V77.348Z" fill="#8C9FAF"/>
<path d="M104.61 91.896V90.526C103.582 89.561 102.203 88.968 100.682 88.968C98.0911 88.968 95.9011 90.682 95.1821 93.038H84.3521C83.6331 90.682 81.4431 88.968 78.8521 88.968C77.3311 88.968 75.9511 89.561 74.9241 90.526V91.896H78.8061L80.7061 94.719L78.8061 97.542H74.9241V98.912C75.9521 99.877 77.3311 100.47 78.8521 100.47C81.4431 100.47 83.6331 98.756 84.3521 96.4H95.1821C95.9011 98.756 98.0911 100.47 100.682 100.47C102.203 100.47 103.583 99.877 104.61 98.912V97.542H100.728L98.8281 94.719L100.728 91.896H104.61Z" fill="#8C9FAF"/>
<path d="M74.971 156.263C68.591 156.263 63.23 160.625 61.707 166.528H88.235C86.712 160.625 81.351 156.263 74.971 156.263Z" fill="#C3D2DB"/>
<path d="M87.6951 168H62.2481C61.6061 168 61.0811 167.475 61.0811 166.833V166.784C61.0811 166.142 61.6061 165.617 62.2481 165.617H87.6951C88.3371 165.617 88.8621 166.142 88.8621 166.784V166.833C88.8621 167.475 88.3371 168 87.6951 168Z" fill="#8C9FAF"/>
<path d="M108.492 122.607H100.634V154.703H108.492V122.607Z" fill="#C3D2DB"/>
<path d="M104.563 142.48C107.418 142.48 109.733 140.165 109.733 137.31C109.733 134.455 107.418 132.14 104.563 132.14C101.708 132.14 99.3931 134.455 99.3931 137.31C99.3931 140.165 101.708 142.48 104.563 142.48Z" fill="#9DAEBC"/>
<path d="M104.563 141.239C106.733 141.239 108.492 139.48 108.492 137.31C108.492 135.14 106.733 133.381 104.563 133.381C102.393 133.381 100.634 135.14 100.634 137.31C100.634 139.48 102.393 141.239 104.563 141.239Z" fill="#DDE6EB"/>
<path d="M104.563 140.261C106.193 140.261 107.514 138.94 107.514 137.31C107.514 135.68 106.193 134.359 104.563 134.359C102.933 134.359 101.612 135.68 101.612 137.31C101.612 138.94 102.933 140.261 104.563 140.261Z" fill="#8C9FAF"/>
<path d="M101.433 154.51H107.693C108.953 154.51 109.983 155.541 109.983 156.8C109.983 158.06 108.952 159.09 107.693 159.09H101.433C100.173 159.09 99.1431 158.059 99.1431 156.8C99.1431 155.54 100.173 154.51 101.433 154.51Z" fill="#8C9FAF"/>
<path d="M104.563 156.263C98.1831 156.263 92.8221 160.625 91.2991 166.528H117.827C116.303 160.625 110.942 156.263 104.563 156.263Z" fill="#C3D2DB"/>
<path d="M51.57 36.089C52.7298 36.089 53.67 35.3194 53.67 34.37C53.67 33.4206 52.7298 32.651 51.57 32.651C50.4102 32.651 49.47 33.4206 49.47 34.37C49.47 35.3194 50.4102 36.089 51.57 36.089Z" fill="#848484"/>
<path d="M51.57 22.994C57.7241 22.994 62.713 18.0051 62.713 11.851C62.713 5.6969 57.7241 0.708008 51.57 0.708008C45.4159 0.708008 40.427 5.6969 40.427 11.851C40.427 18.0051 45.4159 22.994 51.57 22.994Z" fill="#FFD44A"/>
<path d="M42.126 17.765C42.126 17.765 43.233 19.694 46.37 22.727C48.013 24.315 47.563 26.979 47.563 26.979L53 27.893L52.695 18.983L42.126 17.765Z" fill="#FFD44A"/>
<path d="M61.0149 17.765C61.0149 17.765 59.9079 19.694 56.7709 22.727C55.1279 24.315 55.5779 26.979 55.5779 26.979L50.1409 27.893L50.4459 18.983L61.0149 17.765Z" fill="#FFD44A"/>
<path d="M51.5699 14.66C52.6596 14.66 53.5429 13.7766 53.5429 12.687C53.5429 11.5973 52.6596 10.714 51.5699 10.714C50.4803 10.714 49.5969 11.5973 49.5969 12.687C49.5969 13.7766 50.4803 14.66 51.5699 14.66Z" fill="#E0AC44"/>
<path d="M52.3359 14.047C52.3359 13.624 51.9929 13.281 51.5699 13.281C51.1479 13.28 50.8029 13.624 50.8049 14.047V28.357H52.3359V14.047Z" fill="#E0AC44"/>
<path d="M55.2631 34.674H47.8771C47.3071 34.674 46.8401 34.207 46.8401 33.637V26.521C46.8401 25.951 47.3071 25.484 47.8771 25.484H55.2631C55.8331 25.484 56.3001 25.951 56.3001 26.521V33.637C56.3001 34.207 55.8341 34.674 55.2631 34.674Z" fill="#C8C7C7"/>
<path d="M56.3011 27.016H46.8401V28.548H56.3011V27.016Z" fill="#848484"/>
<path d="M56.3011 30.079H46.8401V31.611H56.3011V30.079Z" fill="#848484"/>
<path d="M46.8401 33.6371C46.8401 34.2071 47.3071 34.6741 47.8771 34.6741H55.2631C55.8331 34.6741 56.3001 34.2071 56.3001 33.6371V33.1431H46.8401V33.6371Z" fill="#848484"/>
<path d="M54.7316 15.9218C56.5405 14.1129 56.5405 11.1801 54.7316 9.3712C52.9227 7.56231 49.9899 7.56231 48.181 9.3712C46.3722 11.1801 46.3722 14.1129 48.181 15.9218C49.9899 17.7307 52.9227 17.7307 54.7316 15.9218Z" stroke="#E0AC44" stroke-miterlimit="10" stroke-dasharray="7.26 7.26"/>
<path d="M94.0349 55.136C94.0349 55.835 93.4659 56.403 92.7679 56.403H86.4759C85.7769 56.403 85.2089 55.835 85.2089 55.136V54.963H83.2749V55.136C83.2749 56.901 84.7109 58.337 86.4759 58.337H92.7679C94.5339 58.337 95.9699 56.901 95.9699 55.136V54.963H94.0349V55.136Z" fill="#8C9FAF"/>
<path d="M125.641 124.278H130.503L130.492 108.288H125.641V124.278Z" fill="#C3D2DB"/>
<path d="M130.486 99.791C130.504 89.468 124.683 81.73 117.135 79.046V89.51C121.127 92.461 124.033 94.78 125.142 100.436H130.486V99.791Z" fill="#C3D2DB"/>
<path fill-rule="evenodd" clip-rule="evenodd" d="M128.277 132.822L130.256 132.866L130.269 137.596L127.944 141.542L124.678 141.67L124.64 139.864L126.97 139.692L128.202 137.468L128.277 132.822Z" fill="#C3D2DB"/>
<path fill-rule="evenodd" clip-rule="evenodd" d="M129.028 132.88L128.889 137.428L129.6 137.563L129.462 138.089L128.676 137.956L127.636 139.883L127.879 140.812L127.287 141.011L126.973 140.233L125.187 140.382L124.656 141.659L124.64 139.864L126.97 139.692L128.181 137.508L128.256 132.862L129.028 132.88Z" fill="#8C9FAF"/>
<path fill-rule="evenodd" clip-rule="evenodd" d="M126.142 129.927L124.357 129.07L122.202 133.281L122.487 137.852L125.341 139.446L126.192 137.853L124.193 136.644L124.103 134.103L126.142 129.927Z" fill="#C3D2DB"/>
<path fill-rule="evenodd" clip-rule="evenodd" d="M125.446 129.639L123.509 133.756L122.814 133.555L122.699 134.086L123.459 134.323L123.513 136.512L122.876 137.23L123.313 137.676L123.945 137.125L125.47 138.067L125.365 139.446L126.192 137.899L124.193 136.69L124.103 134.148L126.142 129.973L125.446 129.639Z" fill="#8C9FAF"/>
<path fill-rule="evenodd" clip-rule="evenodd" d="M129.837 133.39L131.816 133.434L131.829 138.165L129.504 142.11L126.238 142.238L126.2 140.433L128.53 140.261L129.762 138.036L129.837 133.39Z" fill="#C3D2DB"/>
<path fill-rule="evenodd" clip-rule="evenodd" d="M130.588 133.448L130.449 137.996L131.16 138.131L131.022 138.657L130.236 138.524L129.196 140.451L129.439 141.38L128.847 141.579L128.533 140.801L126.747 140.951L126.216 142.227L126.2 140.433L128.53 140.261L129.741 138.077L129.816 133.431L130.588 133.448Z" fill="#8C9FAF"/>
<path d="M131.033 107.17H125.208C124.593 107.17 124.09 107.673 124.09 108.288C124.09 108.903 124.593 109.406 125.208 109.406H131.033C131.648 109.406 132.151 108.903 132.151 108.288C132.151 107.673 131.648 107.17 131.033 107.17Z" fill="#8C9FAF"/>
<path d="M131.033 104.335H125.208C124.593 104.335 124.09 104.838 124.09 105.453C124.09 106.068 124.593 106.571 125.208 106.571H131.033C131.648 106.571 132.151 106.068 132.151 105.453C132.151 104.838 131.648 104.335 131.033 104.335Z" fill="#8C9FAF"/>
<path d="M131.033 101.499H125.208C124.593 101.499 124.09 102.002 124.09 102.617C124.09 103.232 124.593 103.735 125.208 103.735H131.033C131.648 103.735 132.151 103.232 132.151 102.617C132.151 102.002 131.648 101.499 131.033 101.499Z" fill="#8C9FAF"/>
<path d="M131.033 98.666H125.208C124.593 98.666 124.09 99.169 124.09 99.784C124.09 100.399 124.593 100.902 125.208 100.902H131.033C131.648 100.902 132.151 100.399 132.151 99.784C132.151 99.169 131.648 98.666 131.033 98.666Z" fill="#8C9FAF"/>
<path opacity="0.6" d="M130.503 122.685H125.641V117.647C125.641 117.647 126.291 118.688 127.52 119.291C128.702 119.871 130.503 119.887 130.503 119.887V122.685Z" fill="#8C9FAF"/>
<path d="M130.056 135.081H125.959C124.99 135.081 124.197 134.288 124.197 133.319V124.197C124.197 123.228 124.99 122.435 125.959 122.435H130.056C131.025 122.435 131.818 123.228 131.818 124.197V133.319C131.818 134.288 131.025 135.081 130.056 135.081Z" fill="#C3D2DB"/>
<path d="M118.724 79.046H117.715V91.769H118.724C119.816 91.769 120.709 90.876 120.709 89.784V81.032C120.709 79.939 119.816 79.046 118.724 79.046Z" fill="#8C9FAF"/>
<path opacity="0.7" d="M131.829 124.793H124.197V125.277H131.829V124.793Z" fill="#8C9FAF"/>
<path opacity="0.7" d="M131.824 132.239H124.192V132.723H131.824V132.239Z" fill="#F8FDFF"/>
<path d="M130.737 133.39C132.171 133.39 133.333 132.228 133.333 130.794C133.333 129.36 132.171 128.198 130.737 128.198C129.303 128.198 128.141 129.36 128.141 130.794C128.141 132.228 129.303 133.39 130.737 133.39Z" fill="#9DAEBC"/>
<path d="M130.737 132.778C131.833 132.778 132.721 131.89 132.721 130.794C132.721 129.698 131.833 128.81 130.737 128.81C129.641 128.81 128.753 129.698 128.753 130.794C128.753 131.89 129.641 132.778 130.737 132.778Z" fill="#DDE6EB"/>
<path d="M130.737 132.284C131.56 132.284 132.227 131.617 132.227 130.794C132.227 129.971 131.56 129.304 130.737 129.304C129.914 129.304 129.247 129.971 129.247 130.794C129.247 131.617 129.914 132.284 130.737 132.284Z" fill="#8C9FAF"/>
<path d="M53.8881 46.827H49.0261L49.0381 62.817H53.8881V46.827Z" fill="#C3D2DB"/>
<path d="M48.4959 63.935H54.3209C54.9359 63.935 55.4389 63.432 55.4389 62.817C55.4389 62.202 54.9359 61.699 54.3209 61.699H48.4959C47.8809 61.699 47.3779 62.202 47.3779 62.817C47.3779 63.432 47.8809 63.935 48.4959 63.935Z" fill="#8C9FAF"/>
<path d="M48.4959 66.7701H54.3209C54.9359 66.7701 55.4389 66.2671 55.4389 65.6521C55.4389 65.0371 54.9359 64.5341 54.3209 64.5341H48.4959C47.8809 64.5341 47.3779 65.0371 47.3779 65.6521C47.3779 66.2671 47.8809 66.7701 48.4959 66.7701Z" fill="#8C9FAF"/>
<path d="M48.4959 69.606H54.3209C54.9359 69.606 55.4389 69.103 55.4389 68.488C55.4389 67.873 54.9359 67.37 54.3209 67.37H48.4959C47.8809 67.37 47.3779 67.873 47.3779 68.488C47.3779 69.103 47.8809 69.606 48.4959 69.606Z" fill="#8C9FAF"/>
<path d="M48.4959 72.439H54.3209C54.9359 72.439 55.4389 71.936 55.4389 71.321C55.4389 70.706 54.9359 70.203 54.3209 70.203H48.4959C47.8809 70.203 47.3779 70.706 47.3779 71.321C47.3779 71.936 47.8809 72.439 48.4959 72.439Z" fill="#8C9FAF"/>
<path opacity="0.6" d="M49.0261 48.42H53.8881V53.458C53.8881 53.458 53.2381 52.417 52.0091 51.814C50.8271 51.234 49.0261 51.218 49.0261 51.218V48.42Z" fill="#8C9FAF"/>
<path d="M49.4729 36.024H53.5699C54.5389 36.024 55.3319 36.817 55.3319 37.786V46.9081C55.3319 47.8771 54.5389 48.67 53.5699 48.67H49.4729C48.5039 48.67 47.7109 47.8771 47.7109 46.9081V37.786C47.7109 36.817 48.5039 36.024 49.4729 36.024Z" fill="#C3D2DB"/>
<path d="M60.81 91.769H61.819V79.046H60.81C59.718 79.046 58.825 79.939 58.825 81.031V89.783C58.824 90.876 59.718 91.769 60.81 91.769Z" fill="#8C9FAF"/>
<path opacity="0.7" d="M47.7 46.3126H55.332V45.8286H47.7V46.3126Z" fill="#8C9FAF"/>
<path opacity="0.7" d="M47.7054 38.8665H55.3374V38.3825H47.7054V38.8665Z" fill="#F8FDFF"/>
<path d="M48.793 42.9081C50.2268 42.9081 51.389 41.7458 51.389 40.3121C51.389 38.8783 50.2268 37.7161 48.793 37.7161C47.3593 37.7161 46.197 38.8783 46.197 40.3121C46.197 41.7458 47.3593 42.9081 48.793 42.9081Z" fill="#9DAEBC"/>
<path d="M48.7931 42.296C49.8888 42.296 50.7771 41.4077 50.7771 40.312C50.7771 39.2163 49.8888 38.328 48.7931 38.328C47.6974 38.328 46.8091 39.2163 46.8091 40.312C46.8091 41.4077 47.6974 42.296 48.7931 42.296Z" fill="#DDE6EB"/>
<path d="M48.793 41.802C49.6159 41.802 50.283 41.1349 50.283 40.312C50.283 39.4891 49.6159 38.822 48.793 38.822C47.9701 38.822 47.303 39.4891 47.303 40.312C47.303 41.1349 47.9701 41.802 48.793 41.802Z" fill="#8C9FAF"/>
<path d="M117.286 168H91.8391C91.1971 168 90.6721 167.475 90.6721 166.833V166.784C90.6721 166.142 91.1971 165.617 91.8391 165.617H117.286C117.928 165.617 118.453 166.142 118.453 166.784V166.833C118.453 167.475 117.928 168 117.286 168Z" fill="#8C9FAF"/>
<path opacity="0.6" d="M73.8809 62.383H105.464C106.332 62.383 107.104 61.986 107.633 61.374H71.7129C72.2409 61.986 73.0129 62.383 73.8809 62.383Z" fill="#8C9FAF"/>
<path d="M117.715 80.762H61.8191V81.246H117.715V80.762Z" fill="#F8FDFF"/>
</g>
<defs>
<clipPath id="clip0">
<rect width="180" height="168" fill="white"/>
</clipPath>
</defs>
</svg>
