<svg width="180" height="188" viewBox="0 0 180 188" fill="none" xmlns="http://www.w3.org/2000/svg">
<path d="M24.5139 127.367H7.18289C3.96789 127.367 1.33789 124.737 1.33789 121.522C1.33789 118.307 3.96789 115.677 7.18289 115.677H24.5129C27.7279 115.677 30.3579 118.307 30.3579 121.522C30.3589 124.737 27.7279 127.367 24.5139 127.367Z" fill="#D8E8EF"/>
<path d="M84.373 155.111H50.074C46.859 155.111 44.229 152.481 44.229 149.266C44.229 146.051 46.859 143.421 50.074 143.421H84.373C87.588 143.421 90.218 146.051 90.218 149.266C90.218 152.481 87.588 155.111 84.373 155.111Z" fill="#D8E8EF"/>
<path d="M144.851 141.11H103.225C100.01 141.11 97.3799 138.48 97.3799 135.265C97.3799 132.05 100.01 129.42 103.225 129.42H144.851C148.066 129.42 150.696 132.05 150.696 135.265C150.696 138.479 148.066 141.11 144.851 141.11Z" fill="#D8E8EF"/>
<path d="M140.451 85.0159H122.66C119.445 85.0159 116.815 82.3859 116.815 79.1709C116.815 75.9559 119.445 73.3259 122.66 73.3259H140.451C143.666 73.3259 146.296 75.9559 146.296 79.1709C146.296 82.3859 143.665 85.0159 140.451 85.0159Z" fill="#D8E8EF"/>
<path d="M99.002 85.5989H78.199C74.984 85.5989 72.354 82.9689 72.354 79.7539C72.354 79.7249 72.356 79.6959 72.356 79.6659H72.346C72.299 76.4909 69.689 73.9089 66.503 73.9089H24.961C21.746 73.9089 19.116 76.5389 19.116 79.7539C19.116 82.9689 21.746 85.5989 24.961 85.5989H47.526C47.395 85.5989 47.266 85.6049 47.137 85.6139C50.172 85.8159 52.593 88.3609 52.593 91.4439C52.593 94.5279 50.172 97.0719 47.137 97.2739C47.266 97.2829 47.395 97.2889 47.526 97.2889H36.07C32.855 97.2889 30.225 99.9189 30.225 103.134C30.225 106.349 32.855 108.979 36.07 108.979H83.026C86.21 108.979 88.82 106.398 88.869 103.224H88.871C88.871 103.211 88.87 103.197 88.87 103.184C88.87 103.167 88.871 103.151 88.871 103.134C88.871 103.118 88.87 103.102 88.87 103.086C88.897 99.8939 91.516 97.2909 94.714 97.2909H94.135L94.161 97.2879H99.003C102.218 97.2879 104.848 94.6579 104.848 91.4429C104.848 88.2279 102.216 85.5989 99.002 85.5989Z" fill="#D8E8EF"/>
<path d="M165.772 108.29H148.146C144.964 108.251 142.373 105.638 142.373 102.447C142.373 102.418 142.375 102.389 142.375 102.359H142.37C142.324 99.1841 139.713 96.6001 136.527 96.6001H106.406C103.191 96.6001 100.561 99.2301 100.561 102.445C100.561 105.66 103.191 108.29 106.406 108.29H111.864L111.888 108.293H111.358C114.543 108.293 117.153 110.875 117.201 114.049C117.201 114.078 117.199 114.106 117.199 114.135C117.199 114.165 117.201 114.194 117.201 114.223C117.201 114.224 117.201 114.224 117.201 114.224V114.225C117.25 117.398 119.859 119.98 123.044 119.98H165.772C168.987 119.98 171.617 117.35 171.617 114.135C171.617 110.92 168.987 108.29 165.772 108.29Z" fill="#D8E8EF"/>
<path d="M62.6279 101.602C58.6359 98.6451 55.7299 96.3201 54.6209 90.6511H49.2769V91.2971C49.2599 101.258 54.6539 108.817 61.7919 111.767H62.0589C62.2629 111.764 62.4129 111.695 62.6219 111.767H62.6249V111.768C62.6259 111.768 62.6269 111.768 62.6279 111.769V101.602Z" fill="#C3D2DB"/>
<path d="M61.0429 99.0461H62.0519V111.769H61.0429C59.9509 111.769 59.0579 110.876 59.0579 109.784V101.032C59.0569 99.9391 59.9509 99.0461 61.0429 99.0461Z" fill="#8C9FAF"/>
<path d="M79.1329 142.607H71.2749V174.703H79.1329V142.607Z" fill="#C3D2DB"/>
<path d="M75.2039 162.48C78.0593 162.48 80.3739 160.165 80.3739 157.31C80.3739 154.455 78.0593 152.14 75.2039 152.14C72.3486 152.14 70.0339 154.455 70.0339 157.31C70.0339 160.165 72.3486 162.48 75.2039 162.48Z" fill="#9DAEBC"/>
<path d="M75.2039 161.239C77.3738 161.239 79.1329 159.48 79.1329 157.31C79.1329 155.14 77.3738 153.381 75.2039 153.381C73.034 153.381 71.2749 155.14 71.2749 157.31C71.2749 159.48 73.034 161.239 75.2039 161.239Z" fill="#DDE6EB"/>
<path d="M75.2039 160.261C76.8337 160.261 78.1549 158.94 78.1549 157.31C78.1549 155.68 76.8337 154.359 75.2039 154.359C73.5741 154.359 72.2529 155.68 72.2529 157.31C72.2529 158.94 73.5741 160.261 75.2039 160.261Z" fill="#8C9FAF"/>
<path d="M80.1209 142.607H70.2869C68.6649 142.607 67.3379 141.28 67.3379 139.658V138.909C67.3379 137.287 68.6649 135.96 70.2869 135.96H80.1209C81.7429 135.96 83.0699 137.287 83.0699 138.909V139.658C83.0699 141.28 81.7429 142.607 80.1209 142.607Z" fill="#8C9FAF"/>
<path d="M72.0739 174.51H78.3339C79.5939 174.51 80.6239 175.541 80.6239 176.8C80.6239 178.06 79.5929 179.09 78.3339 179.09H72.0739C70.8139 179.09 69.7839 178.059 69.7839 176.8C69.7839 175.54 70.8139 174.51 72.0739 174.51Z" fill="#8C9FAF"/>
<path d="M109.712 142.607H99.878C98.256 142.607 96.929 141.28 96.929 139.658V138.909C96.929 137.287 98.256 135.96 99.878 135.96H109.712C111.334 135.96 112.661 137.287 112.661 138.909V139.658C112.661 141.28 111.334 142.607 109.712 142.607Z" fill="#8C9FAF"/>
<path d="M105.985 86.2011H73.9898C73.7768 86.2011 73.6028 86.0271 73.6028 85.8141V84.5701C73.6028 84.3571 73.7768 84.1831 73.9898 84.1831H105.985C106.198 84.1831 106.372 84.3571 106.372 84.5701V85.8141C106.372 86.0271 106.197 86.2011 105.985 86.2011Z" fill="#8C9FAF"/>
<path d="M105.985 84.183H73.9898C73.7768 84.183 73.6028 84.009 73.6028 83.796V82.552C73.6028 82.339 73.7768 82.165 73.9898 82.165H105.985C106.198 82.165 106.372 82.339 106.372 82.552V83.796C106.372 84.009 106.197 84.183 105.985 84.183Z" fill="#C3D2DB"/>
<path d="M105.932 90.824H74.0428C73.8008 90.824 73.6028 90.626 73.6028 90.384V88.658C73.6028 88.416 73.8008 88.218 74.0428 88.218H105.932C106.174 88.218 106.372 88.416 106.372 88.658V90.384C106.372 90.626 106.174 90.824 105.932 90.824Z" fill="#8C9FAF"/>
<path d="M105.985 88.2189H73.9898C73.7768 88.2189 73.6028 88.0449 73.6028 87.8319V86.5879C73.6028 86.3749 73.7768 86.2009 73.9898 86.2009H105.985C106.198 86.2009 106.372 86.3749 106.372 86.5879V87.8319C106.372 88.0449 106.197 88.2189 105.985 88.2189Z" fill="#C3D2DB"/>
<path fill-rule="evenodd" clip-rule="evenodd" d="M108.102 73.8002L110.344 72.7892V63.1812H108.102V73.8002Z" fill="#C3D2DB"/>
<path fill-rule="evenodd" clip-rule="evenodd" d="M71.836 73.8002L69.594 72.7892V63.1812H71.836V73.8002Z" fill="#C3D2DB"/>
<path d="M105.702 82.383H74.1188C72.5348 82.383 71.2388 81.087 71.2388 79.503V61.473C71.2388 59.889 72.5348 58.593 74.1188 58.593H105.702C107.286 58.593 108.582 59.889 108.582 61.473V79.504C108.582 81.087 107.286 82.383 105.702 82.383Z" fill="#C3D2DB"/>
<path d="M99.163 60.895C99.079 60.895 98.992 60.896 98.903 60.896C98.817 60.897 98.729 60.897 98.639 60.897H81.269C81.18 60.897 81.092 60.896 81.005 60.896C80.917 60.895 80.83 60.895 80.745 60.895C80.136 60.895 78.281 60.895 78.281 62.883V68.765C78.281 70.412 79.621 71.752 81.268 71.752H98.64C100.287 71.752 101.627 70.412 101.627 68.765V62.883C101.627 60.895 99.773 60.895 99.163 60.895Z" fill="#6F98C1"/>
<path d="M98.3249 70.7499H81.5839C80.3189 70.7499 79.2839 69.7149 79.2839 68.4499V63.0389C79.2839 62.4099 79.7939 61.8989 80.4239 61.8989H98.3259C99.5959 61.8989 100.626 62.9289 100.626 64.1989V68.4489C100.625 69.7149 99.5899 70.7499 98.3249 70.7499Z" fill="#9EC5DD"/>
<path opacity="0.6" d="M94.5308 61.9001H93.7698V70.7511H94.5308V61.9001Z" fill="white"/>
<path opacity="0.6" d="M97.2199 61.9001H95.2859V70.7511H97.2199V61.9001Z" fill="white"/>
<path d="M110.842 57.6899C110.842 46.3469 101.561 37.0659 90.218 37.0659C78.875 37.0659 69.594 46.3469 69.594 57.6899V63.1819H110.842V57.6899Z" fill="#627689"/>
<path fill-rule="evenodd" clip-rule="evenodd" d="M69.594 63.1811C69.594 63.1811 77.182 57.8781 96.04 56.9341C116.935 55.8871 117.699 63.1811 117.699 63.1811H69.594Z" fill="#849AAD"/>
<path fill-rule="evenodd" clip-rule="evenodd" d="M70.521 63.181C70.521 63.181 78.765 58.926 95.583 58.128C116.624 57.13 117.281 63.181 117.281 63.181H70.521Z" fill="#627689"/>
<path opacity="0.1" d="M90.1238 67.8211C108.044 67.8661 110.343 64.8751 110.343 64.8751V63.1821H69.5928C69.6008 63.2081 70.8408 67.7731 90.1238 67.8211Z" fill="black"/>
<path d="M94.7119 50.7421L96.4939 45.8491H90.9509C88.3779 45.8491 85.8049 47.2181 85.8049 49.9591C85.8049 52.7001 89.3679 53.2861 91.1489 51.3291C91.1489 51.9161 91.5449 52.3081 92.7329 52.3081H97.0599L97.6299 50.7421H94.7119ZM91.1489 50.7411C90.1589 50.7411 89.5649 50.5451 89.5649 49.9581C89.5649 49.5661 90.4079 47.8051 90.6059 47.2181H92.5349L91.1489 50.7411Z" fill="#C1D4E0"/>
<path d="M112.008 139.867H67.9908C64.7238 139.867 62.0508 137.194 62.0508 133.927V96.1771C62.0508 92.9101 64.7238 90.2371 67.9908 90.2371H112.008C115.275 90.2371 117.948 92.9101 117.948 96.1771V133.927C117.948 137.194 115.275 139.867 112.008 139.867Z" fill="#C3D2DB"/>
<path d="M117.947 130.42H62.0508V130.904H117.947V130.42Z" fill="#8C9FAF"/>
<path d="M117.947 133.834H62.0508V134.318H117.947V133.834Z" fill="#F8FDFF"/>
<path d="M117.947 97.3481H62.0508V97.8321H117.947V97.3481Z" fill="#8C9FAF"/>
<path d="M117.947 100.762H62.0508V101.246H117.947V100.762Z" fill="#F8FDFF"/>
<path d="M104.843 111.896V110.526C103.815 109.561 102.436 108.968 100.915 108.968C98.324 108.968 96.134 110.682 95.415 113.038H84.585C83.866 110.682 81.676 108.968 79.085 108.968C77.564 108.968 76.184 109.561 75.157 110.526V111.896H79.039L80.939 114.719L79.039 117.542H75.157V118.912C76.185 119.877 77.564 120.47 79.085 120.47C81.676 120.47 83.866 118.756 84.585 116.4H95.415C96.134 118.756 98.324 120.47 100.915 120.47C102.436 120.47 103.816 119.877 104.843 118.912V117.542H100.961L99.061 114.719L100.961 111.896H104.843Z" fill="#8C9FAF"/>
<path d="M75.2039 176.263C68.8239 176.263 63.4629 180.625 61.9399 186.528H88.4679C86.9439 180.625 81.5839 176.263 75.2039 176.263Z" fill="#C3D2DB"/>
<path d="M87.927 188H62.48C61.838 188 61.313 187.475 61.313 186.833V186.784C61.313 186.142 61.838 185.617 62.48 185.617H87.927C88.569 185.617 89.094 186.142 89.094 186.784V186.833C89.094 187.475 88.569 188 87.927 188Z" fill="#8C9FAF"/>
<path d="M108.724 142.607H100.866V174.703H108.724V142.607Z" fill="#C3D2DB"/>
<path d="M104.795 162.48C107.65 162.48 109.965 160.165 109.965 157.31C109.965 154.455 107.65 152.14 104.795 152.14C101.94 152.14 99.625 154.455 99.625 157.31C99.625 160.165 101.94 162.48 104.795 162.48Z" fill="#9DAEBC"/>
<path d="M104.795 161.239C106.965 161.239 108.724 159.48 108.724 157.31C108.724 155.14 106.965 153.381 104.795 153.381C102.625 153.381 100.866 155.14 100.866 157.31C100.866 159.48 102.625 161.239 104.795 161.239Z" fill="#DDE6EB"/>
<path d="M104.795 160.261C106.425 160.261 107.746 158.94 107.746 157.31C107.746 155.68 106.425 154.359 104.795 154.359C103.165 154.359 101.844 155.68 101.844 157.31C101.844 158.94 103.165 160.261 104.795 160.261Z" fill="#8C9FAF"/>
<path d="M101.665 174.51H107.925C109.185 174.51 110.215 175.541 110.215 176.8C110.215 178.06 109.184 179.09 107.925 179.09H101.665C100.405 179.09 99.375 178.059 99.375 176.8C99.375 175.54 100.406 174.51 101.665 174.51Z" fill="#8C9FAF"/>
<path d="M104.795 176.263C98.415 176.263 93.054 180.625 91.531 186.528H118.059C116.536 180.625 111.175 176.263 104.795 176.263Z" fill="#C3D2DB"/>
<path d="M94.2668 78.1641C94.2668 77.4651 93.6978 76.8971 92.9998 76.8971H86.7078C86.0088 76.8971 85.4408 77.4651 85.4408 78.1641V78.3371H83.5068V78.1641C83.5068 76.3991 84.9428 74.9631 86.7078 74.9631H92.9998C94.7658 74.9631 96.2018 76.3991 96.2018 78.1641V78.3371H94.2668V78.1641Z" fill="#8C9FAF"/>
<path d="M117.518 188H92.0718C91.4298 188 90.9048 187.475 90.9048 186.833V186.784C90.9048 186.142 91.4298 185.617 92.0718 185.617H117.519C118.161 185.617 118.686 186.142 118.686 186.784V186.833C118.686 187.475 118.16 188 117.518 188Z" fill="#8C9FAF"/>
<path opacity="0.6" d="M74.1138 82.383H105.697C106.565 82.383 107.337 81.986 107.866 81.374H71.9458C72.4738 81.986 73.2458 82.383 74.1138 82.383Z" fill="#8C9FAF"/>
<path d="M54.1208 69.0471H49.2598L49.2708 82.7811H54.1208V69.0471Z" fill="#C3D2DB"/>
<path d="M48.7308 83.9012H54.5528C55.1678 83.9012 55.6718 83.3972 55.6718 82.7822V82.7792C55.6718 82.1642 55.1678 81.6602 54.5528 81.6602H48.7308C48.1158 81.6602 47.6118 82.1642 47.6118 82.7792V82.7822C47.6118 83.3972 48.1148 83.9012 48.7308 83.9012Z" fill="#8C9FAF"/>
<path d="M48.7308 86.743H54.5528C55.1678 86.743 55.6718 86.239 55.6718 85.624V85.621C55.6718 85.006 55.1678 84.502 54.5528 84.502H48.7308C48.1158 84.502 47.6118 85.006 47.6118 85.621V85.624C47.6118 86.239 48.1148 86.743 48.7308 86.743Z" fill="#8C9FAF"/>
<path d="M48.7308 89.585H54.5528C55.1678 89.585 55.6718 89.081 55.6718 88.466V88.463C55.6718 87.848 55.1678 87.344 54.5528 87.344H48.7308C48.1158 87.344 47.6118 87.848 47.6118 88.463V88.466C47.6118 89.081 48.1148 89.585 48.7308 89.585Z" fill="#8C9FAF"/>
<path d="M48.7308 92.4241H54.5528C55.1678 92.4241 55.6718 91.9201 55.6718 91.3051V91.3021C55.6718 90.6871 55.1678 90.1831 54.5528 90.1831H48.7308C48.1158 90.1831 47.6118 90.6871 47.6118 91.3021V91.3051C47.6118 91.9211 48.1148 92.4241 48.7308 92.4241Z" fill="#8C9FAF"/>
<path opacity="0.6" d="M52.7508 74.4939C53.2378 74.4939 53.6998 74.5949 54.1208 74.7739V69.1179L53.7018 70.0369L49.2588 72.7789V77.9859C49.2598 76.0579 50.8228 74.4939 52.7508 74.4939Z" fill="#8C9FAF"/>
<path d="M117.37 101.602C121.362 98.6451 124.268 96.3201 125.377 90.6511H130.721V91.2971C130.738 101.258 125.344 108.817 118.206 111.767H117.939C117.735 111.764 117.585 111.695 117.376 111.767H117.373V111.768C117.372 111.768 117.371 111.768 117.371 111.768L117.37 101.602Z" fill="#C3D2DB"/>
<path d="M118.956 99.0461H117.947V111.769H118.956C120.048 111.769 120.941 110.876 120.941 109.784V101.032C120.941 99.9391 120.048 99.0461 118.956 99.0461Z" fill="#8C9FAF"/>
<path d="M125.877 69.2871H130.739L130.727 82.7811H125.877V69.2871Z" fill="#C3D2DB"/>
<path d="M131.268 83.9012H125.446C124.831 83.9012 124.327 83.3972 124.327 82.7822V82.7792C124.327 82.1642 124.831 81.6602 125.446 81.6602H131.268C131.883 81.6602 132.387 82.1642 132.387 82.7792V82.7822C132.387 83.3972 131.883 83.9012 131.268 83.9012Z" fill="#8C9FAF"/>
<path d="M131.268 86.743H125.446C124.831 86.743 124.327 86.239 124.327 85.624V85.621C124.327 85.006 124.831 84.502 125.446 84.502H131.268C131.883 84.502 132.387 85.006 132.387 85.621V85.624C132.387 86.239 131.883 86.743 131.268 86.743Z" fill="#8C9FAF"/>
<path d="M131.268 89.585H125.446C124.831 89.585 124.327 89.081 124.327 88.466V88.463C124.327 87.848 124.831 87.344 125.446 87.344H131.268C131.883 87.344 132.387 87.848 132.387 88.463V88.466C132.387 89.081 131.883 89.585 131.268 89.585Z" fill="#8C9FAF"/>
<path d="M131.268 92.4241H125.446C124.831 92.4241 124.327 91.9201 124.327 91.3051V91.3021C124.327 90.6871 124.831 90.1831 125.446 90.1831H131.268C131.883 90.1831 132.387 90.6871 132.387 91.3021V91.3051C132.387 91.9211 131.883 92.4241 131.268 92.4241Z" fill="#8C9FAF"/>
<path opacity="0.6" d="M127.247 74.4939C126.76 74.4939 126.298 74.5949 125.877 74.7739V69.1799L130.739 72.7779V77.9849C130.739 76.0579 129.176 74.4939 127.247 74.4939Z" fill="#8C9FAF"/>
<path d="M138.817 52.0218L136.94 51.4968L128.921 64.9278L130.956 66.1518L133.407 62.1768L138.817 52.0218Z" fill="#8C9FAF"/>
<path d="M138.756 51.9878L137.081 51.8088L135.899 53.9138L136.856 54.4538L136.602 54.8278L135.557 54.5528L134.249 56.7148L134.883 57.2938L134.825 57.5978L133.958 57.2998L132.839 59.1488L133.641 59.5158L133.215 60.2228L132.201 60.0458L130.88 62.3858L131.124 65.7358L133.348 62.0088L138.756 51.9878Z" fill="#C3D2DB"/>
<path d="M135.611 53.6969L134.218 53.3069L128.262 63.2809L129.774 64.1899L131.594 61.2389L135.611 53.6969Z" fill="#8C9FAF"/>
<path d="M135.566 53.6718L134.322 53.5388L133.444 55.1018L134.155 55.5028L133.966 55.7808L133.19 55.5768L132.219 57.1818L132.69 57.6118L132.647 57.8378L132.003 57.6168L131.172 58.9898L131.768 59.2618L131.451 59.7878L130.698 59.6558L129.717 61.3938L129.899 63.8808L131.55 61.1138L135.566 53.6718Z" fill="#C3D2DB"/>
<path d="M143.761 50.9239L141.884 50.3989L133.865 63.8299L135.9 65.0539L138.35 61.0789L143.761 50.9239Z" fill="#8C9FAF"/>
<path d="M143.7 50.8899L142.025 50.7109L140.842 52.8159L141.8 53.3559L141.545 53.7299L140.5 53.4549L139.193 55.6169L139.827 56.1959L139.769 56.4999L138.902 56.2019L137.783 58.0509L138.585 58.4179L138.159 59.1249L137.145 58.9479L135.824 61.2879L136.068 64.6379L138.292 60.9109L143.7 50.8899Z" fill="#C3D2DB"/>
<path d="M141.297 51.505L139.421 50.979L131.401 64.41L133.437 65.634L135.887 61.66L141.297 51.505Z" fill="#8C9FAF"/>
<path d="M141.237 51.471L139.562 51.292L138.379 53.396L139.337 53.937L139.082 54.31L138.037 54.036L136.73 56.198L137.364 56.777L137.306 57.081L136.439 56.782L135.32 58.631L136.122 58.999L135.695 59.706L134.682 59.528L133.361 61.869L133.605 65.218L135.828 61.491L141.237 51.471Z" fill="#C3D2DB"/>
<path d="M136 61.4849L132.436 59.4729C131.591 58.9959 130.509 59.2969 130.032 60.1419L125.536 68.1069C125.059 68.9519 125.36 70.0339 126.205 70.5109L129.769 72.5229C130.614 72.9999 131.696 72.6989 132.173 71.8539L136.669 63.8889C137.147 63.0429 136.845 61.9619 136 61.4849Z" fill="#C3D2DB"/>
<path opacity="0.7" d="M132.709 70.9147L126.063 67.1628L125.825 67.5852L132.471 71.3371L132.709 70.9147Z" fill="#8C9FAF"/>
<path opacity="0.7" d="M136.374 64.4142L129.728 60.6624L129.49 61.0847L136.136 64.8366L136.374 64.4142Z" fill="#F8FDFF"/>
<path d="M136.744 66.8452C137.45 65.5938 137.011 64.008 135.762 63.3032C134.514 62.5983 132.929 63.0414 132.223 64.2928C131.516 65.5442 131.956 67.13 133.204 67.8348C134.453 68.5396 136.037 68.0965 136.744 66.8452Z" fill="#9DAEBC"/>
<path d="M136.211 66.5442C136.751 65.5881 136.415 64.3764 135.461 63.8377C134.506 63.2991 133.295 63.6375 132.756 64.5936C132.216 65.5497 132.552 66.7614 133.506 67.3C134.46 67.8387 135.671 67.5003 136.211 66.5442Z" fill="#DDE6EB"/>
<path d="M135.781 66.3013C136.186 65.5833 135.934 64.6733 135.217 64.2687C134.5 63.8642 133.591 64.1183 133.186 64.8364C132.78 65.5544 133.033 66.4644 133.749 66.869C134.466 67.2735 135.375 67.0194 135.781 66.3013Z" fill="#8C9FAF"/>
<path d="M41.1431 52.0299L43.0191 51.5039L51.0391 64.9359L49.0031 66.1599L46.5531 62.1849L41.1431 52.0299Z" fill="#8C9FAF"/>
<path d="M41.2039 51.9959L42.8789 51.8169L44.0609 53.9209L43.1039 54.4619L43.3579 54.8359L44.4029 54.5609L45.7109 56.7229L45.0769 57.3019L45.1339 57.6059L46.0009 57.3079L47.1199 59.1569L46.3189 59.5239L46.7449 60.2309L47.7589 60.0539L49.0799 62.3939L48.8349 65.7439L46.6119 62.0169L41.2039 51.9959Z" fill="#C3D2DB"/>
<path d="M44.3479 53.7049L45.7419 53.3149L51.6969 63.2889L50.1859 64.1979L48.3659 61.2469L44.3479 53.7049Z" fill="#8C9FAF"/>
<path d="M44.3931 53.6801L45.6371 53.5471L46.5161 55.1101L45.8041 55.5111L45.9931 55.7881L46.7701 55.5851L47.7411 57.1901L47.2701 57.6201L47.3121 57.8461L47.9561 57.6241L48.7871 58.9971L48.1921 59.2701L48.5091 59.7951L49.2611 59.6641L50.2421 61.4021L50.0611 63.8891L48.4101 61.1211L44.3931 53.6801Z" fill="#C3D2DB"/>
<path d="M36.199 50.932L38.075 50.406L46.095 63.838L44.06 65.062L41.609 61.087L36.199 50.932Z" fill="#8C9FAF"/>
<path d="M36.26 50.898L37.935 50.719L39.117 52.823L38.16 53.364L38.414 53.737L39.459 53.463L40.767 55.625L40.133 56.204L40.19 56.508L41.058 56.21L42.176 58.059L41.375 58.426L41.801 59.133L42.815 58.956L44.136 61.296L43.892 64.646L41.668 60.919L36.26 50.898Z" fill="#C3D2DB"/>
<path d="M38.6619 51.5131L40.5389 50.9871L48.5579 64.4181L46.5229 65.6421L44.0719 61.6681L38.6619 51.5131Z" fill="#8C9FAF"/>
<path d="M38.7229 51.4781L40.3979 51.3L41.5809 53.404L40.6229 53.944L40.8769 54.3181L41.9229 54.044L43.2299 56.2061L42.5959 56.784L42.6539 57.0881L43.5209 56.7901L44.6399 58.639L43.8379 59.0061L44.2639 59.7141L45.2779 59.536L46.5989 61.877L46.3549 65.226L44.1309 61.4991L38.7229 51.4781Z" fill="#C3D2DB"/>
<path d="M43.9591 61.492L47.5231 59.48C48.3681 59.003 49.4501 59.304 49.9271 60.149L54.4231 68.114C54.9001 68.959 54.5991 70.041 53.7541 70.518L50.1901 72.53C49.3451 73.007 48.2631 72.706 47.7861 71.861L43.2901 63.896C42.8131 63.051 43.1141 61.97 43.9591 61.492Z" fill="#C3D2DB"/>
<path opacity="0.7" d="M47.4827 71.3486L54.1287 67.5967L53.8902 67.1743L47.2443 70.9262L47.4827 71.3486Z" fill="#8C9FAF"/>
<path opacity="0.7" d="M43.8179 64.8461L50.4639 61.0942L50.2254 60.6719L43.5795 64.4238L43.8179 64.8461Z" fill="#F8FDFF"/>
<path d="M46.7559 67.8328C48.0044 67.128 48.4438 65.5422 47.7374 64.2908C47.0309 63.0394 45.4461 62.5964 44.1976 63.3012C42.9491 64.006 42.5097 65.5918 43.2162 66.8432C43.9226 68.0946 45.5074 68.5377 46.7559 67.8328Z" fill="#9DAEBC"/>
<path d="M46.454 67.2982C47.4082 66.7596 47.7441 65.5478 47.2044 64.5918C46.6646 63.6357 45.4536 63.2973 44.4994 63.8359C43.5452 64.3746 43.2093 65.5863 43.749 66.5424C44.2888 67.4985 45.4998 67.8369 46.454 67.2982Z" fill="#DDE6EB"/>
<path d="M46.2107 66.8672C46.9273 66.4627 47.1796 65.5527 46.7743 64.8346C46.3689 64.1166 45.4594 63.8625 44.7428 64.267C44.0262 64.6716 43.7739 65.5816 44.1793 66.2996C44.5846 67.0176 45.4941 67.2718 46.2107 66.8672Z" fill="#8C9FAF"/>
<path d="M87.6969 19.599C87.6969 17.857 87.9079 16.469 88.3309 15.436C88.7539 14.403 89.5269 13.385 90.6529 12.383C91.7779 11.381 92.5269 10.566 92.8999 9.93704C93.2729 9.30804 93.4599 8.64504 93.4599 7.94704C93.4599 5.84204 92.4909 4.79004 90.5509 4.79004C89.6309 4.79004 88.8939 5.07404 88.3409 5.64104C87.7869 6.20804 87.4979 6.99004 87.4739 7.98704H82.0649C82.0899 5.61004 82.8569 3.74904 84.3679 2.40504C85.8779 1.06104 87.9399 0.389038 90.5509 0.389038C93.1869 0.389038 95.2329 1.02704 96.6869 2.30304C98.1419 3.57904 98.8689 5.38004 98.8689 7.70804C98.8689 8.76604 98.6329 9.76504 98.1599 10.704C97.6869 11.644 96.8609 12.686 95.6799 13.831L94.1689 15.269C93.2239 16.177 92.6829 17.242 92.5469 18.461L92.4719 19.6H87.6969V19.599ZM87.1559 25.316C87.1559 24.486 87.4389 23.801 88.0049 23.262C88.5709 22.723 89.2949 22.453 90.1779 22.453C91.0609 22.453 91.7849 22.723 92.3509 23.262C92.9159 23.801 93.1999 24.486 93.1999 25.316C93.1999 26.134 92.9229 26.81 92.3699 27.342C91.8159 27.875 91.0859 28.141 90.1779 28.141C89.2709 28.141 88.5399 27.875 87.9869 27.342C87.4329 26.809 87.1559 26.134 87.1559 25.316Z" fill="#9EC5DD"/>
<path d="M58.5818 33.4771C58.5818 32.2721 58.7318 31.3111 59.0298 30.5961C59.3298 29.8801 59.9198 29.0941 60.8018 28.2371C61.6848 27.3811 62.2428 26.7711 62.4798 26.4091C62.8408 25.8571 63.0228 25.2611 63.0228 24.6191C63.0228 23.7701 62.8118 23.1211 62.3908 22.6731C61.9698 22.2261 61.3518 22.0021 60.5368 22.0021C59.7578 22.0021 59.1318 22.2211 58.6558 22.6581C58.1808 23.0961 57.9428 23.6881 57.9428 24.4371H54.6438C54.6618 22.8331 55.2068 21.5641 56.2798 20.6311C57.3518 19.6981 58.7708 19.2311 60.5368 19.2311C62.3568 19.2311 63.7758 19.6931 64.7938 20.6181C65.8128 21.5421 66.3218 22.8331 66.3218 24.4911C66.3218 25.9681 65.6338 27.4221 64.2578 28.8541L62.5878 30.4991C61.9908 31.1791 61.6818 32.1711 61.6648 33.4761H58.5818V33.4771ZM58.3508 37.6931C58.3508 37.1611 58.5178 36.7301 58.8528 36.4021C59.1878 36.0731 59.6408 35.9081 60.2108 35.9081C60.7898 35.9081 61.2468 36.0771 61.5818 36.4151C61.9168 36.7531 62.0848 37.1791 62.0848 37.6931C62.0848 38.1891 61.9218 38.6041 61.5958 38.9381C61.2698 39.2721 60.8078 39.4381 60.2108 39.4381C59.6138 39.4381 59.1538 39.2711 58.8328 38.9381C58.5108 38.6051 58.3508 38.1901 58.3508 37.6931Z" fill="#9EC5DD"/>
<path d="M118.192 33.4771C118.192 32.2721 118.342 31.3111 118.64 30.5961C118.94 29.8801 119.53 29.0941 120.412 28.2371C121.295 27.3811 121.853 26.7711 122.09 26.4091C122.451 25.8571 122.633 25.2611 122.633 24.6191C122.633 23.7701 122.422 23.1211 122.001 22.6731C121.58 22.2261 120.962 22.0021 120.147 22.0021C119.368 22.0021 118.742 22.2211 118.266 22.6581C117.791 23.0961 117.553 23.6881 117.553 24.4371H114.254C114.272 22.8331 114.817 21.5641 115.89 20.6311C116.962 19.6981 118.381 19.2311 120.147 19.2311C121.967 19.2311 123.386 19.6931 124.404 20.6181C125.423 21.5421 125.932 22.8331 125.932 24.4911C125.932 25.9681 125.244 27.4221 123.868 28.8541L122.198 30.4991C121.601 31.1791 121.292 32.1711 121.275 33.4761H118.192V33.4771ZM117.961 37.6931C117.961 37.1611 118.128 36.7301 118.463 36.4021C118.798 36.0731 119.251 35.9081 119.821 35.9081C120.4 35.9081 120.857 36.0771 121.192 36.4151C121.527 36.7531 121.695 37.1791 121.695 37.6931C121.695 38.1891 121.532 38.6041 121.206 38.9381C120.88 39.2721 120.418 39.4381 119.821 39.4381C119.224 39.4381 118.764 39.2711 118.443 38.9381C118.121 38.6051 117.961 38.1901 117.961 37.6931Z" fill="#9EC5DD"/>
</svg>
