<svg xmlns="http://www.w3.org/2000/svg" viewBox="0 0 244.09 181.08"><path fill="#FFF" d="M0 0h244.09v181.08H0z"/><path fill="#EEF4F7" d="M121.83 16.52h8.15-.58c3.2 0 5.82-2.6 5.85-5.8v-.05-.05-.04a5.86 5.86 0 015.84-5.75H182.74a5.86 5.86 0 015.85 5.84 5.86 5.86 0 01-5.85 5.85H160.3h.57c-3.2 0-5.81 2.6-5.84 5.8v.13a5.86 5.86 0 01-5.84 5.76h-27.36a5.86 5.86 0 010-11.69zM76.41 132.3H38.54a5.86 5.86 0 01-5.84-5.85 5.86 5.86 0 015.84-5.84h37.87a5.86 5.86 0 015.85 5.84 5.86 5.86 0 01-5.85 5.85zM101.58 39.94h-36.8a5.86 5.86 0 01-5.85-5.84V34a5.86 5.86 0 00-5.85-5.75H11.54a5.86 5.86 0 00-5.85 5.85 5.86 5.86 0 005.85 5.84H34.1c-.13 0-.26 0-.39.02a5.86 5.86 0 015.46 5.83 5.86 5.86 0 01-5.46 5.83l.4.01H22.64a5.86 5.86 0 00-5.85 5.85 5.86 5.86 0 005.85 5.84H69.6c3.19 0 5.8-2.58 5.85-5.75v-.04-.05-.05a5.86 5.86 0 015.84-5.8h-.58 20.87a5.86 5.86 0 005.84-5.85 5.86 5.86 0 00-5.84-5.84zM155.91 139.62h-34.3a5.86 5.86 0 01-5.84-5.84 5.86 5.86 0 015.84-5.85h34.3a5.86 5.86 0 015.85 5.85 5.86 5.86 0 01-5.85 5.84zM211.39 125.62h-41.63a5.86 5.86 0 01-5.84-5.84 5.86 5.86 0 015.84-5.85h41.63a5.86 5.86 0 015.84 5.85 5.86 5.86 0 01-5.84 5.84zM194.99 69.53h-18.8a5.86 5.86 0 01-5.84-5.85 5.86 5.86 0 015.85-5.84h18.79a5.86 5.86 0 015.84 5.84 5.86 5.86 0 01-5.84 5.85zM98.93 99.17h-17.8a5.86 5.86 0 01-5.84-5.85 5.86 5.86 0 015.85-5.84h17.79a5.86 5.86 0 015.84 5.84 5.86 5.86 0 01-5.84 5.85zM237.31 92.8h-17.63a5.86 5.86 0 01-5.77-5.84v-.09a5.86 5.86 0 00-5.84-5.76h-30.13a5.86 5.86 0 00-5.84 5.85 5.86 5.86 0 005.84 5.84h5.49-.53c3.18 0 5.8 2.59 5.84 5.76V98.73a5.86 5.86 0 005.84 5.76h42.73a5.86 5.86 0 005.84-5.84 5.86 5.86 0 00-5.84-5.85z"/><circle fill="#EEF4F7" cx="216.55" cy="63.68" r="5.84"/><path fill="#BCBCBC" d="M57.79 172.51H46.43v-.15c0-1.5 1.23-2.74 2.74-2.74h5.88c1.5 0 2.73 1.24 2.73 2.74v.15zM115.52 149.3H53.1l-.1.02v4.93l.1.02h91.93v-4.97h-29.52z"/><path opacity=".26" fill="#424242" d="M54.59 152.54h89.03v.83H54.59z"/><path fill="#BCBCBC" d="M115.52 108.66H53.1l-.1.02v4.93l.1.01h91.93v-4.96h-29.52z"/><path opacity=".26" fill="#424242" d="M54.59 111.9h89.03v.83H54.59z"/><path opacity=".68" fill="#FFF" d="M54.59 111.07h89.03v.83H54.59z"/><path fill="#BCBCBC" d="M115.52 74.75H53.1l-.1.02v4.93l.1.01h91.93v-4.96h-29.52z"/><path opacity=".26" fill="#424242" d="M54.59 77.99h89.03v.83H54.59z"/><path opacity=".68" fill="#FFF" d="M54.59 77.16h89.03v.83H54.59z"/><path fill="#BCBCBC" d="M151.76 172.51h-11.35v-.15c0-1.5 1.23-2.74 2.73-2.74h5.88c1.51 0 2.74 1.24 2.74 2.74v.15zM49.62 100.45V169.2c0 1.84 1.12 3.32 2.49 3.32s2.48-1.48 2.48-3.32V74.75h-4.97v25.7z"/><path fill="#BCBCBC" d="M143.6 102.7v66.49c0 1.84 1.11 3.32 2.49 3.32 1.37 0 2.48-1.48 2.48-3.32V74.75h-4.97v27.95z"/><path opacity=".26" fill="#424242" d="M51.28 169.63V74.76h.83v94.87z"/><path opacity=".68" fill="#FFF" d="M50.44 169.62V74.75h.83v94.87z"/><path opacity=".26" fill="#424242" d="M146.08 169.63V74.76h.83v94.87z"/><path opacity=".68" fill="#FFF" d="M146.92 169.63V74.76h.83v94.87z"/><radialGradient id="a" cx="503.4" cy="357" r="13.1" gradientTransform="matrix(3.2883 0 0 .2849 -1494.28 70.8)" gradientUnits="userSpaceOnUse"><stop offset="0" stop-color="#a0b3ba"/><stop offset=".54" stop-color="#c3d2db" stop-opacity=".6"/><stop offset="1" stop-color="#c3d2db" stop-opacity="0"/></radialGradient><ellipse fill="url(#a)" cx="161.03" cy="172.51" rx="43.08" ry="3.73"/><path fill="#C3D2DB" d="M142.81 127.12h7.86v32.1h-7.86z"/><circle fill="#9DAEBC" cx="146.74" cy="141.82" r="5.17"/><circle fill="#DDE6EB" cx="146.74" cy="141.82" r="3.93"/><circle fill="#8C9FAF" cx="146.74" cy="141.82" r="2.95"/><path fill="#8C9FAF" d="M143.61 159.02h6.26a2.3 2.3 0 012.3 2.3 2.3 2.3 0 01-2.3 2.28h-6.26a2.3 2.3 0 01-2.29-2.29 2.3 2.3 0 012.3-2.29z"/><path fill="#C3D2DB" d="M177.52 68.7h-32a.39.39 0 01-.38-.4v-1.24c0-.2.17-.38.39-.38h32c.2 0 .38.17.38.38v1.25c0 .21-.17.38-.39.38z"/><path fill-rule="evenodd" clip-rule="evenodd" fill="#C3D2DB" d="M179.64 58.31l2.24-1.01v-9.6h-2.24zM143.37 58.31l-2.24-1.01v-9.6h2.24z"/><path fill="#C3D2DB" d="M177.24 66.9h-31.58a2.89 2.89 0 01-2.88-2.89V45.98c0-1.58 1.3-2.87 2.88-2.87h31.58c1.58 0 2.88 1.3 2.88 2.87v18.04c0 1.58-1.3 2.88-2.88 2.88z"/><path fill="#6F98C1" d="M170.7 45.4h-18.42c-.6 0-2.46 0-2.46 2v5.88a2.99 2.99 0 002.98 2.98h17.38a2.99 2.99 0 002.98-2.98v-5.89c0-1.98-1.85-1.98-2.46-1.98z"/><path fill="#9EC5DD" d="M169.86 55.26h-16.74a2.3 2.3 0 01-2.3-2.3v-5.4c0-.64.51-1.15 1.14-1.15h17.9a2.3 2.3 0 012.3 2.3v4.25a2.3 2.3 0 01-2.3 2.3z"/><path opacity=".6" fill="#FFF" d="M165.31 46.41h.76v8.85h-.76zM166.82 46.41h1.93v8.85h-1.93z"/><path fill="#627689" d="M182.38 42.2a20.68 20.68 0 00-20.63-20.62 20.68 20.68 0 00-20.62 20.62v5.5h41.25v-5.5z"/><path fill-rule="evenodd" clip-rule="evenodd" fill="#849AAD" d="M141.13 47.7s7.59-5.31 26.45-6.25c20.9-1.05 21.66 6.24 21.66 6.24h-48.1z"/><path fill-rule="evenodd" clip-rule="evenodd" fill="#627689" d="M142.06 47.7s8.24-4.26 25.06-5.06c21.04-1 21.7 5.05 21.7 5.05h-46.76z"/><path opacity=".1" d="M161.66 52.33c17.92.05 20.22-2.94 20.22-2.94v-1.7h-40.75c0 .03 1.25 4.6 20.53 4.64z"/><path fill="#C1D4E0" d="M166.25 35.25l1.78-4.89h-5.54c-2.57 0-5.15 1.37-5.15 4.11s3.57 3.33 5.35 1.37c0 .59.4.98 1.58.98h4.33l.57-1.57h-2.92zm-3.56 0c-1 0-1.59-.2-1.59-.78 0-.4.85-2.15 1.04-2.74h1.93l-1.38 3.52z"/><path fill="#C3D2DB" d="M146.74 160.78a13.7 13.7 0 00-13.26 10.26H160a13.7 13.7 0 00-13.27-10.26z"/><path fill="#8C9FAF" d="M159.47 172.51h-25.45c-.64 0-1.17-.52-1.17-1.16v-.05c0-.65.53-1.17 1.17-1.17h25.44c.65 0 1.17.52 1.17 1.17v.04c0 .65-.52 1.17-1.16 1.17z"/><path fill="#C3D2DB" d="M172.4 127.12h7.86v32.1h-7.86z"/><circle fill="#9DAEBC" cx="176.33" cy="141.82" r="5.17"/><circle fill="#DDE6EB" cx="176.33" cy="141.82" r="3.93"/><circle fill="#8C9FAF" cx="176.33" cy="141.82" r="2.95"/><path fill="#8C9FAF" d="M173.2 159.02h6.26a2.3 2.3 0 012.3 2.3 2.3 2.3 0 01-2.3 2.28h-6.26a2.3 2.3 0 01-2.29-2.29 2.3 2.3 0 012.3-2.29z"/><path fill="#C3D2DB" d="M176.33 160.78a13.7 13.7 0 00-13.26 10.26h26.53a13.7 13.7 0 00-13.27-10.26z"/><path fill="none" d="M158.25 59.47h6.29c.7 0 1.27-.56 1.27-1.26v-1.95h-8.83v1.95c0 .7.57 1.26 1.27 1.26zM158.25 61.48h6.29c.7 0 1.27-.57 1.27-1.27v-.18h-8.83v.18c0 .7.57 1.27 1.27 1.27z"/><path fill="#8C9FAF" d="M156.98 59.65c0 .7.57 1.26 1.27 1.26h6.29c.7 0 1.27-.56 1.27-1.26v-.18h1.93v.18a3.2 3.2 0 01-3.2 3.2h-6.3a3.2 3.2 0 01-3.2-3.2v-.18h1.94v.18zM189.06 172.51H163.6c-.64 0-1.17-.52-1.17-1.16v-.05c0-.65.53-1.17 1.17-1.17h25.45c.64 0 1.16.52 1.16 1.17v.04c0 .65-.52 1.17-1.16 1.17z"/><path opacity=".6" fill="#8C9FAF" d="M145.65 66.9h31.58c.87 0 1.64-.4 2.17-1.01h-35.92c.53.6 1.3 1 2.17 1z"/><path fill="none" d="M133.6 96.28h.56c-.21-.07-.36 0-.56 0z"/><path fill="#C3D2DB" d="M124.62 94.16l11.02.02 2.72-10.61-5.51-.01a7.46 7.46 0 00-6.88 5.3l-1.35 5.3zM198.78 94.16l-11.02.02-2.72-10.61 5.52-.01a7.46 7.46 0 016.87 5.3l1.35 5.3z"/><path fill="#8C9FAF" d="M131.82 90.8H126a1.12 1.12 0 000 2.24h5.82a1.12 1.12 0 000-2.24zM191.58 90.8h5.83a1.12 1.12 0 010 2.24h-5.83a1.12 1.12 0 010-2.24z"/><g><linearGradient id="b" gradientUnits="userSpaceOnUse" x1="-352.06" y1="58.13" x2="-366.07" y2="58.13" gradientTransform="rotate(-90 -129.34 -171.54)"><stop offset="0" stop-color="#d5e2eb" stop-opacity="0"/><stop offset="1" stop-color="#70ba78"/></linearGradient><path fill="url(#b)" d="M106.62 52.53c0-.39-.13-.71-.4-.98-.26-.26-.59-.4-.97-.4h-9.81c-.39 0-.72.13-.99.4s-.4.6-.4.98v14.05h12.57V52.53z"/><path fill="#70BA78" d="M87.23 86.8l12.01 14.12a1.43 1.43 0 002.19 0l12.01-14.12a1.43 1.43 0 00-1.09-2.36h-5.73v-9.71H94.05v9.7h-5.73a1.43 1.43 0 00-1.1 2.37zM94.06 69.29h12.56v2.72H94.06z"/></g><g><path fill="#DFB06D" d="M191.96 133.78h-60.4c-.83 0-1.5-.67-1.5-1.49V79.88h63.38v52.4c0 .83-.66 1.5-1.48 1.5z"/><path fill="#CE995B" d="M130.07 79.88h63.38v1.98h-63.38z"/><path fill="#DFB06D" d="M196.77 79.88h-70.03v-9.3c0-1.01.82-1.83 1.83-1.83h66.37c1.01 0 1.83.82 1.83 1.83v9.3z"/><path fill="#EFD092" d="M173.76 88.16h12.86v10.33h-12.86z"/><g fill="#BC8146"><path d="M136.89 117.68h16.9v1h-16.9zM136.89 120.44h11.99v1h-11.99zM136.89 123.2h14.18v1h-14.18zM136.89 125.95h9.14v1h-9.14z"/></g><path fill="#CE995B" d="M164.78 68.75v65.02h-6.06V68.75z"/><path fill="#BC8146" d="M164.78 79.87v1.98h-6.06v-1.98z"/></g><g><path opacity=".08" fill="#424242" d="M132.2 95.9h-.62c.25 0 .44-.2.44-.44s-.2-.44-.44-.44h-1.38v12.6h1.38c.25 0 .44-.2.44-.43 0-.25-.2-.45-.44-.45h.62c.73 0 1.32-.59 1.32-1.3V97.2c0-.72-.6-1.3-1.31-1.3z"/><path fill="#C3D2DB" d="M130.56 105.87h-5.91V95.03h5.91c.73 0 1.32.59 1.32 1.31v8.22c0 .72-.6 1.31-1.32 1.31z"/><path fill="#9DAEBC" d="M124.06 94.59c0 .24.2.44.44.44h5.44c.24 0 .44-.2.44-.44 0-.25-.2-.45-.44-.45h-5.44c-.24 0-.44.2-.44.45zM124.06 106.31c0 .24.2.44.44.44h5.44c.24 0 .44-.2.44-.44s-.2-.44-.44-.44h-5.44c-.24 0-.44.2-.44.44z"/><path fill="#8C9FAF" d="M124.03 96.46v.75c0 .12.1.23.23.23h6.53c.13 0 .23-.1.23-.23v-.75c0-.12-.1-.23-.23-.23h-6.53c-.12 0-.23.1-.23.23zM124.03 98.87v.74c0 .13.1.24.23.24h6.53c.13 0 .23-.1.23-.23v-.75c0-.13-.1-.23-.23-.23h-6.53c-.12 0-.23.1-.23.23zM124.03 101.28v.74c0 .13.1.24.23.24h6.53c.13 0 .23-.1.23-.23v-.75c0-.13-.1-.23-.23-.23h-6.53c-.12 0-.23.1-.23.23zM124.03 103.69v.74c0 .13.1.23.23.23h6.53c.13 0 .23-.1.23-.22v-.75c0-.13-.1-.23-.23-.23h-6.53c-.12 0-.23.1-.23.23z"/><path opacity=".5" fill="#F8FDFF" d="M125.62 96.23h1.21v1.21h-1.21zM125.62 98.64h1.21v1.21h-1.21zM125.62 101.05h1.21v1.21h-1.21zM125.62 103.46h1.21v1.21h-1.21z"/></g><g><path opacity=".08" fill="#424242" d="M191.2 95.9h.62c-.24 0-.44-.2-.44-.44s.2-.44.44-.44h1.38v12.6h-1.38a.44.44 0 01-.44-.43c0-.25.2-.45.44-.45h-.62c-.72 0-1.31-.59-1.31-1.3V97.2c0-.72.59-1.3 1.3-1.3z"/><path fill="#C3D2DB" d="M192.84 105.87h5.92V95.03h-5.92c-.72 0-1.31.59-1.31 1.31v8.22c0 .72.59 1.31 1.31 1.31z"/><path fill="#9DAEBC" d="M199.35 94.59c0 .24-.2.44-.44.44h-5.45a.44.44 0 01-.44-.44c0-.25.2-.45.44-.45h5.44c.25 0 .45.2.45.45zM199.35 106.31c0 .24-.2.44-.44.44h-5.45a.44.44 0 01-.44-.44c0-.24.2-.44.44-.44h5.44c.25 0 .45.2.45.44z"/><path fill="#8C9FAF" d="M199.37 96.46v.75c0 .12-.1.23-.23.23h-6.53a.23.23 0 01-.23-.23v-.75c0-.12.1-.23.23-.23h6.53c.13 0 .23.1.23.23zM199.37 98.87v.74c0 .13-.1.24-.23.24h-6.53a.23.23 0 01-.23-.23v-.75c0-.13.1-.23.23-.23h6.53c.13 0 .23.1.23.23zM199.37 101.28v.74c0 .13-.1.24-.23.24h-6.53a.23.23 0 01-.23-.23v-.75c0-.13.1-.23.23-.23h6.53c.13 0 .23.1.23.23zM199.37 103.69v.74c0 .13-.1.23-.23.23h-6.53a.23.23 0 01-.23-.22v-.75c0-.13.1-.23.23-.23h6.53c.13 0 .23.1.23.23z"/><path opacity=".5" fill="#F8FDFF" d="M197.78 97.44h-1.21v-1.21h1.2zM197.78 99.85h-1.21v-1.21h1.2zM197.78 102.26h-1.21v-1.21h1.2zM197.78 104.66h-1.21v-1.2h1.2z"/></g></svg>