<svg width="180" height="152" viewBox="0 0 180 152" fill="none" xmlns="http://www.w3.org/2000/svg">
<path d="M49.1851 83.872C49.1671 73.526 54.9881 65.77 62.5361 63.08V73.567C58.5441 76.524 55.6381 78.849 54.5291 84.518H49.1851V83.872Z" fill="#C3D2DB"/>
<path d="M24.426 71.377H7.095C3.88 71.377 1.25 68.747 1.25 65.532C1.25 62.317 3.88 59.687 7.095 59.687H24.425C27.64 59.687 30.27 62.317 30.27 65.532C30.271 68.746 27.641 71.377 24.426 71.377Z" fill="#D8E8EF"/>
<path d="M58.1861 99.121H35.9851C32.7701 99.121 30.1401 96.491 30.1401 93.276C30.1401 90.061 32.7701 87.431 35.9851 87.431H58.1861C61.4011 87.431 64.0311 90.061 64.0311 93.276C64.0311 96.491 61.4011 99.121 58.1861 99.121Z" fill="#D8E8EF"/>
<path d="M144.764 85.119H103.138C99.923 85.119 97.293 82.489 97.293 79.274C97.293 76.059 99.923 73.429 103.138 73.429H144.764C147.979 73.429 150.609 76.059 150.609 79.274C150.609 82.489 147.978 85.119 144.764 85.119Z" fill="#D8E8EF"/>
<path d="M140.363 29.0261H131.089C127.874 29.0261 125.244 26.3961 125.244 23.1811C125.244 19.9661 127.874 17.3361 131.089 17.3361H140.363C143.578 17.3361 146.208 19.9661 146.208 23.1811C146.208 26.3961 143.577 29.0261 140.363 29.0261Z" fill="#D8E8EF"/>
<path d="M98.9141 29.6089H78.1121C74.8971 29.6089 72.2671 26.9789 72.2671 23.7639C72.2671 23.7349 72.2691 23.7059 72.2691 23.6759H72.2591C72.2121 20.5009 69.6021 17.9189 66.4161 17.9189H24.8731C21.6581 17.9189 19.0281 20.5489 19.0281 23.7639C19.0281 26.9789 21.6581 29.6089 24.8731 29.6089H47.4381C47.3071 29.6089 47.1781 29.6149 47.0491 29.6239C50.0841 29.8259 52.5051 32.3709 52.5051 35.4539C52.5051 38.5379 50.0841 41.0819 47.0491 41.2839C47.1781 41.2929 47.3071 41.2989 47.4381 41.2989H35.9821C32.7671 41.2989 30.1371 43.9289 30.1371 47.1439C30.1371 50.3589 32.7671 52.9889 35.9821 52.9889H82.9381C86.1221 52.9889 88.7321 50.4079 88.7811 47.2339H88.7831C88.7831 47.2209 88.7821 47.2069 88.7821 47.1939C88.7821 47.1769 88.7831 47.1609 88.7831 47.1439C88.7831 47.1279 88.7821 47.1119 88.7821 47.0959C88.8091 43.9039 91.4281 41.3009 94.6261 41.3009H94.0471L94.0731 41.2979H98.9151C102.13 41.2979 104.76 38.6679 104.76 35.4529C104.759 32.2389 102.129 29.6089 98.9141 29.6089Z" fill="#D8E8EF"/>
<path d="M165.684 52.3H148.058C144.876 52.261 142.285 49.648 142.285 46.457C142.285 46.428 142.287 46.399 142.287 46.369H142.282C142.236 43.194 139.625 40.61 136.439 40.61H96.3169C93.1019 40.61 90.4719 43.24 90.4719 46.455H100.473C100.473 49.67 93.1019 52.3 96.3169 52.3H101.775L101.799 52.303H101.269C104.454 52.303 107.064 54.885 107.112 58.059C107.112 58.088 107.11 58.116 107.11 58.145H117.111C117.111 58.175 117.113 58.204 117.113 58.233C117.113 58.234 107.112 58.234 107.112 58.235H117.113C117.162 61.408 109.77 63.99 112.955 63.99H165.684C168.899 63.99 171.529 61.36 171.529 58.145C171.529 54.93 168.899 52.3 165.684 52.3Z" fill="#D8E8EF"/>
<path d="M79.0321 106.607H71.1741V138.703H79.0321V106.607Z" fill="#C3D2DB"/>
<path d="M75.1031 126.48C77.9584 126.48 80.2731 124.165 80.2731 121.31C80.2731 118.455 77.9584 116.14 75.1031 116.14C72.2478 116.14 69.9331 118.455 69.9331 121.31C69.9331 124.165 72.2478 126.48 75.1031 126.48Z" fill="#9DAEBC"/>
<path d="M75.1031 125.239C77.273 125.239 79.0321 123.48 79.0321 121.31C79.0321 119.14 77.273 117.381 75.1031 117.381C72.9331 117.381 71.1741 119.14 71.1741 121.31C71.1741 123.48 72.9331 125.239 75.1031 125.239Z" fill="#DDE6EB"/>
<path d="M75.1031 124.261C76.7329 124.261 78.0541 122.94 78.0541 121.31C78.0541 119.68 76.7329 118.359 75.1031 118.359C73.4733 118.359 72.1521 119.68 72.1521 121.31C72.1521 122.94 73.4733 124.261 75.1031 124.261Z" fill="#8C9FAF"/>
<path d="M71.9731 138.51H78.2331C79.4931 138.51 80.5231 139.541 80.5231 140.8C80.5231 142.06 79.4921 143.09 78.2331 143.09H71.9731C70.7131 143.09 69.6831 142.059 69.6831 140.8C69.6831 139.54 70.7141 138.51 71.9731 138.51Z" fill="#8C9FAF"/>
<path d="M105.884 48.183H73.889C73.676 48.183 73.502 48.009 73.502 47.796V46.552C73.502 46.339 73.676 46.165 73.889 46.165H105.884C106.097 46.165 106.271 46.339 106.271 46.552V47.796C106.271 48.009 106.097 48.183 105.884 48.183Z" fill="#C3D2DB"/>
<path fill-rule="evenodd" clip-rule="evenodd" d="M108.001 37.8L110.243 36.789V27.181H108.001V37.8Z" fill="#C3D2DB"/>
<path fill-rule="evenodd" clip-rule="evenodd" d="M71.7349 37.8L69.4929 36.789V27.181H71.7349V37.8Z" fill="#C3D2DB"/>
<path d="M105.601 46.383H74.0179C72.4339 46.383 71.1379 45.087 71.1379 43.503V25.473C71.1379 23.889 72.4339 22.593 74.0179 22.593H105.601C107.185 22.593 108.481 23.889 108.481 25.473V43.504C108.481 45.087 107.185 46.383 105.601 46.383Z" fill="#C3D2DB"/>
<path d="M99.0619 24.895C98.9779 24.895 98.8909 24.896 98.8019 24.896C98.7159 24.897 98.6279 24.897 98.5379 24.897H81.1679C81.0789 24.897 80.9909 24.896 80.9039 24.896C80.8159 24.895 80.7289 24.895 80.6439 24.895C80.0349 24.895 78.1799 24.895 78.1799 26.883V32.765C78.1799 34.412 79.5199 35.752 81.1669 35.752H98.5379C100.185 35.752 101.525 34.412 101.525 32.765V26.883C101.526 24.895 99.6719 24.895 99.0619 24.895Z" fill="#6F98C1"/>
<path d="M98.2241 34.75H81.4831C80.2181 34.75 79.1831 33.715 79.1831 32.45V27.039C79.1831 26.41 79.6931 25.899 80.3231 25.899H98.2251C99.4951 25.899 100.525 26.929 100.525 28.199V32.449C100.525 33.715 99.4891 34.75 98.2241 34.75Z" fill="#9EC5DD"/>
<path opacity="0.6" d="M94.4309 25.9H93.6699V34.751H94.4309V25.9Z" fill="white"/>
<path opacity="0.6" d="M97.1191 25.9H95.1851V34.751H97.1191V25.9Z" fill="white"/>
<path d="M110.741 21.69C110.741 10.347 101.46 1.06604 90.1169 1.06604C78.7739 1.06604 69.4929 10.347 69.4929 21.69V27.182H110.741V21.69Z" fill="#627689"/>
<path fill-rule="evenodd" clip-rule="evenodd" d="M69.4929 27.181C69.4929 27.181 77.0809 21.878 95.9389 20.934C116.834 19.887 117.598 27.181 117.598 27.181H69.4929Z" fill="#849AAD"/>
<path fill-rule="evenodd" clip-rule="evenodd" d="M70.4199 27.181C70.4199 27.181 78.6639 22.926 95.4819 22.128C116.523 21.13 117.18 27.181 117.18 27.181H70.4199Z" fill="#627689"/>
<path opacity="0.1" d="M90.0239 31.821C107.944 31.866 110.243 28.875 110.243 28.875V27.182H69.4929C69.4999 27.208 70.7399 31.773 90.0239 31.821Z" fill="black"/>
<path d="M94.6121 14.742L96.3941 9.849H90.8501C88.2771 9.849 85.7041 11.218 85.7041 13.959C85.7041 16.7 89.2671 17.286 91.0481 15.329C91.0481 15.916 91.4441 16.308 92.6321 16.308H96.9591L97.5291 14.742H94.6121ZM91.0481 14.741C90.0581 14.741 89.4641 14.545 89.4641 13.958C89.4641 13.566 90.3071 11.805 90.5051 11.218H92.4341L91.0481 14.741Z" fill="#C1D4E0"/>
<path d="M75.1029 140.263C68.7229 140.263 63.3619 144.625 61.8389 150.528H88.3669C86.8439 144.625 81.4829 140.263 75.1029 140.263Z" fill="#C3D2DB"/>
<path d="M87.8259 152H62.3799C61.7379 152 61.2129 151.475 61.2129 150.833V150.784C61.2129 150.142 61.7379 149.617 62.3799 149.617H87.8269C88.4689 149.617 88.9939 150.142 88.9939 150.784V150.833C88.9939 151.475 88.4679 152 87.8259 152Z" fill="#8C9FAF"/>
<path d="M108.623 106.607H100.765V138.703H108.623V106.607Z" fill="#C3D2DB"/>
<path d="M104.694 126.48C107.549 126.48 109.864 124.165 109.864 121.31C109.864 118.455 107.549 116.14 104.694 116.14C101.839 116.14 99.5239 118.455 99.5239 121.31C99.5239 124.165 101.839 126.48 104.694 126.48Z" fill="#9DAEBC"/>
<path d="M104.694 125.239C106.864 125.239 108.623 123.48 108.623 121.31C108.623 119.14 106.864 117.381 104.694 117.381C102.524 117.381 100.765 119.14 100.765 121.31C100.765 123.48 102.524 125.239 104.694 125.239Z" fill="#DDE6EB"/>
<path d="M104.694 124.261C106.324 124.261 107.645 122.94 107.645 121.31C107.645 119.68 106.324 118.359 104.694 118.359C103.064 118.359 101.743 119.68 101.743 121.31C101.743 122.94 103.064 124.261 104.694 124.261Z" fill="#8C9FAF"/>
<path d="M101.564 138.51H107.824C109.084 138.51 110.114 139.541 110.114 140.8C110.114 142.06 109.083 143.09 107.824 143.09H101.564C100.304 143.09 99.2739 142.059 99.2739 140.8C99.2739 139.54 100.305 138.51 101.564 138.51Z" fill="#8C9FAF"/>
<path d="M104.694 140.263C98.3139 140.263 92.9529 144.625 91.4299 150.528H117.958C116.435 144.625 111.074 140.263 104.694 140.263Z" fill="#C3D2DB"/>
<path d="M94.166 39.136C94.166 39.835 93.597 40.403 92.899 40.403H86.607C85.908 40.403 85.34 39.835 85.34 39.136V38.963H83.406V39.136C83.406 40.901 84.842 42.337 86.607 42.337H92.899C94.665 42.337 96.101 40.901 96.101 39.136V38.963H94.166V39.136Z" fill="#8C9FAF"/>
<path d="M117.418 152H91.971C91.329 152 90.804 151.475 90.804 150.833V150.784C90.804 150.142 91.329 149.617 91.971 149.617H117.418C118.06 149.617 118.585 150.142 118.585 150.784V150.833C118.585 151.475 118.06 152 117.418 152Z" fill="#8C9FAF"/>
<path opacity="0.6" d="M74.013 46.383H105.596C106.464 46.383 107.236 45.986 107.765 45.374H71.845C72.373 45.986 73.145 46.383 74.013 46.383Z" fill="#8C9FAF"/>
<path d="M105.901 50.206H73.908C73.695 50.206 73.521 50.032 73.521 49.819V48.57C73.521 48.357 73.695 48.183 73.908 48.183H105.902C106.115 48.183 106.289 48.357 106.289 48.57V49.818C106.289 50.031 106.114 50.206 105.901 50.206Z" fill="#8C9FAF"/>
<path d="M105.849 54.839H73.96C73.718 54.839 73.52 54.641 73.52 54.399V52.668C73.52 52.426 73.718 52.228 73.96 52.228H105.848C106.09 52.228 106.288 52.426 106.288 52.668V54.399C106.289 54.641 106.091 54.839 105.849 54.839Z" fill="#8C9FAF"/>
<path d="M105.901 52.2281H73.908C73.695 52.2281 73.521 52.0541 73.521 51.8411V50.5931C73.521 50.3801 73.695 50.2061 73.908 50.2061H105.902C106.115 50.2061 106.289 50.3801 106.289 50.5931V51.8411C106.289 52.0541 106.114 52.2281 105.901 52.2281Z" fill="#C3D2DB"/>
<path d="M111.918 103.994H67.915C64.645 103.994 61.969 101.318 61.969 98.048V60.197C61.969 56.927 64.645 54.251 67.915 54.251H111.918C115.189 54.251 117.864 56.927 117.864 60.197V98.048C117.865 101.318 115.189 103.994 111.918 103.994Z" fill="#C3D2DB"/>
<path d="M117.865 61.3781H61.969V61.8631H117.865V61.3781Z" fill="#8C9FAF"/>
<path d="M117.865 64.8H61.969V65.285H117.865V64.8Z" fill="#F8FDFF"/>
<path d="M60.9601 75.832H61.9691V63.08H60.9601C59.8681 63.08 58.9751 63.975 58.9751 65.07V73.842C58.9741 74.937 59.8681 75.832 60.9601 75.832Z" fill="#8C9FAF"/>
<path d="M64.0871 94.7681L66.8381 90.7601L51.9291 80.5391L49.1841 84.5381L64.0871 94.7681Z" fill="#C3D2DB"/>
<path d="M49.7799 83.294L55.3969 81.752C55.9899 81.589 56.6079 81.941 56.7709 82.534C56.9339 83.127 56.5819 83.745 55.9889 83.908L50.3719 85.45C49.7789 85.613 49.1609 85.261 48.9979 84.668C48.8359 84.075 49.1879 83.456 49.7799 83.294Z" fill="#8C9FAF"/>
<path d="M49.6689 79.9871L55.4509 79.2831C56.0609 79.2091 56.6209 79.6471 56.6959 80.2571C56.7699 80.8671 56.3319 81.4271 55.7219 81.5021L49.9399 82.2061C49.3299 82.2801 48.7699 81.8421 48.6949 81.2321C48.6209 80.6211 49.0589 80.0611 49.6689 79.9871Z" fill="#8C9FAF"/>
<path d="M67.6804 94.7687L66.333 93.8286L65.5056 95.0145L66.853 95.9546L67.6804 94.7687Z" fill="#009FE3"/>
<path d="M96.8471 62.277H82.9871V102.527H96.8471V62.277Z" fill="white"/>
<path d="M126.193 100.864L92.993 49.686C92.249 48.54 91.143 47.879 89.956 47.861L90.266 47.896L90.083 47.854C90.077 47.853 89.971 47.853 89.918 47.853H89.917H89.888H89.725C89.717 47.854 89.529 47.899 89.529 47.899L89.844 47.863C88.659 47.884 87.555 48.544 86.813 49.687L53.613 100.865C52.123 103.081 51.661 105.232 52.328 106.896C52.69 107.798 53.546 108.968 55.576 109.416C55.635 109.438 55.885 109.485 56.197 109.521L56.293 109.531H56.389H89.888C89.918 109.531 123.418 109.531 123.418 109.531H123.514L123.61 109.521C123.922 109.485 124.173 109.438 124.354 109.383C126.261 108.968 127.118 107.798 127.479 106.895C128.144 105.231 127.683 103.08 126.193 100.864ZM89.902 51.185L89.917 51.183L89.906 51.187C89.906 51.187 89.904 51.188 89.902 51.188L89.898 51.187L89.887 51.183L89.902 51.185ZM89.902 101.393C88.028 101.393 86.508 99.873 86.508 97.998C86.508 96.124 88.028 94.604 89.902 94.604C91.776 94.604 93.296 96.124 93.296 97.998C93.296 99.873 91.777 101.393 89.902 101.393ZM93.542 78.079C92.095 84.823 90.155 91.318 90.155 91.318C90.134 91.452 90.033 91.552 89.899 91.566V91.577C89.894 91.577 89.891 91.572 89.886 91.572C89.881 91.572 89.878 91.577 89.872 91.577V91.566C89.738 91.552 89.637 91.451 89.616 91.318C89.616 91.318 87.676 84.823 86.229 78.079C85.352 73.871 84.648 64.534 89.872 64.451V64.447C89.877 64.447 89.881 64.448 89.886 64.448C89.891 64.448 89.894 64.447 89.899 64.447V64.451C95.123 64.535 94.42 73.872 93.542 78.079Z" fill="#F3AE22"/>
<path d="M69.2279 90.257L68.7179 89.901C68.9169 90.04 68.5779 89.65 68.7169 89.451C68.8559 89.252 69.1979 89.205 68.9989 89.067L64.7589 86.064C64.5599 85.925 64.2839 85.974 64.1449 86.173C64.0059 86.372 64.0559 86.648 64.2539 86.786L64.3769 86.872C64.3759 86.872 64.3759 86.872 64.3749 86.872L63.6869 87.859L63.3729 87.64C63.2689 87.568 63.1249 87.593 63.0529 87.697L62.6259 88.308C62.5539 88.412 62.5789 88.555 62.6829 88.628L62.9969 88.847L62.3079 89.835L61.9939 89.616C61.8899 89.544 61.7459 89.569 61.6739 89.673L61.2469 90.284C61.1749 90.388 61.1999 90.532 61.3039 90.604L61.6179 90.823L60.9289 91.811L60.6149 91.592C60.5109 91.52 60.3679 91.545 60.2949 91.649L59.8679 92.26C59.7959 92.364 59.8209 92.508 59.9249 92.58L60.2399 92.8L59.5509 93.788L59.2369 93.569C59.1329 93.497 58.9899 93.522 58.9169 93.626L58.4899 94.237C58.4179 94.341 58.4429 94.484 58.5469 94.557L58.8609 94.776C58.8609 94.776 57.7359 94.522 57.5969 94.721C57.4579 94.92 56.8169 95.924 56.8169 95.924L62.0089 99.517C62.2079 99.656 62.4839 99.607 62.6219 99.408C62.7599 99.209 62.7119 98.933 62.5129 98.795L63.0229 99.151C63.6159 99.564 64.4389 99.418 64.8519 98.825L69.5539 92.087C69.9669 91.493 69.8199 90.67 69.2279 90.257Z" fill="#D38718"/>
<path d="M62.475 97.0491L57.624 93.6641L63.828 84.7731C63.829 84.7731 63.829 84.7731 63.83 84.7731L68.68 88.1571C69.273 88.5701 69.419 89.3941 69.006 89.9861L64.304 96.7241C63.89 97.3161 63.067 97.4631 62.475 97.0491Z" fill="#C3D2DB"/>
<path d="M63.5979 84.073C63.4589 84.272 63.5079 84.548 63.7069 84.686L68.1699 87.8C68.3689 87.939 68.6449 87.89 68.7829 87.691C68.9219 87.492 68.8729 87.216 68.6739 87.078L64.2109 83.964C64.0129 83.826 63.7369 83.875 63.5979 84.073Z" fill="#9DAEBC"/>
<path d="M56.8889 93.688C56.7499 93.887 56.7989 94.163 56.9979 94.301L61.4609 97.415C61.6599 97.554 61.9359 97.505 62.0739 97.306C62.2129 97.107 62.1639 96.831 61.9649 96.693L57.5019 93.579C57.3029 93.441 57.0269 93.49 56.8889 93.688Z" fill="#9DAEBC"/>
<path d="M62.5059 85.5981L62.0789 86.2091C62.0069 86.3131 62.0319 86.4571 62.1359 86.5291L67.4889 90.2641C67.5929 90.3361 67.7369 90.3111 67.8089 90.2071L68.2359 89.5961C68.3079 89.4921 68.2829 89.3481 68.1789 89.2761L62.8259 85.5411C62.7219 85.4691 62.5779 85.4941 62.5059 85.5981Z" fill="#8C9FAF"/>
<path d="M61.127 87.574L60.7 88.185C60.628 88.289 60.653 88.433 60.757 88.505L66.11 92.24C66.214 92.312 66.358 92.287 66.43 92.183L66.857 91.572C66.929 91.468 66.904 91.324 66.8 91.252L61.447 87.517C61.343 87.445 61.199 87.47 61.127 87.574Z" fill="#8C9FAF"/>
<path d="M59.7478 89.5501L59.3208 90.1611C59.2488 90.2651 59.2738 90.4091 59.3778 90.4811L64.7308 94.2161C64.8348 94.2881 64.9788 94.2631 65.0508 94.1591L65.4778 93.5481C65.5498 93.4441 65.5248 93.3001 65.4208 93.2281L60.0678 89.4931C59.9638 89.4211 59.8198 89.4461 59.7478 89.5501Z" fill="#8C9FAF"/>
<path d="M58.3689 91.526L57.9419 92.137C57.8699 92.241 57.8949 92.385 57.9989 92.457L63.3519 96.192C63.4559 96.264 63.5999 96.239 63.6719 96.135L64.0989 95.524C64.1709 95.42 64.1459 95.276 64.0419 95.204L58.6889 91.469C58.5849 91.397 58.4409 91.422 58.3689 91.526Z" fill="#8C9FAF"/>
<path opacity="0.5" d="M64.933 87.0069L63.9448 86.3174L63.2553 87.3056L64.2435 87.9951L64.933 87.0069Z" fill="#F8FDFF"/>
<path opacity="0.5" d="M63.5544 88.983L62.5662 88.2935L61.8767 89.2817L62.8649 89.9712L63.5544 88.983Z" fill="#F8FDFF"/>
<path opacity="0.5" d="M62.1755 90.9589L61.1873 90.2694L60.4978 91.2576L61.486 91.9471L62.1755 90.9589Z" fill="#F8FDFF"/>
<path opacity="0.5" d="M60.7966 92.935L59.8083 92.2455L59.1188 93.2337L60.1071 93.9232L60.7966 92.935Z" fill="#F8FDFF"/>
<path d="M130.646 83.872C130.664 73.525 124.843 65.77 117.295 63.08V73.567C121.287 76.524 124.193 78.849 125.302 84.518H130.646V83.872Z" fill="#C3D2DB"/>
<path d="M118.871 75.832H117.862V63.08H118.871C119.963 63.08 120.856 63.975 120.856 65.07V73.842C120.857 74.937 119.963 75.832 118.871 75.832Z" fill="#8C9FAF"/>
<path d="M115.744 94.7681L112.993 90.7601L127.902 80.5391L130.647 84.5381L115.744 94.7681Z" fill="#C3D2DB"/>
<path d="M130.051 83.294L124.434 81.752C123.841 81.589 123.223 81.941 123.06 82.534C122.897 83.127 123.249 83.745 123.842 83.908L129.459 85.45C130.052 85.613 130.67 85.261 130.833 84.668C130.995 84.075 130.643 83.456 130.051 83.294Z" fill="#8C9FAF"/>
<path d="M130.162 79.9871L124.38 79.2831C123.77 79.2091 123.21 79.6471 123.135 80.2571C123.061 80.8671 123.499 81.4271 124.109 81.5021L129.891 82.2061C130.501 82.2801 131.061 81.8421 131.136 81.2321C131.21 80.6211 130.772 80.0611 130.162 79.9871Z" fill="#8C9FAF"/>
<path d="M110.603 90.257L111.113 89.901C110.914 90.04 111.253 89.65 111.114 89.451C110.975 89.252 110.633 89.205 110.832 89.067L115.072 86.064C115.271 85.925 115.547 85.974 115.686 86.173C115.825 86.372 115.775 86.648 115.577 86.786L115.454 86.872C115.455 86.872 115.455 86.872 115.456 86.872L116.144 87.859L116.458 87.64C116.562 87.568 116.706 87.593 116.778 87.697L117.205 88.308C117.277 88.412 117.252 88.555 117.148 88.628L116.834 88.847L117.523 89.835L117.837 89.616C117.941 89.544 118.085 89.569 118.157 89.673L118.584 90.284C118.656 90.388 118.631 90.532 118.527 90.604L118.213 90.823L118.902 91.811L119.216 91.592C119.32 91.52 119.463 91.545 119.536 91.649L119.963 92.26C120.035 92.364 120.01 92.508 119.906 92.58L119.592 92.799L120.281 93.787L120.595 93.568C120.699 93.496 120.842 93.521 120.915 93.625L121.342 94.236C121.414 94.34 121.389 94.483 121.285 94.556L120.971 94.775C120.971 94.775 122.096 94.521 122.235 94.72C122.374 94.919 123.015 95.923 123.015 95.923L117.823 99.516C117.624 99.655 117.348 99.606 117.21 99.407C117.072 99.208 117.12 98.932 117.319 98.794L116.809 99.15C116.216 99.563 115.393 99.417 114.98 98.824L110.278 92.086C109.864 91.493 110.011 90.67 110.603 90.257Z" fill="#D38718"/>
<path d="M117.356 97.0491L122.207 93.6641L116.003 84.7731C116.002 84.7731 116.002 84.7731 116.001 84.7731L111.151 88.1571C110.558 88.5701 110.412 89.3941 110.825 89.9861L115.527 96.7241C115.941 97.3161 116.764 97.4631 117.356 97.0491Z" fill="#C3D2DB"/>
<path d="M116.233 84.073C116.372 84.272 116.323 84.548 116.124 84.686L111.661 87.8C111.462 87.939 111.186 87.89 111.048 87.691C110.909 87.492 110.958 87.216 111.157 87.078L115.62 83.964C115.818 83.826 116.095 83.875 116.233 84.073Z" fill="#9DAEBC"/>
<path d="M122.942 93.688C123.081 93.887 123.032 94.163 122.833 94.301L118.37 97.415C118.171 97.554 117.895 97.505 117.757 97.306C117.618 97.107 117.667 96.831 117.866 96.693L122.329 93.579C122.528 93.441 122.804 93.49 122.942 93.688Z" fill="#9DAEBC"/>
<path d="M117.325 85.5981L117.752 86.2091C117.824 86.3131 117.799 86.4571 117.695 86.5291L112.342 90.2641C112.238 90.3361 112.094 90.3111 112.022 90.2071L111.595 89.5961C111.523 89.4921 111.548 89.3481 111.652 89.2761L117.005 85.5411C117.109 85.4691 117.253 85.4941 117.325 85.5981Z" fill="#8C9FAF"/>
<path d="M118.704 87.574L119.131 88.185C119.203 88.289 119.178 88.433 119.074 88.505L113.721 92.24C113.617 92.312 113.473 92.287 113.401 92.183L112.974 91.572C112.902 91.468 112.927 91.324 113.031 91.252L118.384 87.517C118.488 87.445 118.632 87.47 118.704 87.574Z" fill="#8C9FAF"/>
<path d="M120.083 89.5501L120.51 90.1611C120.582 90.2651 120.557 90.4091 120.453 90.4811L115.1 94.2161C114.996 94.2881 114.852 94.2631 114.78 94.1591L114.353 93.5481C114.281 93.4441 114.306 93.3001 114.41 93.2281L119.763 89.4931C119.867 89.4211 120.011 89.4461 120.083 89.5501Z" fill="#8C9FAF"/>
<path d="M121.462 91.526L121.889 92.137C121.961 92.241 121.936 92.385 121.832 92.457L116.479 96.192C116.375 96.264 116.231 96.239 116.159 96.135L115.732 95.524C115.66 95.42 115.685 95.276 115.789 95.204L121.142 91.469C121.246 91.397 121.39 91.422 121.462 91.526Z" fill="#8C9FAF"/>
<path opacity="0.5" d="M115.594 87.9893L116.583 87.2998L115.893 86.3116L114.905 87.0011L115.594 87.9893Z" fill="#F8FDFF"/>
<path opacity="0.5" d="M116.973 89.9655L117.961 89.276L117.272 88.2878L116.284 88.9773L116.973 89.9655Z" fill="#F8FDFF"/>
<path opacity="0.5" d="M118.352 91.9416L119.34 91.2521L118.651 90.2639L117.663 90.9534L118.352 91.9416Z" fill="#F8FDFF"/>
<path opacity="0.5" d="M119.731 93.9178L120.719 93.2283L120.03 92.24L119.042 92.9296L119.731 93.9178Z" fill="#F8FDFF"/>
</svg>
