<svg width="180" height="169" viewBox="0 0 180 169" fill="none" xmlns="http://www.w3.org/2000/svg">
<g clip-path="url(#clip0)">
<path d="M144.764 101.119H103.138C99.923 101.119 97.293 98.489 97.293 95.274C97.293 92.059 99.923 89.429 103.138 89.429H144.764C147.979 89.429 150.609 92.059 150.609 95.274C150.609 98.489 147.978 101.119 144.764 101.119Z" fill="#D8E8EF"/>
<path d="M24.426 87.377H7.095C3.88 87.377 1.25 84.747 1.25 81.532C1.25 78.317 3.88 75.687 7.095 75.687H24.425C27.64 75.687 30.27 78.317 30.27 81.532C30.271 84.746 27.641 87.377 24.426 87.377Z" fill="#D8E8EF"/>
<path d="M58.1859 115.121H35.9849C32.7699 115.121 30.1399 112.491 30.1399 109.276C30.1399 106.061 32.7699 103.431 35.9849 103.431H58.1859C61.4009 103.431 64.0309 106.061 64.0309 109.276C64.0309 112.491 61.4009 115.121 58.1859 115.121Z" fill="#D8E8EF"/>
<path d="M140.363 45.0259H131.089C127.874 45.0259 125.244 42.3959 125.244 39.1809C125.244 35.9659 127.874 33.3359 131.089 33.3359H140.363C143.578 33.3359 146.208 35.9659 146.208 39.1809C146.208 42.3959 143.577 45.0259 140.363 45.0259Z" fill="#D8E8EF"/>
<path d="M98.9141 45.6089H78.1121C74.8971 45.6089 72.2671 42.9789 72.2671 39.7639C72.2671 39.7349 72.2691 39.7059 72.2691 39.6759H72.2591C72.2121 36.5009 69.6021 33.9189 66.4161 33.9189H24.8731C21.6581 33.9189 19.0281 36.5489 19.0281 39.7639C19.0281 42.9789 21.6581 45.6089 24.8731 45.6089H47.4381C47.3071 45.6089 47.1781 45.6149 47.0491 45.6239C50.0841 45.8259 52.5051 48.3709 52.5051 51.4539C52.5051 54.5379 50.0841 57.0819 47.0491 57.2839C47.1781 57.2929 47.3071 57.2989 47.4381 57.2989H35.9821C32.7671 57.2989 30.1371 59.9289 30.1371 63.1439C30.1371 66.3589 32.7671 68.9889 35.9821 68.9889H82.9381C86.1221 68.9889 88.7321 66.4079 88.7811 63.2339H88.7831C88.7831 63.2209 88.7821 63.2069 88.7821 63.1939C88.7821 63.1769 88.7831 63.1609 88.7831 63.1439C88.7831 63.1279 88.7821 63.1119 88.7821 63.0959C88.8091 59.9039 91.4281 57.3009 94.6261 57.3009H94.0471L94.0731 57.2979H98.9151C102.13 57.2979 104.76 54.6679 104.76 51.4529C104.759 48.2389 102.129 45.6089 98.9141 45.6089Z" fill="#D8E8EF"/>
<path d="M165.684 68.3001H148.058C144.876 68.2611 142.285 65.6481 142.285 62.4571C142.285 62.4281 142.287 62.3991 142.287 62.3691H142.282C142.236 59.1941 139.625 56.6101 136.439 56.6101H86.3159C83.1009 56.6101 80.4709 59.2401 80.4709 62.4551C80.4709 65.6701 83.1009 68.3001 86.3159 68.3001H91.7739L91.7979 68.3031H91.2679C94.4529 68.3031 97.0629 70.8851 97.1109 74.0591C97.1109 74.0881 97.1089 74.1161 97.1089 74.1451C97.1089 74.1751 97.1109 74.2041 97.1109 74.2331C97.1109 74.2341 97.1109 74.2341 97.1109 74.2351C97.1599 77.4081 99.7689 79.9901 102.954 79.9901H165.684C168.899 79.9901 171.529 77.3601 171.529 74.1451C171.529 70.9301 168.899 68.3001 165.684 68.3001Z" fill="#D8E8EF"/>
<path fill-rule="evenodd" clip-rule="evenodd" d="M47.055 37.9609L47.775 44.2919L47.701 46.3389L45.521 42.5539L44.635 36.9789L45.444 33.0449L48.072 29.2949L51.337 29.4229L51.233 31.2259L48.897 31.2139L47.494 33.3359L47.055 37.9609Z" fill="#C3D2DB"/>
<path d="M49.044 71.341C49.026 81.664 54.847 89.402 62.395 92.086V81.623C58.403 78.672 55.497 76.353 54.388 70.697H49.044V71.341Z" fill="#C3D2DB"/>
<path d="M78.9 122.634H71.042V154.73H78.9V122.634Z" fill="#C3D2DB"/>
<path d="M74.971 142.507C77.8263 142.507 80.141 140.192 80.141 137.337C80.141 134.482 77.8263 132.167 74.971 132.167C72.1157 132.167 69.801 134.482 69.801 137.337C69.801 140.192 72.1157 142.507 74.971 142.507Z" fill="#9DAEBC"/>
<path d="M74.971 141.266C77.1409 141.266 78.9 139.507 78.9 137.337C78.9 135.167 77.1409 133.408 74.971 133.408C72.8011 133.408 71.042 135.167 71.042 137.337C71.042 139.507 72.8011 141.266 74.971 141.266Z" fill="#DDE6EB"/>
<path d="M74.971 140.288C76.6008 140.288 77.922 138.967 77.922 137.337C77.922 135.707 76.6008 134.386 74.971 134.386C73.3412 134.386 72.02 135.707 72.02 137.337C72.02 138.967 73.3412 140.288 74.971 140.288Z" fill="#8C9FAF"/>
<path d="M79.888 122.634H70.054C68.432 122.634 67.105 121.307 67.105 119.685V118.936C67.105 117.314 68.432 115.987 70.054 115.987H79.888C81.51 115.987 82.837 117.314 82.837 118.936V119.685C82.837 121.307 81.51 122.634 79.888 122.634Z" fill="#8C9FAF"/>
<path d="M71.841 154.537H78.101C79.361 154.537 80.391 155.568 80.391 156.827C80.391 158.087 79.36 159.117 78.101 159.117H71.841C70.581 159.117 69.551 158.086 69.551 156.827C69.551 155.567 70.582 154.537 71.841 154.537Z" fill="#8C9FAF"/>
<path d="M109.479 122.634H99.645C98.023 122.634 96.696 121.307 96.696 119.685V118.936C96.696 117.314 98.023 115.987 99.645 115.987H109.479C111.101 115.987 112.428 117.314 112.428 118.936V119.685C112.428 121.307 111.101 122.634 109.479 122.634Z" fill="#8C9FAF"/>
<path d="M105.752 66.228H73.7571C73.5441 66.228 73.3701 66.054 73.3701 65.841V64.597C73.3701 64.384 73.5441 64.21 73.7571 64.21H105.752C105.965 64.21 106.139 64.384 106.139 64.597V65.841C106.139 66.054 105.965 66.228 105.752 66.228Z" fill="#8C9FAF"/>
<path d="M105.752 64.2099H73.7571C73.5441 64.2099 73.3701 64.0359 73.3701 63.8229V62.5789C73.3701 62.3659 73.5441 62.1919 73.7571 62.1919H105.752C105.965 62.1919 106.139 62.3659 106.139 62.5789V63.8229C106.139 64.0359 105.965 64.2099 105.752 64.2099Z" fill="#C3D2DB"/>
<path d="M105.699 70.8511H73.8101C73.5681 70.8511 73.3701 70.6531 73.3701 70.4111V68.6851C73.3701 68.4431 73.5681 68.2451 73.8101 68.2451H105.699C105.941 68.2451 106.139 68.4431 106.139 68.6851V70.4111C106.139 70.6531 105.941 70.8511 105.699 70.8511Z" fill="#8C9FAF"/>
<path d="M105.752 68.246H73.7571C73.5441 68.246 73.3701 68.072 73.3701 67.859V66.615C73.3701 66.402 73.5441 66.228 73.7571 66.228H105.752C105.965 66.228 106.139 66.402 106.139 66.615V67.859C106.139 68.072 105.965 68.246 105.752 68.246Z" fill="#C3D2DB"/>
<path fill-rule="evenodd" clip-rule="evenodd" d="M107.869 53.827L110.111 52.816V43.208H107.869V53.827Z" fill="#C3D2DB"/>
<path fill-rule="evenodd" clip-rule="evenodd" d="M71.6041 53.827L69.3621 52.816V43.208H71.6041V53.827Z" fill="#C3D2DB"/>
<path d="M105.469 62.4101H73.8861C72.3021 62.4101 71.0061 61.1141 71.0061 59.5301V41.5001C71.0061 39.9161 72.3021 38.6201 73.8861 38.6201H105.469C107.053 38.6201 108.349 39.9161 108.349 41.5001V59.5301C108.349 61.1141 107.053 62.4101 105.469 62.4101Z" fill="#C3D2DB"/>
<path d="M98.9311 40.9221C98.8471 40.9221 98.7601 40.9231 98.6711 40.9231C98.5851 40.9241 98.4971 40.9241 98.4071 40.9241H81.0371C80.9481 40.9241 80.8601 40.9231 80.7731 40.9231C80.6851 40.9221 80.5981 40.9221 80.5131 40.9221C79.9041 40.9221 78.0491 40.9221 78.0491 42.9101V48.7921C78.0491 50.4391 79.3891 51.7791 81.0361 51.7791H98.4071C100.054 51.7791 101.394 50.4391 101.394 48.7921V42.9101C101.395 40.9221 99.5401 40.9221 98.9311 40.9221Z" fill="#6F98C1"/>
<path d="M98.092 50.777H81.352C80.087 50.777 79.052 49.742 79.052 48.477V43.066C79.052 42.437 79.562 41.926 80.192 41.926H98.094C99.364 41.926 100.394 42.956 100.394 44.226V48.476C100.393 49.742 99.358 50.777 98.092 50.777Z" fill="#9EC5DD"/>
<path opacity="0.6" d="M94.2991 41.927H93.5381V50.778H94.2991V41.927Z" fill="white"/>
<path opacity="0.6" d="M96.987 41.927H95.053V50.778H96.987V41.927Z" fill="white"/>
<path d="M111.775 119.894H67.7581C64.4911 119.894 61.8181 117.221 61.8181 113.954V76.2039C61.8181 72.9369 64.4911 70.2639 67.7581 70.2639H111.775C115.042 70.2639 117.715 72.9369 117.715 76.2039V113.954C117.715 117.221 115.042 119.894 111.775 119.894Z" fill="#C3D2DB"/>
<path d="M117.715 110.447H61.8191V110.931H117.715V110.447Z" fill="#8C9FAF"/>
<path d="M117.715 113.861H61.8191V114.345H117.715V113.861Z" fill="#F8FDFF"/>
<path d="M117.715 77.375H61.8191V77.859H117.715V77.375Z" fill="#8C9FAF"/>
<path d="M104.61 91.9231V90.5531C103.582 89.5881 102.203 88.9951 100.682 88.9951C98.0911 88.9951 95.9011 90.7091 95.1821 93.0651H84.3521C83.6331 90.7091 81.4431 88.9951 78.8521 88.9951C77.3311 88.9951 75.9511 89.5881 74.9241 90.5531V91.9231H78.8061L80.7061 94.7461L78.8061 97.5691H74.9241V98.9391C75.9521 99.9041 77.3311 100.497 78.8521 100.497C81.4431 100.497 83.6331 98.7831 84.3521 96.4271H95.1821C95.9011 98.7831 98.0911 100.497 100.682 100.497C102.203 100.497 103.583 99.9041 104.61 98.9391V97.5691H100.728L98.8281 94.7461L100.728 91.9231H104.61Z" fill="#8C9FAF"/>
<path d="M74.971 156.29C68.591 156.29 63.23 160.652 61.707 166.555H88.235C86.712 160.652 81.351 156.29 74.971 156.29Z" fill="#C3D2DB"/>
<path d="M87.6951 168.027H62.2481C61.6061 168.027 61.0811 167.502 61.0811 166.86V166.811C61.0811 166.169 61.6061 165.644 62.2481 165.644H87.6951C88.3371 165.644 88.8621 166.169 88.8621 166.811V166.86C88.8621 167.502 88.3371 168.027 87.6951 168.027Z" fill="#8C9FAF"/>
<path d="M108.492 122.634H100.634V154.73H108.492V122.634Z" fill="#C3D2DB"/>
<path d="M104.563 142.507C107.418 142.507 109.733 140.192 109.733 137.337C109.733 134.482 107.418 132.167 104.563 132.167C101.708 132.167 99.3931 134.482 99.3931 137.337C99.3931 140.192 101.708 142.507 104.563 142.507Z" fill="#9DAEBC"/>
<path d="M104.563 141.266C106.733 141.266 108.492 139.507 108.492 137.337C108.492 135.167 106.733 133.408 104.563 133.408C102.393 133.408 100.634 135.167 100.634 137.337C100.634 139.507 102.393 141.266 104.563 141.266Z" fill="#DDE6EB"/>
<path d="M104.563 140.288C106.193 140.288 107.514 138.967 107.514 137.337C107.514 135.707 106.193 134.386 104.563 134.386C102.933 134.386 101.612 135.707 101.612 137.337C101.612 138.967 102.933 140.288 104.563 140.288Z" fill="#8C9FAF"/>
<path d="M101.433 154.537H107.693C108.953 154.537 109.983 155.568 109.983 156.827C109.983 158.087 108.952 159.117 107.693 159.117H101.433C100.173 159.117 99.1431 158.086 99.1431 156.827C99.1431 155.567 100.173 154.537 101.433 154.537Z" fill="#8C9FAF"/>
<path d="M104.563 156.29C98.1831 156.29 92.8221 160.652 91.2991 166.555H117.827C116.303 160.652 110.942 156.29 104.563 156.29Z" fill="#C3D2DB"/>
<path d="M94.0349 55.163C94.0349 55.862 93.4659 56.43 92.7679 56.43H86.4759C85.7769 56.43 85.2089 55.862 85.2089 55.163V54.99H83.2749V55.163C83.2749 56.928 84.7109 58.364 86.4759 58.364H92.7679C94.5339 58.364 95.9699 56.928 95.9699 55.163V54.99H94.0349V55.163Z" fill="#8C9FAF"/>
<path d="M125.641 124.305H130.503L130.492 108.315H125.641V124.305Z" fill="#C3D2DB"/>
<path d="M130.486 99.818C130.504 89.495 124.683 81.757 117.135 79.073V89.537C121.127 92.488 124.033 94.807 125.142 100.463H130.486V99.818Z" fill="#C3D2DB"/>
<path fill-rule="evenodd" clip-rule="evenodd" d="M128.277 132.849L130.256 132.893L130.269 137.623L127.944 141.569L124.678 141.697L124.64 139.891L126.97 139.719L128.202 137.495L128.277 132.849Z" fill="#C3D2DB"/>
<path fill-rule="evenodd" clip-rule="evenodd" d="M129.028 132.907L128.889 137.455L129.6 137.59L129.462 138.116L128.676 137.983L127.636 139.91L127.879 140.839L127.287 141.038L126.973 140.26L125.187 140.41L124.656 141.686L124.64 139.891L126.97 139.719L128.181 137.535L128.256 132.889L129.028 132.907Z" fill="#8C9FAF"/>
<path fill-rule="evenodd" clip-rule="evenodd" d="M126.142 129.954L124.357 129.097L122.202 133.308L122.487 137.879L125.341 139.473L126.192 137.88L124.193 136.671L124.103 134.13L126.142 129.954Z" fill="#C3D2DB"/>
<path fill-rule="evenodd" clip-rule="evenodd" d="M125.446 129.666L123.509 133.783L122.814 133.582L122.699 134.113L123.459 134.35L123.513 136.539L122.876 137.257L123.313 137.703L123.945 137.152L125.47 138.094L125.365 139.473L126.192 137.926L124.193 136.717L124.103 134.176L126.142 130L125.446 129.666Z" fill="#8C9FAF"/>
<path fill-rule="evenodd" clip-rule="evenodd" d="M129.837 133.417L131.816 133.461L131.829 138.192L129.504 142.137L126.238 142.265L126.2 140.46L128.53 140.288L129.762 138.063L129.837 133.417Z" fill="#C3D2DB"/>
<path fill-rule="evenodd" clip-rule="evenodd" d="M130.588 133.475L130.449 138.023L131.16 138.158L131.022 138.684L130.236 138.551L129.196 140.478L129.439 141.407L128.847 141.606L128.533 140.828L126.747 140.978L126.216 142.254L126.2 140.46L128.53 140.288L129.741 138.104L129.816 133.458L130.588 133.475Z" fill="#8C9FAF"/>
<path d="M131.033 107.197H125.208C124.593 107.197 124.09 107.7 124.09 108.315C124.09 108.93 124.593 109.433 125.208 109.433H131.033C131.648 109.433 132.151 108.93 132.151 108.315C132.151 107.7 131.648 107.197 131.033 107.197Z" fill="#8C9FAF"/>
<path d="M131.033 104.362H125.208C124.593 104.362 124.09 104.865 124.09 105.48C124.09 106.095 124.593 106.598 125.208 106.598H131.033C131.648 106.598 132.151 106.095 132.151 105.48C132.151 104.865 131.648 104.362 131.033 104.362Z" fill="#8C9FAF"/>
<path d="M131.033 101.526H125.208C124.593 101.526 124.09 102.029 124.09 102.644C124.09 103.259 124.593 103.762 125.208 103.762H131.033C131.648 103.762 132.151 103.259 132.151 102.644C132.151 102.029 131.648 101.526 131.033 101.526Z" fill="#8C9FAF"/>
<path d="M131.033 98.6931H125.208C124.593 98.6931 124.09 99.1961 124.09 99.8111C124.09 100.426 124.593 100.929 125.208 100.929H131.033C131.648 100.929 132.151 100.426 132.151 99.8111C132.151 99.1961 131.648 98.6931 131.033 98.6931Z" fill="#8C9FAF"/>
<path opacity="0.6" d="M130.503 122.712H125.641V117.674C125.641 117.674 126.291 118.715 127.52 119.318C128.702 119.898 130.503 119.914 130.503 119.914V122.712Z" fill="#8C9FAF"/>
<path d="M130.056 135.108H125.959C124.99 135.108 124.197 134.315 124.197 133.346V124.224C124.197 123.255 124.99 122.462 125.959 122.462H130.056C131.025 122.462 131.818 123.255 131.818 124.224V133.346C131.818 134.315 131.025 135.108 130.056 135.108Z" fill="#C3D2DB"/>
<path d="M118.724 79.073H117.715V91.796H118.724C119.816 91.796 120.709 90.903 120.709 89.811V81.059C120.709 79.966 119.816 79.073 118.724 79.073Z" fill="#8C9FAF"/>
<path opacity="0.7" d="M131.829 124.82H124.197V125.304H131.829V124.82Z" fill="#8C9FAF"/>
<path opacity="0.7" d="M131.824 132.266H124.192V132.75H131.824V132.266Z" fill="#F8FDFF"/>
<path d="M130.737 133.417C132.171 133.417 133.333 132.255 133.333 130.821C133.333 129.387 132.171 128.225 130.737 128.225C129.303 128.225 128.141 129.387 128.141 130.821C128.141 132.255 129.303 133.417 130.737 133.417Z" fill="#9DAEBC"/>
<path d="M130.737 132.805C131.833 132.805 132.721 131.917 132.721 130.821C132.721 129.725 131.833 128.837 130.737 128.837C129.641 128.837 128.753 129.725 128.753 130.821C128.753 131.917 129.641 132.805 130.737 132.805Z" fill="#DDE6EB"/>
<path d="M130.737 132.311C131.56 132.311 132.227 131.644 132.227 130.821C132.227 129.998 131.56 129.331 130.737 129.331C129.914 129.331 129.247 129.998 129.247 130.821C129.247 131.644 129.914 132.311 130.737 132.311Z" fill="#8C9FAF"/>
<path d="M53.8881 46.854H49.0261L49.0381 62.844H53.8881V46.854Z" fill="#C3D2DB"/>
<path d="M48.4959 63.9621H54.3209C54.9359 63.9621 55.4389 63.4591 55.4389 62.8441C55.4389 62.2291 54.9359 61.7261 54.3209 61.7261H48.4959C47.8809 61.7261 47.3779 62.2291 47.3779 62.8441C47.3779 63.4591 47.8809 63.9621 48.4959 63.9621Z" fill="#8C9FAF"/>
<path d="M48.4959 66.797H54.3209C54.9359 66.797 55.4389 66.294 55.4389 65.679C55.4389 65.064 54.9359 64.561 54.3209 64.561H48.4959C47.8809 64.561 47.3779 65.064 47.3779 65.679C47.3779 66.294 47.8809 66.797 48.4959 66.797Z" fill="#8C9FAF"/>
<path d="M48.4959 69.633H54.3209C54.9359 69.633 55.4389 69.13 55.4389 68.515C55.4389 67.9 54.9359 67.397 54.3209 67.397H48.4959C47.8809 67.397 47.3779 67.9 47.3779 68.515C47.3779 69.13 47.8809 69.633 48.4959 69.633Z" fill="#8C9FAF"/>
<path d="M48.4959 72.466H54.3209C54.9359 72.466 55.4389 71.963 55.4389 71.348C55.4389 70.733 54.9359 70.23 54.3209 70.23H48.4959C47.8809 70.23 47.3779 70.733 47.3779 71.348C47.3779 71.963 47.8809 72.466 48.4959 72.466Z" fill="#8C9FAF"/>
<path opacity="0.6" d="M49.0261 48.447H53.8881V53.485C53.8881 53.485 53.2381 52.444 52.0091 51.841C50.8271 51.261 49.0261 51.245 49.0261 51.245V48.447Z" fill="#8C9FAF"/>
<path d="M49.4729 36.051H53.5699C54.5389 36.051 55.3319 36.844 55.3319 37.813V46.935C55.3319 47.904 54.5389 48.697 53.5699 48.697H49.4729C48.5039 48.697 47.7109 47.904 47.7109 46.935V37.813C47.7109 36.844 48.5039 36.051 49.4729 36.051Z" fill="#C3D2DB"/>
<path d="M60.81 91.796H61.819V79.073H60.81C59.718 79.073 58.825 79.966 58.825 81.058V89.81C58.824 90.903 59.718 91.796 60.81 91.796Z" fill="#8C9FAF"/>
<path opacity="0.7" d="M47.7 46.3386H55.332V45.8546H47.7V46.3386Z" fill="#8C9FAF"/>
<path opacity="0.7" d="M47.7054 38.8936H55.3374V38.4096H47.7054V38.8936Z" fill="#F8FDFF"/>
<path d="M48.793 42.9349C50.2268 42.9349 51.389 41.7727 51.389 40.3389C51.389 38.9052 50.2268 37.7429 48.793 37.7429C47.3593 37.7429 46.197 38.9052 46.197 40.3389C46.197 41.7727 47.3593 42.9349 48.793 42.9349Z" fill="#9DAEBC"/>
<path d="M48.7931 42.323C49.8888 42.323 50.7771 41.4347 50.7771 40.339C50.7771 39.2432 49.8888 38.355 48.7931 38.355C47.6974 38.355 46.8091 39.2432 46.8091 40.339C46.8091 41.4347 47.6974 42.323 48.7931 42.323Z" fill="#DDE6EB"/>
<path d="M48.793 41.8291C49.6159 41.8291 50.283 41.162 50.283 40.3391C50.283 39.5162 49.6159 38.8491 48.793 38.8491C47.9701 38.8491 47.303 39.5162 47.303 40.3391C47.303 41.162 47.9701 41.8291 48.793 41.8291Z" fill="#8C9FAF"/>
<path d="M117.286 168.027H91.8391C91.1971 168.027 90.6721 167.502 90.6721 166.86V166.811C90.6721 166.169 91.1971 165.644 91.8391 165.644H117.286C117.928 165.644 118.453 166.169 118.453 166.811V166.86C118.453 167.502 117.928 168.027 117.286 168.027Z" fill="#8C9FAF"/>
<path d="M117.715 80.7891H61.8191V81.2731H117.715V80.7891Z" fill="#F8FDFF"/>
<path opacity="0.58" d="M104.476 44.6001C105.429 43.7151 107.604 43.6541 107.604 43.6541C104.256 41.8131 96.745 41.5251 96.745 41.5251C97.402 42.0221 97.12 42.7001 97.12 42.7001C95.072 40.8761 88.358 39.6331 88.358 39.6331C89.964 40.9811 89.613 41.8151 89.613 41.8151C87.402 39.4331 84.375 38.7621 84.375 38.7621C86.483 39.3991 86.715 40.9401 86.715 40.9401C86.715 40.9401 81.992 39.2931 77.572 39.5721C73.152 39.8521 71.207 41.0751 71.207 41.0751C70.149 38.8251 72.39 35.9281 72.39 35.9281C71.833 34.9521 71.238 36.6311 71.238 36.6311C71.686 34.3231 74.082 30.1691 74.867 28.8511C74.714 28.8771 74.562 28.9071 74.41 28.9381C74.281 28.9641 74.153 28.9911 74.025 29.0201C73.268 29.1921 72.522 29.4171 71.806 29.7111C71.806 29.7111 70.674 30.1991 70.655 32.0951C70.655 32.0951 71.022 31.1001 71.805 30.8501C71.805 30.8501 68.463 36.2771 67.925 39.0461C67.925 39.0461 68.52 37.3681 69.077 38.3431C69.077 38.3431 68.897 38.7581 68.711 39.3991H69.362V44.4831C69.729 43.7521 70.895 42.2001 74.258 41.9871C78.678 41.7071 83.401 43.3551 83.401 43.3551C83.401 43.3551 83.17 41.8141 81.061 41.1771C81.061 41.1771 84.088 41.8481 86.299 44.2301C86.299 44.2301 86.65 43.3961 85.045 42.0481C85.045 42.0481 91.759 43.2901 93.807 45.1151C93.807 45.1151 94.089 44.4371 93.432 43.9401C93.432 43.9401 100.943 44.2291 104.291 46.0691C104.291 46.0691 102.116 46.1311 101.163 47.0161C101.163 47.0161 107.279 47.3661 110.111 50.0671V45.9601H110.636C107.764 44.7941 104.476 44.6001 104.476 44.6001Z" fill="#7EA0B7"/>
<path d="M123.108 38.431L122.145 35.158C122.145 35.158 119.387 21.585 111.021 14.179C102.655 6.77299 83.7969 11.179 78.4179 17.295C73.0389 23.411 71.8049 29.374 71.8049 29.374C71.8049 29.374 93.9989 27.434 104.784 34.907L113.829 39.399C113.829 39.399 115.075 30.35 109.787 24.908C109.787 24.908 116.436 31.612 120.652 39.815C123.921 46.182 123.108 38.431 123.108 38.431Z" fill="#E03F3F"/>
<path opacity="0.27" d="M114.493 36.2479C114.459 36.0949 112.636 32.0109 102.969 29.4189C102.969 29.4189 104.359 30.6339 104.456 31.2539C104.456 31.2539 93.19 25.4099 87.762 26.0479C87.762 26.0479 88.835 26.7319 88.783 27.5849C88.783 27.5849 86.486 25.5279 84.402 25.7079C84.402 25.7079 86.162 26.6009 86.25 27.5429C86.25 27.5429 74.403 24.5109 69.751 29.3849L77.939 33.9859L97.609 34.5279L112.176 37.3599L114.493 36.2479Z" fill="#CE2E2E"/>
<path d="M108.217 36.613L113.544 39.258C113.652 39.2 113.757 39.141 113.862 39.082C114.02 37.486 114.491 29.872 109.873 25.01C107.346 22.439 103.824 19.838 99.2781 18.696C99.2781 18.696 108.703 29.3 108.217 36.613Z" fill="url(#paint0_linear)"/>
<path d="M87.586 14.188C95.797 13.816 97.437 11.854 94.967 10.495C88.796 11.158 82.776 13.438 79.498 16.242C81.478 15.18 84.109 14.345 87.586 14.188Z" fill="url(#paint1_linear)"/>
<path d="M129.077 39.1549C129.077 39.1549 130.276 40.7729 130.365 40.9939C130.454 41.2149 131.232 42.9259 130.644 45.3389C130.644 45.3389 130.594 44.7489 130.169 45.3639C129.744 45.9789 130.282 46.7809 130.282 46.7809C130.282 46.7809 129.453 47.9259 128.596 48.0349C128.596 48.0349 127.631 49.2899 126.799 49.5139C126.799 49.5139 126.863 48.8989 125.539 49.4319C124.215 49.9649 122.992 50.2349 122.127 49.9449C122.127 49.9449 122.73 49.4109 121.19 49.1499C119.65 48.8889 117.993 47.0119 117.574 46.3829C117.574 46.3829 118.104 46.7869 118.52 46.8549C118.52 46.8549 116.707 44.4509 117.296 42.0379C117.296 42.0379 117.354 43.3869 117.82 43.6849C117.82 43.6849 117.131 41.4729 117.654 40.3959C118.177 39.3189 118.371 40.1969 119.102 39.1549C119.833 38.1119 120.633 36.6539 123.048 36.1599C123.048 36.1599 122.606 37.0589 123.684 36.8609C124.762 36.6629 127.184 36.9289 128.092 37.4099C128.09 37.4099 128.076 38.6149 129.077 39.1549Z" fill="white"/>
<path d="M104.476 43.1261C105.429 42.2411 107.604 42.1801 107.604 42.1801C104.256 40.3391 96.7451 40.0511 96.7451 40.0511C97.4021 40.5481 97.1201 41.2261 97.1201 41.2261C95.0721 39.4021 88.3581 38.1591 88.3581 38.1591C89.9641 39.5071 89.6131 40.3411 89.6131 40.3411C87.4021 37.9591 84.3751 37.2881 84.3751 37.2881C86.4831 37.9251 86.7151 39.4661 86.7151 39.4661C86.7151 39.4661 81.9921 37.8191 77.5721 38.0981C73.1521 38.3781 71.2071 39.6011 71.2071 39.6011C70.1491 37.3511 72.3901 34.4541 72.3901 34.4541C71.8331 33.4781 71.2381 35.1571 71.2381 35.1571C71.6861 32.8491 74.0821 28.6951 74.8671 27.3771C80.3241 26.4311 86.0841 28.0921 86.0841 28.0921C85.7421 27.1371 83.8381 26.6291 83.8381 26.6291C86.7761 26.5321 88.6151 28.2821 88.6151 28.2821C87.8971 27.2911 86.8961 26.9781 86.8961 26.9781C96.0331 26.7181 104.739 32.0571 104.739 32.0571C104.236 31.0871 102.916 30.1461 102.916 30.1461C102.916 30.1461 112.882 31.9721 114.199 36.3301C115.515 40.6871 114.045 45.2641 114.045 45.2641C114.087 43.6951 113.338 43.0271 113.338 43.0271C113.313 44.0241 113.117 44.9151 112.843 45.6911C109.834 43.4331 104.476 43.1261 104.476 43.1261Z" fill="white"/>
<path d="M69.0761 36.867C68.5191 35.891 67.9241 37.57 67.9241 37.57C68.4611 34.801 71.8041 29.374 71.8041 29.374C71.0211 29.624 70.6541 30.619 70.6541 30.619C70.6741 28.723 71.8051 28.235 71.8051 28.235C72.5211 27.941 73.2671 27.716 74.0241 27.544C74.1521 27.515 74.2801 27.488 74.4091 27.462C74.5611 27.431 74.7131 27.401 74.8661 27.375C74.0811 28.694 71.6851 32.847 71.2371 35.155C71.2371 35.155 71.8321 33.477 72.3891 34.452C72.3891 34.452 70.1481 37.349 71.2061 39.599C71.2061 39.599 73.1511 38.376 77.5711 38.096C81.9911 37.816 86.7141 39.464 86.7141 39.464C86.7141 39.464 86.4831 37.923 84.3741 37.286C84.3741 37.286 87.4011 37.957 89.6121 40.339C89.6121 40.339 89.9631 39.505 88.3571 38.157C88.3571 38.157 95.0711 39.399 97.1191 41.224C97.1191 41.224 97.4011 40.546 96.7441 40.049C96.7441 40.049 104.255 40.338 107.603 42.178C107.603 42.178 105.428 42.24 104.475 43.124C104.475 43.124 109.833 43.431 112.842 45.686C112.06 47.9 110.631 49.161 110.631 49.161C108.121 45.937 101.163 45.538 101.163 45.538C102.116 44.653 104.291 44.591 104.291 44.591C100.943 42.75 93.4321 42.462 93.4321 42.462C94.0891 42.959 93.8071 43.637 93.8071 43.637C91.7591 41.813 85.0451 40.57 85.0451 40.57C86.6511 41.918 86.3001 42.752 86.3001 42.752C84.0891 40.37 81.0621 39.699 81.0621 39.699C83.1701 40.336 83.4021 41.877 83.4021 41.877C83.4021 41.877 78.6791 40.23 74.2591 40.509C69.8391 40.789 69.2091 43.386 69.2091 43.386C67.2651 41.032 69.0761 36.867 69.0761 36.867Z" fill="#E2E2E2"/>
<path d="M118.519 46.8559C118.519 46.8559 116.706 44.4519 117.295 42.0389C117.295 42.0389 117.353 43.3879 117.819 43.6859C117.819 43.6859 117.13 41.4739 117.653 40.3969C118.176 39.3199 118.37 40.1979 119.101 39.1559C119.787 38.1769 120.534 36.8319 122.621 36.2629C121.547 36.8579 121.036 37.7309 120.561 38.4089C119.909 39.3389 119.736 38.5559 119.269 39.5159C118.802 40.4769 119.417 42.4489 119.417 42.4489C119.001 42.1839 118.95 40.9799 118.95 40.9799C118.425 43.1329 120.042 45.2769 120.042 45.2769C119.671 45.2159 119.199 44.8559 119.199 44.8559C119.573 45.4169 121.051 47.0909 122.424 47.3239C123.797 47.5569 123.259 48.0329 123.259 48.0329C124.031 48.2909 125.121 48.0499 126.302 47.5749C127.483 47.0999 127.426 47.6479 127.426 47.6479C128.168 47.4479 129.028 46.3289 129.028 46.3289C129.387 46.2829 129.739 46.0339 130.013 45.7829C129.953 46.2909 130.28 46.7829 130.28 46.7829C130.28 46.7829 129.451 47.9279 128.594 48.0369C128.594 48.0369 127.629 49.2919 126.797 49.5159C126.797 49.5159 126.861 48.9009 125.537 49.4339C124.213 49.9669 122.99 50.2369 122.125 49.9469C122.125 49.9469 122.728 49.4129 121.188 49.1519C119.648 48.8909 117.991 47.0139 117.572 46.3849C117.573 46.3839 118.103 46.7879 118.519 46.8559Z" fill="#F2F2F2"/>
<path d="M96.311 22.787L98.694 18.157L93.195 17.46C90.642 17.136 87.917 18.171 87.573 20.89C87.228 23.609 90.689 24.639 92.703 22.921C92.629 23.503 92.973 23.942 94.151 24.091L98.443 24.635L99.205 23.153L96.311 22.787ZM92.776 22.339C91.794 22.215 91.23 21.946 91.303 21.363C91.352 20.974 92.41 19.333 92.68 18.775L94.593 19.017L92.776 22.339Z" fill="white"/>
<path opacity="0.36" d="M71.006 74.3481C71.219 75.5081 73.37 80.1551 73.37 80.1551C73.37 80.1551 73.63 74.3741 73.81 76.8891C73.99 79.4041 76.24 88.0321 76.24 87.4291C76.24 86.8271 76.615 79.9041 77.24 81.2791C77.865 82.6541 82.837 93.9041 82.837 93.9041V83.8971L87.549 101.118L91.24 88.2811L92.834 93.0311L96.49 84.8261L98.49 88.4091L103.49 77.1591C103.49 77.1591 104.386 84.4221 104.563 83.4141C104.683 82.7321 106.786 79.4481 108.43 70.2651H70.374C70.551 71.6361 70.76 73.0111 71.006 74.3481Z" fill="#7EA0B7"/>
<path d="M107.869 54.406C106.755 56.047 102.618 60.424 97.1511 61.37C91.9471 62.492 87.4891 62.242 80.8291 60.941C75.3551 59.311 72.7151 56.162 71.6031 54.523C70.4891 52.881 69.3611 50.752 69.3611 50.752V51.789C69.3611 51.789 69.3611 62.41 71.0061 71.348C71.2191 72.508 73.3701 77.155 73.3701 77.155C73.3701 77.155 73.6301 71.374 73.8101 73.889C73.9901 76.404 76.2401 85.032 76.2401 84.429C76.2401 83.827 76.6151 76.904 77.2401 78.279C77.8651 79.654 82.8371 90.904 82.8371 90.904V80.897L87.5491 98.118L91.2401 85.28L92.8341 90.03L96.4901 81.825L98.4901 85.408L103.49 74.158C103.49 74.158 104.386 81.421 104.563 80.413C104.735 79.434 108.991 73.116 110.112 51.671C110.126 51.412 110.112 50.634 110.112 50.634C110.112 50.634 108.983 52.764 107.869 54.406Z" fill="white"/>
<path opacity="0.53" d="M103.302 71.348C102.912 71.923 102.09 73.779 99.6251 78.337C98.3231 80.745 98.7661 74.47 97.2401 77.054C96.2841 78.672 95.6431 80.885 94.6771 82.367C93.6941 83.874 91.6081 80.917 90.6771 82.117C88.8481 84.476 88.8021 87.555 87.4901 86.18C86.6151 84.93 85.0411 78.563 83.2751 77.055C82.2151 76.15 80.3701 79.588 79.5531 78.243C78.5991 76.671 77.5221 73.305 76.4911 73.462C75.5531 77.743 73.7691 72.048 72.6581 70.41C71.5441 68.768 69.8201 61.637 69.8201 61.637C69.8201 61.637 69.6911 63.202 71.0081 71.349C71.1961 72.513 73.3721 77.156 73.3721 77.156C73.3721 77.156 73.6321 71.375 73.8121 73.89C73.9921 76.405 76.2421 85.033 76.2421 84.43C76.2421 83.828 76.6171 76.905 77.2421 78.28C77.8671 79.655 82.8391 90.905 82.8391 90.905V80.897L87.5511 98.118L91.2401 85.28L92.8341 90.03L96.4901 81.825L98.4901 85.408L103.49 74.158C103.49 74.158 104.141 81.346 104.563 80.413C107.872 73.091 108.991 63.751 108.991 63.751C108.991 63.751 107.633 68.075 105.865 71.283C105.079 72.708 103.724 70.726 103.302 71.348Z" fill="#E2E2E2"/>
<path opacity="0.28" d="M81.2401 62.95C87.9001 64.25 91.7841 64.323 96.9881 63.201C102.455 62.256 106.14 58.2 107.657 56.677C108.784 55.545 109.793 53.972 110.112 53.384C110.159 52.665 110.073 52.428 110.112 51.672C110.126 51.413 110.112 50.635 110.112 50.635C110.112 50.635 108.984 52.764 107.87 54.406C106.756 56.047 102.619 60.424 97.1521 61.37C91.9481 62.492 87.4901 62.242 80.8301 60.941C75.3561 59.311 72.7161 56.162 71.6041 54.523C70.4901 52.881 69.3621 50.752 69.3621 50.752V51.789C69.3621 51.789 69.3621 52.543 69.3931 53.811C69.5471 54.098 70.6311 55.957 71.8651 57.311C73.3701 58.965 76.4061 61.283 81.2401 62.95Z" fill="#C3D2DB"/>
<path d="M75.906 63.575C76.239 64.742 76.823 69.439 77.239 69.549C77.656 69.659 78.776 69.3159 78.049 67.2369C77.323 65.1579 75.906 63.575 75.906 63.575Z" fill="#E2E2E2"/>
<path d="M88.2399 76.4079C88.2399 76.4079 88.3049 72.527 88.4599 71.668C88.6119 70.825 88.5779 69.797 87.4049 69.833C87.1899 69.839 86.7299 70.041 86.6619 70.507C86.5359 71.367 88.2399 76.4079 88.2399 76.4079Z" fill="#E2E2E2"/>
<path d="M98.7571 72.1921C99.6411 71.2961 101.4 65.8331 101.4 65.8331C101.4 65.8331 99.4841 65.6071 99.2651 67.8811C99.1661 68.9111 98.7571 72.1921 98.7571 72.1921Z" fill="#E2E2E2"/>
<path d="M48.3309 45.3669C47.2099 45.0889 46.5199 43.9439 46.7979 42.8229L51.2899 24.7159C51.4339 24.1379 52.0239 23.7819 52.6029 23.9249L54.5769 24.4149C55.1549 24.5589 55.5109 25.1489 55.3679 25.7279L50.8759 43.8349C50.5969 44.9559 49.4519 45.6449 48.3309 45.3669Z" fill="#848484"/>
<path d="M47.9139 45.264C47.6849 45.207 47.5439 44.973 47.5999 44.744L52.6519 24.381C52.7089 24.152 52.9429 24.011 53.1719 24.067C53.4009 24.124 53.5419 24.358 53.4859 24.587L48.4339 44.95C48.3769 45.179 48.1429 45.321 47.9139 45.264Z" fill="#999999"/>
<path d="M48.6061 11.141C44.6731 24.095 52.9781 25.8461 52.9781 25.8461C52.9781 25.8461 61.1001 28.312 63.8931 15.066C63.8931 15.066 68.2501 12.828 68.4791 10.635L57.5981 7.84005L46.7211 5.05005C45.8601 7.07705 48.6061 11.141 48.6061 11.141Z" fill="#FFD44A"/>
<path d="M68.4815 10.6356C68.7606 9.54857 64.116 7.41673 58.1076 5.87398C52.0991 4.33123 47.002 3.96177 46.7229 5.04877C46.4438 6.13578 51.0884 8.26761 57.0968 9.81037C63.1053 11.3531 68.2024 11.7226 68.4815 10.6356Z" fill="#FDDF4F"/>
<path d="M47.546 5.26097C47.757 4.43097 52.43 4.91997 57.984 6.33897C63.537 7.76597 67.868 9.59497 67.65 10.423C67.442 11.249 62.766 10.766 57.214 9.33997C51.658 7.91297 47.334 6.08697 47.546 5.26097Z" fill="#CE9229"/>
<path opacity="0.5" d="M54.8711 24.5761C54.8711 24.5761 58.6021 22.4241 59.7231 16.4451C59.7231 16.4451 61.1001 15.9201 61.5821 16.7211C62.0561 17.5171 57.9861 25.5731 54.8711 24.5761Z" fill="white"/>
<path opacity="0.5" d="M60.3192 15.308C60.3192 15.308 61.3102 15.716 61.6292 15.577C61.8632 15.482 62.1162 15.091 61.3252 14.891C60.5352 14.686 59.5422 15.035 60.3192 15.308Z" fill="white"/>
<path d="M60.5606 8.75798C60.9636 7.19129 60.0154 5.59336 58.4428 5.18889C56.8703 4.78442 55.2688 5.72658 54.8658 7.29327C54.4629 8.85995 55.4111 10.4579 56.9836 10.8624C58.5562 11.2668 60.1577 10.3247 60.5606 8.75798Z" fill="#F9AE02"/>
<path opacity="0.4" d="M56.9841 10.8641C56.9981 10.8661 57.0151 10.8701 57.0271 10.8721C55.9781 10.3641 55.3931 9.17307 55.6951 8.00207C56.0371 6.66707 57.4051 5.86007 58.7491 6.20507C59.8151 6.48107 60.5421 7.39907 60.6221 8.43707C60.8301 6.97907 59.9091 5.56707 58.4411 5.19007C56.8701 4.78707 55.2701 5.72907 54.8671 7.29507C54.4651 8.86007 55.4121 10.4561 56.9841 10.8641Z" fill="#F9AE02"/>
<path fill-rule="evenodd" clip-rule="evenodd" d="M54.3669 39.3699L55.2989 41.8289L58.3629 36.0839L58.1549 31.5089L55.3289 29.8669L54.4509 31.4439L56.4289 32.6869L56.4759 35.2299L54.3669 39.3699Z" fill="#C3D2DB"/>
<path fill-rule="evenodd" clip-rule="evenodd" d="M55.0579 39.671L57.0649 35.586L57.7559 35.8L57.8799 35.271L57.1239 35.02L57.1069 32.831L57.7559 32.124L57.3259 31.671L56.6849 32.211L55.1769 31.243L55.3049 29.866L54.4509 31.444L56.4289 32.687L56.4769 35.184L54.3679 39.325L55.0579 39.671Z" fill="#8C9FAF"/>
<path fill-rule="evenodd" clip-rule="evenodd" d="M46.3109 37.845L46.8059 33.321L46.1079 33.131L46.2869 32.617L47.0599 32.812L48.2479 30.972L48.0789 30.027L48.6839 29.875L48.9369 30.675L50.7279 30.666L51.3579 29.436L51.2329 31.226L48.8969 31.214L47.5179 33.297L47.0789 37.922L46.3109 37.845Z" fill="#8C9FAF"/>
<path fill-rule="evenodd" clip-rule="evenodd" d="M47.2179 40.335L46.3909 43.732L45.6069 35.418L48.2349 31.668L51.5009 31.797L51.3969 33.599L49.0599 33.588L47.6569 35.709L47.2179 40.335Z" fill="#C3D2DB"/>
<path fill-rule="evenodd" clip-rule="evenodd" d="M46.958 42.1759L46.363 43.8089L46.135 37.9179L48.749 34.1589L52.016 34.2749L51.918 36.0789L49.581 36.0749L48.186 38.2019L46.958 42.1759Z" fill="#C3D2DB"/>
<path fill-rule="evenodd" clip-rule="evenodd" d="M46.2761 42.5511L47.4991 38.1901L46.8001 38.0021L46.9771 37.4881L47.7501 37.6791L48.9321 35.8361L48.7591 34.8911L49.3641 34.7371L49.6191 35.5361L51.4111 35.5211L52.0361 34.2881L51.9181 36.0791L49.5811 36.0751L48.2101 38.1631L46.7371 43.2861L46.2761 42.5511Z" fill="#8C9FAF"/>
<path fill-rule="evenodd" clip-rule="evenodd" d="M45.8401 38.3551L46.9701 35.6941L46.2721 35.5041L46.4511 34.9911L47.2231 35.1851L48.4111 33.3461L48.2421 32.4011L48.8481 32.2491L49.1001 33.0481L50.8921 33.0401L51.5221 31.8091L51.3971 33.5991L49.0601 33.5881L47.6811 35.6701L46.1961 38.8931L45.8401 38.3551Z" fill="#8C9FAF"/>
</g>
<defs>
<linearGradient id="paint0_linear" x1="113.732" y1="25.8569" x2="105.851" y2="29.2279" gradientUnits="userSpaceOnUse">
<stop offset="0.0073" stop-color="#9B1F18"/>
<stop offset="0.1549" stop-color="#AA251E"/>
<stop offset="0.4873" stop-color="#C52F29"/>
<stop offset="0.7801" stop-color="#D63630"/>
<stop offset="1" stop-color="#DC3832"/>
</linearGradient>
<linearGradient id="paint1_linear" x1="82.3332" y1="24.8346" x2="90.826" y2="8.23033" gradientUnits="userSpaceOnUse">
<stop offset="0.002" stop-color="#B93832"/>
<stop offset="1" stop-color="#DC3832"/>
</linearGradient>
<clipPath id="clip0">
<rect width="180" height="168.027" fill="white"/>
</clipPath>
</defs>
</svg>
