<svg width="180" height="152" viewBox="0 0 180 152" fill="none" xmlns="http://www.w3.org/2000/svg">
<path d="M144.764 85.119H103.138C99.923 85.119 97.293 82.489 97.293 79.274C97.293 76.059 99.923 73.429 103.138 73.429H144.764C147.979 73.429 150.609 76.059 150.609 79.274C150.609 82.489 147.978 85.119 144.764 85.119Z" fill="#D8E8EF"/>
<path d="M24.426 71.377H7.095C3.88 71.377 1.25 68.747 1.25 65.532C1.25 62.317 3.88 59.687 7.095 59.687H24.425C27.64 59.687 30.27 62.317 30.27 65.532C30.271 68.746 27.641 71.377 24.426 71.377Z" fill="#D8E8EF"/>
<path d="M58.1861 99.121H35.9851C32.7701 99.121 30.1401 96.491 30.1401 93.276C30.1401 90.061 32.7701 87.431 35.9851 87.431H58.1861C61.4011 87.431 64.0311 90.061 64.0311 93.276C64.0311 96.491 61.4011 99.121 58.1861 99.121Z" fill="#D8E8EF"/>
<path d="M140.363 29.0261H131.089C127.874 29.0261 125.244 26.3961 125.244 23.1811C125.244 19.9661 127.874 17.3361 131.089 17.3361H140.363C143.578 17.3361 146.208 19.9661 146.208 23.1811C146.208 26.3961 143.577 29.0261 140.363 29.0261Z" fill="#D8E8EF"/>
<path d="M98.9141 29.6089H78.1121C74.8971 29.6089 72.2671 26.9789 72.2671 23.7639C72.2671 23.7349 72.2691 23.7059 72.2691 23.6759H72.2591C72.2121 20.5009 69.6021 17.9189 66.4161 17.9189H24.8731C21.6581 17.9189 19.0281 20.5489 19.0281 23.7639C19.0281 26.9789 21.6581 29.6089 24.8731 29.6089H47.4381C47.3071 29.6089 47.1781 29.6149 47.0491 29.6239C50.0841 29.8259 52.5051 32.3709 52.5051 35.4539C52.5051 38.5379 50.0841 41.0819 47.0491 41.2839C47.1781 41.2929 47.3071 41.2989 47.4381 41.2989H35.9821C32.7671 41.2989 30.1371 43.9289 30.1371 47.1439C30.1371 50.3589 32.7671 52.9889 35.9821 52.9889H82.9381C86.1221 52.9889 88.7321 50.4079 88.7811 47.2339H88.7831C88.7831 47.2209 88.7821 47.2069 88.7821 47.1939C88.7821 47.1769 88.7831 47.1609 88.7831 47.1439C88.7831 47.1279 88.7821 47.1119 88.7821 47.0959C88.8091 43.9039 91.4281 41.3009 94.6261 41.3009H94.0471L94.0731 41.2979H98.9151C102.13 41.2979 104.76 38.6679 104.76 35.4529C104.759 32.2389 102.129 29.6089 98.9141 29.6089Z" fill="#D8E8EF"/>
<path d="M165.684 52.3H148.058C144.876 52.261 142.285 49.648 142.285 46.457C142.285 46.428 142.287 46.399 142.287 46.369H142.282C142.236 43.194 139.625 40.61 136.439 40.61H86.3159C83.1009 40.61 80.4709 43.24 80.4709 46.455C80.4709 49.67 83.1009 52.3 86.3159 52.3H91.7739L91.7979 52.303H91.2679C94.4529 52.303 97.0629 54.885 97.1109 58.059C97.1109 58.088 97.1089 58.116 97.1089 58.145C97.1089 58.175 97.1109 58.204 97.1109 58.233C97.1109 58.234 97.1109 58.234 97.1109 58.235C97.1599 61.408 99.7689 63.99 102.954 63.99H165.684C168.899 63.99 171.529 61.36 171.529 58.145C171.529 54.93 168.899 52.3 165.684 52.3Z" fill="#D8E8EF"/>
<path d="M48.1382 5.58301H50.0152L50.4062 21.649L48.0372 21.714L47.8582 17.059L48.1382 5.58301Z" fill="#8C9FAF"/>
<path d="M48.2071 5.58301L49.7501 6.24901L49.7461 8.65701H48.6491L48.6871 9.10701L49.7291 9.38101L49.8051 11.9L48.9701 12.092L48.8711 12.385L49.7711 12.551L47.9661 15.847L48.2071 5.58301Z" fill="#C3D2DB"/>
<path fill-rule="evenodd" clip-rule="evenodd" d="M51.4059 22.323L49.4319 22.279L49.4189 17.549L51.7379 13.603L54.9969 13.475L55.0349 15.281L52.7099 15.453L51.4809 17.677L51.4059 22.323Z" fill="#C3D2DB"/>
<path fill-rule="evenodd" clip-rule="evenodd" d="M50.6569 22.265L50.7959 17.717L50.0859 17.582L50.2239 17.056L51.0079 17.189L52.0449 15.262L51.8029 14.333L52.3929 14.134L52.7069 14.912L54.4889 14.762L55.0189 13.486L55.0349 15.281L52.7099 15.453L51.5009 17.637L51.4269 22.283L50.6569 22.265Z" fill="#8C9FAF"/>
<path fill-rule="evenodd" clip-rule="evenodd" d="M53.5371 25.218L55.3171 26.075L57.4671 21.864L57.1821 17.293L54.3361 15.699L53.4861 17.292L55.4811 18.501L55.5711 21.042L53.5371 25.218Z" fill="#C3D2DB"/>
<path fill-rule="evenodd" clip-rule="evenodd" d="M54.2311 25.506L56.1631 21.389L56.8571 21.59L56.9721 21.059L56.2131 20.822L56.1591 18.633L56.7951 17.915L56.3591 17.469L55.7281 18.02L54.2071 17.078L54.3111 15.699L53.4861 17.246L55.4811 18.455L55.5711 20.996L53.5371 25.172L54.2311 25.506Z" fill="#8C9FAF"/>
<path fill-rule="evenodd" clip-rule="evenodd" d="M49.8501 21.755L47.8751 21.711L47.8621 16.98L50.1821 13.035L53.4411 12.907L53.4781 14.712L51.1531 14.884L49.9241 17.109L49.8501 21.755Z" fill="#C3D2DB"/>
<path fill-rule="evenodd" clip-rule="evenodd" d="M49.1 21.697L49.239 17.149L48.53 17.014L48.668 16.488L49.451 16.621L50.489 14.694L50.247 13.765L50.837 13.566L51.151 14.344L52.932 14.194L53.462 12.918L53.478 14.712L51.153 14.884L49.945 17.068L49.871 21.714L49.1 21.697Z" fill="#8C9FAF"/>
<path d="M125.625 108.271H130.476L130.464 92.281H125.625V108.271Z" fill="#C3D2DB"/>
<path d="M130.458 83.7839C130.476 73.4609 124.668 65.7229 117.137 63.0389V73.5029C121.12 76.4539 124.02 78.7729 125.126 84.4289H130.458V83.7839Z" fill="#C3D2DB"/>
<path fill-rule="evenodd" clip-rule="evenodd" d="M128.254 116.814L130.229 116.859L130.242 121.589L127.922 125.534L124.664 125.662L124.626 123.857L126.951 123.685L128.18 121.46L128.254 116.814Z" fill="#C3D2DB"/>
<path fill-rule="evenodd" clip-rule="evenodd" d="M129.004 116.872L128.865 121.421L129.574 121.556L129.437 122.082L128.653 121.948L127.615 123.876L127.858 124.804L127.267 125.003L126.953 124.226L125.172 124.375L124.642 125.651L124.626 123.857L126.951 123.685L128.159 121.501L128.234 116.855L129.004 116.872Z" fill="#8C9FAF"/>
<path fill-rule="evenodd" clip-rule="evenodd" d="M126.124 113.92L124.344 113.063L122.194 117.274L122.478 121.844L125.325 123.438L126.175 121.846L124.18 120.637L124.09 118.095L126.124 113.92Z" fill="#C3D2DB"/>
<path fill-rule="evenodd" clip-rule="evenodd" d="M125.43 113.631L123.497 117.749L122.804 117.547L122.689 118.078L123.448 118.316L123.501 120.505L122.865 121.223L123.302 121.668L123.933 121.118L125.454 122.06L125.349 123.438L126.175 121.892L124.18 120.683L124.09 118.141L126.124 113.966L125.43 113.631Z" fill="#8C9FAF"/>
<path fill-rule="evenodd" clip-rule="evenodd" d="M129.811 117.383L131.785 117.427L131.798 122.157L129.478 126.103L126.22 126.231L126.182 124.425L128.507 124.253L129.736 122.028L129.811 117.383Z" fill="#C3D2DB"/>
<path fill-rule="evenodd" clip-rule="evenodd" d="M130.56 117.441L130.421 121.989L131.131 122.124L130.993 122.65L130.209 122.517L129.171 124.444L129.414 125.373L128.823 125.572L128.51 124.794L126.728 124.943L126.198 126.22L126.182 124.425L128.507 124.253L129.715 122.069L129.79 117.423L130.56 117.441Z" fill="#8C9FAF"/>
<path d="M131.003 91.163H125.194C124.58 91.163 124.078 91.665 124.078 92.279V92.282C124.078 92.896 124.58 93.398 125.194 93.398H131.003C131.617 93.398 132.119 92.896 132.119 92.282V92.279C132.12 91.665 131.617 91.163 131.003 91.163Z" fill="#8C9FAF"/>
<path d="M131.003 88.328H125.194C124.58 88.328 124.078 88.83 124.078 89.444V89.447C124.078 90.061 124.58 90.563 125.194 90.563H131.003C131.617 90.563 132.119 90.061 132.119 89.447V89.444C132.12 88.83 131.617 88.328 131.003 88.328Z" fill="#8C9FAF"/>
<path d="M131.003 85.4919H125.194C124.58 85.4919 124.078 85.9939 124.078 86.6079V86.6109C124.078 87.2249 124.58 87.7269 125.194 87.7269H131.003C131.617 87.7269 132.119 87.2249 132.119 86.6109V86.6079C132.12 85.9949 131.617 85.4919 131.003 85.4919Z" fill="#8C9FAF"/>
<path d="M131.003 82.6589H125.194C124.58 82.6589 124.078 83.1609 124.078 83.7749V83.7779C124.078 84.3919 124.58 84.8939 125.194 84.8939H131.003C131.617 84.8939 132.119 84.3919 132.119 83.7779V83.7749C132.12 83.1619 131.617 82.6589 131.003 82.6589Z" fill="#8C9FAF"/>
<path opacity="0.6" d="M130.476 106.678H125.625V101.64C125.625 101.64 126.273 102.681 127.5 103.284C128.679 103.864 130.476 103.88 130.476 103.88V106.678Z" fill="#8C9FAF"/>
<path d="M130.028 119.074H125.945C124.977 119.074 124.185 118.282 124.185 117.314V108.188C124.185 107.22 124.977 106.428 125.945 106.428H130.028C130.996 106.428 131.788 107.22 131.788 108.188V117.314C131.788 118.282 130.996 119.074 130.028 119.074Z" fill="#C3D2DB"/>
<path d="M118.723 63.0389H117.716V75.7619H118.723C119.812 75.7619 120.704 74.8689 120.704 73.7769V65.0249C120.704 63.9319 119.813 63.0389 118.723 63.0389Z" fill="#8C9FAF"/>
<path opacity="0.7" d="M131.798 108.786H124.184V109.27H131.798V108.786Z" fill="#8C9FAF"/>
<path opacity="0.7" d="M131.793 116.232H124.179V116.716H131.793V116.232Z" fill="#F8FDFF"/>
<path d="M130.709 117.382C132.14 117.382 133.299 116.22 133.299 114.786C133.299 113.352 132.14 112.19 130.709 112.19C129.279 112.19 128.119 113.352 128.119 114.786C128.119 116.22 129.279 117.382 130.709 117.382Z" fill="#9DAEBC"/>
<path d="M130.709 116.77C131.802 116.77 132.688 115.882 132.688 114.786C132.688 113.69 131.802 112.802 130.709 112.802C129.616 112.802 128.73 113.69 128.73 114.786C128.73 115.882 129.616 116.77 130.709 116.77Z" fill="#DDE6EB"/>
<path d="M130.709 116.276C131.53 116.276 132.196 115.609 132.196 114.786C132.196 113.963 131.53 113.296 130.709 113.296C129.888 113.296 129.222 113.963 129.222 114.786C129.222 115.609 129.888 116.276 130.709 116.276Z" fill="#8C9FAF"/>
<path d="M49.2032 55.307C49.1852 65.63 54.9932 73.368 62.5242 76.052V65.588C58.5412 62.637 55.6412 60.318 54.5352 54.662H49.2032V55.307Z" fill="#C3D2DB"/>
<path d="M78.9911 106.6H71.1511V138.696H78.9911V106.6Z" fill="#C3D2DB"/>
<path d="M75.0711 126.473C77.9198 126.473 80.2291 124.158 80.2291 121.303C80.2291 118.448 77.9198 116.133 75.0711 116.133C72.2224 116.133 69.9131 118.448 69.9131 121.303C69.9131 124.158 72.2224 126.473 75.0711 126.473Z" fill="#9DAEBC"/>
<path d="M75.0711 125.232C77.2361 125.232 78.9911 123.473 78.9911 121.303C78.9911 119.133 77.2361 117.374 75.0711 117.374C72.9062 117.374 71.1511 119.133 71.1511 121.303C71.1511 123.473 72.9062 125.232 75.0711 125.232Z" fill="#DDE6EB"/>
<path d="M75.071 124.254C76.6969 124.254 78.015 122.933 78.015 121.303C78.015 119.673 76.6969 118.352 75.071 118.352C73.445 118.352 72.127 119.673 72.127 121.303C72.127 122.933 73.445 124.254 75.071 124.254Z" fill="#8C9FAF"/>
<path d="M79.9731 106.6H70.1681C68.5481 106.6 67.2231 105.275 67.2231 103.655V102.899C67.2231 101.279 68.5481 99.954 70.1681 99.954H79.9731C81.5931 99.954 82.9181 101.279 82.9181 102.899V103.655C82.9191 105.274 81.5931 106.6 79.9731 106.6Z" fill="#8C9FAF"/>
<path d="M71.9511 138.503H78.1911C79.4491 138.503 80.4781 139.532 80.4781 140.79V140.795C80.4781 142.053 79.4491 143.082 78.1911 143.082H71.9511C70.6931 143.082 69.6641 142.053 69.6641 140.795V140.79C69.6631 139.532 70.6931 138.503 71.9511 138.503Z" fill="#8C9FAF"/>
<path d="M109.497 106.6H99.6921C98.0721 106.6 96.7471 105.275 96.7471 103.655V102.899C96.7471 101.279 98.0721 99.954 99.6921 99.954H109.497C111.117 99.954 112.442 101.279 112.442 102.899V103.655C112.442 105.274 111.117 106.6 109.497 106.6Z" fill="#8C9FAF"/>
<path d="M105.781 50.194H73.8601C73.6471 50.194 73.4741 50.02 73.4741 49.808V48.563C73.4741 48.35 73.6481 48.177 73.8601 48.177H105.781C105.994 48.177 106.167 48.351 106.167 48.563V49.808C106.167 50.02 105.993 50.194 105.781 50.194Z" fill="#8C9FAF"/>
<path d="M105.781 48.1759H73.8601C73.6471 48.1759 73.4741 48.0019 73.4741 47.7899V46.5449C73.4741 46.3319 73.6481 46.1589 73.8601 46.1589H105.781C105.994 46.1589 106.167 46.3329 106.167 46.5449V47.7899C106.167 48.0019 105.993 48.1759 105.781 48.1759Z" fill="#C3D2DB"/>
<path d="M105.728 54.817H73.9131C73.6721 54.817 73.4741 54.619 73.4741 54.378V52.651C73.4741 52.41 73.6721 52.212 73.9131 52.212H105.728C105.969 52.212 106.167 52.41 106.167 52.651V54.378C106.167 54.619 105.97 54.817 105.728 54.817Z" fill="#8C9FAF"/>
<path d="M105.781 52.212H73.8601C73.6471 52.212 73.4741 52.038 73.4741 51.826V50.58C73.4741 50.367 73.6481 50.194 73.8601 50.194H105.781C105.994 50.194 106.167 50.368 106.167 50.58V51.825C106.167 52.038 105.993 52.212 105.781 52.212Z" fill="#C3D2DB"/>
<path fill-rule="evenodd" clip-rule="evenodd" d="M107.894 37.792L110.13 36.7809V27.174H107.894V37.792Z" fill="#C3D2DB"/>
<path fill-rule="evenodd" clip-rule="evenodd" d="M71.7111 37.792L69.4741 36.7809V27.174H71.7111V37.792Z" fill="#C3D2DB"/>
<path d="M105.496 46.376H73.992C72.41 46.376 71.115 45.081 71.115 43.499V25.462C71.115 23.88 72.41 22.585 73.992 22.585H105.496C107.078 22.585 108.373 23.88 108.373 25.462V43.499C108.372 45.082 107.078 46.376 105.496 46.376Z" fill="#C3D2DB"/>
<path d="M98.9751 24.8879C98.8911 24.8879 98.8041 24.8889 98.7161 24.8889C98.6301 24.8899 98.5421 24.8899 98.4531 24.8899H81.1221C81.0331 24.8899 80.9451 24.8889 80.8591 24.8889C80.7711 24.8879 80.6841 24.8879 80.6001 24.8879C79.9921 24.8879 78.1421 24.8879 78.1421 26.8759V32.7579C78.1421 34.4049 79.4791 35.7449 81.1221 35.7449H98.4531C100.096 35.7449 101.433 34.4049 101.433 32.7579V26.8759C101.434 24.8879 99.5831 24.8879 98.9751 24.8879Z" fill="#6F98C1"/>
<path d="M98.1361 34.743H81.4391C80.1751 34.743 79.1411 33.709 79.1411 32.445V27.03C79.1411 26.401 79.6511 25.892 80.2791 25.892H98.1361C99.4051 25.892 100.434 26.921 100.434 28.19V32.445C100.434 33.709 99.4001 34.743 98.1361 34.743Z" fill="#9EC5DD"/>
<path opacity="0.6" d="M94.354 25.892H93.595V34.743H94.354V25.892Z" fill="white"/>
<path opacity="0.6" d="M97.0372 25.892H95.1072V34.743H97.0372V25.892Z" fill="white"/>
<path d="M110.627 21.682C110.627 10.339 101.368 1.05798 90.0501 1.05798C78.7331 1.05798 69.4731 10.339 69.4731 21.682V27.174H110.626V21.682H110.627Z" fill="#627689"/>
<path fill-rule="evenodd" clip-rule="evenodd" d="M69.4741 27.174C69.4741 27.174 77.0451 21.871 95.8601 20.927C116.707 19.88 117.469 27.174 117.469 27.174H69.4741Z" fill="#849AAD"/>
<path fill-rule="evenodd" clip-rule="evenodd" d="M70.3979 27.174C70.3979 27.174 78.6229 22.919 95.4019 22.121C116.395 21.123 117.051 27.174 117.051 27.174H70.3979Z" fill="#627689"/>
<path opacity="0.1" d="M89.9571 31.8139C107.836 31.8589 110.13 28.8679 110.13 28.8679V27.1749H69.4741C69.4811 27.1999 70.7181 31.7649 89.9571 31.8139Z" fill="black"/>
<path d="M94.535 14.7339L96.312 9.84094H90.782C88.215 9.84094 85.647 11.2099 85.647 13.9509C85.647 16.6919 89.202 17.2779 90.979 15.3209C90.979 15.9079 91.374 16.2999 92.559 16.2999H96.876L97.445 14.7339H94.535ZM90.98 14.7339C89.993 14.7339 89.4 14.5379 89.4 13.9509C89.4 13.5589 90.241 11.7979 90.439 11.2109H92.363L90.98 14.7339Z" fill="#C1D4E0"/>
<path d="M111.784 103.859H67.881C64.618 103.859 61.948 101.189 61.948 97.926V60.163C61.948 56.9 64.618 54.23 67.881 54.23H111.784C115.047 54.23 117.717 56.9 117.717 60.163V97.927C117.717 101.19 115.047 103.859 111.784 103.859Z" fill="#C3D2DB"/>
<path d="M117.716 94.412H61.948V94.896H117.716V94.412Z" fill="#8C9FAF"/>
<path d="M117.716 97.827H61.948V98.311H117.716V97.827Z" fill="#F8FDFF"/>
<path d="M117.716 61.34H61.948V61.824H117.716V61.34Z" fill="#8C9FAF"/>
<path d="M117.716 64.755H61.948V65.239H117.716V64.755Z" fill="#F8FDFF"/>
<path d="M104.642 75.8889V74.5189C103.617 73.5539 102.24 72.9609 100.723 72.9609C98.1379 72.9609 95.9529 74.6749 95.2349 77.0309H84.4299C83.7129 74.6749 81.5279 72.9609 78.9419 72.9609C77.4239 72.9609 76.0479 73.5539 75.0229 74.5189V75.8889H78.896L80.7919 78.7119L78.896 81.5349H75.0229V82.9049C76.0479 83.8699 77.4249 84.4629 78.9419 84.4629C81.5269 84.4629 83.7119 82.7489 84.4299 80.3929H95.2349C95.9519 82.7489 98.1369 84.4629 100.723 84.4629C102.241 84.4629 103.617 83.8699 104.642 82.9049V81.5349H100.769L98.8729 78.7119L100.769 75.8889H104.642Z" fill="#8C9FAF"/>
<path d="M75.0712 140.256C68.7062 140.256 63.3572 144.617 61.8372 150.521H88.3042C86.7852 144.617 81.4362 140.256 75.0712 140.256Z" fill="#C3D2DB"/>
<path d="M87.7642 151.993H62.3782C61.7372 151.993 61.2122 151.468 61.2122 150.827V150.775C61.2122 150.134 61.7372 149.609 62.3782 149.609H87.7642C88.4052 149.609 88.9302 150.134 88.9302 150.775V150.827C88.9302 151.468 88.4052 151.993 87.7642 151.993Z" fill="#8C9FAF"/>
<path d="M108.514 106.6H100.674V138.696H108.514V106.6Z" fill="#C3D2DB"/>
<path d="M104.594 126.473C107.443 126.473 109.752 124.158 109.752 121.303C109.752 118.448 107.443 116.133 104.594 116.133C101.745 116.133 99.436 118.448 99.436 121.303C99.436 124.158 101.745 126.473 104.594 126.473Z" fill="#9DAEBC"/>
<path d="M104.594 125.232C106.759 125.232 108.514 123.473 108.514 121.303C108.514 119.133 106.759 117.374 104.594 117.374C102.429 117.374 100.674 119.133 100.674 121.303C100.674 123.473 102.429 125.232 104.594 125.232Z" fill="#DDE6EB"/>
<path d="M104.594 124.254C106.22 124.254 107.538 122.933 107.538 121.303C107.538 119.673 106.22 118.352 104.594 118.352C102.968 118.352 101.65 119.673 101.65 121.303C101.65 122.933 102.968 124.254 104.594 124.254Z" fill="#8C9FAF"/>
<path d="M101.474 138.503H107.714C108.972 138.503 110.001 139.532 110.001 140.79V140.795C110.001 142.053 108.972 143.082 107.714 143.082H101.474C100.216 143.082 99.187 142.053 99.187 140.795V140.79C99.187 139.532 100.216 138.503 101.474 138.503Z" fill="#8C9FAF"/>
<path d="M104.594 140.256C98.2291 140.256 92.8801 144.617 91.3601 150.521H117.827C116.308 144.617 110.959 140.256 104.594 140.256Z" fill="#C3D2DB"/>
<path d="M94.091 39.128C94.091 39.827 93.524 40.395 92.827 40.395H86.55C85.853 40.395 85.286 39.827 85.286 39.128V38.955H83.356V39.128C83.356 40.893 84.789 42.329 86.55 42.329H92.827C94.588 42.329 96.021 40.893 96.021 39.128V38.955H94.091V39.128Z" fill="#8C9FAF"/>
<path d="M54.0361 30.8199H49.1851L49.1971 46.8099H54.0361V30.8199Z" fill="#C3D2DB"/>
<path d="M48.657 47.928H54.466C55.08 47.928 55.582 47.426 55.582 46.812V46.809C55.582 46.195 55.08 45.693 54.466 45.693H48.657C48.043 45.693 47.541 46.195 47.541 46.809V46.812C47.541 47.425 48.043 47.928 48.657 47.928Z" fill="#8C9FAF"/>
<path d="M48.657 50.763H54.466C55.08 50.763 55.582 50.261 55.582 49.647V49.644C55.582 49.03 55.08 48.528 54.466 48.528H48.657C48.043 48.528 47.541 49.03 47.541 49.644V49.647C47.541 50.261 48.043 50.763 48.657 50.763Z" fill="#8C9FAF"/>
<path d="M48.657 53.599H54.466C55.08 53.599 55.582 53.097 55.582 52.483V52.48C55.582 51.866 55.08 51.364 54.466 51.364H48.657C48.043 51.364 47.541 51.866 47.541 52.48V52.483C47.541 53.096 48.043 53.599 48.657 53.599Z" fill="#8C9FAF"/>
<path d="M48.657 56.431H54.466C55.08 56.431 55.582 55.929 55.582 55.315V55.312C55.582 54.698 55.08 54.196 54.466 54.196H48.657C48.043 54.196 47.541 54.698 47.541 55.312V55.315C47.541 55.929 48.043 56.431 48.657 56.431Z" fill="#8C9FAF"/>
<path opacity="0.6" d="M49.1851 32.413H54.0361V37.451C54.0361 37.451 53.3881 36.41 52.1611 35.807C50.9821 35.227 49.1851 35.211 49.1851 35.211V32.413Z" fill="#8C9FAF"/>
<path d="M49.633 20.017H53.716C54.684 20.017 55.476 20.809 55.476 21.777V30.903C55.476 31.871 54.684 32.663 53.716 32.663H49.633C48.665 32.663 47.873 31.871 47.873 30.903V21.777C47.873 20.809 48.665 20.017 49.633 20.017Z" fill="#C3D2DB"/>
<path d="M60.9419 75.7619H61.9489V63.0389H60.9419C59.8529 63.0389 58.9609 63.9319 58.9609 65.0239V73.7759C58.9609 74.8679 59.8519 75.7619 60.9419 75.7619Z" fill="#8C9FAF"/>
<path opacity="0.7" d="M47.8623 30.3049H55.4763V29.8209H47.8623V30.3049Z" fill="#8C9FAF"/>
<path opacity="0.7" d="M47.8677 22.859H55.4817V22.375H47.8677V22.859Z" fill="#F8FDFF"/>
<path d="M48.9521 26.9C50.3825 26.9 51.5421 25.7377 51.5421 24.304C51.5421 22.8703 50.3825 21.708 48.9521 21.708C47.5216 21.708 46.3621 22.8703 46.3621 24.304C46.3621 25.7377 47.5216 26.9 48.9521 26.9Z" fill="#9DAEBC"/>
<path d="M48.9521 26.2879C50.0451 26.2879 50.9311 25.3997 50.9311 24.3039C50.9311 23.2082 50.0451 22.3199 48.9521 22.3199C47.8592 22.3199 46.9731 23.2082 46.9731 24.3039C46.9731 25.3997 47.8592 26.2879 48.9521 26.2879Z" fill="#DDE6EB"/>
<path d="M48.9521 25.794C49.7733 25.794 50.4391 25.1269 50.4391 24.304C50.4391 23.4811 49.7733 22.814 48.9521 22.814C48.1308 22.814 47.4651 23.4811 47.4651 24.304C47.4651 25.1269 48.1308 25.794 48.9521 25.794Z" fill="#8C9FAF"/>
<path d="M117.287 151.993H91.9011C91.2601 151.993 90.7351 151.468 90.7351 150.827V150.775C90.7351 150.134 91.2601 149.609 91.9011 149.609H117.287C117.928 149.609 118.453 150.134 118.453 150.775V150.827C118.453 151.468 117.929 151.993 117.287 151.993Z" fill="#8C9FAF"/>
<path opacity="0.6" d="M73.9831 46.3759H105.494C106.36 46.3759 107.13 45.9789 107.658 45.3669H71.8191C72.3471 45.9789 73.1171 46.3759 73.9831 46.3759Z" fill="#8C9FAF"/>
</svg>
