<svg width="180" height="152" viewBox="0 0 180 152" fill="none" xmlns="http://www.w3.org/2000/svg">
<g clip-path="url(#clip0)">
<path d="M130.981 74.768L119.961 74.784L117.241 64.174L122.757 64.166C125.791 64.162 128.885 66.545 129.633 69.463C130.38 72.381 130.981 74.768 130.981 74.768Z" fill="#C3D2DB"/>
<path d="M123.781 71.407H129.606C130.221 71.407 130.724 71.91 130.724 72.525C130.724 73.14 130.221 73.643 129.606 73.643H123.781C123.166 73.643 122.663 73.14 122.663 72.525C122.663 71.91 123.166 71.407 123.781 71.407Z" fill="#8C9FAF"/>
<path d="M24.426 71.377H7.095C3.88 71.377 1.25 68.747 1.25 65.532C1.25 62.317 3.88 59.687 7.095 59.687H24.425C27.64 59.687 30.27 62.317 30.27 65.532C30.271 68.746 27.641 71.377 24.426 71.377Z" fill="#D8E8EF"/>
<path d="M58.1859 99.121H35.9849C32.7699 99.121 30.1399 96.491 30.1399 93.276C30.1399 90.061 32.7699 87.431 35.9849 87.431H58.1859C61.4009 87.431 64.0309 90.061 64.0309 93.276C64.0309 96.491 61.4009 99.121 58.1859 99.121Z" fill="#D8E8EF"/>
<path d="M144.764 85.1191H103.138C99.923 85.1191 97.293 82.4891 97.293 79.2741C97.293 76.0591 99.923 73.4291 103.138 73.4291H144.764C147.979 73.4291 150.609 76.0591 150.609 79.2741C150.609 82.4891 147.978 85.1191 144.764 85.1191Z" fill="#D8E8EF"/>
<path d="M140.363 29.0261H131.089C127.874 29.0261 125.244 26.3961 125.244 23.1811C125.244 19.9661 127.874 17.3361 131.089 17.3361H140.363C143.578 17.3361 146.208 19.9661 146.208 23.1811C146.208 26.3961 143.577 29.0261 140.363 29.0261Z" fill="#D8E8EF"/>
<path d="M98.9141 29.6091H78.1121C74.8971 29.6091 72.2671 26.9791 72.2671 23.7641C72.2671 23.7351 72.2691 23.7061 72.2691 23.6761H72.2591C72.2121 20.5011 69.6021 17.9191 66.4161 17.9191H24.8731C21.6581 17.9191 19.0281 20.5491 19.0281 23.7641C19.0281 26.9791 21.6581 29.6091 24.8731 29.6091H47.4381C47.3071 29.6091 47.1781 29.6151 47.0491 29.6241C50.0841 29.8261 52.5051 32.3711 52.5051 35.4541C52.5051 38.5381 50.0841 41.0821 47.0491 41.2841C47.1781 41.2931 47.3071 41.2991 47.4381 41.2991H35.9821C32.7671 41.2991 30.1371 43.9291 30.1371 47.1441C30.1371 50.3591 32.7671 52.9891 35.9821 52.9891H82.9381C86.1221 52.9891 88.7321 50.4081 88.7811 47.2341H88.7831C88.7831 47.2211 88.7821 47.2071 88.7821 47.1941C88.7821 47.1771 88.7831 47.1611 88.7831 47.1441C88.7831 47.1281 88.7821 47.1121 88.7821 47.0961C88.8091 43.9041 91.4281 41.3011 94.6261 41.3011H94.0471L94.0731 41.2981H98.9151C102.13 41.2981 104.76 38.6681 104.76 35.4531C104.759 32.2391 102.129 29.6091 98.9141 29.6091Z" fill="#D8E8EF"/>
<path d="M165.684 52.3H148.058C144.876 52.261 142.285 49.648 142.285 46.457C142.285 46.428 142.287 46.399 142.287 46.369H142.282C142.236 43.194 139.625 40.61 136.439 40.61H106.318C103.103 40.61 100.473 43.24 100.473 46.455C100.473 49.67 103.103 52.3 106.318 52.3H111.776L111.8 52.303H111.27C114.455 52.303 117.065 54.885 117.113 58.059C117.113 58.088 117.111 58.116 117.111 58.145C117.111 58.175 117.113 58.204 117.113 58.233C117.113 58.234 117.113 58.234 117.113 58.235C117.162 61.408 119.771 63.99 122.956 63.99H165.684C168.899 63.99 171.529 61.36 171.529 58.145C171.529 54.93 168.899 52.3 165.684 52.3Z" fill="#D8E8EF"/>
<path d="M48.823 74.768L59.843 74.784L62.563 64.174L57.047 64.166C54.013 64.162 50.919 66.545 50.171 69.463C49.423 72.381 48.823 74.768 48.823 74.768Z" fill="#C3D2DB"/>
<path d="M79.0321 106.607H71.1741V138.703H79.0321V106.607Z" fill="#C3D2DB"/>
<path d="M75.1031 126.48C77.9584 126.48 80.2731 124.165 80.2731 121.31C80.2731 118.455 77.9584 116.14 75.1031 116.14C72.2478 116.14 69.9331 118.455 69.9331 121.31C69.9331 124.165 72.2478 126.48 75.1031 126.48Z" fill="#9DAEBC"/>
<path d="M75.1031 125.239C77.273 125.239 79.0321 123.48 79.0321 121.31C79.0321 119.14 77.273 117.381 75.1031 117.381C72.9331 117.381 71.1741 119.14 71.1741 121.31C71.1741 123.48 72.9331 125.239 75.1031 125.239Z" fill="#DDE6EB"/>
<path d="M75.1031 124.261C76.7329 124.261 78.0541 122.94 78.0541 121.31C78.0541 119.68 76.7329 118.359 75.1031 118.359C73.4733 118.359 72.1521 119.68 72.1521 121.31C72.1521 122.94 73.4733 124.261 75.1031 124.261Z" fill="#8C9FAF"/>
<path d="M71.9731 138.51H78.2331C79.4931 138.51 80.5231 139.541 80.5231 140.8C80.5231 142.06 79.4921 143.09 78.2331 143.09H71.9731C70.7131 143.09 69.6831 142.059 69.6831 140.8C69.6831 139.54 70.7141 138.51 71.9731 138.51Z" fill="#8C9FAF"/>
<path d="M105.884 48.183H73.889C73.676 48.183 73.502 48.009 73.502 47.796V46.552C73.502 46.339 73.676 46.165 73.889 46.165H105.884C106.097 46.165 106.271 46.339 106.271 46.552V47.796C106.271 48.009 106.097 48.183 105.884 48.183Z" fill="#C3D2DB"/>
<path fill-rule="evenodd" clip-rule="evenodd" d="M108.001 37.8L110.243 36.789V27.181H108.001V37.8Z" fill="#C3D2DB"/>
<path fill-rule="evenodd" clip-rule="evenodd" d="M71.7349 37.8L69.4929 36.789V27.181H71.7349V37.8Z" fill="#C3D2DB"/>
<path d="M105.601 46.383H74.0179C72.4339 46.383 71.1379 45.087 71.1379 43.503V25.473C71.1379 23.889 72.4339 22.593 74.0179 22.593H105.601C107.185 22.593 108.481 23.889 108.481 25.473V43.504C108.481 45.087 107.185 46.383 105.601 46.383Z" fill="#C3D2DB"/>
<path d="M99.0619 24.895C98.9779 24.895 98.8909 24.896 98.8019 24.896C98.7159 24.897 98.6279 24.897 98.5379 24.897H81.1679C81.0789 24.897 80.9909 24.896 80.9039 24.896C80.8159 24.895 80.7289 24.895 80.6439 24.895C80.0349 24.895 78.1799 24.895 78.1799 26.883V32.765C78.1799 34.412 79.5199 35.752 81.1669 35.752H98.5379C100.185 35.752 101.525 34.412 101.525 32.765V26.883C101.526 24.895 99.6719 24.895 99.0619 24.895Z" fill="#6F98C1"/>
<path d="M98.2241 34.75H81.4831C80.2181 34.75 79.1831 33.715 79.1831 32.45V27.039C79.1831 26.41 79.6931 25.899 80.3231 25.899H98.2251C99.4951 25.899 100.525 26.929 100.525 28.199V32.449C100.525 33.715 99.4891 34.75 98.2241 34.75Z" fill="#9EC5DD"/>
<path opacity="0.6" d="M94.4309 25.9H93.6699V34.751H94.4309V25.9Z" fill="white"/>
<path opacity="0.6" d="M97.1191 25.9H95.1851V34.751H97.1191V25.9Z" fill="white"/>
<path d="M110.741 21.69C110.741 10.347 101.46 1.06604 90.1169 1.06604C78.7739 1.06604 69.4929 10.347 69.4929 21.69V27.182H110.741V21.69Z" fill="#627689"/>
<path fill-rule="evenodd" clip-rule="evenodd" d="M69.4929 27.181C69.4929 27.181 77.0809 21.878 95.9389 20.934C116.834 19.887 117.598 27.181 117.598 27.181H69.4929Z" fill="#849AAD"/>
<path fill-rule="evenodd" clip-rule="evenodd" d="M70.4199 27.181C70.4199 27.181 78.6639 22.926 95.4819 22.128C116.523 21.13 117.18 27.181 117.18 27.181H70.4199Z" fill="#627689"/>
<path opacity="0.1" d="M90.0239 31.821C107.944 31.866 110.243 28.875 110.243 28.875V27.182H69.4929C69.4999 27.208 70.7399 31.773 90.0239 31.821Z" fill="black"/>
<path d="M94.6121 14.742L96.3941 9.849H90.8501C88.2771 9.849 85.7041 11.218 85.7041 13.959C85.7041 16.7 89.2671 17.286 91.0481 15.329C91.0481 15.916 91.4441 16.308 92.6321 16.308H96.9591L97.5291 14.742H94.6121ZM91.0481 14.741C90.0581 14.741 89.4641 14.545 89.4641 13.958C89.4641 13.566 90.3071 11.805 90.5051 11.218H92.4341L91.0481 14.741Z" fill="#C1D4E0"/>
<path d="M75.1031 140.263C68.7231 140.263 63.3621 144.625 61.8391 150.528H88.3671C86.8441 144.625 81.4831 140.263 75.1031 140.263Z" fill="#C3D2DB"/>
<path d="M87.8259 152H62.3799C61.7379 152 61.2129 151.475 61.2129 150.833V150.784C61.2129 150.142 61.7379 149.617 62.3799 149.617H87.8269C88.4689 149.617 88.9939 150.142 88.9939 150.784V150.833C88.9939 151.475 88.4679 152 87.8259 152Z" fill="#8C9FAF"/>
<path d="M108.623 106.607H100.765V138.703H108.623V106.607Z" fill="#C3D2DB"/>
<path d="M104.694 126.48C107.549 126.48 109.864 124.165 109.864 121.31C109.864 118.455 107.549 116.14 104.694 116.14C101.839 116.14 99.5239 118.455 99.5239 121.31C99.5239 124.165 101.839 126.48 104.694 126.48Z" fill="#9DAEBC"/>
<path d="M104.694 125.239C106.864 125.239 108.623 123.48 108.623 121.31C108.623 119.14 106.864 117.381 104.694 117.381C102.524 117.381 100.765 119.14 100.765 121.31C100.765 123.48 102.524 125.239 104.694 125.239Z" fill="#DDE6EB"/>
<path d="M104.694 124.261C106.324 124.261 107.645 122.94 107.645 121.31C107.645 119.68 106.324 118.359 104.694 118.359C103.064 118.359 101.743 119.68 101.743 121.31C101.743 122.94 103.064 124.261 104.694 124.261Z" fill="#8C9FAF"/>
<path d="M101.564 138.51H107.824C109.084 138.51 110.114 139.541 110.114 140.8C110.114 142.06 109.083 143.09 107.824 143.09H101.564C100.304 143.09 99.2739 142.059 99.2739 140.8C99.2739 139.54 100.305 138.51 101.564 138.51Z" fill="#8C9FAF"/>
<path d="M104.694 140.263C98.3139 140.263 92.9529 144.625 91.4299 150.528H117.958C116.435 144.625 111.074 140.263 104.694 140.263Z" fill="#C3D2DB"/>
<path d="M94.166 42.164C94.166 41.465 93.597 40.897 92.899 40.897H86.607C85.908 40.897 85.34 41.465 85.34 42.164V42.337H83.406V42.164C83.406 40.399 84.842 38.963 86.607 38.963H92.899C94.665 38.963 96.101 40.399 96.101 42.164V42.337H94.166V42.164Z" fill="#8C9FAF"/>
<path d="M117.418 152H91.971C91.329 152 90.804 151.475 90.804 150.833V150.784C90.804 150.142 91.329 149.617 91.971 149.617H117.418C118.06 149.617 118.585 150.142 118.585 150.784V150.833C118.585 151.475 118.06 152 117.418 152Z" fill="#8C9FAF"/>
<path opacity="0.6" d="M74.013 46.383H105.596C106.464 46.383 107.236 45.986 107.765 45.374H71.845C72.373 45.986 73.145 46.383 74.013 46.383Z" fill="#8C9FAF"/>
<path d="M56.0231 71.407H50.1981C49.5831 71.407 49.0801 71.91 49.0801 72.525C49.0801 73.14 49.5831 73.643 50.1981 73.643H56.0231C56.6381 73.643 57.1411 73.14 57.1411 72.525C57.1401 71.91 56.6371 71.407 56.0231 71.407Z" fill="#8C9FAF"/>
<path d="M89.917 120.085C110.834 120.085 127.791 103.128 127.791 82.211C127.791 61.2938 110.834 44.337 89.917 44.337C68.9997 44.337 52.043 61.2938 52.043 82.211C52.043 103.128 68.9997 120.085 89.917 120.085Z" fill="#E85252"/>
<path d="M100.823 66.548C100.277 66.548 99.8149 66.739 99.4329 67.12L87.2949 79.276L87.2869 79.268L74.8269 91.728C74.4459 92.113 74.2549 92.575 74.2549 93.121C74.2549 93.667 74.4489 94.13 74.8309 94.514L77.6179 97.301C77.9989 97.682 78.4649 97.873 79.0109 97.873C79.5569 97.873 80.0189 97.682 80.4009 97.301L92.5399 85.146L92.5479 85.154L105.008 72.694C105.389 72.309 105.58 71.847 105.58 71.301C105.58 70.755 105.386 70.293 105.004 69.908L102.217 67.121C101.835 66.739 101.37 66.548 100.823 66.548Z" fill="white"/>
<path d="M79.0099 66.548C79.5559 66.548 80.0179 66.739 80.3999 67.12L92.5389 79.275L92.5469 79.267L105.007 91.727C105.388 92.112 105.579 92.574 105.579 93.12C105.579 93.666 105.385 94.129 105.003 94.513L102.216 97.3C101.835 97.681 101.369 97.872 100.823 97.872C100.277 97.872 99.8149 97.681 99.4329 97.3L87.2949 85.146L87.2869 85.154L74.8269 72.694C74.4459 72.309 74.2549 71.847 74.2549 71.301C74.2549 70.755 74.4489 70.293 74.8309 69.908L77.6179 67.121C77.9979 66.739 78.4639 66.548 79.0099 66.548Z" fill="white"/>
<path d="M55.223 87.7951C55.223 87.5531 55.025 87.354 54.782 87.354H55.403C56.126 87.354 56.717 86.7631 56.717 86.0401V77.8241C56.717 77.1021 56.126 76.5101 55.403 76.5101H54.782C55.024 76.5101 55.223 76.3121 55.223 76.0691C55.223 75.8261 55.025 75.6281 54.782 75.6281H52.624C52.249 77.7671 52.042 79.9631 52.042 82.2091C52.042 84.2601 52.21 86.2711 52.524 88.2341H54.781C55.025 88.2351 55.223 88.0371 55.223 87.7951Z" fill="#C63C3C"/>
<path d="M53.7619 86.478H47.8459V75.636C47.8459 75.636 47.8469 75.635 47.8479 75.634H53.7619C54.4849 75.634 55.0759 76.225 55.0759 76.948V85.164C55.0749 85.886 54.4839 86.478 53.7619 86.478Z" fill="#C3D2DB"/>
<path d="M47.2571 75.1941C47.2571 75.4361 47.4551 75.6351 47.6981 75.6351H53.1401C53.3821 75.6351 53.5811 75.4371 53.5811 75.1941C53.5811 74.9521 53.3831 74.7531 53.1401 74.7531H47.6981C47.4551 74.7531 47.2571 74.9511 47.2571 75.1941Z" fill="#9DAEBC"/>
<path d="M47.2571 86.9181C47.2571 87.1601 47.4551 87.3591 47.6981 87.3591H53.1401C53.3821 87.3591 53.5811 87.1611 53.5811 86.9181C53.5811 86.6761 53.3831 86.4771 53.1401 86.4771H47.6981C47.4551 86.4781 47.2571 86.6761 47.2571 86.9181Z" fill="#9DAEBC"/>
<path d="M47.2339 77.069V77.814C47.2339 77.94 47.3369 78.044 47.4639 78.044H53.9909C54.1169 78.044 54.2209 77.941 54.2209 77.814V77.069C54.2209 76.943 54.1179 76.839 53.9909 76.839H47.4639C47.3369 76.839 47.2339 76.943 47.2339 77.069Z" fill="#8C9FAF"/>
<path d="M47.2339 79.478V80.223C47.2339 80.349 47.3369 80.453 47.4639 80.453H53.9909C54.1169 80.453 54.2209 80.35 54.2209 80.223V79.478C54.2209 79.352 54.1179 79.248 53.9909 79.248H47.4639C47.3369 79.249 47.2339 79.352 47.2339 79.478Z" fill="#8C9FAF"/>
<path d="M47.2339 81.8881V82.6331C47.2339 82.7591 47.3369 82.8631 47.4639 82.8631H53.9909C54.1169 82.8631 54.2209 82.7601 54.2209 82.6331V81.8881C54.2209 81.7621 54.1179 81.6581 53.9909 81.6581H47.4639C47.3369 81.6581 47.2339 81.7621 47.2339 81.8881Z" fill="#8C9FAF"/>
<path d="M47.2339 84.298V85.043C47.2339 85.169 47.3369 85.273 47.4639 85.273H53.9909C54.1169 85.273 54.2209 85.17 54.2209 85.043V84.298C54.2209 84.172 54.1179 84.068 53.9909 84.068H47.4639C47.3369 84.068 47.2339 84.171 47.2339 84.298Z" fill="#8C9FAF"/>
<path opacity="0.5" d="M50.028 76.839H48.823V78.044H50.028V76.839Z" fill="#F8FDFF"/>
<path opacity="0.5" d="M50.028 79.249H48.823V80.454H50.028V79.249Z" fill="#F8FDFF"/>
<path opacity="0.5" d="M50.028 81.6581H48.823V82.8631H50.028V81.6581Z" fill="#F8FDFF"/>
<path opacity="0.5" d="M50.028 84.068H48.823V85.273H50.028V84.068Z" fill="#F8FDFF"/>
<path d="M124.58 87.7951C124.58 87.5531 124.778 87.354 125.021 87.354H124.4C123.677 87.354 123.086 86.7631 123.086 86.0401V77.8241C123.086 77.1021 123.677 76.5101 124.4 76.5101H125.021C124.779 76.5101 124.58 76.3121 124.58 76.0691C124.58 75.8261 124.778 75.6281 125.021 75.6281H127.179C127.554 77.7671 127.761 79.9631 127.761 82.2091C127.761 84.2601 127.593 86.2711 127.279 88.2341H125.022C124.778 88.2351 124.58 88.0371 124.58 87.7951Z" fill="#C63C3C"/>
<path d="M126.042 86.478H131.958V75.636C131.957 75.635 131.957 75.635 131.956 75.634H126.042C125.319 75.634 124.728 76.225 124.728 76.948V85.164C124.728 85.886 125.319 86.478 126.042 86.478Z" fill="#C3D2DB"/>
<path d="M132.546 75.1941C132.546 75.4361 132.348 75.6351 132.105 75.6351H126.663C126.421 75.6351 126.222 75.4371 126.222 75.1941C126.222 74.9521 126.42 74.7531 126.663 74.7531H132.105C132.348 74.7531 132.546 74.9511 132.546 75.1941Z" fill="#9DAEBC"/>
<path d="M132.546 86.9181C132.546 87.1601 132.348 87.3591 132.105 87.3591H126.663C126.421 87.3591 126.222 87.1611 126.222 86.9181C126.222 86.6761 126.42 86.4771 126.663 86.4771H132.105C132.348 86.4781 132.546 86.6761 132.546 86.9181Z" fill="#9DAEBC"/>
<path d="M132.57 77.069V77.814C132.57 77.94 132.467 78.044 132.34 78.044H125.813C125.687 78.044 125.583 77.941 125.583 77.814V77.069C125.583 76.943 125.686 76.839 125.813 76.839H132.34C132.466 76.839 132.57 76.943 132.57 77.069Z" fill="#8C9FAF"/>
<path d="M132.57 79.478V80.223C132.57 80.349 132.467 80.453 132.34 80.453H125.813C125.687 80.453 125.583 80.35 125.583 80.223V79.478C125.583 79.352 125.686 79.248 125.813 79.248H132.34C132.466 79.249 132.57 79.352 132.57 79.478Z" fill="#8C9FAF"/>
<path d="M132.57 81.8881V82.6331C132.57 82.7591 132.467 82.8631 132.34 82.8631H125.813C125.687 82.8631 125.583 82.7601 125.583 82.6331V81.8881C125.583 81.7621 125.686 81.6581 125.813 81.6581H132.34C132.466 81.6581 132.57 81.7621 132.57 81.8881Z" fill="#8C9FAF"/>
<path d="M132.57 84.298V85.043C132.57 85.169 132.467 85.273 132.34 85.273H125.813C125.687 85.273 125.583 85.17 125.583 85.043V84.298C125.583 84.172 125.686 84.068 125.813 84.068H132.34C132.466 84.068 132.57 84.171 132.57 84.298Z" fill="#8C9FAF"/>
<path opacity="0.5" d="M129.775 78.0442L130.98 78.0442L130.98 76.8392L129.775 76.8392L129.775 78.0442Z" fill="#F8FDFF"/>
<path opacity="0.5" d="M129.775 80.4535L130.98 80.4535L130.98 79.2485L129.775 79.2485L129.775 80.4535Z" fill="#F8FDFF"/>
<path opacity="0.5" d="M129.775 82.8636L130.98 82.8636L130.98 81.6586L129.775 81.6586L129.775 82.8636Z" fill="#F8FDFF"/>
<path opacity="0.5" d="M129.775 85.2728L130.98 85.2728L130.98 84.0678L129.775 84.0678L129.775 85.2728Z" fill="#F8FDFF"/>
</g>
<defs>
<clipPath id="clip0">
<rect width="180" height="152" fill="white"/>
</clipPath>
</defs>
</svg>
