<svg xmlns="http://www.w3.org/2000/svg" viewBox="0 0 81.524 144.704">
  <path fill="#8C9FAF" d="M1.665 4.233h1.76l.368 15.031-2.222.061-.168-4.355z"/>
  <path fill="#C3D2DB" d="M1.731 4.233l1.447.623-.005 2.253H2.145l.035.42.978.257.071 2.357-.783.18-.093.273.844.156-1.693 3.084z"/>
  <path fill-rule="evenodd" clip-rule="evenodd" fill="#C3D2DB" d="M4.73 19.895l-1.851-.042-.013-4.425 2.176-3.691 3.055-.12.036 1.689-2.18.161L4.8 15.548z"/>
  <path fill-rule="evenodd" clip-rule="evenodd" fill="#8C9FAF" d="M4.028 19.841l.13-4.256-.665-.126.129-.492.735.124.973-1.803-.228-.868.554-.187.294.728 1.671-.14.497-1.194.015 1.679-2.18.161L4.82 15.51l-.07 4.347z"/>
  <path fill-rule="evenodd" clip-rule="evenodd" fill="#C3D2DB" d="M6.728 22.603l1.67.802 2.016-3.94-.267-4.276-2.669-1.491-.797 1.489 1.87 1.131.084 2.378z"/>
  <path fill-rule="evenodd" clip-rule="evenodd" fill="#8C9FAF" d="M7.379 22.873l1.812-3.853.651.189.107-.497-.711-.222-.051-2.048.597-.672-.41-.417-.591.516-1.426-.882.098-1.289-.774 1.446 1.87 1.132.084 2.377-1.907 3.907z"/>
  <path fill-rule="evenodd" clip-rule="evenodd" fill="#C3D2DB" d="M3.271 19.363l-1.852-.041-.012-4.426 2.176-3.691 3.055-.12.036 1.689-2.181.161-1.152 2.082z"/>
  <path fill-rule="evenodd" clip-rule="evenodd" fill="#8C9FAF" d="M2.568 19.309l.13-4.256-.665-.126.129-.492.735.125.973-1.803-.227-.869.554-.186.294.727 1.67-.14.497-1.194.016 1.679-2.181.161-1.133 2.043-.07 4.347z"/>
  <path fill="#C3D2DB" d="M74.328 100.306h4.548l-.01-14.96h-4.538zM78.86 77.396c.016-9.658-5.429-16.898-12.491-19.409v9.79c3.735 2.761 6.454 4.93 7.491 10.222h5v-.603z"/>
  <path fill-rule="evenodd" clip-rule="evenodd" fill="#C3D2DB" d="M76.793 108.299l1.852.042.012 4.426-2.175 3.691-3.056.12-.035-1.69 2.18-.16 1.153-2.082z"/>
  <path fill-rule="evenodd" clip-rule="evenodd" fill="#8C9FAF" d="M77.496 108.354l-.13 4.255.665.126-.129.492-.735-.124-.973 1.803.227.869-.553.186-.294-.728-1.671.14-.497 1.194-.015-1.679 2.18-.16 1.133-2.044.07-4.346z"/>
  <path fill-rule="evenodd" clip-rule="evenodd" fill="#C3D2DB" d="M74.796 105.591l-1.67-.801-2.016 3.939.267 4.276 2.669 1.492.797-1.49-1.871-1.131-.084-2.378z"/>
  <path fill-rule="evenodd" clip-rule="evenodd" fill="#8C9FAF" d="M74.145 105.321l-1.813 3.853-.65-.189-.108.497.712.222.05 2.048-.596.672.409.417.592-.515 1.426.881-.098 1.29.774-1.447-1.871-1.131-.084-2.378 1.908-3.907z"/>
  <path fill-rule="evenodd" clip-rule="evenodd" fill="#C3D2DB" d="M78.253 108.831l1.851.042.013 4.425-2.176 3.691-3.055.12-.036-1.689 2.18-.161 1.153-2.081z"/>
  <path fill-rule="evenodd" clip-rule="evenodd" fill="#8C9FAF" d="M78.955 108.885l-.13 4.256.665.126-.129.492-.735-.125-.973 1.803.228.869-.554.187-.294-.728-1.671.14-.497 1.194-.015-1.679 2.18-.161 1.133-2.043.07-4.347z"/>
  <path fill="#8C9FAF" d="M79.372 84.3h-5.45a1.05 1.05 0 0 0-1.046 1.046 1.05 1.05 0 0 0 1.046 1.046h5.45a1.05 1.05 0 0 0 1.046-1.046 1.05 1.05 0 0 0-1.046-1.046zM79.372 81.648h-5.45a1.05 1.05 0 0 0-1.046 1.046 1.05 1.05 0 0 0 1.046 1.046h5.45a1.05 1.05 0 0 0 1.046-1.046c0-.576-.471-1.046-1.046-1.046zM79.372 78.995h-5.45a1.05 1.05 0 0 0-1.046 1.046 1.05 1.05 0 0 0 1.046 1.046h5.45a1.05 1.05 0 0 0 1.046-1.046c0-.576-.471-1.046-1.046-1.046zM79.372 76.344h-5.45a1.05 1.05 0 0 0-1.046 1.046 1.05 1.05 0 0 0 1.046 1.046h5.45a1.05 1.05 0 0 0 1.046-1.046 1.05 1.05 0 0 0-1.046-1.046z"/>
  <path opacity=".6" fill="#8C9FAF" d="M78.876 98.816h-4.549v-4.713s.608.974 1.758 1.538c1.106.543 2.79.558 2.79.558v2.617z"/>
  <path fill="#C3D2DB" d="M78.458 110.413h-3.833a1.654 1.654 0 0 1-1.649-1.649v-8.534c0-.907.742-1.649 1.649-1.649h3.833c.907 0 1.649.742 1.649 1.649v8.534c0 .907-.742 1.649-1.649 1.649z"/>
  <path fill="#8C9FAF" d="M67.856 57.988h-.944v11.903h.944a1.862 1.862 0 0 0 1.857-1.857v-8.188a1.862 1.862 0 0 0-1.857-1.858z"/>
  <path opacity=".7" fill="#8C9FAF" d="M72.977 100.788h7.14v.452h-7.14z"/>
  <path opacity=".7" fill="#F8FDFF" d="M72.972 107.754h7.14v.452h-7.14z"/>
  <circle fill="#9DAEBC" cx="79.095" cy="106.402" r="2.429"/>
  <circle fill="#DDE6EB" cx="79.095" cy="106.402" r="1.856"/>
  <circle fill="#8C9FAF" cx="79.095" cy="106.402" r="1.394"/>
  <path fill="#C3D2DB" d="M2.664 50.754c-.016 9.658 5.429 16.898 12.491 19.409v-9.79c-3.735-2.761-6.454-4.93-7.491-10.222h-5v.603zM23.246 98.743h7.352v30.029h-7.352z"/>
  <circle fill="#9DAEBC" cx="26.921" cy="112.499" r="4.837"/>
  <circle fill="#DDE6EB" cx="26.921" cy="112.499" r="3.676"/>
  <circle fill="#8C9FAF" cx="26.921" cy="112.499" r="2.761"/>
  <path fill="#8C9FAF" d="M31.522 98.743h-9.2a2.767 2.767 0 0 1-2.759-2.759v-.701a2.767 2.767 0 0 1 2.759-2.759h9.2a2.767 2.767 0 0 1 2.759 2.759v.701a2.768 2.768 0 0 1-2.759 2.759zM23.993 128.591h5.857a2.15 2.15 0 0 1 2.143 2.143 2.15 2.15 0 0 1-2.143 2.143h-5.857a2.15 2.15 0 0 1-2.143-2.143 2.15 2.15 0 0 1 2.143-2.143zM59.207 98.743h-9.2a2.767 2.767 0 0 1-2.759-2.759v-.701a2.767 2.767 0 0 1 2.759-2.759h9.2a2.767 2.767 0 0 1 2.759 2.759v.701a2.768 2.768 0 0 1-2.759 2.759zM55.72 45.97H25.786a.363.363 0 0 1-.362-.362v-1.164c0-.199.163-.362.362-.362H55.72c.199 0 .362.163.362.362v1.164a.363.363 0 0 1-.362.362z"/>
  <path fill="#C3D2DB" d="M55.72 44.082H25.786a.363.363 0 0 1-.362-.362v-1.164c0-.199.163-.362.362-.362H55.72c.199 0 .362.163.362.362v1.164a.363.363 0 0 1-.362.362z"/>
  <path fill="#8C9FAF" d="M55.67 50.295H25.835a.412.412 0 0 1-.411-.411v-1.615c0-.226.185-.411.411-.411H55.67c.226 0 .411.185.411.411v1.615a.412.412 0 0 1-.411.411z"/>
  <path fill="#C3D2DB" d="M55.72 47.858H25.786a.363.363 0 0 1-.362-.362v-1.164c0-.199.163-.362.362-.362H55.72c.199 0 .362.163.362.362v1.164a.363.363 0 0 1-.362.362z"/>
  <path fill-rule="evenodd" clip-rule="evenodd" fill="#C3D2DB" d="M57.7 34.367l2.098-.945v-8.989H57.7zM23.771 34.367l-2.098-.945v-8.989h2.098z"/>
  <path fill="#C3D2DB" d="M55.455 42.398H25.906a2.703 2.703 0 0 1-2.695-2.695V22.835a2.703 2.703 0 0 1 2.695-2.695h29.549a2.703 2.703 0 0 1 2.695 2.695v16.869a2.703 2.703 0 0 1-2.695 2.694z"/>
  <path fill="#6F98C1" d="M49.337 22.294l-.243.001-.247.001H32.596l-.247-.001-.243-.001c-.57 0-2.305 0-2.305 1.86v5.503a2.798 2.798 0 0 0 2.795 2.795h16.252a2.798 2.798 0 0 0 2.795-2.795v-5.503c0-1.86-1.735-1.86-2.306-1.86z"/>
  <path fill="#9EC5DD" d="M48.553 31.515H32.891a2.158 2.158 0 0 1-2.152-2.152V24.3c0-.589.477-1.066 1.066-1.066h16.748c1.189 0 2.152.964 2.152 2.152v3.976a2.158 2.158 0 0 1-2.152 2.153z"/>
  <path opacity=".6" fill="#FFF" d="M44.292 23.234h.712v8.281h-.712zM45.71 23.234h1.81v8.281h-1.81z"/>
  <path fill="#627689" d="M60.264 19.295C60.264 8.683 51.581 0 40.968 0 30.356 0 21.673 8.683 21.673 19.295v5.138h38.591v-5.138z"/>
  <path fill-rule="evenodd" clip-rule="evenodd" fill="#849AAD" d="M21.673 24.433s7.099-4.961 24.743-5.845c19.549-.979 20.264 5.845 20.264 5.845H21.673z"/>
  <path fill-rule="evenodd" clip-rule="evenodd" fill="#627689" d="M22.54 24.433s7.713-3.981 23.447-4.727c19.686-.934 20.301 4.727 20.301 4.727H22.54z"/>
  <path opacity=".1" d="M40.881 28.774c16.766.042 18.917-2.756 18.917-2.756v-1.584H21.673c.007.024 1.166 4.295 19.208 4.34z"/>
  <path fill="#C1D4E0" d="M45.173 12.795l1.667-4.578h-5.186c-2.407 0-4.815 1.281-4.815 3.845s3.334 3.113 5 1.282c0 .549.371.916 1.482.916h4.048l.533-1.465h-2.729zm-3.333-.001c-.926 0-1.482-.183-1.482-.732 0-.367.788-2.014.974-2.564h1.804l-1.296 3.296z"/>
  <path fill="#C3D2DB" d="M61.355 96.179H20.173c-3.056 0-5.557-2.501-5.557-5.557V55.303c0-3.056 2.501-5.557 5.557-5.557h41.182c3.056 0 5.557 2.501 5.557 5.557v35.319c0 3.056-2.501 5.557-5.557 5.557z"/>
  <path fill="#8C9FAF" d="M14.616 87.34h52.296v.452H14.616z"/>
  <path fill="#F8FDFF" d="M14.616 90.535h52.296v.452H14.616z"/>
  <path fill="#8C9FAF" d="M14.616 56.399h52.296v.452H14.616z"/>
  <path fill="#F8FDFF" d="M14.616 59.593h52.296v.452H14.616z"/>
  <path fill="#8C9FAF" d="M54.651 70.01v-1.282a5.348 5.348 0 0 0-3.675-1.458 5.383 5.383 0 0 0-5.146 3.808H35.698a5.383 5.383 0 0 0-5.146-3.808 5.348 5.348 0 0 0-3.675 1.458v1.282h3.632l1.778 2.641-1.778 2.641h-3.632v1.282a5.348 5.348 0 0 0 3.675 1.458 5.383 5.383 0 0 0 5.146-3.808H45.83a5.383 5.383 0 0 0 5.146 3.808 5.348 5.348 0 0 0 3.675-1.458v-1.282H51.02l-1.778-2.641 1.778-2.641h3.631z"/>
  <path fill="#C3D2DB" d="M26.921 130.231c-5.969 0-10.984 4.081-12.41 9.604H39.33c-1.424-5.524-6.44-9.604-12.409-9.604z"/>
  <path fill="#8C9FAF" d="M38.825 141.212H15.018a1.095 1.095 0 0 1-1.092-1.092v-.046c0-.601.491-1.092 1.092-1.092h23.808c.601 0 1.092.491 1.092 1.092v.046a1.097 1.097 0 0 1-1.093 1.092z"/>
  <path fill="#C3D2DB" d="M50.931 98.743h7.352v30.029h-7.352z"/>
  <circle fill="#9DAEBC" cx="54.607" cy="112.499" r="4.837"/>
  <circle fill="#DDE6EB" cx="54.607" cy="112.499" r="3.676"/>
  <circle fill="#8C9FAF" cx="54.607" cy="112.499" r="2.761"/>
  <path fill="#8C9FAF" d="M51.678 128.591h5.857a2.15 2.15 0 0 1 2.143 2.143 2.15 2.15 0 0 1-2.143 2.143h-5.857a2.15 2.15 0 0 1-2.143-2.143 2.15 2.15 0 0 1 2.143-2.143z"/>
  <path fill="#C3D2DB" d="M54.607 130.231c-5.969 0-10.984 4.081-12.41 9.604h24.819c-1.425-5.524-6.441-9.604-12.409-9.604z"/>
  <path fill="none" d="M37.685 35.456h5.887c.653 0 1.185-.532 1.185-1.185v-1.82H36.5v1.82c0 .653.531 1.185 1.185 1.185zM37.685 37.327h5.887c.653 0 1.185-.532 1.185-1.185v-.162H36.5v.162c0 .653.531 1.185 1.185 1.185z"/>
  <path fill="#8C9FAF" d="M44.757 35.617c0 .654-.532 1.185-1.185 1.185h-5.887a1.186 1.186 0 0 1-1.185-1.185v-.162h-1.81v.162a2.998 2.998 0 0 0 2.995 2.995h5.887a2.998 2.998 0 0 0 2.995-2.995v-.162h-1.81v.162z"/>
  <path fill="#C3D2DB" d="M7.196 27.844H2.648l.01 14.96h4.538z"/>
  <path fill="#8C9FAF" d="M2.152 43.85h5.45a1.05 1.05 0 0 0 1.046-1.046 1.05 1.05 0 0 0-1.046-1.046h-5.45a1.05 1.05 0 0 0-1.046 1.046 1.05 1.05 0 0 0 1.046 1.046zM2.152 46.503h5.45a1.05 1.05 0 0 0 1.046-1.046 1.05 1.05 0 0 0-1.046-1.046h-5.45a1.05 1.05 0 0 0-1.046 1.046 1.05 1.05 0 0 0 1.046 1.046zM2.152 49.156h5.45a1.05 1.05 0 0 0 1.046-1.046 1.05 1.05 0 0 0-1.046-1.046h-5.45a1.05 1.05 0 0 0-1.046 1.046 1.05 1.05 0 0 0 1.046 1.046zM2.152 51.806h5.45a1.05 1.05 0 0 0 1.046-1.046 1.05 1.05 0 0 0-1.046-1.046h-5.45a1.05 1.05 0 0 0-1.046 1.046 1.05 1.05 0 0 0 1.046 1.046z"/>
  <path opacity=".6" fill="#8C9FAF" d="M2.648 29.334h4.549v4.713s-.608-.974-1.758-1.538c-1.106-.543-2.79-.558-2.79-.558v-2.617z"/>
  <path fill="#C3D2DB" d="M3.066 17.737h3.833c.907 0 1.649.742 1.649 1.649v8.534c0 .907-.742 1.649-1.649 1.649H3.066a1.654 1.654 0 0 1-1.649-1.649v-8.534c0-.907.742-1.649 1.649-1.649z"/>
  <path fill="#8C9FAF" d="M13.672 69.891h.944V57.988h-.944a1.862 1.862 0 0 0-1.857 1.857v8.188c0 1.022.836 1.858 1.857 1.858z"/>
  <path opacity=".7" fill="#8C9FAF" d="M8.548 27.362h-7.14v-.452h7.14z"/>
  <path opacity=".7" fill="#F8FDFF" d="M8.553 20.396h-7.14v-.452h7.14z"/>
  <circle fill="#9DAEBC" cx="2.429" cy="21.748" r="2.429"/>
  <circle fill="#DDE6EB" cx="2.429" cy="21.748" r="1.856"/>
  <circle fill="#8C9FAF" cx="2.429" cy="21.748" r="1.394"/>
  <path fill="#8C9FAF" d="M66.51 141.212H42.703a1.095 1.095 0 0 1-1.092-1.092v-.046c0-.601.491-1.092 1.092-1.092H66.51c.601 0 1.092.491 1.092 1.092v.046c0 .6-.491 1.092-1.092 1.092z"/>
  <path opacity=".6" fill="#8C9FAF" d="M25.901 42.398H55.45c.812 0 1.534-.371 2.029-.944H23.872a2.679 2.679 0 0 0 2.029.944z"/>
</svg>
