<svg xmlns="http://www.w3.org/2000/svg" viewBox="0 0 116 87">
    <circle cx="79.809" cy="72.836" r="14.165" fill="#e85252"/>
    <path fill="#fff" d="M83.888 66.978a.707.707 0 0 0-.52.214l-4.54 4.546-.003-.003-4.66 4.66a.711.711 0 0 0-.214.521c0 .204.073.377.215.521l1.042 1.042a.71.71 0 0 0 .521.214.707.707 0 0 0 .52-.214l4.54-4.546.003.003 4.66-4.66a.711.711 0 0 0 .214-.521.716.716 0 0 0-.215-.521l-1.042-1.042a.708.708 0 0 0-.521-.214z"/>
    <path fill="#fff" d="M75.73 66.978c.204 0 .377.071.52.214l4.54 4.546.003-.003 4.66 4.66a.711.711 0 0 1 .214.521.716.716 0 0 1-.215.521l-1.042 1.042a.71.71 0 0 1-.521.214.707.707 0 0 1-.52-.214l-4.54-4.546-.003.003-4.66-4.66a.711.711 0 0 1-.214-.521c0-.204.073-.377.215-.521l1.042-1.042a.71.71 0 0 1 .521-.214z"/>
</svg>
