<svg xmlns="http://www.w3.org/2000/svg" viewBox="0 0 116.004 87">
    <path fill="#FFF" d="M76.88 65.567h5.791V83.98H76.88z"/>
    <path fill="#F3AE22" d="M96.478 83.019L81.229 59.513c-.342-.526-.85-.83-1.395-.838l.142.016-.084-.019-.076-.001h-.09l-.09.021.145-.017c-.544.01-1.051.313-1.392.838L63.141 83.019c-.684 1.018-.896 2.006-.59 2.77.166.414.559.952 1.492 1.158.027.01.142.032.285.048l.044.005h30.874l.044-.005c.143-.017.258-.038.342-.063.876-.191 1.269-.728 1.435-1.143.307-.764.095-1.752-.589-2.77zM79.809 60.202l.007-.001-.005.002-.002.001-.002-.001-.005-.002.007.001zm0 23.06a1.559 1.559 0 1 1 0-3.118 1.559 1.559 0 0 1 0 3.118zm1.672-10.708c-.665 3.098-1.556 6.081-1.556 6.081a.133.133 0 0 1-.118.114v.005l-.006-.002-.006.002v-.005a.133.133 0 0 1-.118-.114s-.891-2.983-1.556-6.081c-.403-1.933-.726-6.221 1.673-6.259v-.002l.006.001.006-.001v.002c2.401.038 2.078 4.327 1.675 6.259z"/>
</svg>
