<svg xmlns="http://www.w3.org/2000/svg" viewBox="0 0 116.004 87">
    <circle cx="79.809" cy="72.836" r="14.165" fill="#80DA8D"/>
    <path fill="#FFF" d="M86.039 69.924a.75.75 0 0 1-.224.547l-5.821 5.821-1.093 1.093a.745.745 0 0 1-.547.226.744.744 0 0 1-.547-.226l-1.093-1.093-2.91-2.91a.743.743 0 0 1-.224-.547c0-.214.075-.397.224-.547l1.093-1.093a.745.745 0 0 1 .547-.226c.214 0 .396.075.547.226l2.364 2.371 5.274-5.281a.74.74 0 0 1 .545-.224c.214 0 .397.075.547.224l1.093 1.093a.749.749 0 0 1 .225.546z"/>
</svg>
