<svg xmlns="http://www.w3.org/2000/svg" viewBox="0 0 201.466 181.364">
  <path fill="#E4ECF3" d="M162.372 10.124h-17.533c-18.402 0-33.458 15.056-33.458 33.459 0 11.265 5.658 21.257 14.256 27.328v21.076c0 1.726 1.4 3.126 3.126 3.126.068 0 .125-.035.192-.039.067.004.131.039.199.039.8 0 1.599-.305 2.21-.916l17.154-17.155h13.856c18.402 0 33.459-15.057 33.459-33.459-.002-18.403-15.058-33.459-33.461-33.459zm-25.66 36.628a3.381 3.381 0 110-6.763 3.381 3.381 0 010 6.763zm16.894 0a3.381 3.381 0 110-6.763 3.381 3.381 0 010 6.763zm16.888 0a3.381 3.381 0 110-6.763 3.381 3.381 0 010 6.763z"/>
  <path fill="#F8E7B9" d="M14.725 42.881c0 10.361 8.477 18.839 18.839 18.839h7.801l9.658 9.659c.344.344.794.516 1.244.516.038 0 .074-.019.112-.022.038.002.07.022.108.022a1.76 1.76 0 001.76-1.76V58.268c4.841-3.418 8.026-9.044 8.026-15.387 0-10.361-8.477-18.838-18.838-18.838h-9.872c-10.36 0-18.838 8.477-18.838 18.838zm31.383-.119a1.904 1.904 0 113.808 0 1.904 1.904 0 01-3.808 0zm-9.512 0a1.904 1.904 0 113.808 0 1.904 1.904 0 01-3.808 0zm-9.509 0a1.904 1.904 0 113.808 0 1.904 1.904 0 01-3.808 0z"/>
  <radialGradient id="a" cx="551.843" cy="-19.363" r="13.101" gradientTransform="matrix(3.2883 0 0 .2849 -1714.099 178.313)" gradientUnits="userSpaceOnUse">
    <stop offset="0" stop-color="#a1b3bb"/>
    <stop offset=".545" stop-color="#c2d2db" stop-opacity=".6"/>
    <stop offset="1" stop-color="#c2d2db" stop-opacity="0"/>
  </radialGradient>
  <ellipse fill="url(#a)" cx="100.514" cy="172.796" rx="43.078" ry="3.732"/>
  <path fill="#C2D2DB" d="M136.389 129.075h4.862l-.012-15.991h-4.85zM52.98 86.68v7.083l4.636-.016V86.68z"/>
  <path opacity=".6" fill="#8DA0B0" d="M52.981 86.68v7.084l1.854-.017V86.68z"/>
  <path fill="#C2D2DB" d="M141.233 104.587c.018-10.323-5.803-18.061-13.351-20.745v10.464c3.992 2.951 6.898 5.27 8.007 10.926h5.344v-.645z"/>
  <path fill-rule="evenodd" clip-rule="evenodd" fill="#C2D2DB" d="M139.024 137.618l1.979.044.013 4.731-2.325 3.945-3.266.128-.038-1.805 2.331-.172 1.232-2.225z"/>
  <path fill-rule="evenodd" clip-rule="evenodd" fill="#8DA0B0" d="M139.775 137.676l-.139 4.549.711.134-.138.526-.785-.133-1.04 1.927.243.929-.592.199-.315-.778-1.785.15-.531 1.276-.017-1.794 2.331-.172 1.211-2.184.075-4.646z"/>
  <path fill-rule="evenodd" clip-rule="evenodd" fill="#C2D2DB" d="M136.889 134.724l-1.784-.857-2.155 4.21.285 4.571 2.853 1.594.852-1.592-2-1.209-.09-2.542z"/>
  <path fill-rule="evenodd" clip-rule="evenodd" fill="#8DA0B0" d="M136.193 134.435l-1.937 4.118-.695-.202-.115.531.76.237.054 2.19-.637.717.438.446.632-.551 1.524.943-.105 1.378.828-1.546-2-1.21-.09-2.541 2.039-4.176z"/>
  <path fill-rule="evenodd" clip-rule="evenodd" fill="#C2D2DB" d="M140.584 138.186l1.979.045.013 4.73-2.325 3.945-3.266.128-.038-1.805 2.331-.172 1.231-2.225z"/>
  <path fill-rule="evenodd" clip-rule="evenodd" fill="#8DA0B0" d="M141.335 138.244l-.139 4.549.711.135-.138.525-.785-.133-1.041 1.928.243.928-.591.199-.315-.777-1.785.149-.532 1.276-.016-1.794 2.331-.172 1.211-2.184.074-4.646z"/>
  <path fill="#8DA0B0" d="M141.781 111.967h-5.825c-.615 0-1.118.503-1.118 1.118 0 .615.503 1.118 1.118 1.118h5.825c.615 0 1.118-.503 1.118-1.118a1.122 1.122 0 00-1.118-1.118zM141.781 109.131h-5.825c-.615 0-1.118.503-1.118 1.118 0 .615.503 1.118 1.118 1.118h5.825c.615 0 1.118-.503 1.118-1.118a1.122 1.122 0 00-1.118-1.118zM141.781 106.296h-5.825c-.615 0-1.118.503-1.118 1.118 0 .615.503 1.118 1.118 1.118h5.825c.615 0 1.118-.503 1.118-1.118a1.122 1.122 0 00-1.118-1.118zM141.781 103.463h-5.825c-.615 0-1.118.503-1.118 1.118 0 .615.503 1.118 1.118 1.118h5.825c.615 0 1.118-.503 1.118-1.118a1.122 1.122 0 00-1.118-1.118z"/>
  <path opacity=".6" fill="#8DA0B0" d="M141.251 127.481h-4.862v-5.038s.65 1.041 1.879 1.644c1.182.58 2.983.596 2.983.596v2.798z"/>
  <path fill="#C2D2DB" d="M140.804 139.877h-4.097a1.767 1.767 0 01-1.762-1.762v-9.122c0-.969.793-1.762 1.762-1.762h4.097c.969 0 1.762.793 1.762 1.762v9.122c0 .969-.793 1.762-1.762 1.762zM65.22 95.55h5.346V84.858H65.22c-2.94 0-5.346 2.406-5.346 5.346.001 2.94 2.406 5.346 5.346 5.346z"/>
  <path fill="#8DA0B0" d="M129.471 83.842h-1.009v12.723h1.009a1.99 1.99 0 001.985-1.985v-8.752a1.99 1.99 0 00-1.985-1.986z"/>
  <path opacity=".7" fill="#8DA0B0" d="M134.945 129.59h7.632v.484h-7.632z"/>
  <path opacity=".7" fill="#F9FCFF" d="M134.939 137.036h7.632v.484h-7.632z"/>
  <circle fill="#9DAEBD" cx="141.484" cy="135.59" r="2.596"/>
  <circle fill="#DDE6EB" cx="141.484" cy="135.59" r="1.984"/>
  <circle fill="#8DA0B0" cx="141.484" cy="135.59" r="1.49"/>
  <path fill="#8DA0B0" d="M71.558 83.842h1.009v12.723h-1.009a1.99 1.99 0 01-1.985-1.985v-8.752a1.99 1.99 0 011.985-1.986z"/>
  <path fill="#C2D2DB" d="M81.79 127.404h7.858V159.5H81.79z"/>
  <circle fill="#9DAEBD" cx="85.719" cy="142.107" r="5.17"/>
  <circle fill="#DDE6EB" cx="85.719" cy="142.107" r="3.929"/>
  <circle fill="#8DA0B0" cx="85.719" cy="142.107" r="2.951"/>
  <path fill="#8DA0B0" d="M90.636 127.404h-9.834a2.958 2.958 0 01-2.949-2.949v-.749a2.958 2.958 0 012.949-2.949h9.834a2.958 2.958 0 012.949 2.949v.749a2.958 2.958 0 01-2.949 2.949zM82.589 159.306h6.26c1.26 0 2.29 1.031 2.29 2.29 0 1.26-1.031 2.29-2.29 2.29h-6.26a2.297 2.297 0 01-2.29-2.29c0-1.259 1.03-2.29 2.29-2.29zM120.227 127.404h-9.834a2.958 2.958 0 01-2.949-2.949v-.749a2.958 2.958 0 012.949-2.949h9.834a2.958 2.958 0 012.949 2.949v.749a2.958 2.958 0 01-2.949 2.949zM116.5 70.997H84.505a.388.388 0 01-.387-.387v-1.244c0-.213.174-.387.387-.387H116.5c.213 0 .387.174.387.387v1.244a.39.39 0 01-.387.387z"/>
  <path fill="#C2D2DB" d="M116.5 68.979H84.505a.388.388 0 01-.387-.387v-1.244c0-.213.174-.387.387-.387H116.5c.213 0 .387.174.387.387v1.244a.39.39 0 01-.387.387z"/>
  <path fill="#8DA0B0" d="M116.447 75.62h-31.89a.441.441 0 01-.44-.44v-1.726c0-.242.198-.44.44-.44h31.889c.242 0 .44.198.44.44v1.726a.44.44 0 01-.439.44z"/>
  <path fill="#C2D2DB" d="M116.5 73.015H84.505a.388.388 0 01-.387-.387v-1.244c0-.213.174-.387.387-.387H116.5c.213 0 .387.174.387.387v1.244a.39.39 0 01-.387.387z"/>
  <path fill-rule="evenodd" clip-rule="evenodd" fill="#C2D2DB" d="M118.617 58.596l2.242-1.011v-9.607h-2.242zM82.351 58.596l-2.242-1.011v-9.607h2.242z"/>
  <path fill="#C2D2DB" d="M116.217 67.18H84.634a2.888 2.888 0 01-2.88-2.88V46.269a2.888 2.888 0 012.88-2.88h31.583a2.888 2.888 0 012.88 2.88V64.3a2.888 2.888 0 01-2.88 2.88z"/>
  <path fill="#6F98C1" d="M109.678 45.691l-.26.001-.264.001h-17.37l-.264-.001-.26-.001c-.609 0-2.464 0-2.464 1.988v5.882a2.99 2.99 0 002.987 2.987h17.371a2.99 2.99 0 002.987-2.987V47.68c.001-1.989-1.853-1.989-2.463-1.989z"/>
  <path fill="#9EC5DD" d="M108.84 55.547H92.099a2.307 2.307 0 01-2.3-2.3v-5.411c0-.629.51-1.14 1.14-1.14h17.902a2.3 2.3 0 012.3 2.3v4.25a2.308 2.308 0 01-2.301 2.301z"/>
  <path opacity=".6" fill="#FFF" d="M104.285 46.696h.761v8.851h-.761zM105.801 46.696h1.934v8.851h-1.934z"/>
  <path fill="#637789" d="M121.357 42.486c0-11.343-9.281-20.624-20.624-20.624-11.343 0-20.624 9.281-20.624 20.624v5.492h41.248v-5.492z"/>
  <path fill-rule="evenodd" clip-rule="evenodd" fill="#859BAD" d="M80.109 47.978s7.588-5.303 26.446-6.247c20.895-1.047 21.659 6.247 21.659 6.247H80.109z"/>
  <path fill-rule="evenodd" clip-rule="evenodd" fill="#637789" d="M81.036 47.978s8.244-4.255 25.062-5.053c21.041-.998 21.698 5.053 21.698 5.053h-46.76z"/>
  <path opacity=".1" fill="#020203" d="M100.639 52.617c17.92.045 20.219-2.946 20.219-2.946v-1.693h-40.75c.008.026 1.248 4.591 20.531 4.639z"/>
  <path fill="#C0D4DF" d="M105.227 35.538l1.782-4.893h-5.543c-2.573 0-5.146 1.369-5.146 4.11 0 2.741 3.563 3.327 5.344 1.37 0 .587.396.979 1.584.979h4.327l.57-1.566h-2.918zm-3.563-.001c-.99 0-1.584-.196-1.584-.783 0-.392.843-2.153 1.041-2.74h1.929l-1.386 3.523z"/>
  <path fill="#C2D2DB" d="M122.523 124.663H78.506c-3.267 0-5.94-2.673-5.94-5.94v-37.75c0-3.267 2.673-5.94 5.94-5.94h44.017c3.267 0 5.94 2.673 5.94 5.94v37.75c-.001 3.267-2.673 5.94-5.94 5.94z"/>
  <path fill="#8DA0B0" d="M72.566 115.216h55.896v.484H72.566z"/>
  <path fill="#F9FCFF" d="M72.566 118.631h55.896v.484H72.566z"/>
  <path fill="#8DA0B0" d="M72.566 82.144h55.896v.484H72.566z"/>
  <path fill="#F9FCFF" d="M72.566 85.559h55.896v.484H72.566z"/>
  <path fill="#8DA0B0" d="M115.358 96.692v-1.37a5.718 5.718 0 00-3.928-1.558 5.752 5.752 0 00-5.5 4.07H95.1a5.752 5.752 0 00-5.5-4.07 5.716 5.716 0 00-3.928 1.558v1.37h3.882l1.9 2.823-1.9 2.823h-3.882v1.37a5.718 5.718 0 003.928 1.558 5.752 5.752 0 005.5-4.07h10.83a5.752 5.752 0 005.5 4.07 5.716 5.716 0 003.928-1.558v-1.37h-3.882l-1.9-2.823 1.9-2.823h3.882z"/>
  <path fill="#C2D2DB" d="M85.719 161.059c-6.38 0-11.741 4.362-13.264 10.265h26.528c-1.524-5.903-6.884-10.265-13.264-10.265z"/>
  <path fill="#8DA0B0" d="M98.442 172.796H72.995a1.17 1.17 0 01-1.167-1.167v-.049a1.17 1.17 0 011.167-1.167h25.447a1.17 1.17 0 011.167 1.167v.049a1.17 1.17 0 01-1.167 1.167z"/>
  <path fill="#C2D2DB" d="M111.381 127.404h7.858V159.5h-7.858z"/>
  <circle fill="#9DAEBD" cx="115.31" cy="142.107" r="5.17"/>
  <circle fill="#DDE6EB" cx="115.31" cy="142.107" r="3.929"/>
  <circle fill="#8DA0B0" cx="115.31" cy="142.107" r="2.951"/>
  <path fill="#8DA0B0" d="M112.18 159.306h6.26c1.26 0 2.29 1.031 2.29 2.29 0 1.26-1.031 2.29-2.29 2.29h-6.26a2.297 2.297 0 01-2.29-2.29 2.297 2.297 0 012.29-2.29z"/>
  <path fill="#C2D2DB" d="M115.31 161.059c-6.38 0-11.741 4.362-13.264 10.265h26.528c-1.523-5.903-6.884-10.265-13.264-10.265z"/>
  <path fill="none" d="M97.223 59.759h6.292c.698 0 1.267-.568 1.267-1.267v-1.946h-8.826v1.946c0 .699.569 1.267 1.267 1.267zM97.223 61.759h6.292c.698 0 1.267-.568 1.267-1.267v-.172h-8.826v.173c0 .698.569 1.266 1.267 1.266z"/>
  <path fill="#8DA0B0" d="M104.782 59.932c0 .699-.569 1.267-1.267 1.267h-6.292a1.268 1.268 0 01-1.267-1.267v-.173h-1.934v.173a3.205 3.205 0 003.201 3.201h6.292a3.205 3.205 0 003.202-3.201v-.173h-1.935v.173zM128.033 172.796h-25.447a1.17 1.17 0 01-1.167-1.167v-.049a1.17 1.17 0 011.167-1.167h25.447a1.17 1.17 0 011.167 1.167v.049a1.17 1.17 0 01-1.167 1.167z"/>
  <path opacity=".6" fill="#8DA0B0" d="M84.628 67.18h31.583c.868 0 1.64-.397 2.169-1.009H82.46a2.863 2.863 0 002.168 1.009z"/>
  <g fill="#9EC5DD">
    <path d="M183.2 66.675h-5.609c-5.888 0-10.705 4.817-10.705 10.705 0 3.604 1.81 6.801 4.561 8.743v6.743a1 1 0 001 1c.022 0 .04-.011.061-.012.022.001.042.012.064.012a.997.997 0 00.707-.293l5.488-5.488h4.433c5.888 0 10.705-4.817 10.705-10.705-.001-5.888-4.818-10.705-10.705-10.705zm0 19.41h-5.261l-1.877 1.877-2.615 2.615V85.034a8.751 8.751 0 01-2-1.494 8.677 8.677 0 01-2.561-6.16c0-4.8 3.905-8.705 8.705-8.705h5.609c4.8 0 8.705 3.905 8.705 8.705s-3.906 8.705-8.705 8.705z"/>
    <circle cx="175.402" cy="77.381" r="1"/>
    <circle cx="180.402" cy="77.381" r="1"/>
    <circle cx="185.403" cy="77.381" r="1"/>
  </g>
  <g fill="#9EC5DD">
    <path d="M52.815 7.336c0 4.035 3.301 7.336 7.336 7.336h3.038l3.761 3.761a.683.683 0 00.485.201c.015 0 .029-.008.044-.008.015.001.027.008.042.008a.685.685 0 00.685-.685v-4.621c1.885-1.331 3.126-3.522 3.126-5.992C71.332 3.301 68.031 0 63.996 0h-3.844c-4.036 0-7.337 3.301-7.337 7.336zm1.371 0a5.972 5.972 0 015.966-5.966h3.844a5.973 5.973 0 015.966 5.966 5.95 5.95 0 01-1.755 4.222 5.997 5.997 0 01-1.371 1.024V16.381l-1.792-1.792-1.286-1.286h-3.606a5.974 5.974 0 01-5.966-5.967z"/>
    <circle cx="65.495" cy="7.337" r=".685"/>
    <circle cx="62.068" cy="7.337" r=".685"/>
    <circle cx="58.641" cy="7.337" r=".685"/>
  </g>
  <path fill="#8DA0B0" d="M58.674 93.089v-5.825c0-.615-.503-1.118-1.118-1.118-.615 0-1.118.503-1.118 1.118v5.825c0 .615.503 1.118 1.118 1.118.615 0 1.118-.503 1.118-1.118zM61.611 93.089v-5.825c0-.615-.503-1.118-1.118-1.118-.615 0-1.118.503-1.118 1.118v5.825c0 .615.503 1.118 1.118 1.118.615 0 1.118-.503 1.118-1.118z"/>
  <path fill="#858585" d="M45.873 103.454a1.038 1.038 0 01-1.035-1.035V82.141c0-.569.466-1.035 1.035-1.035s1.035.466 1.035 1.035v20.279c0 .569-.466 1.034-1.035 1.034z"/>
  <path fill="#C2D2DB" d="M51.492 95.643h-7.793V84.802l.002-.002h7.791c.819 0 1.488.67 1.488 1.488v7.866c0 .82-.669 1.489-1.488 1.489z"/>
  <path fill="#9EC5DD" d="M31.124 103.982l-.746-1.583-.746 1.583-9.287 19.705 1.221.575 8.812-18.697 8.813 18.697 1.221-.575z"/>
  <path fill="#FFD44C" d="M30.378 133.715c5.542 0 10.034-4.492 10.034-10.034H20.345c0 5.541 4.492 10.034 10.033 10.034z"/>
  <path fill="#E8B933" d="M36.36 123.681c0 4.847-3.437 8.892-8.008 9.829.654.134 1.332.205 2.026.205 5.542 0 10.034-4.492 10.034-10.034H36.36z"/>
  <path fill="#9EC5DD" d="M62.097 103.982l-.746-1.583-.746 1.583-9.288 19.705 1.222.575 8.812-18.697 8.813 18.697 1.221-.575z"/>
  <path fill="#FFD44C" d="M61.351 133.715c5.542 0 10.034-4.492 10.034-10.034H51.317c0 5.541 4.493 10.034 10.034 10.034z"/>
  <path fill="#E8B933" d="M67.333 123.681c0 4.847-3.437 8.892-8.008 9.829.654.134 1.332.205 2.026.205 5.542 0 10.034-4.492 10.034-10.034h-4.052z"/>
  <path fill="#858585" d="M29.329 102.399c0-.569.466-1.035 1.035-1.035h31.018c.569 0 1.035.466 1.035 1.035s-.466 1.035-1.035 1.035H30.364a1.038 1.038 0 01-1.035-1.035z"/>
  <circle fill="#C8C7C7" cx="45.873" cy="102.399" r="2.321"/>
  <circle fill="#858585" cx="30.378" cy="102.399" r="1.432"/>
  <circle fill="#858585" cx="61.351" cy="102.399" r="1.432"/>
  <path fill="#9DAEBD" d="M43.11 84.36c0 .242.198.441.441.441h5.442a.442.442 0 00.441-.441.442.442 0 00-.441-.441h-5.442a.442.442 0 00-.441.441zM43.11 96.084c0 .242.198.441.441.441h5.442a.442.442 0 00.441-.441.442.442 0 00-.441-.441h-5.442a.443.443 0 00-.441.441z"/>
  <path fill="#8DA0B0" d="M43.087 86.235v.745c0 .126.103.23.23.23h6.527a.23.23 0 00.23-.23v-.745a.23.23 0 00-.23-.23h-6.527a.23.23 0 00-.23.23z"/>
  <path opacity=".5" fill="#F9FCFF" d="M44.676 86.005h1.205v1.205h-1.205z"/>
  <path fill="#8DA0B0" d="M43.087 88.644v.745c0 .126.103.23.23.23h6.527a.23.23 0 00.23-.23v-.745a.23.23 0 00-.23-.23h-6.527a.231.231 0 00-.23.23z"/>
  <path opacity=".5" fill="#F9FCFF" d="M44.676 88.415h1.205v1.205h-1.205z"/>
  <path fill="#8DA0B0" d="M43.087 91.054v.745c0 .126.103.23.23.23h6.527a.23.23 0 00.23-.23v-.745a.23.23 0 00-.23-.23h-6.527a.23.23 0 00-.23.23z"/>
  <path opacity=".5" fill="#F9FCFF" d="M44.676 90.824h1.205v1.205h-1.205z"/>
  <path fill="#8DA0B0" d="M52.98 86.151v.912c0 .08-.066.146-.146.146h-2.541a.147.147 0 01-.146-.146v-.912c0-.08.066-.146.146-.146h2.541c.081 0 .146.066.146.146zM52.98 88.561v.912c0 .08-.066.146-.146.146h-2.541a.147.147 0 01-.146-.146v-.912c0-.08.066-.146.146-.146h2.541c.081 0 .146.065.146.146zM43.087 93.464v.745c0 .126.103.23.23.23h6.527a.23.23 0 00.23-.23v-.745a.23.23 0 00-.23-.23h-6.527a.23.23 0 00-.23.23z"/>
  <path opacity=".5" fill="#F9FCFF" d="M44.676 93.234h1.205v1.205h-1.205z"/>
</svg>