<svg xmlns="http://www.w3.org/2000/svg" viewBox="0 0 244.088 181.079">
  <path fill="#FFF" d="M0 0h244.088v181.079H0z"/>
  <path fill="#EEF4F7" d="M121.834 16.519h8.123l.026-.003h-.579c3.198 0 5.816-2.603 5.844-5.795l-.001-.048.001-.05-.001-.04h.002c.049-3.173 2.658-5.755 5.843-5.755h41.653c3.215 0 5.845 2.63 5.845 5.845s-2.63 5.845-5.845 5.845h-22.423l-.026.003h.579c-3.198 0-5.816 2.603-5.844 5.795l.001.048-.001.05.001.04h-.002c-.049 3.173-2.658 5.755-5.843 5.755h-27.353c-3.215 0-5.845-2.63-5.845-5.845s2.63-5.845 5.845-5.845zM96.051 111.879h-17.33c-3.215 0-5.845-2.63-5.845-5.845s2.63-5.845 5.845-5.845h17.33c3.215 0 5.845 2.63 5.845 5.845 0 3.214-2.63 5.845-5.845 5.845zM101.579 39.941H64.776c-3.215 0-5.845-2.63-5.845-5.845l.002-.088h-.01c-.047-3.175-2.657-5.757-5.843-5.757H11.537c-3.215 0-5.845 2.63-5.845 5.845s2.63 5.845 5.845 5.845h22.565c-.131 0-.26.006-.389.015 3.035.202 5.456 2.747 5.456 5.83 0 3.084-2.421 5.628-5.456 5.83.129.009.258.015.389.015H22.646c-3.215 0-5.845 2.63-5.845 5.845s2.63 5.845 5.845 5.845h46.956c3.184 0 5.794-2.581 5.843-5.755h.002l-.001-.04.001-.05-.001-.048c.027-3.192 2.646-5.795 5.844-5.795h-.58l.026-.003h20.843c3.215 0 5.845-2.63 5.845-5.845 0-3.214-2.63-5.844-5.845-5.844z"/>
  <radialGradient id="a" cx="584.898" cy="-17.137" r="13.101" gradientTransform="matrix(3.2883 0 0 .2849 -1762.275 177.394)" gradientUnits="userSpaceOnUse">
    <stop offset="0" stop-color="#a0b3ba"/>
    <stop offset=".545" stop-color="#c3d2db" stop-opacity=".6"/>
    <stop offset="1" stop-color="#c3d2db" stop-opacity="0"/>
  </radialGradient>
  <ellipse fill="url(#a)" cx="161.032" cy="172.512" rx="43.078" ry="3.732"/>
  <path fill="#EEF4F7" d="M155.911 139.623h-34.299c-3.215 0-5.845-2.63-5.845-5.845s2.63-5.845 5.845-5.845h34.299c3.215 0 5.845 2.63 5.845 5.845s-2.631 5.845-5.845 5.845zM211.389 125.621h-41.626c-3.215 0-5.845-2.63-5.845-5.845s2.63-5.845 5.845-5.845h41.626c3.215 0 5.845 2.63 5.845 5.845s-2.631 5.845-5.845 5.845zM194.987 69.528h-18.791c-3.215 0-5.845-2.63-5.845-5.845s2.63-5.845 5.845-5.845h18.791c3.215 0 5.845 2.63 5.845 5.845s-2.631 5.845-5.845 5.845zM63.272 112.974H45.481c-3.215 0-5.845-2.63-5.845-5.845s2.63-5.845 5.845-5.845h17.791c3.215 0 5.845 2.63 5.845 5.845s-2.63 5.845-5.845 5.845zM237.31 92.802h-17.626c-3.182-.039-5.773-2.652-5.773-5.843l.002-.088h-.005c-.046-3.175-2.657-5.759-5.843-5.759h-30.121c-3.215 0-5.845 2.63-5.845 5.845s2.63 5.845 5.845 5.845h5.458l.024.003h-.53c3.185 0 5.795 2.582 5.843 5.756l-.002.086.002.088v.002c.049 3.173 2.658 5.755 5.843 5.755h42.728c3.215 0 5.845-2.63 5.845-5.845s-2.63-5.845-5.845-5.845z"/>
  <path fill="#C3D2DB" d="M134.166 93.725c-3.992 2.957-6.898 5.282-8.007 10.951h-5.344v-.646c-.017-9.961 5.377-17.52 12.515-20.47h.267c.204.003.354.072.563 0h.003v-.001l.003-.001v10.167z"/>
  <path fill="#8C9FAF" d="M132.58 83.558h1.009v12.723h-1.009a1.99 1.99 0 01-1.985-1.985v-8.752c0-1.093.894-1.986 1.985-1.986z"/>
  <path fill="#C3D2DB" d="M142.813 127.119h7.858v32.096h-7.858z"/>
  <circle fill="#9DAEBC" cx="146.742" cy="141.822" r="5.17"/>
  <circle fill="#DDE6EB" cx="146.742" cy="141.822" r="3.929"/>
  <circle fill="#8C9FAF" cx="146.742" cy="141.822" r="2.951"/>
  <path fill="#8C9FAF" d="M151.658 127.119h-9.834a2.958 2.958 0 01-2.949-2.949v-.749a2.958 2.958 0 012.949-2.949h9.834a2.958 2.958 0 012.949 2.949v.749a2.958 2.958 0 01-2.949 2.949zM143.612 159.022h6.26c1.26 0 2.29 1.031 2.29 2.29 0 1.26-1.031 2.29-2.29 2.29h-6.26a2.297 2.297 0 01-2.29-2.29c0-1.26 1.03-2.29 2.29-2.29zM181.25 127.119h-9.834a2.958 2.958 0 01-2.949-2.949v-.749a2.958 2.958 0 012.949-2.949h9.834a2.958 2.958 0 012.949 2.949v.749a2.958 2.958 0 01-2.949 2.949zM177.522 70.713h-31.995a.388.388 0 01-.387-.387v-1.244c0-.213.174-.387.387-.387h31.995c.213 0 .387.174.387.387v1.244a.388.388 0 01-.387.387z"/>
  <path fill="#C3D2DB" d="M177.522 68.695h-31.995a.388.388 0 01-.387-.387v-1.244c0-.213.174-.387.387-.387h31.995c.213 0 .387.174.387.387v1.244a.389.389 0 01-.387.387z"/>
  <path fill="#8C9FAF" d="M177.47 75.336h-31.89a.441.441 0 01-.44-.44V73.17c0-.242.198-.44.44-.44h31.889c.242 0 .44.198.44.44v1.726c0 .242-.198.44-.439.44z"/>
  <path fill="#C3D2DB" d="M177.522 72.731h-31.995a.388.388 0 01-.387-.387V71.1c0-.213.174-.387.387-.387h31.995c.213 0 .387.174.387.387v1.244a.388.388 0 01-.387.387z"/>
  <path fill-rule="evenodd" clip-rule="evenodd" fill="#C3D2DB" d="M179.64 58.311l2.242-1.011v-9.607h-2.242zM143.374 58.311l-2.242-1.011v-9.607h2.242z"/>
  <path fill="#C3D2DB" d="M177.24 66.895h-31.583a2.888 2.888 0 01-2.88-2.88v-18.03a2.888 2.888 0 012.88-2.88h31.583a2.888 2.888 0 012.88 2.88v18.031a2.888 2.888 0 01-2.88 2.879z"/>
  <path fill="#6F98C1" d="M170.701 45.407l-.26.001-.264.001h-17.371l-.264-.001-.26-.001c-.609 0-2.464 0-2.464 1.988v5.882a2.99 2.99 0 002.987 2.987h17.371a2.99 2.99 0 002.987-2.987v-5.882c.002-1.988-1.853-1.988-2.462-1.988z"/>
  <path fill="#9EC5DD" d="M169.863 55.262h-16.741a2.307 2.307 0 01-2.3-2.3v-5.411c0-.629.51-1.14 1.14-1.14h17.902a2.3 2.3 0 012.3 2.3v4.25a2.308 2.308 0 01-2.301 2.301z"/>
  <path opacity=".6" fill="#FFF" d="M165.308 46.411h.761v8.851h-.761zM166.823 46.411h1.934v8.851h-1.934z"/>
  <path fill="#627689" d="M182.379 42.201c0-11.343-9.281-20.624-20.624-20.624-11.343 0-20.624 9.281-20.624 20.624v5.492h41.248v-5.492z"/>
  <path fill-rule="evenodd" clip-rule="evenodd" fill="#849AAD" d="M141.132 47.693s7.588-5.303 26.446-6.247c20.895-1.047 21.659 6.247 21.659 6.247h-48.105z"/>
  <path fill-rule="evenodd" clip-rule="evenodd" fill="#627689" d="M142.059 47.693s8.244-4.255 25.062-5.053c21.041-.998 21.698 5.053 21.698 5.053h-46.76z"/>
  <path opacity=".1" d="M161.662 52.333c17.92.045 20.219-2.946 20.219-2.946v-1.693h-40.75c.008.025 1.247 4.59 20.531 4.639z"/>
  <path fill="#C1D4E0" d="M166.25 35.253l1.782-4.893h-5.543c-2.573 0-5.146 1.369-5.146 4.11s3.563 3.327 5.344 1.37c0 .587.396.979 1.584.979h4.327l.57-1.566h-2.918zm-3.563 0c-.99 0-1.584-.196-1.584-.783 0-.392.843-2.153 1.041-2.74h1.929l-1.386 3.523z"/>
  <path fill="#C3D2DB" d="M183.546 124.378h-44.017c-3.267 0-5.94-2.673-5.94-5.94v-37.75c0-3.267 2.673-5.94 5.94-5.94h44.017c3.267 0 5.94 2.673 5.94 5.94v37.75c-.001 3.267-2.674 5.94-5.94 5.94z"/>
  <path fill="#8C9FAF" d="M133.589 114.931h55.896v.484h-55.896z"/>
  <path fill="#F8FDFF" d="M133.589 118.346h55.896v.484h-55.896z"/>
  <path fill="#8C9FAF" d="M133.589 81.859h55.896v.484h-55.896z"/>
  <path fill="#F8FDFF" d="M133.589 85.274h55.896v.484h-55.896z"/>
  <path fill="#8C9FAF" d="M176.381 96.408v-1.37a5.718 5.718 0 00-3.928-1.558 5.752 5.752 0 00-5.5 4.07h-10.83a5.752 5.752 0 00-5.5-4.07 5.716 5.716 0 00-3.928 1.558v1.37h3.882l1.9 2.823-1.9 2.823h-3.882v1.37a5.718 5.718 0 003.928 1.558 5.752 5.752 0 005.5-4.07h10.83a5.752 5.752 0 005.5 4.07 5.716 5.716 0 003.928-1.558v-1.37h-3.882l-1.9-2.823 1.9-2.823h3.882z"/>
  <path fill="#C3D2DB" d="M146.742 160.775c-6.38 0-11.741 4.362-13.264 10.265h26.528c-1.524-5.904-6.885-10.265-13.264-10.265z"/>
  <path fill="#8C9FAF" d="M159.465 172.512h-25.447a1.17 1.17 0 01-1.167-1.167v-.049a1.17 1.17 0 011.167-1.167h25.447a1.17 1.17 0 011.167 1.167v.049a1.17 1.17 0 01-1.167 1.167z"/>
  <path fill="#C3D2DB" d="M172.404 127.119h7.858v32.096h-7.858z"/>
  <circle fill="#9DAEBC" cx="176.333" cy="141.822" r="5.17"/>
  <circle fill="#DDE6EB" cx="176.333" cy="141.822" r="3.929"/>
  <circle fill="#8C9FAF" cx="176.333" cy="141.822" r="2.951"/>
  <path fill="#8C9FAF" d="M173.203 159.022h6.26c1.26 0 2.29 1.031 2.29 2.29 0 1.26-1.031 2.29-2.29 2.29h-6.26a2.297 2.297 0 01-2.29-2.29c0-1.26 1.03-2.29 2.29-2.29z"/>
  <path fill="#C3D2DB" d="M176.333 160.775c-6.38 0-11.741 4.362-13.264 10.265h26.528c-1.524-5.904-6.884-10.265-13.264-10.265z"/>
  <path fill="none" d="M158.246 59.474h6.292c.698 0 1.267-.568 1.267-1.267v-1.946h-8.826v1.946c0 .699.569 1.267 1.267 1.267zM158.246 61.475h6.292c.698 0 1.267-.568 1.267-1.267v-.173h-8.826v.173a1.27 1.27 0 001.267 1.267z"/>
  <path fill="#8C9FAF" d="M156.979 59.647c0 .699.569 1.267 1.267 1.267h6.292c.699 0 1.267-.568 1.267-1.267v-.173h1.934v.173a3.205 3.205 0 01-3.201 3.201h-6.292a3.205 3.205 0 01-3.202-3.201v-.173h1.935v.173zM189.056 172.512h-25.447a1.17 1.17 0 01-1.167-1.167v-.049a1.17 1.17 0 011.167-1.167h25.447a1.17 1.17 0 011.167 1.167v.049a1.17 1.17 0 01-1.167 1.167z"/>
  <path opacity=".6" fill="#8C9FAF" d="M145.651 66.895h31.583c.868 0 1.64-.397 2.169-1.009h-35.92a2.863 2.863 0 002.168 1.009z"/>
  <path fill="none" d="M133.596 96.279h.563c-.209-.072-.358-.002-.563 0z"/>
  <path fill="#C3D2DB" d="M197.415 128.79h4.862l-.012-15.99h-4.85zM202.259 104.302c.018-10.323-5.803-18.061-13.351-20.745v10.464c3.992 2.951 6.898 5.27 8.007 10.926h5.344v-.645z"/>
  <path fill-rule="evenodd" clip-rule="evenodd" fill="#C3D2DB" d="M200.05 137.333l1.979.045.013 4.73-2.325 3.945-3.266.128-.038-1.805 2.331-.172 1.231-2.225z"/>
  <path fill-rule="evenodd" clip-rule="evenodd" fill="#8C9FAF" d="M200.801 137.391l-.139 4.549.711.135-.138.525-.785-.133-1.041 1.928.243.928-.591.199-.315-.777-1.785.149-.532 1.276-.016-1.794 2.331-.172 1.211-2.184.074-4.646z"/>
  <path fill-rule="evenodd" clip-rule="evenodd" fill="#C3D2DB" d="M197.915 134.439l-1.785-.857-2.155 4.211.286 4.57 2.853 1.594.852-1.592-2-1.209-.09-2.542z"/>
  <path fill-rule="evenodd" clip-rule="evenodd" fill="#8C9FAF" d="M197.219 134.15l-1.937 4.118-.695-.202-.115.531.76.238.054 2.189-.637.718.437.445.633-.55 1.524.942-.105 1.378.828-1.546-2-1.209-.09-2.542 2.039-4.175z"/>
  <path fill-rule="evenodd" clip-rule="evenodd" fill="#C3D2DB" d="M201.61 137.902l1.979.044.013 4.73-2.325 3.945-3.266.129-.038-1.806 2.33-.172 1.232-2.225z"/>
  <path fill-rule="evenodd" clip-rule="evenodd" fill="#8C9FAF" d="M202.361 137.96l-.139 4.548.711.135-.138.526-.786-.133-1.04 1.927.243.928-.592.199-.314-.777-1.785.149-.532 1.277-.016-1.795 2.33-.172 1.212-2.184.074-4.646z"/>
  <path fill="#8C9FAF" d="M202.807 111.682h-5.825c-.615 0-1.118.503-1.118 1.118 0 .615.503 1.118 1.118 1.118h5.825c.615 0 1.118-.503 1.118-1.118a1.122 1.122 0 00-1.118-1.118zM202.807 108.847h-5.825c-.615 0-1.118.503-1.118 1.118 0 .615.503 1.118 1.118 1.118h5.825c.615 0 1.118-.503 1.118-1.118a1.122 1.122 0 00-1.118-1.118zM202.807 106.011h-5.825c-.615 0-1.118.503-1.118 1.118 0 .615.503 1.118 1.118 1.118h5.825c.615 0 1.118-.503 1.118-1.118a1.122 1.122 0 00-1.118-1.118zM202.807 103.178h-5.825c-.615 0-1.118.503-1.118 1.118 0 .615.503 1.118 1.118 1.118h5.825c.615 0 1.118-.503 1.118-1.118a1.122 1.122 0 00-1.118-1.118z"/>
  <path opacity=".6" fill="#8C9FAF" d="M202.277 127.197h-4.862v-5.038s.65 1.041 1.879 1.644c1.182.58 2.983.596 2.983.596v2.798z"/>
  <path fill="#C3D2DB" d="M201.829 139.593h-4.097a1.767 1.767 0 01-1.762-1.762v-9.122c0-.969.793-1.762 1.762-1.762h4.097c.969 0 1.762.793 1.762 1.762v9.122a1.766 1.766 0 01-1.762 1.762z"/>
  <path fill="#8C9FAF" d="M190.497 83.558h-1.009v12.723h1.009a1.99 1.99 0 001.985-1.985v-8.752a1.99 1.99 0 00-1.985-1.986z"/>
  <path opacity=".7" fill="#8C9FAF" d="M195.971 129.305h7.632v.484h-7.632z"/>
  <path opacity=".7" fill="#F8FDFF" d="M195.965 136.751h7.632v.484h-7.632z"/>
  <circle fill="#9DAEBC" cx="202.51" cy="135.305" r="2.596"/>
  <circle fill="#DDE6EB" cx="202.51" cy="135.305" r="1.984"/>
  <circle fill="#8C9FAF" cx="202.51" cy="135.305" r="1.49"/>
  <circle fill="#EEF4F7" cx="216.551" cy="63.683" r="5.845"/>
  <path opacity=".42" fill="#8C9FAF" d="M28.036 172.512h97.381a.836.836 0 00.833-.833v-.814H27.203v.814c0 .458.375.833.833.833z"/>
  <path fill="#F7F7F7" d="M125.417 171.688H28.036a.836.836 0 01-.833-.833V97.981c0-.458.375-.833.833-.833h97.381c.458 0 .833.375.833.833v72.875a.835.835 0 01-.833.832z"/>
  <path fill="#E0E0E0" d="M99.716 159.685H53.737c-.97 0-1.763-.793-1.763-1.763 0-.97.793-1.763 1.763-1.763h45.979c.97 0 1.763.793 1.763 1.763 0 .97-.793 1.763-1.763 1.763z"/>
  <path fill="#86D291" d="M53.737 156.159c-.97 0-1.763.793-1.763 1.763 0 .97.793 1.763 1.763 1.763h31.811v-3.526H53.737z"/>
  <g fill="#627689">
    <path d="M74.519 163.802l-1.464 3.433h-.958l1.466-3.218h-1.867v-.7h2.822v.485zM77.177 163.261v.713h-.04c-.339 0-.617.081-.835.243a1.026 1.026 0 00-.402.677 1.06 1.06 0 01.775-.301.99.99 0 01.81.371c.201.248.301.572.301.974 0 .249-.059.478-.176.686-.117.208-.282.371-.492.488s-.444.176-.701.176c-.278 0-.526-.063-.745-.19a1.3 1.3 0 01-.511-.542 1.778 1.778 0 01-.188-.813v-.363c0-.404.087-.766.26-1.088s.42-.574.741-.757.677-.274 1.068-.274h.135zm-.818 2.026a.52.52 0 00-.301.083.53.53 0 00-.18.204v.272c0 .495.171.743.514.743.138 0 .253-.062.346-.186s.139-.279.139-.465c0-.192-.047-.348-.141-.469s-.22-.182-.377-.182zM78.181 164.071a.77.77 0 01.237-.587c.158-.149.37-.223.635-.223.269 0 .482.074.638.222s.234.348.234.601v.194a.765.765 0 01-.234.584c-.156.147-.367.221-.632.221-.264 0-.476-.073-.636-.219-.161-.146-.241-.347-.241-.601v-.192zm.584.206c0 .093.026.168.078.226a.274.274 0 00.215.087c.188 0 .283-.119.283-.358v-.161a.342.342 0 00-.075-.228.262.262 0 00-.213-.09c-.088 0-.158.029-.21.087s-.078.137-.078.236v.201zm.465 2.665l-.422-.213 1.913-3.062.422.213-1.913 3.062zm.813-.667c0-.244.079-.439.238-.587.159-.147.37-.221.634-.221.267 0 .48.073.638.218.158.145.237.348.237.608v.188a.77.77 0 01-.234.587c-.156.147-.368.221-.635.221-.264 0-.476-.073-.636-.219-.161-.146-.241-.347-.241-.601v-.194zm.581.206c0 .084.029.157.086.221a.27.27 0 00.21.095c.174 0 .268-.082.283-.246l.003-.275a.33.33 0 00-.078-.229.272.272 0 00-.213-.087.271.271 0 00-.207.082.322.322 0 00-.083.221v.218z"/>
  </g>
  <path fill="#627689" d="M125.417 97.148H28.036a.836.836 0 00-.833.833v5.081h99.047v-5.081a.836.836 0 00-.833-.833z"/>
  <path fill="#424242" d="M27.203 105.458v4.392h99.047v-6.788H27.203z"/>
  <circle fill="#8C9FAF" cx="31.424" cy="100.105" r=".889"/>
  <circle fill="#8C9FAF" cx="35.154" cy="100.105" r=".889"/>
  <circle fill="#8C9FAF" cx="38.884" cy="100.105" r=".889"/>
  <path fill="#FFF" d="M49.139 104.948H45.16a.544.544 0 00-.536.342h4.149c.208-.043.33-.164.366-.342m-4.663.512a.534.534 0 00-.371.336h3.299c.271-.015.43-.138.479-.336h-3.407zm.234.826l-.316.85c-.226 0-.407 0-.407-.179 0-.089.237-.544.237-.678l.486.007zm-6.918 0l-.317.805c-.226 0-.362-.045-.362-.179 0-.09.193-.492.238-.626h.441zm7.96 0c.271 0 .452-.089.542-.312H44.28c-1.011.038-1.06.986-.972 1.117h-1.085l.271-.805h.136c.317 0 .497-.089.588-.313h-.588l.317-.894h-.452c-.136.313-.317.492-.452.626-.362.313-.769.268-1.221.268l-.859 1.073v-1.073h-.814l.09 1.118h-.95l.407-1.118H37.43c-.588 0-1.176.313-1.176.939 0 .626.814.76 1.221.313 0 .134.09.224.362.224h2.306l.95-1.163h.633l-.317.805c-.045.224.045.358.317.358l2.7.004c.543 0 .872-.183.917-.764 0-.089-.045-.313-.136-.402h.545zm-.015.914a.27.27 0 00.272.268.27.27 0 00.272-.268.272.272 0 00-.544 0m4.241-.429l.191-.004s.217-.028.146.19c-.071.218-.199.341-.302.358-.103.018-.274.007-.274.007s.178-.49.239-.551m.682.185c.023-.152-.081-.181-.138-.185h-.036.89a.456.456 0 00.259-.116h-1.852c-.152.054-.338.179-.376.367 0 .126.064.188.127.314h-.454l.288-.681h-.69l-.035-.033.087-.284c-.127 0-.339-.024-.466.039-.22.176-.032.348.053.394l-.191.565h-.591c.089-.022.224-.029.381-.188.127-.188.127-.44-.127-.502l-.389-.002.11-.305-.42-.007-.572 1.633h.382l.444-1.193c.063 0 .148.01.212.01.181.095.043.367-.021.43l-.127.126c-.158 0-.141.086-.058.116h.828c.162-.029.177-.115.203-.179l.191-.502h.318s-.191.502-.191.565c0 .072.021.103.062.116h1.387c.12-.033.459-.152.512-.498M99.689 108.07H53.764a.29.29 0 01-.288-.288v-2.652a.29.29 0 01.288-.288h45.925a.29.29 0 01.288.288v2.652a.289.289 0 01-.288.288z"/>
  <path fill="#C8C8C8" d="M117.176 105.599a.074.074 0 00-.055-.023h-2.1a.078.078 0 00-.078.078v.157c0 .021.008.04.023.055a.076.076 0 00.055.023h2.1a.078.078 0 00.078-.078v-.157a.076.076 0 00-.023-.055zM117.176 106.317a.074.074 0 00-.055-.023h-2.1a.078.078 0 00-.078.078v.157c0 .021.008.04.023.055a.076.076 0 00.055.023h2.1a.078.078 0 00.078-.078v-.157a.078.078 0 00-.023-.055zM117.176 107.035a.074.074 0 00-.055-.023h-2.1a.078.078 0 00-.078.078v.157c0 .021.008.04.023.055a.076.076 0 00.055.023h2.1a.078.078 0 00.078-.078v-.157a.078.078 0 00-.023-.055zM111.698 106.644l.287-.858c.014-.041.003-.066-.008-.082-.03-.042-.091-.042-.103-.042h-1.62l-.043-.205c-.012-.048-.046-.095-.116-.095h-.455c-.047 0-.073.022-.073.066v.118c0 .043.026.054.074.054h.384l.294 1.249a.282.282 0 00-.072.189c0 .148.118.285.269.285.142 0 .249-.133.266-.213h.573c.017.079.104.216.266.216a.275.275 0 00.268-.276c0-.147-.089-.278-.267-.278a.259.259 0 00-.202.1h-.704a.225.225 0 00-.191-.107l-.01-.052h1.071c.082 0 .097-.03.112-.069zm-.075.302a.1.1 0 01.101.101.1.1 0 01-.101.101.1.1 0 01-.101-.101c0-.056.046-.101.101-.101zm-1.007.101a.102.102 0 01-.102.102.102.102 0 01-.102-.102c0-.056.046-.102.102-.102a.101.101 0 01.102.102z"/>
  <path fill="#70BA78" d="M55.713 156.159l-1.973 3.526h1.077l1.973-3.526zM58.029 156.159l-1.972 3.526h1.077l1.972-3.526zM60.346 156.159l-1.973 3.526h1.077l1.973-3.526zM62.663 156.159l-1.973 3.526h1.077l1.973-3.526zM64.979 156.159l-1.972 3.526h1.077l1.972-3.526zM67.296 156.159l-1.973 3.526H66.4l1.973-3.526zM69.613 156.159l-1.973 3.526h1.077l1.973-3.526zM71.929 156.159l-1.972 3.526h1.077l1.972-3.526zM74.246 156.159l-1.973 3.526h1.077l1.973-3.526zM76.563 156.159l-1.973 3.526h1.077l1.973-3.526zM78.879 156.159l-1.972 3.526h1.077l1.972-3.526zM81.196 156.159l-1.973 3.526H80.3l1.973-3.526zM83.513 156.159l-1.973 3.526h1.077l1.973-3.526zM83.857 159.685h1.077l.614-1.098v-1.925zM53.737 156.159a1.74 1.74 0 00-.363.039l-1.292 2.309c.119.334.333.621.614.828l1.777-3.176h-.736z"/>
  <path fill="#719AC6" d="M53.764 104.843a.29.29 0 00-.288.288v2.652c0 .158.13.288.288.288h11.184v-3.227H53.764z"/>
  <path fill="#FFF" d="M55.45 106.799h-.849v.316c0 .017.017.033.033.033h.15c.017 0 .033-.017.033-.033v-.15h1.264v.15c0 .017.017.033.033.033h.15c.017 0 .033-.017.033-.033v-.316h-.847zM56.266 106.216c0 .017.017.083 0 .05-.017-.017-.025-.033-.042-.05-.042-.117-.158-.408-.233-.449-.075-.033-.316-.042-.466-.042h-.134c-.158 0-.399.008-.466.042-.075.033-.191.333-.233.449-.017.017-.025.033-.042.05-.017.033 0-.033 0-.05-.008-.042-.216-.133-.241-.05-.017.067.083.15.133.15.025 0 .05.025.067.042-.017.092-.033.125-.033.241 0 .05.033.075.033.083v.083h1.698v-.083s.025-.025.033-.083c-.008-.117-.025-.15-.033-.241.017-.017.042-.042.067-.042.033 0 .125-.083.117-.15-.025-.075-.233.009-.225.05zm-1.39-.208c.025-.042.042-.117.1-.133.083-.025.183-.042.474-.033.291-.008.391.008.474.033.058.017.075.1.1.133.025.05.05.117.075.183a.696.696 0 01-.2.05 4.32 4.32 0 01-.449.025c-.133 0-.283-.008-.449-.025a.705.705 0 01-.2-.05c.025-.066.05-.133.075-.183zm-.025.516c-.067-.008-.108-.05-.108-.108 0-.058.05-.108.117-.108a.15.15 0 01.067.017c.008 0 .117.075.125.108.008.033-.008.083-.058.092-.043.007-.109-.001-.143-.001zm1.082.109a.033.033 0 01-.033.033H55.018a.033.033 0 01-.033-.033c0-.018.015-.033.033-.033h.882a.032.032 0 01.033.033zm.117-.109c-.042.008-.1.008-.15.008-.05 0-.067-.058-.058-.092.008-.033.108-.1.125-.108a.165.165 0 01.067-.017c.067 0 .117.05.117.108.007.051-.035.093-.101.101zM63.345 106.599h-5.857a.143.143 0 01-.142-.142c0-.078.064-.142.142-.142h5.857c.078 0 .142.064.142.142a.143.143 0 01-.142.142z"/>
  <path fill="#BABABA" d="M78.994 106.599H67.447a.143.143 0 01-.142-.142c0-.078.064-.142.142-.142h11.547c.078 0 .142.064.142.142a.143.143 0 01-.142.142zM98.317 106.944a.57.57 0 01-.336-.11l-.033.033-.432.432a.088.088 0 01-.128-.122l.003-.003.432-.432.033-.033a.57.57 0 11.461.235zm0-.989a.418.418 0 100 .836.418.418 0 000-.836z"/>
  <path fill="#FFF" d="M107.644 147.817H45.842a.713.713 0 01-.711-.711v-28.213c0-.391.32-.711.711-.711h61.802c.391 0 .711.32.711.711v28.213c0 .391-.32.711-.711.711z"/>
  <path fill="none" stroke="#C1C1C1" stroke-linecap="round" stroke-miterlimit="10" stroke-dasharray="1.9942,2.9914" d="M107.644 147.817H45.842a.713.713 0 01-.711-.711v-28.213c0-.391.32-.711.711-.711h61.802c.391 0 .711.32.711.711v28.213c0 .391-.32.711-.711.711z"/>
  <path fill="#9E9E9E" d="M92.307 126.118H61.178a.256.256 0 01-.255-.255v-.838c0-.14.115-.255.255-.255h31.129c.14 0 .255.115.255.255v.838a.254.254 0 01-.255.255z"/>
  <path fill="#BABABA" d="M86.073 139.757h-18.66c-.078 0-.142-.064-.142-.142s.064-.142.142-.142h18.66a.142.142 0 110 .284z"/>
  <path fill="#BCBCBC" d="M95.498 138.251c.097 0 .176.079.176.176v2.376a.176.176 0 01-.176.176H57.987a.179.179 0 01-.176-.176v-2.376c0-.095.081-.176.176-.176h37.511m0-.25H57.987a.428.428 0 00-.426.426v2.376c0 .234.192.426.426.426h37.511a.428.428 0 00.426-.426v-2.376a.427.427 0 00-.426-.426z"/>
  <path fill="#D5E2EB" d="M84.368 134.143h-15.25a.48.48 0 01-.478-.478v-2.272a.48.48 0 01.478-.478h15.25a.48.48 0 01.478.478v2.272a.48.48 0 01-.478.478z"/>
  <path fill="#719AC6" d="M82.516 132.672H70.969c-.078 0-.142-.064-.142-.142s.064-.142.142-.142h11.547a.142.142 0 110 .284z"/>
  <path opacity=".65" fill="#C8C8C8" d="M60.259 112.589a2.1 2.1 0 002.093 2.093h28.749a2.1 2.1 0 002.093-2.093V103.052H60.259v9.537z"/>
  <linearGradient id="b" gradientUnits="userSpaceOnUse" x1="76.727" y1="53.777" x2="76.727" y2="78.576">
    <stop offset="0" stop-color="#d5e2eb" stop-opacity="0"/>
    <stop offset="1" stop-color="#627689"/>
  </linearGradient>
  <path opacity=".2" fill="url(#b)" d="M91.101 48.411H62.352a2.1 2.1 0 00-2.093 2.093v38.307a2.1 2.1 0 002.093 2.093h28.749a2.1 2.1 0 002.093-2.093V50.504a2.1 2.1 0 00-2.093-2.093z"/>
  <path fill="#F7F7F7" d="M91.101 71.306H70.728v.032l-.01.003v8.365a2.1 2.1 0 01-2.093 2.093h-8.366v29.907a2.1 2.1 0 002.093 2.093h28.749a2.1 2.1 0 002.093-2.093V73.398a2.098 2.098 0 00-2.093-2.092z"/>
  <path opacity=".22" fill="#C8C8C8" d="M70.727 71.306l-.133.055-10.335 10.386v.945h9.26a2.1 2.1 0 002.093-2.093v-9.293h-.885z"/>
  <path fill="#A1B5C4" d="M70.718 79.705v-5.859l.01-2.54a1.102 1.102 0 00-.576.306l-9.586 9.587c-.205.233-.307.576-.307.576v.024h8.366a2.1 2.1 0 002.093-2.094z"/>
  <path fill="#EDEDED" d="M65.408 86.455h22.907v2.807H65.408z"/>
  <path fill="#BCBCBC" d="M88.189 86.58v2.557H65.533V86.58h22.656m.25-.25H65.283v3.057H88.44V86.33h-.001z"/>
  <path fill="#FFF" d="M65.408 89.244h22.907v2.808H65.408z"/>
  <path fill="#BCBCBC" d="M88.189 89.369v2.557H65.533v-2.557h22.656m.25-.25H65.283v3.057H88.44v-3.057h-.001z"/>
  <path fill="#FFF" d="M65.408 92.032h22.907v2.808H65.408z"/>
  <path fill="#BCBCBC" d="M88.189 92.157v2.557H65.533v-2.557h22.656m.25-.25H65.283v3.057H88.44v-3.057h-.001z"/>
  <path fill="#FFF" d="M65.408 94.821h22.907v2.808H65.408z"/>
  <path fill="#BCBCBC" d="M88.189 94.946v2.557H65.533v-2.557h22.656m.25-.25H65.283v3.057H88.44v-3.057h-.001z"/>
  <path fill="#FFF" d="M65.408 97.605h22.907v2.807H65.408z"/>
  <path fill="#BCBCBC" d="M88.189 97.73v2.557H65.533V97.73h22.656m.25-.25H65.283v3.057H88.44V97.48h-.001z"/>
  <path fill="#FFF" d="M65.408 100.393h22.907v2.808H65.408z"/>
  <path fill="#BCBCBC" d="M88.189 100.519v2.557H65.533v-2.557h22.656m.25-.25H65.283v3.057H88.44v-3.057h-.001z"/>
  <g>
    <path fill="#FFF" d="M65.408 103.177h22.907v2.808H65.408z"/>
    <path fill="#BCBCBC" d="M88.189 103.302v2.557H65.533v-2.557h22.656m.25-.25H65.283v3.057H88.44v-3.057h-.001z"/>
  </g>
  <g>
    <path fill="#FFF" d="M65.408 105.966h22.907v2.808H65.408z"/>
    <path fill="#BCBCBC" d="M88.189 106.091v2.557H65.533v-2.557h22.656m.25-.25H65.283v3.057H88.44v-3.057h-.001z"/>
  </g>
  <linearGradient id="c" gradientUnits="userSpaceOnUse" x1="86.757" y1="60.629" x2="86.757" y2="75.066">
    <stop offset="0" stop-color="#d5e2eb" stop-opacity="0"/>
    <stop offset="1" stop-color="#86d291"/>
  </linearGradient>
  <path opacity=".3" fill="url(#c)" d="M93.74 75.872H79.775a.865.865 0 01-.865-.865V59.016c0-.477.387-.865.865-.865H93.74c.477 0 .865.387.865.865v15.991a.865.865 0 01-.865.865z"/>
  <path fill="none" stroke="#BCBCBC" stroke-width=".25" stroke-miterlimit="10" d="M68.613 86.469v22.309M78.258 86.469v22.309"/>
  <path fill="#70BA78" d="M94.018 81.798H79.497a.586.586 0 01-.586-.586V74.23c0-.324.263-.586.586-.586h14.522c.324 0 .586.263.586.586v6.982a.587.587 0 01-.587.586z"/>
  <g fill="#FFF">
    <path d="M83.87 77.703l1.227-2.012a.167.167 0 00.003-.165.163.163 0 00-.142-.083h-.848a.163.163 0 00-.141.081l-.749 1.286-.748-1.285a.163.163 0 00-.141-.081h-.848a.162.162 0 00-.139.248l1.229 2.012-1.258 2.046a.163.163 0 00.139.248h.854c.058 0 .111-.03.141-.08l.771-1.311.768 1.311c.029.05.083.08.141.08h.857a.162.162 0 00.139-.248l-1.255-2.047zM88.413 79.086h-1.757v-3.479a.163.163 0 00-.163-.163h-.735a.163.163 0 00-.163.163v4.228c0 .09.073.163.163.163h2.654c.09 0 .163-.073.163-.163v-.586a.162.162 0 00-.162-.163zM92.063 78.091a1.43 1.43 0 00-.494-.487 3.42 3.42 0 00-.833-.352c-.31-.092-.532-.186-.66-.278-.132-.095-.147-.191-.147-.255 0-.134.043-.229.136-.301.102-.079.257-.119.459-.119.215 0 .378.049.485.145.103.093.154.223.154.397 0 .09.073.163.163.163h.732c.09 0 .163-.073.163-.163 0-.275-.075-.53-.224-.756a1.46 1.46 0 00-.61-.521 1.999 1.999 0 00-.857-.178c-.48 0-.878.123-1.184.367a1.192 1.192 0 00-.478.97c0 .447.22.813.654 1.085.214.133.5.255.853.361.397.119.575.217.654.278.09.07.132.165.132.301a.34.34 0 01-.132.284c-.098.079-.258.119-.474.119-.256 0-.45-.054-.578-.16-.12-.101-.179-.242-.179-.432a.163.163 0 00-.163-.163H88.9a.163.163 0 00-.163.163c0 .298.082.564.244.791.159.223.382.399.665.523.277.123.582.184.91.184.497 0 .9-.116 1.199-.346.311-.239.468-.566.468-.97a1.271 1.271 0 00-.16-.65z"/>
  </g>
  <g>
    <path fill="#A1B5C4" d="M33.582 89.385c0 .669.548 1.217 1.217 1.217h16.715c.669 0 1.217-.548 1.217-1.217V83.84H33.582v5.545z"/>
    <linearGradient id="d" gradientUnits="userSpaceOnUse" x1="43.156" y1="55.19" x2="43.156" y2="69.609">
      <stop offset="0" stop-color="#d5e2eb" stop-opacity="0"/>
      <stop offset="1" stop-color="#627689"/>
    </linearGradient>
    <path opacity=".2" fill="url(#d)" d="M51.514 52.07H34.799c-.669 0-1.217.548-1.217 1.217v22.272c0 .669.548 1.217 1.217 1.217h16.715c.669 0 1.217-.548 1.217-1.217V53.287c0-.669-.548-1.217-1.217-1.217z"/>
    <path fill="#F7F7F7" d="M51.514 65.382H39.668v.018l-.006.002V70.265c0 .669-.548 1.217-1.217 1.217h-4.864v17.389c0 .669.548 1.217 1.217 1.217h16.715c.669 0 1.217-.548 1.217-1.217V66.598a1.219 1.219 0 00-1.216-1.216z"/>
    <path opacity=".22" fill="#C8C8C8" d="M39.668 65.382l-.078.032-6.009 6.039v.549h5.384c.669 0 1.217-.548 1.217-1.217v-5.403h-.514z"/>
    <path fill="#A1B5C4" d="M39.662 70.265V66.859l.006-1.477a.643.643 0 00-.335.178l-5.574 5.574a1.031 1.031 0 00-.178.335v.014h4.864a1.221 1.221 0 001.217-1.218z"/>
    <path fill="#EDEDED" d="M36.628 74.242h13.214v1.527H36.628z"/>
    <path fill="#BCBCBC" d="M49.716 74.367v1.278H36.753v-1.278h12.963m.25-.25H36.503v1.778h13.464v-1.778h-.001z"/>
    <path fill="#FFF" d="M36.628 75.864h13.214v1.527H36.628z"/>
    <path fill="#BCBCBC" d="M49.716 75.989v1.278H36.753v-1.278h12.963m.25-.25H36.503v1.778h13.464v-1.778h-.001z"/>
    <path fill="#FFF" d="M36.628 77.485h13.214v1.527H36.628z"/>
    <path fill="#BCBCBC" d="M49.716 77.61v1.278H36.753V77.61h12.963m.25-.25H36.503v1.778h13.464V77.36h-.001z"/>
    <path fill="#FFF" d="M36.628 79.106h13.214v1.527H36.628z"/>
    <path fill="#BCBCBC" d="M49.716 79.231v1.278H36.753v-1.278h12.963m.25-.25H36.503v1.778h13.464v-1.778h-.001z"/>
    <path fill="#FFF" d="M36.628 80.725h13.214v1.528H36.628z"/>
    <path fill="#BCBCBC" d="M49.716 80.85v1.278H36.753V80.85h12.963m.25-.25H36.503v1.778h13.464V80.6h-.001z"/>
    <path fill="#FFF" d="M36.628 82.346h13.214v1.528H36.628z"/>
    <path fill="#BCBCBC" d="M49.716 82.471v1.278H36.753v-1.278h12.963m.25-.25H36.503v1.778h13.464v-1.778h-.001z"/>
    <g>
      <path fill="#FFF" d="M36.628 83.965h13.214v1.528H36.628z"/>
      <path fill="#BCBCBC" d="M49.716 84.09v1.278H36.753V84.09h12.963m.25-.25H36.503v1.778h13.464V83.84h-.001z"/>
    </g>
    <g>
      <path fill="#FFF" d="M36.628 85.586h13.214v1.527H36.628z"/>
      <path fill="#BCBCBC" d="M49.716 85.711v1.278H36.753v-1.278h12.963m.25-.25H36.503v1.778h13.464v-1.778h-.001z"/>
    </g>
    <linearGradient id="e" gradientUnits="userSpaceOnUse" x1="48.988" y1="59.174" x2="48.988" y2="67.568">
      <stop offset="0" stop-color="#d5e2eb" stop-opacity="0"/>
      <stop offset="1" stop-color="#994e9b"/>
    </linearGradient>
    <path opacity=".3" fill="url(#e)" d="M53.048 68.037h-8.12a.503.503 0 01-.503-.503v-9.298c0-.278.225-.503.503-.503h8.12c.278 0 .503.225.503.503v9.298a.503.503 0 01-.503.503z"/>
    <path fill="none" stroke="#BCBCBC" stroke-width=".25" stroke-miterlimit="10" d="M38.439 74.198v12.971M44.046 74.198v12.971"/>
    <path fill="#994E9B" d="M53.21 71.482h-8.443a.341.341 0 01-.341-.341v-4.059c0-.188.153-.341.341-.341h8.443c.188 0 .341.153.341.341v4.059a.34.34 0 01-.341.341z"/>
    <g fill="#FFF">
      <path d="M46.584 68.453c.081-.111.196-.165.352-.165.134 0 .234.031.299.092.066.062.108.171.125.324a.094.094 0 00.094.084h.426a.093.093 0 00.07-.031.093.093 0 00.024-.073c-.029-.293-.137-.523-.32-.685-.182-.162-.424-.244-.718-.244a1.026 1.026 0 00-.973.607 1.539 1.539 0 00-.132.653v.231c.003.239.049.453.136.635.089.187.217.333.381.436.163.102.355.154.568.154.302 0 .55-.082.736-.244.187-.162.296-.39.323-.677a.094.094 0 00-.094-.104h-.426a.094.094 0 00-.094.083c-.019.152-.063.259-.13.318-.066.059-.172.089-.315.089a.382.382 0 01-.34-.168c-.084-.123-.126-.31-.126-.555v-.217c.001-.242.046-.424.134-.543zM49.687 69.044a2.048 2.048 0 00-.484-.205 1.384 1.384 0 01-.384-.162c-.077-.056-.086-.111-.086-.148 0-.078.025-.133.079-.175a.432.432 0 01.267-.07c.125 0 .22.028.282.084.06.055.09.13.09.231 0 .052.042.095.095.095h.426a.095.095 0 00.095-.095.793.793 0 00-.13-.44.842.842 0 00-.355-.303 1.155 1.155 0 00-.498-.103c-.279 0-.51.072-.688.213a.695.695 0 00-.278.564c0 .26.128.473.38.631.125.078.287.147.496.21.231.069.334.126.38.161.052.041.077.096.077.175a.197.197 0 01-.077.165c-.057.046-.15.069-.276.069-.149 0-.262-.031-.336-.093-.07-.059-.104-.141-.104-.251a.095.095 0 00-.095-.095h-.427a.095.095 0 00-.095.095c0 .174.048.328.142.46.092.13.222.232.387.304.161.071.339.107.529.107.289 0 .523-.068.697-.201a.677.677 0 00.272-.564.745.745 0 00-.093-.377.837.837 0 00-.288-.282zM52.385 67.828a.094.094 0 00-.077-.04h-.469a.095.095 0 00-.09.065l-.534 1.644-.528-1.644a.095.095 0 00-.09-.066h-.468a.093.093 0 00-.077.04.096.096 0 00-.012.087l.881 2.458a.094.094 0 00.089.063h.414c.04 0 .076-.025.089-.063l.885-2.458a.094.094 0 00-.013-.086z"/>
    </g>
  </g>
  <g>
    <path fill="#A1B5C4" d="M100.73 79.392c0 .669.548 1.217 1.217 1.217h16.715c.669 0 1.217-.548 1.217-1.217v-5.544H100.73v5.544z"/>
    <linearGradient id="f" gradientUnits="userSpaceOnUse" x1="110.304" y1="45.197" x2="110.304" y2="59.616">
      <stop offset="0" stop-color="#d5e2eb" stop-opacity="0"/>
      <stop offset="1" stop-color="#627689"/>
    </linearGradient>
    <path opacity=".2" fill="url(#f)" d="M118.662 42.078h-16.715c-.669 0-1.217.548-1.217 1.217v22.272c0 .669.548 1.217 1.217 1.217h16.715c.669 0 1.217-.548 1.217-1.217V43.294a1.22 1.22 0 00-1.217-1.216z"/>
    <path fill="#F7F7F7" d="M118.662 55.389h-11.846v.018l-.006.002V60.272c0 .669-.548 1.217-1.217 1.217h-4.864v17.389c0 .669.548 1.217 1.217 1.217h16.715c.669 0 1.217-.548 1.217-1.217V56.606a1.22 1.22 0 00-1.216-1.217z"/>
    <path opacity=".22" fill="#C8C8C8" d="M106.816 55.389l-.078.032-6.009 6.039v.549h5.384c.669 0 1.217-.548 1.217-1.217v-5.403h-.514z"/>
    <path fill="#A1B5C4" d="M106.811 60.273V56.867l.006-1.477a.643.643 0 00-.335.178l-5.574 5.574a1.031 1.031 0 00-.178.335v.014h4.864a1.223 1.223 0 001.217-1.218z"/>
    <linearGradient id="g" gradientUnits="userSpaceOnUse" x1="116.137" y1="49.182" x2="116.137" y2="57.575">
      <stop offset="0" stop-color="#d5e2eb" stop-opacity="0"/>
      <stop offset="1" stop-color="#467dcc"/>
    </linearGradient>
    <path opacity=".3" fill="url(#g)" d="M120.197 58.044h-8.12a.503.503 0 01-.503-.503v-9.298c0-.278.225-.503.503-.503h8.12c.278 0 .503.225.503.503v9.298a.504.504 0 01-.503.503z"/>
    <path fill="#467DCC" d="M120.358 61.49h-8.443a.341.341 0 01-.341-.341V57.09c0-.188.153-.341.341-.341h8.443c.188 0 .341.153.341.341v4.059a.34.34 0 01-.341.341z"/>
    <g fill="#FFF">
      <path d="M116.442 57.824a.096.096 0 00-.091-.063h-.393a.096.096 0 00-.091.063l-.908 2.403-.473-.876a.854.854 0 00.286-.249.806.806 0 00.14-.48c0-.276-.091-.492-.272-.642-.176-.144-.423-.218-.736-.218h-.887a.097.097 0 00-.097.097v2.521c0 .054.044.097.097.097h.438a.097.097 0 00.097-.097v-.872h.332l.478.917c.017.032.05.052.086.052h.469a.076.076 0 00.04-.013c.014.008.03.013.047.013h.455a.097.097 0 00.092-.065l.181-.522h.839l.183.522a.098.098 0 00.092.065h.457a.098.098 0 00.091-.132l-.952-2.521zm-.06 1.518h-.457l.228-.654.229.654zm-2.102-.703c0 .101-.03.178-.093.233-.065.058-.157.087-.281.087h-.353v-.651h.364c.126.002.22.031.278.087.057.056.085.136.085.244zM119.578 60.311l-.518-.96a.854.854 0 00.286-.249.806.806 0 00.14-.48c0-.276-.091-.492-.272-.642-.176-.144-.423-.218-.736-.218h-.887a.097.097 0 00-.097.097v2.521c0 .054.044.097.097.097h.438a.097.097 0 00.097-.097v-.872h.332l.478.917c.017.032.05.052.086.052h.469c.054 0 .097-.066.097-.12a.074.074 0 00-.01-.046zm-.725-1.672c0 .101-.03.178-.093.233-.065.058-.157.087-.281.087h-.353v-.651h.364c.126.002.22.031.278.087.057.056.085.136.085.244z"/>
    </g>
    <g>
      <path fill="#BCBCBC" d="M109.035 72.679h1.27v.927h-1.27zM109.035 66.079h2.54v3.819h-2.54z"/>
      <path fill="#BCBCBC" d="M110.304 73.606h1.27v.927h-1.27zM109.035 70.825h1.27v.927h-1.27z"/>
      <path fill="#BCBCBC" d="M110.304 71.752h1.27v.927h-1.27zM109.035 74.533h1.27v.927h-1.27z"/>
      <path fill="#BCBCBC" d="M110.304 75.46h1.27v.927h-1.27zM109.035 76.387h1.27v.927h-1.27z"/>
      <path fill="#BCBCBC" d="M110.304 77.314h1.27v.927h-1.27zM109.035 78.241h1.27v.927h-1.27zM110.304 79.168h1.27v.927h-1.27z"/>
      <path fill="#FFF" d="M109.67 68.276h1.27v.927h-1.27z"/>
    </g>
  </g>
</svg>