<svg xmlns="http://www.w3.org/2000/svg" viewBox="0 0 99.685 167.292">
    <path fill="#c3d2db" d="M15.396 70.606c-.018 10.323 5.803 18.061 13.351 20.745V80.888c-3.992-2.951-6.898-5.27-8.007-10.926h-5.344v.644zm76.597 54.874h4.862l-.011-15.991h-4.851zm4.845-24.488c.018-10.323-5.803-18.061-13.351-20.745v10.464c3.992 2.951 6.898 5.27 8.007 10.926h5.344v-.645z"/>
    <path fill="#c3d2db" fill-rule="evenodd" clip-rule="evenodd" d="M19.824 38.175l1.41 1.39 3.405-3.284 1.213-4.416-2.182-2.434-1.322 1.23 1.499 1.793-.74 2.433z"/>
    <path fill="#8c9faf" fill-rule="evenodd" clip-rule="evenodd" d="M20.389 38.674l3.168-3.267.592.417.281-.465-.642-.472.659-2.088.836-.472-.269-.563-.777.315-1.136-1.386.546-1.269-1.299 1.237 1.499 1.793-.725 2.39-3.283 3.288z"/>
    <path fill="#c3d2db" fill-rule="evenodd" clip-rule="evenodd" d="M14.649 37.5l-1.361 1.509-2.997-4.297-.338-4.567 2.61-1.967 1.06 1.462-1.817 1.469.256 2.531z"/>
    <path fill="#8c9faf" fill-rule="evenodd" clip-rule="evenodd" d="M13.998 37.88l-2.478-3.817-.661.295-.186-.511.721-.338-.243-2.177-.729-.624.373-.501.701.46 1.382-1.141-.29-1.351 1.035 1.465-1.817 1.469.25 2.485 2.586 3.86z"/>
    <path fill="#c3d2db" fill-rule="evenodd" clip-rule="evenodd" d="M94.629 134.023l1.979.044.013 4.731-2.325 3.945-3.266.128-.038-1.805 2.33-.172 1.232-2.225z"/>
    <path fill="#8c9faf" fill-rule="evenodd" clip-rule="evenodd" d="M95.38 134.081l-.139 4.548.711.135-.138.526-.786-.133-1.04 1.927.243.929-.592.199-.314-.778-1.786.15-.531 1.276-.016-1.794 2.33-.172 1.211-2.184.075-4.646z"/>
    <path fill="#c3d2db" fill-rule="evenodd" clip-rule="evenodd" d="M92.494 131.129l-1.785-.858-2.155 4.211.285 4.571 2.854 1.594.851-1.592-1.999-1.209-.09-2.542z"/>
    <path fill="#8c9faf" fill-rule="evenodd" clip-rule="evenodd" d="M91.798 130.84l-1.937 4.118-.695-.202-.115.531.76.237.054 2.19-.637.717.437.446.633-.551 1.524.943-.105 1.378.827-1.546-1.999-1.21-.09-2.541 2.039-4.176z"/>
    <path fill="#c3d2db" fill-rule="evenodd" clip-rule="evenodd" d="M96.189 134.591l1.979.045.013 4.73-2.325 3.945-3.266.128-.038-1.805 2.33-.172 1.232-2.225z"/>
    <path fill="#8c9faf" fill-rule="evenodd" clip-rule="evenodd" d="M96.94 134.649l-.139 4.549.711.135-.138.525-.786-.133-1.04 1.927.243.929-.592.199-.314-.777-1.786.149-.531 1.276-.016-1.794 2.33-.172 1.211-2.184.075-4.646z"/>
    <path fill="#c3d2db" d="M37.394 121.899h7.858v32.096h-7.858z"/>
    <circle fill="#9daebc" cx="41.323" cy="136.602" r="5.17"/>
    <circle fill="#dde6eb" cx="41.323" cy="136.602" r="3.929"/>
    <circle fill="#8c9faf" cx="41.323" cy="136.602" r="2.951"/>
    <path fill="#8c9faf" d="M46.24 121.899h-9.834a2.958 2.958 0 0 1-2.949-2.949v-.749a2.958 2.958 0 0 1 2.949-2.949h9.834a2.958 2.958 0 0 1 2.949 2.949v.749a2.958 2.958 0 0 1-2.949 2.949zm-8.047 31.903h6.26c1.26 0 2.29 1.031 2.29 2.29 0 1.26-1.031 2.29-2.29 2.29h-6.26a2.297 2.297 0 0 1-2.29-2.29c0-1.26 1.031-2.29 2.29-2.29zm37.638-31.903h-9.834a2.958 2.958 0 0 1-2.949-2.949v-.749a2.958 2.958 0 0 1 2.949-2.949h9.834a2.958 2.958 0 0 1 2.949 2.949v.749a2.958 2.958 0 0 1-2.949 2.949zm-3.727-56.406H40.109a.388.388 0 0 1-.387-.387v-1.244c0-.213.174-.387.387-.387h31.995c.213 0 .387.174.387.387v1.244a.388.388 0 0 1-.387.387z"/>
    <path fill="#c3d2db" d="M72.104 63.475H40.109a.388.388 0 0 1-.387-.387v-1.244c0-.213.174-.387.387-.387h31.995c.213 0 .387.174.387.387v1.244a.388.388 0 0 1-.387.387z"/>
    <path fill="#8c9faf" d="M72.051 70.116H40.162a.441.441 0 0 1-.44-.44V67.95c0-.242.198-.44.44-.44h31.889c.242 0 .44.198.44.44v1.726c0 .242-.198.44-.44.44z"/>
    <path fill="#c3d2db" d="M72.104 67.511H40.109a.388.388 0 0 1-.387-.387V65.88c0-.213.174-.387.387-.387h31.995c.213 0 .387.174.387.387v1.244a.388.388 0 0 1-.387.387z"/>
    <path fill="#c3d2db" fill-rule="evenodd" clip-rule="evenodd" d="M74.221 53.092l2.242-1.011v-9.608h-2.242zm-36.265 0l-2.242-1.011v-9.608h2.242z"/>
    <path fill="#c3d2db" d="M71.821 61.675H40.238a2.888 2.888 0 0 1-2.88-2.88v-18.03a2.888 2.888 0 0 1 2.88-2.88h31.583a2.888 2.888 0 0 1 2.88 2.88v18.031a2.888 2.888 0 0 1-2.88 2.879z"/>
    <path d="M65.283 40.187l-.26.001-.264.001h-17.37l-.264-.001-.26-.001c-.609 0-2.464 0-2.464 1.988v5.882a2.99 2.99 0 0 0 2.987 2.987h17.371a2.99 2.99 0 0 0 2.987-2.987v-5.882c.001-1.988-1.854-1.988-2.463-1.988z" fill="#6f98c1"/>
    <path d="M64.445 50.042H47.704a2.307 2.307 0 0 1-2.3-2.3v-5.411c0-.629.51-1.14 1.14-1.14h17.902a2.3 2.3 0 0 1 2.3 2.3v4.25a2.308 2.308 0 0 1-2.301 2.301z" fill="#9ec5dd"/>
    <path fill="#fff" d="M59.89 41.192h.761v8.851h-.761zm1.515 0h1.934v8.851h-1.934z" opacity=".6"/>
    <path d="M76.961 36.982c0-11.343-9.281-20.624-20.624-20.624-11.343 0-20.624 9.281-20.624 20.624v5.492h41.248v-5.492z" fill="#627689"/>
    <path d="M35.714 42.473s7.588-5.303 26.446-6.247c20.895-1.047 21.659 6.247 21.659 6.247H35.714z" fill-rule="evenodd" clip-rule="evenodd" fill="#849aad"/>
    <path d="M36.64 42.473s8.244-4.255 25.062-5.053c21.041-.998 21.698 5.053 21.698 5.053H36.64z" fill-rule="evenodd" clip-rule="evenodd" fill="#627689"/>
    <path d="M56.244 47.113c17.92.045 20.219-2.946 20.219-2.946v-1.693h-40.75c.008.025 1.247 4.59 20.531 4.639z" opacity=".1"/>
    <path d="M60.832 30.034l1.782-4.893h-5.543c-2.573 0-5.146 1.369-5.146 4.11s3.563 3.327 5.344 1.37c0 .587.396.979 1.584.979h4.327l.57-1.566h-2.918zm-3.563-.001c-.99 0-1.584-.196-1.584-.783 0-.392.843-2.153 1.041-2.74h1.929l-1.386 3.523z" fill="#c1d4e0"/>
    <path fill="#c3d2db" d="M78.127 119.159H34.11c-3.267 0-5.94-2.673-5.94-5.94v-37.75c0-3.267 2.673-5.94 5.94-5.94h44.017c3.267 0 5.94 2.673 5.94 5.94v37.75c0 3.267-2.673 5.94-5.94 5.94z"/>
    <path fill="#8c9faf" d="M28.171 109.712h55.896v.484H28.171z"/>
    <path fill="#f8fdff" d="M28.171 113.126h55.896v.484H28.171z"/>
    <path fill="#8c9faf" d="M28.171 76.64h55.896v.484H28.171z"/>
    <path fill="#f8fdff" d="M28.171 80.054h55.896v.484H28.171z"/>
    <path fill="#8c9faf" d="M70.962 91.188v-1.37a5.718 5.718 0 0 0-3.928-1.558 5.752 5.752 0 0 0-5.5 4.07h-10.83a5.752 5.752 0 0 0-5.5-4.07 5.716 5.716 0 0 0-3.928 1.558v1.37h3.882l1.9 2.823-1.9 2.823h-3.882v1.37a5.718 5.718 0 0 0 3.928 1.558 5.752 5.752 0 0 0 5.5-4.07h10.83a5.752 5.752 0 0 0 5.5 4.07 5.716 5.716 0 0 0 3.928-1.558v-1.37H67.08l-1.9-2.823 1.9-2.823h3.882z"/>
    <path fill="#c3d2db" d="M41.323 155.555c-6.38 0-11.741 4.362-13.264 10.265h26.528c-1.523-5.904-6.884-10.265-13.264-10.265z"/>
    <path fill="#8c9faf" d="M54.047 167.292H28.6a1.17 1.17 0 0 1-1.167-1.167v-.049a1.17 1.17 0 0 1 1.167-1.167h25.447a1.17 1.17 0 0 1 1.167 1.167v.049a1.17 1.17 0 0 1-1.167 1.167z"/>
    <path fill="#c3d2db" d="M66.986 121.899h7.858v32.096h-7.858z"/>
    <circle fill="#9daebc" cx="70.915" cy="136.602" r="5.17"/>
    <circle fill="#dde6eb" cx="70.915" cy="136.602" r="3.929"/>
    <circle fill="#8c9faf" cx="70.915" cy="136.602" r="2.951"/>
    <path fill="#8c9faf" d="M67.785 153.802h6.26c1.26 0 2.29 1.031 2.29 2.29 0 1.26-1.031 2.29-2.29 2.29h-6.26a2.297 2.297 0 0 1-2.29-2.29c0-1.26 1.03-2.29 2.29-2.29z"/>
    <path fill="#c3d2db" d="M70.915 155.555c-6.38 0-11.741 4.362-13.264 10.265h26.528c-1.524-5.904-6.885-10.265-13.264-10.265z"/>
    <path fill="#8c9faf" d="M97.385 108.372H91.56c-.615 0-1.118.503-1.118 1.118 0 .615.503 1.118 1.118 1.118h5.825c.615 0 1.118-.503 1.118-1.118a1.12 1.12 0 0 0-1.118-1.118zm0-2.836H91.56c-.615 0-1.118.503-1.118 1.118 0 .615.503 1.118 1.118 1.118h5.825c.615 0 1.118-.503 1.118-1.118 0-.615-.503-1.118-1.118-1.118zm0-2.835H91.56c-.615 0-1.118.503-1.118 1.118 0 .615.503 1.118 1.118 1.118h5.825c.615 0 1.118-.503 1.118-1.118 0-.615-.503-1.118-1.118-1.118zm0-2.833H91.56c-.615 0-1.118.503-1.118 1.118 0 .615.503 1.118 1.118 1.118h5.825c.615 0 1.118-.503 1.118-1.118 0-.615-.503-1.118-1.118-1.118z"/>
    <path fill="#8c9faf" d="M96.855 123.886h-4.862v-5.038s.65 1.041 1.879 1.644c1.182.58 2.983.596 2.983.596v2.798z" opacity=".6"/>
    <path fill="#c3d2db" d="M96.408 136.282h-4.097a1.767 1.767 0 0 1-1.762-1.762v-9.122c0-.969.793-1.762 1.762-1.762h4.097c.969 0 1.762.793 1.762 1.762v9.122c0 .969-.793 1.762-1.762 1.762z"/>
    <ellipse fill="#848484" cx="17.922" cy="33.662" rx="2.1" ry="1.719"/>
    <circle fill="#ffd44a" cx="17.922" cy="11.143" r="11.143"/>
    <path fill="#ffd44a" d="M8.478 17.057s1.107 1.929 4.244 4.962c1.643 1.588 1.193 4.252 1.193 4.252l5.437.914-.305-8.91-10.569-1.218z"/>
    <path fill="#ffd44a" d="M27.367 17.057s-1.107 1.929-4.244 4.962c-1.643 1.588-1.193 4.252-1.193 4.252l-5.437.914.305-8.91 10.569-1.218z"/>
    <circle fill="#e0ac44" cx="17.922" cy="11.979" r="1.973"/>
    <path fill="#e0ac44" d="M18.688 13.339a.766.766 0 0 0-1.531 0v14.31h1.531v-14.31z"/>
    <path d="M21.615 33.966h-7.386a1.04 1.04 0 0 1-1.037-1.037v-7.116c0-.57.467-1.037 1.037-1.037h7.386c.57 0 1.037.467 1.037 1.037v7.116a1.04 1.04 0 0 1-1.037 1.037z" fill="#c8c7c7"/>
    <path fill="#848484" d="M13.192 26.308h9.461v1.532h-9.461zm0 3.063h9.461v1.532h-9.461zm0 3.558c0 .57.467 1.037 1.037 1.037h7.386a1.04 1.04 0 0 0 1.037-1.037v-.494h-9.46v.494z"/>
    <ellipse transform="rotate(-45.001 17.81 11.939)" cx="17.809" cy="11.938" rx="4.632" ry="4.632" fill="none" stroke="#e0ac44" stroke-miterlimit="10" stroke-dasharray="7.2649,7.2649"/>
    <path fill="#8c9faf" d="M85.076 80.538h-1.009v12.723h1.009a1.99 1.99 0 0 0 1.985-1.985v-8.752a1.99 1.99 0 0 0-1.985-1.986z"/>
    <path fill="none" d="M52.828 54.255h6.292c.698 0 1.267-.568 1.267-1.267v-1.946h-8.826v1.946c0 .698.568 1.267 1.267 1.267zm0 2h6.292c.698 0 1.267-.568 1.267-1.267v-.173h-8.826v.173c0 .698.568 1.267 1.267 1.267z"/>
    <path fill="#8c9faf" d="M60.387 54.427c0 .699-.569 1.267-1.267 1.267h-6.292a1.268 1.268 0 0 1-1.267-1.267v-.173h-1.934v.173a3.205 3.205 0 0 0 3.201 3.201h6.292a3.205 3.205 0 0 0 3.202-3.201v-.173h-1.935v.173z"/>
    <path fill="#8c9faf" d="M90.549 125.994h7.632v.484h-7.632z" opacity=".7"/>
    <path fill="#f8fdff" d="M90.544 133.441h7.632v.484h-7.632z" opacity=".7"/>
    <circle fill="#9daebc" cx="97.089" cy="131.995" r="2.596"/>
    <circle fill="#dde6eb" cx="97.089" cy="131.995" r="1.984"/>
    <circle fill="#8c9faf" cx="97.089" cy="131.995" r="1.49"/>
    <path fill="#c3d2db" d="M20.24 46.119h-4.862l.012 15.99h4.85z"/>
    <path fill="#8c9faf" d="M14.848 63.227h5.825c.615 0 1.118-.503 1.118-1.118 0-.615-.503-1.118-1.118-1.118h-5.825c-.615 0-1.118.503-1.118 1.118 0 .615.503 1.118 1.118 1.118zm0 2.835h5.825c.615 0 1.118-.503 1.118-1.118 0-.615-.503-1.118-1.118-1.118h-5.825c-.615 0-1.118.503-1.118 1.118 0 .615.503 1.118 1.118 1.118zm0 2.836h5.825c.615 0 1.118-.503 1.118-1.118 0-.615-.503-1.118-1.118-1.118h-5.825c-.615 0-1.118.503-1.118 1.118 0 .615.503 1.118 1.118 1.118zm0 2.833h5.825c.615 0 1.118-.503 1.118-1.118 0-.615-.503-1.118-1.118-1.118h-5.825c-.615 0-1.118.503-1.118 1.118 0 .615.503 1.118 1.118 1.118z"/>
    <path fill="#8c9faf" d="M15.378 47.712h4.862v5.038s-.65-1.041-1.879-1.644c-1.182-.58-2.983-.596-2.983-.596v-2.798z" opacity=".6"/>
    <path fill="#c3d2db" d="M15.825 35.316h4.097c.969 0 1.762.793 1.762 1.762V46.2c0 .969-.793 1.762-1.762 1.762h-4.097a1.767 1.767 0 0 1-1.762-1.762v-9.122c0-.969.793-1.762 1.762-1.762z"/>
    <path fill="#8c9faf" d="M27.162 91.061h1.009V78.338h-1.009a1.99 1.99 0 0 0-1.985 1.985v8.752c0 1.092.893 1.986 1.985 1.986z"/>
    <path fill="#8c9faf" d="M21.685 45.604h-7.632v-.484h7.632z" opacity=".7"/>
    <path fill="#f8fdff" d="M21.69 38.158h-7.632v-.484h7.632z" opacity=".7"/>
    <circle fill="#9daebc" cx="15.145" cy="39.604" r="2.596"/>
    <circle fill="#dde6eb" cx="15.145" cy="39.604" r="1.984"/>
    <circle fill="#8c9faf" cx="15.145" cy="39.604" r="1.49"/>
    <path fill="#8c9faf" d="M83.638 167.292H58.191a1.17 1.17 0 0 1-1.167-1.167v-.049a1.17 1.17 0 0 1 1.167-1.167h25.447a1.17 1.17 0 0 1 1.167 1.167v.049a1.17 1.17 0 0 1-1.167 1.167z"/>
    <path fill="#8c9faf" d="M40.233 61.675h31.583c.868 0 1.64-.397 2.169-1.009h-35.92a2.86 2.86 0 0 0 2.168 1.009z" opacity=".6"/>
</svg>
