<svg xmlns="http://www.w3.org/2000/svg" viewBox="0 0 178.979 150.934" preserveAspectRatio="xMidYMax meet">
    <path fill="#C3D2DB" d="M130.47 73.702l-11.02.016-2.72-10.61 5.516-.008c3.034-.004 6.128 2.379 6.876 5.297a1307.83 1307.83 0 0 1 1.348 5.305z"/>
    <path fill="#8C9FAF" d="M123.27 70.341h5.825c.615 0 1.118.503 1.118 1.118 0 .615-.503 1.118-1.118 1.118h-5.825a1.121 1.121 0 0 1-1.118-1.118c0-.615.503-1.118 1.118-1.118z"/>
    <path fill="#D8E8EF" d="M23.915 70.311H6.585c-3.215 0-5.845-2.63-5.845-5.845s2.63-5.845 5.845-5.845h17.33c3.215 0 5.845 2.63 5.845 5.845 0 3.214-2.63 5.845-5.845 5.845zM57.676 98.055H35.474c-3.215 0-5.845-2.63-5.845-5.845s2.63-5.845 5.845-5.845h22.201c3.215 0 5.845 2.63 5.845 5.845.001 3.215-2.63 5.845-5.844 5.845zM144.253 84.053h-41.626c-3.215 0-5.845-2.63-5.845-5.845s2.63-5.845 5.845-5.845h41.626c3.215 0 5.845 2.63 5.845 5.845s-2.63 5.845-5.845 5.845zM139.852 27.96h-9.274c-3.215 0-5.845-2.63-5.845-5.845s2.63-5.845 5.845-5.845h9.274c3.215 0 5.845 2.63 5.845 5.845s-2.63 5.845-5.845 5.845zM98.403 28.542H77.601c-3.215 0-5.845-2.63-5.845-5.845l.002-.088h-.01c-.047-3.175-2.657-5.757-5.843-5.757H24.363c-3.215 0-5.845 2.63-5.845 5.845s2.63 5.845 5.845 5.845h22.565c-.131 0-.26.006-.389.015 3.035.202 5.456 2.747 5.456 5.83s-2.421 5.628-5.456 5.83c.129.009.258.015.389.015H35.471c-3.215 0-5.845 2.63-5.845 5.845s2.63 5.845 5.845 5.845h46.956c3.184 0 5.794-2.581 5.843-5.755h.002l-.001-.04.001-.05-.001-.048c.027-3.192 2.646-5.795 5.844-5.795h-.579l.026-.003h4.842c3.215 0 5.845-2.63 5.845-5.845s-2.631-5.844-5.846-5.844zM165.174 51.234h-17.626c-3.182-.039-5.773-2.652-5.773-5.843l.002-.088h-.005c-.046-3.175-2.657-5.759-5.843-5.759h-30.121c-3.215 0-5.845 2.63-5.845 5.845s2.63 5.845 5.845 5.845h5.458l.024.003h-.53c3.185 0 5.795 2.582 5.843 5.756l-.002.086.002.088v.002c.049 3.173 2.658 5.755 5.843 5.755h42.728c3.215 0 5.845-2.63 5.845-5.845s-2.631-5.845-5.845-5.845z"/>
    <path fill="#C3D2DB" d="M48.312 73.702l11.02.016 2.72-10.61-5.516-.008c-3.034-.004-6.128 2.379-6.876 5.297-.747 2.918-1.348 5.305-1.348 5.305zM70.664 105.541h7.858v32.096h-7.858z"/>
    <circle fill="#9DAEBC" cx="74.593" cy="120.244" r="5.17"/>
    <circle fill="#DDE6EB" cx="74.593" cy="120.244" r="3.929"/>
    <circle fill="#8C9FAF" cx="74.593" cy="120.244" r="2.951"/>
    <path fill="#8C9FAF" d="M71.463 137.444h6.26c1.26 0 2.29 1.031 2.29 2.29 0 1.26-1.031 2.29-2.29 2.29h-6.26a2.297 2.297 0 0 1-2.29-2.29c0-1.26 1.03-2.29 2.29-2.29z"/>
    <path fill="#C3D2DB" d="M105.373 47.117H73.379a.388.388 0 0 1-.387-.387v-1.244c0-.213.174-.387.387-.387h31.995c.213 0 .387.174.387.387v1.244a.39.39 0 0 1-.388.387z"/>
    <path fill-rule="evenodd" clip-rule="evenodd" fill="#C3D2DB" d="M107.491 36.734l2.242-1.011v-9.608h-2.242zM71.225 36.734l-2.242-1.011v-9.608h2.242z"/>
    <path fill="#C3D2DB" d="M105.09 45.317H73.507a2.888 2.888 0 0 1-2.88-2.88v-18.03a2.888 2.888 0 0 1 2.88-2.88h31.583a2.888 2.888 0 0 1 2.88 2.88v18.031a2.887 2.887 0 0 1-2.88 2.879z"/>
    <path fill="#6F98C1" d="M98.552 23.829l-.26.001-.264.001h-17.37l-.264-.001-.26-.001c-.609 0-2.464 0-2.464 1.988v5.882a2.99 2.99 0 0 0 2.987 2.987h17.371a2.99 2.99 0 0 0 2.987-2.987v-5.882c.001-1.988-1.854-1.988-2.463-1.988z"/>
    <path fill="#9EC5DD" d="M97.714 33.684H80.973a2.307 2.307 0 0 1-2.3-2.3v-5.411c0-.629.51-1.14 1.14-1.14h17.902a2.3 2.3 0 0 1 2.3 2.3v4.25a2.308 2.308 0 0 1-2.301 2.301z"/>
    <path opacity=".6" fill="#FFF" d="M93.159 24.834h.761v8.851h-.761zM94.674 24.834h1.934v8.851h-1.934z"/>
    <path fill="#627689" d="M110.23 20.624C110.23 9.281 100.95 0 89.607 0 78.264 0 68.983 9.281 68.983 20.624v5.492h41.248v-5.492z"/>
    <path fill-rule="evenodd" clip-rule="evenodd" fill="#849AAD" d="M68.983 26.115s7.588-5.303 26.446-6.247c20.895-1.047 21.659 6.247 21.659 6.247H68.983z"/>
    <path fill-rule="evenodd" clip-rule="evenodd" fill="#627689" d="M69.91 26.115s8.244-4.255 25.062-5.053c21.041-.998 21.698 5.053 21.698 5.053H69.91z"/>
    <path opacity=".1" d="M89.513 30.755c17.92.045 20.219-2.946 20.219-2.946v-1.693h-40.75c.008.025 1.247 4.59 20.531 4.639z"/>
    <path fill="#C1D4E0" d="M94.101 13.676l1.782-4.893H90.34c-2.573 0-5.146 1.369-5.146 4.11s3.563 3.327 5.344 1.37c0 .587.396.979 1.584.979h4.327l.57-1.566h-2.918zm-3.563-.001c-.99 0-1.584-.196-1.584-.783 0-.392.843-2.153 1.041-2.74h1.929l-1.386 3.523z"/>
    <path fill="#C3D2DB" d="M74.593 139.197c-6.38 0-11.741 4.362-13.264 10.265h26.528c-1.524-5.903-6.885-10.265-13.264-10.265z"/>
    <path fill="#8C9FAF" d="M87.316 150.934H61.869a1.17 1.17 0 0 1-1.167-1.167v-.049a1.17 1.17 0 0 1 1.167-1.167h25.447a1.17 1.17 0 0 1 1.167 1.167v.049a1.17 1.17 0 0 1-1.167 1.167z"/>
    <path fill="#C3D2DB" d="M100.255 105.541h7.858v32.096h-7.858z"/>
    <circle fill="#9DAEBC" cx="104.184" cy="120.244" r="5.17"/>
    <circle fill="#DDE6EB" cx="104.184" cy="120.244" r="3.929"/>
    <circle fill="#8C9FAF" cx="104.184" cy="120.244" r="2.951"/>
    <path fill="#8C9FAF" d="M101.054 137.444h6.26c1.26 0 2.29 1.031 2.29 2.29 0 1.26-1.031 2.29-2.29 2.29h-6.26a2.297 2.297 0 0 1-2.29-2.29c0-1.26 1.03-2.29 2.29-2.29z"/>
    <path fill="#C3D2DB" d="M104.184 139.197c-6.38 0-11.741 4.362-13.264 10.265h26.528c-1.524-5.903-6.884-10.265-13.264-10.265z"/>
    <path fill="none" d="M86.097 37.897h6.292c.698 0 1.267-.568 1.267-1.267v-1.946H84.83v1.946c0 .698.568 1.267 1.267 1.267zM86.097 39.897h6.292c.698 0 1.267-.568 1.267-1.267v-.173H84.83v.173c0 .698.568 1.267 1.267 1.267z"/>
    <path fill="#8C9FAF" d="M93.656 38.069c0 .699-.569 1.267-1.267 1.267h-6.292a1.268 1.268 0 0 1-1.267-1.267v-.173h-1.934v.173a3.205 3.205 0 0 0 3.201 3.201h6.292a3.205 3.205 0 0 0 3.202-3.201v-.173h-1.935v.173zM116.907 150.934H91.46a1.17 1.17 0 0 1-1.167-1.167v-.049a1.17 1.17 0 0 1 1.167-1.167h25.447a1.17 1.17 0 0 1 1.167 1.167v.049a1.17 1.17 0 0 1-1.167 1.167z"/>
    <path opacity=".6" fill="#8C9FAF" d="M73.502 45.317h31.583c.868 0 1.64-.397 2.169-1.009h-35.92a2.863 2.863 0 0 0 2.168 1.009z"/>
    <path fill="#8C9FAF" d="M55.512 70.341h-5.825c-.615 0-1.118.503-1.118 1.118 0 .615.503 1.118 1.118 1.118h5.825c.615 0 1.118-.503 1.118-1.118 0-.615-.503-1.118-1.118-1.118z"/>
    <circle fill="#80DA8D" cx="89.406" cy="81.145" r="37.873"/>
    <path fill="#FFF" d="M106.064 73.361c0 .573-.2 1.058-.6 1.462L89.901 90.386l-2.923 2.923c-.4.4-.889.604-1.462.604s-1.058-.2-1.462-.604l-2.923-2.923-7.782-7.782c-.4-.4-.6-.889-.6-1.462s.2-1.062.6-1.462l2.923-2.923c.4-.4.889-.604 1.462-.604s1.058.2 1.462.604l6.32 6.339 14.102-14.121c.4-.4.885-.6 1.458-.6s1.062.2 1.462.6l2.923 2.923c.399.405.603.89.603 1.463z"/>
    <path fill="#63AD6C" d="M54.713 86.729a.442.442 0 0 0-.441-.441h.621c.723 0 1.314-.591 1.314-1.314v-8.216c0-.722-.591-1.314-1.314-1.314h-.621a.442.442 0 0 0 0-.882h-2.158a38.06 38.06 0 0 0-.582 6.581c0 2.051.168 4.062.482 6.025h2.257a.44.44 0 0 0 .442-.439z"/>
    <path fill="#C3D2DB" d="M53.251 85.412h-5.916V74.57l.002-.002h5.914c.723 0 1.314.591 1.314 1.314v8.216c0 .722-.591 1.314-1.314 1.314z"/>
    <path fill="#9DAEBC" d="M46.747 74.128c0 .242.198.441.441.441h5.442a.442.442 0 0 0 .441-.441.442.442 0 0 0-.441-.441h-5.442a.442.442 0 0 0-.441.441zM46.747 85.852c0 .242.198.441.441.441h5.442a.442.442 0 0 0 .441-.441.442.442 0 0 0-.441-.441h-5.442a.443.443 0 0 0-.441.441z"/>
    <path fill="#8C9FAF" d="M46.723 76.003v.745c0 .126.103.23.23.23h6.527a.23.23 0 0 0 .23-.23v-.745a.23.23 0 0 0-.23-.23h-6.527a.231.231 0 0 0-.23.23zM46.723 78.412v.745c0 .126.103.23.23.23h6.527a.23.23 0 0 0 .23-.23v-.745a.23.23 0 0 0-.23-.23h-6.527a.232.232 0 0 0-.23.23zM46.723 80.822v.745c0 .126.103.23.23.23h6.527a.23.23 0 0 0 .23-.23v-.745a.23.23 0 0 0-.23-.23h-6.527a.231.231 0 0 0-.23.23zM46.723 83.232v.745c0 .126.103.23.23.23h6.527a.23.23 0 0 0 .23-.23v-.745a.23.23 0 0 0-.23-.23h-6.527a.23.23 0 0 0-.23.23z"/>
    <path opacity=".5" fill="#F8FDFF" d="M48.312 75.773h1.205v1.205h-1.205zM48.312 78.183h1.205v1.205h-1.205zM48.312 80.592h1.205v1.205h-1.205zM48.312 83.002h1.205v1.205h-1.205z"/>
    <path fill="#63AD6C" d="M124.069 86.729c0-.242.198-.441.441-.441h-.621a1.317 1.317 0 0 1-1.314-1.314v-8.216c0-.722.591-1.314 1.314-1.314h.621a.442.442 0 0 1 0-.882h2.158a38.06 38.06 0 0 1 .582 6.581 38.11 38.11 0 0 1-.482 6.025h-2.257a.44.44 0 0 1-.442-.439z"/>
    <path fill="#C3D2DB" d="M125.531 85.412h5.916V74.57l-.002-.002h-5.914c-.723 0-1.314.591-1.314 1.314v8.216a1.32 1.32 0 0 0 1.314 1.314z"/>
    <path fill="#9DAEBC" d="M132.036 74.128a.442.442 0 0 1-.441.441h-5.442a.442.442 0 0 1-.441-.441c0-.242.198-.441.441-.441h5.442c.242 0 .441.198.441.441zM132.036 85.852a.442.442 0 0 1-.441.441h-5.442a.442.442 0 0 1-.441-.441c0-.242.198-.441.441-.441h5.442a.444.444 0 0 1 .441.441z"/>
    <path fill="#8C9FAF" d="M132.059 76.003v.745a.23.23 0 0 1-.23.23h-6.527a.23.23 0 0 1-.23-.23v-.745a.23.23 0 0 1 .23-.23h6.527a.23.23 0 0 1 .23.23zM132.059 78.412v.745a.23.23 0 0 1-.23.23h-6.527a.23.23 0 0 1-.23-.23v-.745a.23.23 0 0 1 .23-.23h6.527c.127.001.23.104.23.23zM132.059 80.822v.745a.23.23 0 0 1-.23.23h-6.527a.23.23 0 0 1-.23-.23v-.745a.23.23 0 0 1 .23-.23h6.527a.23.23 0 0 1 .23.23zM132.059 83.232v.745a.23.23 0 0 1-.23.23h-6.527a.23.23 0 0 1-.23-.23v-.745a.23.23 0 0 1 .23-.23h6.527a.23.23 0 0 1 .23.23z"/>
    <path opacity=".5" fill="#F8FDFF" d="M130.47 76.978h-1.204v-1.205h1.205zM130.47 79.387h-1.204v-1.205h1.205zM130.47 81.797h-1.204v-1.205h1.205zM130.47 84.207h-1.204v-1.205h1.205z"/>
</svg>
