<svg xmlns="http://www.w3.org/2000/svg" viewBox="0 0 178.979 193.972">
  <path fill="#FFF" d="M0 0h178.979v193.972H0z"/>
  <radialGradient id="a" cx="540.764" cy="17.745" r="13.101" gradientTransform="matrix(3.2883 0 0 .2849 -1688.582 182.589)" gradientUnits="userSpaceOnUse">
    <stop offset="0" stop-color="#a0b3ba"/>
    <stop offset=".545" stop-color="#c3d2db" stop-opacity=".6"/>
    <stop offset="1" stop-color="#c3d2db" stop-opacity="0"/>
  </radialGradient>
  <ellipse fill="url(#a)" cx="89.599" cy="187.644" rx="43.078" ry="3.732"/>
  <path fill="#EEF4F7" d="M23.919 126.979H6.589c-3.215 0-5.845-2.63-5.845-5.845s2.63-5.845 5.845-5.845h17.33c3.215 0 5.845 2.63 5.845 5.845 0 3.214-2.63 5.845-5.845 5.845zM83.779 154.723H49.48c-3.215 0-5.845-2.63-5.845-5.845s2.63-5.845 5.845-5.845h34.299c3.215 0 5.845 2.63 5.845 5.845s-2.631 5.845-5.845 5.845zM144.257 140.721h-41.626c-3.215 0-5.845-2.63-5.845-5.845s2.63-5.845 5.845-5.845h41.626c3.215 0 5.845 2.63 5.845 5.845s-2.63 5.845-5.845 5.845zM139.856 84.628h-17.791c-3.215 0-5.845-2.63-5.845-5.845s2.63-5.845 5.845-5.845h17.791c3.215 0 5.845 2.63 5.845 5.845s-2.63 5.845-5.845 5.845zM98.407 85.21H77.605c-3.215 0-5.845-2.63-5.845-5.845l.002-.088h-.01c-.047-3.175-2.657-5.757-5.843-5.757H24.367c-3.215 0-5.845 2.63-5.845 5.845s2.63 5.845 5.845 5.845h22.565c-.131 0-.26.006-.389.015 3.035.202 5.456 2.747 5.456 5.83s-2.421 5.628-5.456 5.83c.129.009.258.015.389.015H35.475c-3.215 0-5.845 2.63-5.845 5.845s2.63 5.845 5.845 5.845h46.956c3.184 0 5.794-2.581 5.843-5.755h.002l-.001-.04.001-.05-.001-.048c.027-3.192 2.646-5.795 5.844-5.795h-.579l.026-.003h4.842c3.215 0 5.845-2.63 5.845-5.845s-2.631-5.844-5.846-5.844zM165.178 107.902h-17.626c-3.182-.039-5.773-2.652-5.773-5.843l.002-.088h-.005c-.046-3.175-2.657-5.759-5.843-5.759h-30.121c-3.215 0-5.845 2.63-5.845 5.845s2.63 5.845 5.845 5.845h5.458l.024.003h-.53c3.185 0 5.795 2.582 5.843 5.756l-.002.086.002.088v.002c.049 3.173 2.658 5.755 5.843 5.755h42.728c3.215 0 5.845-2.63 5.845-5.845s-2.631-5.845-5.845-5.845z"/>
  <path fill="#C3D2DB" d="M62.034 101.214c-3.992-2.957-6.898-5.282-8.007-10.951h-5.344v.646c-.017 9.961 5.377 17.52 12.515 20.47h.267c.204-.003.354-.072.563 0h.003v.001l.003.001v-10.167z"/>
  <path fill="#8C9FAF" d="M60.448 98.658h1.009v12.723h-1.009a1.99 1.99 0 01-1.985-1.985v-8.752a1.99 1.99 0 011.985-1.986z"/>
  <path fill="#C3D2DB" d="M70.681 142.219h7.858v32.096h-7.858z"/>
  <circle fill="#9DAEBC" cx="74.609" cy="156.922" r="5.17"/>
  <circle fill="#DDE6EB" cx="74.609" cy="156.922" r="3.929"/>
  <circle fill="#8C9FAF" cx="74.609" cy="156.922" r="2.951"/>
  <path fill="#8C9FAF" d="M79.526 142.219h-9.834a2.958 2.958 0 01-2.949-2.949v-.749a2.958 2.958 0 012.949-2.949h9.834a2.958 2.958 0 012.949 2.949v.749a2.958 2.958 0 01-2.949 2.949zM71.48 174.122h6.26c1.26 0 2.29 1.031 2.29 2.29 0 1.26-1.031 2.29-2.29 2.29h-6.26a2.297 2.297 0 01-2.29-2.29c0-1.26 1.03-2.29 2.29-2.29zM109.118 142.219h-9.834a2.958 2.958 0 01-2.949-2.949v-.749a2.958 2.958 0 012.949-2.949h9.834a2.958 2.958 0 012.949 2.949v.749a2.959 2.959 0 01-2.949 2.949zM105.39 85.813H73.395a.388.388 0 01-.387-.387v-1.244c0-.213.174-.387.387-.387h31.995c.213 0 .387.174.387.387v1.244a.388.388 0 01-.387.387z"/>
  <path fill="#C3D2DB" d="M105.39 83.795H73.395a.388.388 0 01-.387-.387v-1.244c0-.213.174-.387.387-.387h31.995c.213 0 .387.174.387.387v1.244a.389.389 0 01-.387.387z"/>
  <path fill="#8C9FAF" d="M105.338 90.436h-31.89a.441.441 0 01-.44-.44V88.27c0-.242.198-.44.44-.44h31.889c.242 0 .44.198.44.44v1.726c0 .242-.198.44-.439.44z"/>
  <path fill="#C3D2DB" d="M105.39 87.831H73.395a.388.388 0 01-.387-.387V86.2c0-.213.174-.387.387-.387h31.995c.213 0 .387.174.387.387v1.244a.388.388 0 01-.387.387z"/>
  <path fill-rule="evenodd" clip-rule="evenodd" fill="#C3D2DB" d="M107.508 73.411l2.242-1.011v-9.607h-2.242zM71.242 73.411L69 72.4v-9.607h2.242z"/>
  <path fill="#C3D2DB" d="M105.107 81.995H73.524a2.888 2.888 0 01-2.88-2.88V61.084a2.888 2.888 0 012.88-2.88h31.583a2.888 2.888 0 012.88 2.88v18.031a2.888 2.888 0 01-2.88 2.88z"/>
  <path fill="#6F98C1" d="M98.569 60.507l-.26.001-.264.001h-17.37l-.264-.001-.26-.001c-.609 0-2.464 0-2.464 1.988v5.882a2.99 2.99 0 002.987 2.987h17.371a2.99 2.99 0 002.987-2.987v-5.882c.001-1.988-1.854-1.988-2.463-1.988z"/>
  <path fill="#9EC5DD" d="M97.731 70.362H80.99a2.307 2.307 0 01-2.3-2.3v-5.411c0-.629.51-1.14 1.14-1.14h17.902a2.3 2.3 0 012.3 2.3v4.25a2.308 2.308 0 01-2.301 2.301z"/>
  <path opacity=".6" fill="#FFF" d="M93.176 61.511h.761v8.851h-.761zM94.691 61.511h1.934v8.851h-1.934z"/>
  <path fill="#627689" d="M110.247 57.301c0-11.343-9.281-20.624-20.624-20.624C78.28 36.678 69 45.958 69 57.301v5.492h41.248v-5.492z"/>
  <path fill-rule="evenodd" clip-rule="evenodd" fill="#849AAD" d="M69 62.793s7.588-5.303 26.446-6.247c20.895-1.047 21.659 6.247 21.659 6.247H69z"/>
  <path fill-rule="evenodd" clip-rule="evenodd" fill="#627689" d="M69.926 62.793s8.244-4.255 25.062-5.053c21.041-.998 21.698 5.053 21.698 5.053h-46.76z"/>
  <path opacity=".1" d="M89.53 67.433c17.92.045 20.219-2.946 20.219-2.946v-1.693H69c.007.025 1.246 4.59 20.53 4.639z"/>
  <path fill="#C1D4E0" d="M94.118 50.353L95.9 45.46h-5.543c-2.573 0-5.146 1.369-5.146 4.11 0 2.741 3.563 3.327 5.344 1.37 0 .587.396.979 1.584.979h4.327l.57-1.566h-2.918zm-3.563 0c-.99 0-1.584-.196-1.584-.783 0-.392.843-2.153 1.041-2.74h1.929l-1.386 3.523z"/>
  <path fill="#C3D2DB" d="M111.414 139.478H67.397c-3.267 0-5.94-2.673-5.94-5.94v-37.75c0-3.267 2.673-5.94 5.94-5.94h44.017c3.267 0 5.94 2.673 5.94 5.94v37.75c-.001 3.267-2.674 5.94-5.94 5.94z"/>
  <path fill="#8C9FAF" d="M61.457 130.031h55.896v.484H61.457z"/>
  <path fill="#F8FDFF" d="M61.457 133.446h55.896v.484H61.457z"/>
  <path fill="#8C9FAF" d="M61.457 96.959h55.896v.484H61.457z"/>
  <path fill="#F8FDFF" d="M61.457 100.374h55.896v.484H61.457z"/>
  <path fill="#8C9FAF" d="M104.249 111.508v-1.37a5.718 5.718 0 00-3.928-1.558 5.752 5.752 0 00-5.5 4.07H83.99a5.752 5.752 0 00-5.5-4.07 5.716 5.716 0 00-3.928 1.558v1.37h3.882l1.9 2.823-1.9 2.823h-3.882v1.37a5.718 5.718 0 003.928 1.558 5.752 5.752 0 005.5-4.07h10.83a5.752 5.752 0 005.5 4.07 5.716 5.716 0 003.928-1.558v-1.37h-3.882l-1.9-2.823 1.9-2.823h3.883z"/>
  <path fill="#C3D2DB" d="M74.609 175.875c-6.38 0-11.741 4.362-13.264 10.265h26.528c-1.523-5.904-6.884-10.265-13.264-10.265z"/>
  <path fill="#8C9FAF" d="M87.333 187.612H61.886a1.17 1.17 0 01-1.167-1.167v-.049a1.17 1.17 0 011.167-1.167h25.447a1.17 1.17 0 011.167 1.167v.049a1.17 1.17 0 01-1.167 1.167z"/>
  <path fill="#C3D2DB" d="M100.272 142.219h7.858v32.096h-7.858z"/>
  <circle fill="#9DAEBC" cx="104.201" cy="156.922" r="5.17"/>
  <circle fill="#DDE6EB" cx="104.201" cy="156.922" r="3.929"/>
  <circle fill="#8C9FAF" cx="104.201" cy="156.922" r="2.951"/>
  <path fill="#8C9FAF" d="M101.071 174.122h6.26c1.26 0 2.29 1.031 2.29 2.29 0 1.26-1.031 2.29-2.29 2.29h-6.26a2.297 2.297 0 01-2.29-2.29c0-1.26 1.03-2.29 2.29-2.29z"/>
  <path fill="#C3D2DB" d="M104.201 175.875c-6.38 0-11.741 4.362-13.264 10.265h26.528c-1.524-5.904-6.885-10.265-13.264-10.265z"/>
  <path fill="none" d="M86.114 74.574h6.292c.698 0 1.267-.568 1.267-1.267v-1.946h-8.826v1.946c0 .699.568 1.267 1.267 1.267zM86.114 76.575h6.292c.698 0 1.267-.568 1.267-1.267v-.173h-8.826v.173c0 .698.568 1.267 1.267 1.267z"/>
  <path fill="#8C9FAF" d="M93.673 77.776c0-.699-.569-1.267-1.267-1.267h-6.292c-.699 0-1.267.568-1.267 1.267v.173h-1.934v-.173a3.205 3.205 0 013.201-3.201h6.292a3.205 3.205 0 013.202 3.201v.173h-1.935v-.173zM116.924 187.612H91.477a1.17 1.17 0 01-1.167-1.167v-.049a1.17 1.17 0 011.167-1.167h25.447a1.17 1.17 0 011.167 1.167v.049a1.17 1.17 0 01-1.167 1.167z"/>
  <path opacity=".6" fill="#8C9FAF" d="M73.519 81.995h31.583c.868 0 1.64-.397 2.169-1.009H71.35a2.865 2.865 0 002.169 1.009z"/>
  <path fill="#C3D2DB" d="M53.527 68.659h-4.862l.012 13.733h4.85z"/>
  <path fill="#8C9FAF" d="M48.136 83.513h5.822c.615 0 1.119-.504 1.119-1.119v-.003c0-.615-.504-1.119-1.119-1.119h-5.822c-.615 0-1.119.504-1.119 1.119v.003c0 .615.504 1.119 1.119 1.119zM48.136 86.355h5.822c.615 0 1.119-.504 1.119-1.119v-.003c0-.615-.504-1.119-1.119-1.119h-5.822c-.615 0-1.119.504-1.119 1.119v.003c0 .615.504 1.119 1.119 1.119zM48.136 89.196h5.822c.615 0 1.119-.504 1.119-1.119v-.003c0-.615-.504-1.119-1.119-1.119h-5.822c-.615 0-1.119.504-1.119 1.119v.003c0 .616.504 1.119 1.119 1.119zM48.136 92.036h5.822c.615 0 1.119-.504 1.119-1.119v-.003c0-.615-.504-1.119-1.119-1.119h-5.822c-.615 0-1.119.504-1.119 1.119v.003c0 .615.504 1.119 1.119 1.119z"/>
  <path opacity=".6" fill="#8C9FAF" d="M52.157 74.106c.487 0 .949.101 1.37.28V68.73l-.419.919-4.443 2.742v5.207a3.492 3.492 0 013.492-3.492z"/>
  <path fill="#C3D2DB" d="M116.776 101.214c3.992-2.957 6.898-5.282 8.007-10.951h5.344v.646c.017 9.961-5.377 17.52-12.515 20.47h-.267c-.204-.003-.354-.072-.563 0h-.003v.001l-.003.001v-10.167z"/>
  <path fill="#8C9FAF" d="M118.361 98.658h-1.009v12.723h1.009a1.99 1.99 0 001.985-1.985v-8.752a1.99 1.99 0 00-1.985-1.986z"/>
  <path fill="#C3D2DB" d="M125.283 68.899h4.862l-.012 13.493h-4.85z"/>
  <path fill="#8C9FAF" d="M130.673 83.513h-5.822a1.123 1.123 0 01-1.119-1.119v-.003c0-.615.504-1.119 1.119-1.119h5.822c.615 0 1.119.504 1.119 1.119v.003c0 .615-.503 1.119-1.119 1.119zM130.673 86.355h-5.822a1.123 1.123 0 01-1.119-1.119v-.003c0-.615.504-1.119 1.119-1.119h5.822c.615 0 1.119.504 1.119 1.119v.003c0 .615-.503 1.119-1.119 1.119zM130.673 89.196h-5.822a1.123 1.123 0 01-1.119-1.119v-.003c0-.615.504-1.119 1.119-1.119h5.822c.615 0 1.119.504 1.119 1.119v.003c0 .616-.503 1.119-1.119 1.119zM130.673 92.036h-5.822a1.123 1.123 0 01-1.119-1.119v-.003c0-.615.504-1.119 1.119-1.119h5.822c.615 0 1.119.504 1.119 1.119v.003c0 .615-.503 1.119-1.119 1.119z"/>
  <path opacity=".6" fill="#8C9FAF" d="M126.653 74.106a3.49 3.49 0 00-1.37.28v-5.594l4.862 3.598v5.207a3.492 3.492 0 00-3.492-3.491z"/>
  <path fill="none" d="M61.464 111.379h.563c-.209-.072-.358-.002-.563 0z"/>
  <path fill="#8C9FAF" d="M138.223 51.634l-1.877-.526-8.02 13.432 2.036 1.224 2.45-3.975z"/>
  <path fill="#C3D2DB" d="M138.162 51.6l-1.675-.179-1.183 2.104.958.541-.255.373-1.045-.274-1.307 2.162.634.579-.058.304-.867-.298-1.119 1.848.802.368-.426.707-1.014-.177-1.321 2.34.244 3.35 2.223-3.727z"/>
  <path fill="#8C9FAF" d="M135.017 53.309l-1.393-.39-5.956 9.974 1.512.909 1.819-2.952z"/>
  <path fill="#C3D2DB" d="M134.972 53.284l-1.244-.133-.878 1.562.711.402-.189.277-.776-.203-.971 1.605.471.43-.043.226-.644-.222-.831 1.373.595.273-.316.525-.753-.132-.981 1.739.181 2.487 1.652-2.768z"/>
  <path fill="#8C9FAF" d="M143.166 50.536l-1.876-.526-8.02 13.431 2.036 1.225 2.45-3.975z"/>
  <path fill="#C3D2DB" d="M143.106 50.502l-1.676-.179-1.182 2.104.958.541-.255.373-1.045-.274-1.308 2.162.634.579-.057.304-.867-.298-1.119 1.848.802.368-.427.707-1.013-.178-1.322 2.341.245 3.349 2.223-3.726z"/>
  <path fill="#8C9FAF" d="M140.703 51.117l-1.876-.526-8.02 13.431 2.036 1.224 2.45-3.975z"/>
  <path fill="#C3D2DB" d="M140.642 51.082l-1.675-.179-1.182 2.105.957.54-.254.374-1.045-.274-1.308 2.162.634.578-.057.304-.867-.298-1.119 1.849.801.367-.426.708-1.014-.178-1.321 2.34.245 3.35 2.223-3.727z"/>
  <path fill="#C3D2DB" d="M135.406 61.096l-3.564-2.012a1.77 1.77 0 00-2.404.669l-4.496 7.965a1.77 1.77 0 00.669 2.404l3.564 2.012a1.77 1.77 0 002.404-.669l4.496-7.965a1.77 1.77 0 00-.669-2.404z"/>
  <path opacity=".7" fill="#8C9FAF" d="M125.47 66.775l6.645 3.752-.238.422-6.646-3.752z"/>
  <path opacity=".7" fill="#F8FDFF" d="M129.133 60.274l6.646 3.752-.238.422-6.646-3.752z"/>
  <ellipse transform="rotate(-60.554 133.893 65.177)" fill="#9DAEBC" cx="133.888" cy="65.174" rx="2.602" ry="2.596"/>
  <ellipse transform="rotate(-60.554 133.893 65.177)" fill="#DDE6EB" cx="133.888" cy="65.174" rx="1.988" ry="1.984"/>
  <ellipse transform="rotate(-60.554 133.893 65.177)" fill="#8C9FAF" cx="133.888" cy="65.174" rx="1.493" ry="1.49"/>
  <g>
    <path fill="#8C9FAF" d="M40.548 51.642l1.877-.526 8.02 13.431-2.036 1.224-2.45-3.974z"/>
    <path fill="#C3D2DB" d="M40.609 51.608l1.675-.179 1.183 2.104-.958.541.255.373 1.045-.274 1.307 2.162-.634.579.058.304.867-.299 1.119 1.849-.802.368.426.707 1.014-.178 1.321 2.341-.244 3.349-2.224-3.727z"/>
    <path fill="#8C9FAF" d="M43.754 53.317l1.393-.391 5.956 9.975-1.512.909-1.819-2.952z"/>
    <path fill="#C3D2DB" d="M43.799 53.291l1.244-.132.878 1.562-.711.402.189.277.776-.203.971 1.605-.471.43.043.226.644-.222.831 1.373-.595.273.316.525.753-.132.981 1.738-.181 2.488-1.652-2.768z"/>
    <path fill="#8C9FAF" d="M35.605 50.544l1.876-.526 8.02 13.431-2.036 1.224-2.45-3.974z"/>
    <path fill="#C3D2DB" d="M35.665 50.51l1.675-.179 1.183 2.104-.958.541.255.373 1.045-.274 1.307 2.162-.634.579.058.304.867-.299 1.119 1.849-.802.368.427.707 1.013-.178 1.321 2.341-.244 3.349-2.223-3.727z"/>
    <path fill="#8C9FAF" d="M38.068 51.124l1.876-.525 8.02 13.431-2.036 1.224-2.45-3.975z"/>
    <path fill="#C3D2DB" d="M38.129 51.09l1.675-.179 1.182 2.105-.957.54.254.374 1.045-.275 1.308 2.162-.634.579.057.304.867-.298 1.119 1.849-.801.367.426.707 1.014-.177 1.321 2.34-.245 3.35-2.223-3.727z"/>
    <path fill="#C3D2DB" d="M43.365 61.104l3.564-2.012a1.77 1.77 0 012.404.669l4.496 7.965a1.77 1.77 0 01-.669 2.404l-3.564 2.012a1.77 1.77 0 01-2.404-.669l-4.496-7.965a1.77 1.77 0 01.669-2.404z"/>
    <path opacity=".7" fill="#8C9FAF" d="M53.535 67.208l-6.646 3.752-.239-.423 6.646-3.752z"/>
    <path opacity=".7" fill="#F8FDFF" d="M49.87 60.706l-6.645 3.752-.239-.422 6.646-3.752z"/>
    <ellipse transform="rotate(-29.448 44.877 65.18)" fill="#9DAEBC" cx="44.883" cy="65.182" rx="2.596" ry="2.602"/>
    <ellipse transform="rotate(-29.448 44.877 65.18)" fill="#DDE6EB" cx="44.883" cy="65.182" rx="1.984" ry="1.988"/>
    <ellipse transform="rotate(-29.448 44.877 65.18)" fill="#8C9FAF" cx="44.883" cy="65.182" rx="1.49" ry="1.493"/>
  </g>
  <g>
    <path fill="#9EC5DD" d="M87.103 19.211c0-1.742.211-3.13.634-4.163.423-1.033 1.196-2.051 2.322-3.053 1.125-1.002 1.874-1.817 2.247-2.446.373-.629.56-1.292.56-1.99 0-2.105-.969-3.157-2.909-3.157-.92 0-1.657.284-2.21.851-.554.567-.843 1.349-.867 2.346h-5.409c.025-2.377.792-4.238 2.303-5.582C85.284.672 87.346 0 89.957 0c2.636 0 4.682.638 6.136 1.914 1.455 1.276 2.182 3.077 2.182 5.405 0 1.058-.236 2.057-.709 2.996s-1.299 1.982-2.48 3.127l-1.511 1.438c-.945.908-1.486 1.973-1.622 3.192l-.075 1.139h-4.775zm-.541 5.716c0-.83.283-1.515.849-2.054.566-.539 1.29-.809 2.173-.809s1.607.27 2.173.809c.565.539.849 1.224.849 2.054 0 .818-.277 1.494-.83 2.026-.554.533-1.284.799-2.192.799-.907 0-1.638-.266-2.191-.799-.554-.532-.831-1.208-.831-2.026z"/>
  </g>
  <g>
    <path fill="#9EC5DD" d="M57.987 33.089c0-1.205.15-2.166.448-2.881.3-.716.89-1.502 1.772-2.359.883-.856 1.441-1.466 1.678-1.828a3.208 3.208 0 00.543-1.79c0-.849-.211-1.498-.632-1.946-.421-.447-1.039-.671-1.854-.671-.779 0-1.405.219-1.881.656-.475.438-.713 1.03-.713 1.779h-3.299c.018-1.604.563-2.873 1.636-3.806 1.072-.933 2.491-1.4 4.257-1.4 1.82 0 3.239.462 4.257 1.387 1.019.924 1.528 2.215 1.528 3.873 0 1.477-.688 2.931-2.064 4.363l-1.67 1.645c-.597.68-.906 1.672-.923 2.977h-3.083zm-.23 4.216c0-.532.167-.963.502-1.291.335-.329.788-.494 1.358-.494.579 0 1.036.169 1.371.507.335.338.503.764.503 1.278 0 .496-.163.911-.489 1.245-.326.333-.788.5-1.385.5s-1.057-.167-1.378-.5c-.322-.334-.482-.748-.482-1.245z"/>
  </g>
  <g>
    <path fill="#9EC5DD" d="M117.597 33.089c0-1.205.15-2.166.448-2.881.3-.716.89-1.502 1.772-2.359.883-.856 1.441-1.466 1.678-1.828a3.208 3.208 0 00.543-1.79c0-.849-.211-1.498-.632-1.946-.421-.447-1.039-.671-1.854-.671-.779 0-1.405.219-1.881.656-.475.438-.713 1.03-.713 1.779h-3.299c.018-1.604.563-2.873 1.636-3.806 1.072-.933 2.491-1.4 4.257-1.4 1.82 0 3.239.462 4.257 1.387 1.019.924 1.528 2.215 1.528 3.873 0 1.477-.688 2.931-2.064 4.363l-1.67 1.645c-.597.68-.906 1.672-.923 2.977h-3.083zm-.23 4.216c0-.532.167-.963.502-1.291.335-.329.788-.494 1.358-.494.579 0 1.036.169 1.371.507.335.338.503.764.503 1.278 0 .496-.163.911-.489 1.245-.326.333-.788.5-1.385.5s-1.057-.167-1.378-.5c-.322-.334-.482-.748-.482-1.245z"/>
  </g>
</svg>