<svg xmlns="http://www.w3.org/2000/svg" viewBox="0 0 244.088 181.079">
    <path fill="#EEF4F7" d="M60.297 69.339h28.125l.026.003h-.579c3.198 0 5.816 2.603 5.844 5.795l-.001.048.001.05-.001.04h.002c.049 3.173 2.658 5.755 5.843 5.755h26.65c3.214 0 5.845-2.63 5.845-5.845s-2.63-5.845-5.845-5.845h-7.422l-.026-.003h.579c-3.198 0-5.816-2.603-5.844-5.795l.001-.048-.001-.05.001-.04h-.002c-.049-3.173-2.658-5.755-5.843-5.755h-7.037c-.545 0-.804-.022-.819-.022-3.078-.026-5.65-2.506-5.826-5.548v-.337h-.004c-.034-3.186-2.648-5.783-5.842-5.783h-8.79c-3.194 0-5.808 2.597-5.842 5.783v.008l-.003.054.003.054v.221c-.176 3.042-2.748 5.522-5.826 5.548-.016 0-.274.022-.819.022h-6.549c-3.215 0-5.845 2.63-5.845 5.845.001 3.215 2.631 5.845 5.846 5.845z"/>
    <path opacity=".42" fill="#8C9FAF" d="M35.052 172.512h98.318a.844.844 0 0 0 .841-.841v-.821h-100v.821c0 .462.378.841.841.841z"/>
    <path fill="#F7F7F7" d="M133.312 171.794H35.109a.9.9 0 0 1-.898-.898v-84.07a.9.9 0 0 1 .898-.898h98.204a.9.9 0 0 1 .898.898v84.069a.902.902 0 0 1-.899.899z"/>
    <path fill="#424242" d="M34.211 91.271v4.435h100v-6.853h-100z"/>
    <path fill="#FFF" d="M56.358 90.756H52.34c-.267 0-.448.129-.541.345h4.189c.21-.042.333-.165.37-.345m-4.708.517a.539.539 0 0 0-.374.339h3.331c.273-.015.435-.14.483-.339h-3.44zm.236.834l-.32.858c-.228 0-.411 0-.411-.181 0-.09.239-.549.239-.684l.492.007zm-6.985 0l-.32.813c-.228 0-.365-.045-.365-.181 0-.09.194-.497.24-.632h.445zm8.037 0c.273 0 .456-.09.547-.315h-2.034c-1.02.038-1.07.995-.981 1.128h-1.096l.274-.813h.137c.32 0 .502-.09.593-.316h-.593l.32-.903h-.457c-.137.316-.32.497-.457.632-.365.316-.776.271-1.233.271l-.868 1.083v-1.083h-.822l.091 1.129H45.4l.411-1.129h-1.278c-.593 0-1.187.316-1.187.948 0 .632.822.767 1.233.316 0 .135.091.226.365.226h2.328l.959-1.174h.639l-.32.813c-.046.226.046.361.32.361l2.726.004c.548 0 .88-.184.926-.771 0-.09-.046-.316-.137-.406h.553zm-.015.923c0 .15.123.271.275.271a.273.273 0 0 0 .275-.271.273.273 0 0 0-.275-.271.273.273 0 0 0-.275.271m4.281-.433l.193-.004s.219-.028.147.191c-.072.22-.201.344-.305.362-.104.018-.276.007-.276.007s.18-.495.241-.556m.689.187c.023-.153-.082-.182-.14-.187h-.036.898a.46.46 0 0 0 .262-.117h-1.87c-.154.055-.342.181-.38.37 0 .127.064.19.128.317h-.458l.29-.688h-.697l-.035-.033.088-.287c-.128 0-.342-.024-.47.039-.222.177-.032.351.054.398l-.192.571h-.597c.09-.022.226-.029.385-.19.128-.19.128-.444-.128-.507l-.393-.002.111-.308-.424-.007-.577 1.649h.385l.449-1.205c.064 0 .15.01.214.01.183.096.043.371-.021.434l-.128.127c-.159 0-.143.087-.059.117h.836c.164-.029.178-.116.205-.18l.192-.507h.321s-.192.507-.192.571c0 .073.021.104.063.117h1.4c.121-.033.463-.153.516-.502M107.394 93.908H61.027a.292.292 0 0 1-.291-.291V90.94c0-.16.131-.291.291-.291h46.367c.16 0 .291.131.291.291v2.677c0 .16-.131.291-.291.291z"/>
    <path fill="#C8C8C8" d="M125.049 91.413a.076.076 0 0 0-.056-.024h-2.121a.077.077 0 0 0-.056.024.076.076 0 0 0-.024.056v.159c0 .022.008.04.024.056a.076.076 0 0 0 .056.024h2.121c.021 0 .04-.008.056-.024a.076.076 0 0 0 .024-.056v-.159a.081.081 0 0 0-.024-.056zM125.049 92.139a.076.076 0 0 0-.056-.024h-2.121a.077.077 0 0 0-.056.024.076.076 0 0 0-.024.056v.159c0 .022.008.04.024.056a.076.076 0 0 0 .056.024h2.121c.021 0 .04-.008.056-.024a.076.076 0 0 0 .024-.056v-.159a.078.078 0 0 0-.024-.056zM125.049 92.864a.076.076 0 0 0-.056-.024h-2.121a.077.077 0 0 0-.056.024.076.076 0 0 0-.024.056v.159c0 .022.008.04.024.056a.076.076 0 0 0 .056.024h2.121c.021 0 .04-.008.056-.024a.076.076 0 0 0 .024-.056v-.159a.078.078 0 0 0-.024-.056zM119.518 92.469l.29-.866c.014-.042.004-.067-.008-.083-.03-.042-.092-.043-.104-.043h-1.636l-.044-.207c-.012-.049-.047-.095-.117-.095h-.46c-.048 0-.074.022-.074.067v.12c0 .043.026.054.075.054h.388l.297 1.261a.286.286 0 0 0-.073.191c0 .15.119.287.271.287.144 0 .251-.134.269-.215h.578c.018.08.105.218.269.218.15 0 .271-.13.271-.279 0-.149-.09-.28-.269-.28a.263.263 0 0 0-.204.1h-.711a.227.227 0 0 0-.193-.108l-.01-.053h1.081c.084 0 .1-.029.114-.069zm-.075.304c.056 0 .102.046.102.102s-.046.102-.102.102a.102.102 0 0 1-.102-.102c0-.056.046-.102.102-.102zm-1.017.102a.103.103 0 1 1-.206 0 .103.103 0 0 1 .206 0z"/>
    <path fill="#719AC6" d="M61.027 90.65a.292.292 0 0 0-.291.291v2.677c0 .16.131.291.291.291h11.292V90.65H61.027z"/>
    <path fill="#FFF" d="M62.73 92.625h-.857v.319c0 .017.017.034.034.034h.151a.037.037 0 0 0 .034-.034v-.151h1.278v.151c0 .017.017.034.034.034h.151a.037.037 0 0 0 .034-.034v-.319h-.859zM63.553 92.037c0 .017.017.084 0 .05-.017-.017-.025-.034-.042-.05-.042-.118-.16-.412-.235-.454-.076-.034-.319-.042-.471-.042h-.134c-.16 0-.403.008-.471.042-.076.034-.193.336-.235.454-.017.017-.025.034-.042.05-.017.034 0-.034 0-.05-.008-.042-.218-.134-.244-.05-.017.067.084.151.134.151.025 0 .05.025.067.042-.017.092-.034.126-.034.244 0 .05.034.076.034.084v.084h1.714v-.084s.025-.025.034-.084c-.008-.118-.025-.151-.034-.244.017-.017.042-.042.067-.042.034 0 .126-.084.118-.151-.024-.076-.234.008-.226.05zm-1.403-.21c.025-.042.042-.118.101-.134.084-.025.185-.042.479-.034.294-.008.395.008.479.034.059.017.076.101.101.134.025.05.05.118.076.185a.672.672 0 0 1-.202.05c-.16.017-.319.025-.454.025s-.286-.008-.454-.025a.713.713 0 0 1-.202-.05c.026-.068.051-.135.076-.185zm-.025.521c-.067-.008-.109-.05-.109-.109s.05-.109.118-.109a.15.15 0 0 1 .067.017c.008 0 .118.076.126.109.008.034-.008.084-.059.092-.042.008-.11 0-.143 0zm1.092.109a.033.033 0 0 1-.033.033h-.891a.033.033 0 0 1-.033-.033c0-.018.015-.033.033-.033h.891a.032.032 0 0 1 .033.033zm.118-.109c-.042.008-.101.008-.151.008-.05 0-.067-.059-.059-.092.008-.034.109-.101.126-.109a.165.165 0 0 1 .067-.017c.067 0 .118.05.118.109.008.05-.034.092-.101.101zM70.7 92.423h-5.913a.145.145 0 0 1-.144-.144c0-.079.065-.144.144-.144H70.7c.079 0 .144.065.144.144a.145.145 0 0 1-.144.144z"/>
    <path fill="#BABABA" d="M86.5 92.423H74.841a.145.145 0 0 1-.144-.144c0-.079.065-.144.144-.144H86.5c.079 0 .144.065.144.144a.145.145 0 0 1-.144.144zM106.009 92.772a.567.567 0 0 1-.339-.112l-.033.033-.436.436a.089.089 0 0 1-.126.003.089.089 0 0 1-.003-.126l.003-.003.436-.436.033-.033a.577.577 0 0 1 .931-.678.577.577 0 0 1-.466.916zm0-.999a.422.422 0 1 0 0 .844.422.422 0 0 0 0-.844z"/>
    <path fill="#627689" d="M134.211 85.231a.843.843 0 0 0-.841-.841H35.052a.844.844 0 0 0-.841.841v3.621h100v-3.621z"/>
    <circle fill="#8C9FAF" cx="37.574" cy="86.621" r=".694"/>
    <circle fill="#8C9FAF" cx="40.483" cy="86.621" r=".694"/>
    <circle fill="#8C9FAF" cx="43.392" cy="86.621" r=".694"/>
    <g fill="#FFF">
        <path d="M43.809 147.57a.314.314 0 0 1-.313-.313v-46.668c0-.172.14-.313.313-.313h80.826c.172 0 .313.141.313.313v46.668a.313.313 0 0 1-.313.313H43.809z"/>
        <path d="M124.635 100.401c.103 0 .188.084.188.188v46.668a.188.188 0 0 1-.188.188H43.809a.188.188 0 0 1-.188-.188v-46.668c0-.103.084-.188.188-.188h80.826m0-.25H43.809a.438.438 0 0 0-.438.438v46.668c0 .242.196.438.438.438h80.826a.438.438 0 0 0 .438-.438v-46.668a.439.439 0 0 0-.438-.438z"/>
    </g>
    <path fill="#719AC6" d="M50.344 153.342h-3.536a.54.54 0 0 1-.539-.539.54.54 0 0 1 .539-.539h3.536a.54.54 0 0 1 .539.539.541.541 0 0 1-.539.539z"/>
    <path fill="#C8C8C8" d="M49.374 154.843h-2.706a.4.4 0 0 1-.399-.399.4.4 0 0 1 .399-.399h2.706a.4.4 0 0 1 .399.399.4.4 0 0 1-.399.399zM82.178 154.843H68.165a.4.4 0 0 1-.399-.399.4.4 0 0 1 .399-.399h14.013a.4.4 0 0 1 .399.399.4.4 0 0 1-.399.399zM75.851 153.342h-7.546a.54.54 0 0 1-.539-.539.54.54 0 0 1 .539-.539h7.546a.54.54 0 0 1 .539.539.54.54 0 0 1-.539.539zM102.962 154.061H97.75a.54.54 0 0 1-.539-.539.54.54 0 0 1 .539-.539h5.212a.54.54 0 0 1 .539.539.542.542 0 0 1-.539.539z"/>
    <path fill="#CCC" d="M124.715 150.673c.059 0 .108.048.108.108v5.483a.108.108 0 0 1-.108.108H43.729a.108.108 0 0 1-.108-.108v-5.483c0-.059.048-.108.108-.108h80.986m0-.25H43.729a.358.358 0 0 0-.358.358v5.483c0 .198.16.358.358.358h80.985c.198 0 .358-.16.358-.358v-5.483a.357.357 0 0 0-.357-.358z"/>
    <path fill="#70BA78" d="M123.357 155.272h-4.668a.36.36 0 0 1-.359-.359v-2.783a.36.36 0 0 1 .359-.359h4.668a.36.36 0 0 1 .359.359v2.783a.36.36 0 0 1-.359.359z"/>
    <path fill="#FFF" d="M121.79 153.789l.29-.866c.014-.042.004-.067-.008-.083-.03-.042-.092-.043-.104-.043h-1.636l-.044-.207c-.012-.049-.047-.095-.117-.095h-.46c-.048 0-.074.022-.074.067v.12c0 .043.026.054.075.054h.388l.297 1.261a.286.286 0 0 0-.073.191c0 .15.119.287.271.287.144 0 .251-.134.269-.215h.578c.018.08.105.218.269.218.149 0 .271-.13.271-.279 0-.149-.09-.28-.269-.28a.263.263 0 0 0-.204.1h-.709a.227.227 0 0 0-.193-.108l-.01-.053h1.081c.082 0 .098-.03.112-.069zm-.075.304c.056 0 .102.046.102.102a.102.102 0 0 1-.102.102.102.102 0 0 1-.102-.102c0-.056.046-.102.102-.102zm-1.017.102a.103.103 0 1 1-.206 0 .103.103 0 0 1 .206 0z"/>
    <path fill="#719AC6" d="M57.003 159.363H46.807a.54.54 0 0 1-.539-.539.54.54 0 0 1 .539-.539h10.196a.54.54 0 0 1 .539.539.541.541 0 0 1-.539.539z"/>
    <path fill="#C8C8C8" d="M50.387 160.863h-3.719a.4.4 0 0 1-.399-.399.4.4 0 0 1 .399-.399h3.719a.4.4 0 0 1 .399.399.4.4 0 0 1-.399.399zM74.162 160.863h-5.996a.4.4 0 0 1-.399-.399.4.4 0 0 1 .399-.399h5.996a.4.4 0 0 1 .399.399.4.4 0 0 1-.399.399zM77.578 159.363h-9.272a.54.54 0 0 1-.539-.539.54.54 0 0 1 .539-.539h9.272a.54.54 0 0 1 .539.539.542.542 0 0 1-.539.539zM102.756 160.081H97.75a.54.54 0 0 1-.539-.539.54.54 0 0 1 .539-.539h5.006a.54.54 0 0 1 0 1.078z"/>
    <path fill="#CCC" d="M124.715 156.693c.059 0 .108.048.108.108v5.483a.108.108 0 0 1-.108.108H43.729a.108.108 0 0 1-.108-.108v-5.483c0-.059.048-.108.108-.108h80.986m0-.25H43.729a.358.358 0 0 0-.358.358v5.483c0 .198.16.358.358.358h80.985c.198 0 .358-.16.358-.358v-5.483a.357.357 0 0 0-.357-.358z"/>
    <path fill="#70BA78" d="M123.357 161.293h-4.668a.36.36 0 0 1-.359-.359v-2.783a.36.36 0 0 1 .359-.359h4.668a.36.36 0 0 1 .359.359v2.783a.36.36 0 0 1-.359.359z"/>
    <path fill="#FFF" d="M121.79 159.809l.29-.866c.014-.042.004-.067-.008-.083-.03-.042-.092-.043-.104-.043h-1.636l-.044-.207c-.012-.049-.047-.095-.117-.095h-.46c-.048 0-.074.022-.074.067v.12c0 .043.026.054.075.054h.388l.297 1.261a.286.286 0 0 0-.073.191c0 .15.119.287.271.287.144 0 .251-.134.269-.215h.578c.018.08.105.218.269.218.149 0 .271-.13.271-.279 0-.149-.09-.28-.269-.28a.263.263 0 0 0-.204.1h-.709a.227.227 0 0 0-.193-.108l-.01-.053h1.081c.082 0 .098-.029.112-.069zm-.075.304c.056 0 .102.046.102.102a.102.102 0 0 1-.102.102.102.102 0 0 1-.102-.102c0-.056.046-.102.102-.102zm-1.017.102a.103.103 0 1 1-.206 0 .103.103 0 0 1 .206 0z"/>
    <path fill="#424242" d="M93.303 103.915H87.07a.683.683 0 0 1-.681-.681c0-.374.306-.681.681-.681h6.233c.374 0 .681.306.681.681a.684.684 0 0 1-.681.681zM116.402 103.915H95.98a.683.683 0 0 1-.681-.681c0-.374.306-.681.681-.681h20.422c.374 0 .681.306.681.681a.684.684 0 0 1-.681.681z"/>
    <path fill="#C8C8C8" d="M106.843 108.396H86.928a.54.54 0 0 1-.539-.539.54.54 0 0 1 .539-.539h19.915a.54.54 0 0 1 .539.539.542.542 0 0 1-.539.539zM93.578 111.477h-6.65a.54.54 0 0 1-.539-.539.54.54 0 0 1 .539-.539h6.65a.54.54 0 0 1 .539.539.541.541 0 0 1-.539.539zM110.83 111.477H95.97a.54.54 0 0 1-.539-.539.54.54 0 0 1 .539-.539h14.86a.54.54 0 0 1 0 1.078zM100.243 114.559H86.928a.54.54 0 0 1-.539-.539.54.54 0 0 1 .539-.539h13.315a.54.54 0 0 1 .539.539.542.542 0 0 1-.539.539zM90.317 117.64h-3.39a.54.54 0 0 1-.539-.539.54.54 0 0 1 .539-.539h3.39a.54.54 0 0 1 0 1.078zM106.451 120.722H86.928a.54.54 0 0 1-.539-.539.54.54 0 0 1 .539-.539h19.523a.54.54 0 0 1 .539.539.541.541 0 0 1-.539.539z"/>
    <path fill="#424242" d="M101.314 125.745H86.928a.54.54 0 0 1-.539-.539.54.54 0 0 1 .539-.539h14.386a.54.54 0 0 1 .539.539.541.541 0 0 1-.539.539zM108.451 125.745h-4.744a.54.54 0 0 1-.539-.539.54.54 0 0 1 .539-.539h4.744a.54.54 0 0 1 .539.539.54.54 0 0 1-.539.539z"/>
    <path fill="#C8C8C8" d="M104.664 117.64h-6.225a.54.54 0 0 1-.539-.539.54.54 0 0 1 .539-.539h6.225a.54.54 0 0 1 .539.539.54.54 0 0 1-.539.539zM96.046 117.64H92.71a.54.54 0 0 1-.539-.539.54.54 0 0 1 .539-.539h3.336a.54.54 0 0 1 .539.539.54.54 0 0 1-.539.539z"/>
    <path fill="#EDEDED" d="M82.084 136.389h-35.8a.715.715 0 0 1-.715-.715v-32.407c0-.395.32-.715.715-.715h35.8c.395 0 .715.32.715.715v32.407c0 .395-.32.715-.715.715z"/>
    <path fill="#C8C8C8" d="M96.538 130.226h-9.611a.54.54 0 0 1-.539-.539.54.54 0 0 1 .539-.539h9.611a.54.54 0 0 1 0 1.078zM118.846 130.226H98.931a.54.54 0 0 1-.539-.539.54.54 0 0 1 .539-.539h19.915a.54.54 0 0 1 .539.539.54.54 0 0 1-.539.539zM93.578 133.307h-6.65a.54.54 0 0 1-.539-.539.54.54 0 0 1 .539-.539h6.65a.54.54 0 0 1 .539.539.541.541 0 0 1-.539.539z"/>
    <path fill="#719AC6" d="M100.243 136.389H86.928a.54.54 0 0 1-.539-.539.54.54 0 0 1 .539-.539h13.315a.54.54 0 0 1 .539.539.541.541 0 0 1-.539.539z"/>
    <path fill="#70BA78" d="M99.542 143.831h-12.58a.575.575 0 0 1-.573-.573v-2.354c0-.315.258-.573.573-.573h12.58c.315 0 .573.258.573.573v2.354a.574.574 0 0 1-.573.573z"/>
    <path fill="#FFF" d="M89.849 142.347l.29-.866c.014-.042.004-.067-.008-.083-.03-.042-.092-.043-.104-.043h-1.636l-.044-.207c-.012-.049-.047-.095-.117-.095h-.46c-.048 0-.074.022-.074.067v.12c0 .043.026.054.075.054h.388l.297 1.261a.286.286 0 0 0-.073.191c0 .15.119.287.271.287.144 0 .251-.134.269-.215h.578c.018.08.105.218.269.218.15 0 .271-.13.271-.279 0-.149-.09-.28-.269-.28a.263.263 0 0 0-.204.1h-.711a.227.227 0 0 0-.193-.108l-.01-.053h1.081c.084 0 .1-.029.114-.069zm-.075.304c.056 0 .102.046.102.102a.102.102 0 0 1-.102.102.102.102 0 0 1-.102-.102c0-.056.046-.102.102-.102zm-1.017.102a.103.103 0 1 1-.206 0 .103.103 0 0 1 .206 0zM97.583 142.475h-6.045a.396.396 0 0 1-.395-.395c0-.217.178-.395.395-.395h6.045c.217 0 .395.178.395.395a.396.396 0 0 1-.395.395z"/>
    <g fill="#C8C8C8">
        <path d="M51.68 118.33l5.928-5.928.444.444-5.928 5.928zM52.684 119.336l5.928-5.928.444.444-5.928 5.928zM56.629 123.28a.284.284 0 0 0 .402 0l.695-.695-.358-.358a.284.284 0 0 1 0-.402l3.734-3.734a.284.284 0 0 1 .402 0l.358.358.695-.695a.284.284 0 0 0 0-.402l-2.939-2.939-5.928 5.928 2.939 2.939zm.653-5.275a.862.862 0 1 1 1.218 1.22.862.862 0 0 1-1.218-1.22zM56.428 111.222c-.111-.111-1.432-.293-3.827 2.102s-2.212 3.716-2.102 3.827l.62.62 5.928-5.928-.619-.621z"/>
        <path d="M59.03 121.079l1.325-1.325 3.72 3.719-1.326 1.325zM70.315 112.841l.444-.444 5.928 5.929-.444.444zM69.31 113.847l.444-.445 5.928 5.929-.444.444zM65.811 117.346a.284.284 0 0 0 0 .402l.695.695.358-.358a.284.284 0 0 1 .402 0L71 121.819a.284.284 0 0 1 0 .402l-.358.358.695.695a.284.284 0 0 0 .402 0l2.939-2.939-5.928-5.928-2.939 2.939zm5.275.653a.862.862 0 1 1-1.22 1.218.862.862 0 0 1 1.22-1.218zM77.869 117.145c.111-.111.293-1.432-2.102-3.827s-3.716-2.212-3.827-2.102l-.62.62 5.928 5.928.621-.619z"/>
        <path d="M68.013 119.747l1.325 1.325-3.72 3.719-1.324-1.325z"/>
        <path d="M63.986 122.121l-2.587 2.587a.284.284 0 0 0 0 .402l2.587 2.587a.284.284 0 0 0 .402 0l2.587-2.587a.284.284 0 0 0 0-.402l-2.587-2.587a.284.284 0 0 0-.402 0zm.812 3.4a.864.864 0 1 1-1.223-1.222.864.864 0 0 1 1.223 1.222z"/>
    </g>
    <radialGradient id="robo-foot-gradient" cx="553.321" cy="162.632" r="13.101" gradientTransform="matrix(3.2883 0 0 .2849 -1671.646 126.18)" gradientUnits="userSpaceOnUse">
        <stop offset="0" stop-color="#a0b3ba"/>
        <stop offset=".545" stop-color="#c3d2db" stop-opacity=".6"/>
        <stop offset="1" stop-color="#c3d2db" stop-opacity="0"/>
    </radialGradient>
    <ellipse fill="url(#robo-foot-gradient)" cx="147.828" cy="172.512" rx="43.078" ry="3.732"/>
    <path fill="#C3D2DB" d="M188.956 95.28l-11.02.016-2.72-10.61 5.516-.008c3.034-.004 6.128 2.379 6.876 5.297a1476.54 1476.54 0 0 1 1.348 5.305z"/>
    <path fill="#8C9FAF" d="M181.756 91.919h5.825c.615 0 1.118.503 1.118 1.118 0 .615-.503 1.118-1.118 1.118h-5.825a1.121 1.121 0 0 1-1.118-1.118c0-.615.503-1.118 1.118-1.118z"/>
    <path fill="#EEF4F7" d="M33.944 69.339h-17.33c-3.215 0-5.845-2.63-5.845-5.845s2.63-5.845 5.845-5.845h17.33c3.215 0 5.845 2.63 5.845 5.845s-2.63 5.845-5.845 5.845zM72.85 35.07H55.52c-3.215 0-5.845-2.63-5.845-5.845s2.63-5.845 5.845-5.845h17.33c3.215 0 5.845 2.63 5.845 5.845s-2.631 5.845-5.845 5.845zM35.543 11.69h-2.199c-3.215 0-5.845-2.63-5.845-5.845S30.129 0 33.344 0h2.199c3.215 0 5.845 2.63 5.845 5.845s-2.63 5.845-5.845 5.845zM202.739 105.631h-41.626c-3.215 0-5.845-2.63-5.845-5.845s2.63-5.845 5.845-5.845h41.626c3.215 0 5.845 2.63 5.845 5.845s-2.63 5.845-5.845 5.845zM202.763 35.07h-9.274c-3.215 0-5.845-2.63-5.845-5.845s2.63-5.845 5.845-5.845h9.274c3.215 0 5.845 2.63 5.845 5.845s-2.63 5.845-5.845 5.845zM156.889 11.69h-20.802c-3.215 0-5.845-2.63-5.845-5.845l.002-.088h-.01C130.186 2.583 127.576 0 124.391 0H82.849c-3.215 0-5.845 2.63-5.845 5.845s2.63 5.845 5.845 5.845h22.565c-.131 0-.26.006-.389.015 3.035.202 5.456 2.747 5.456 5.83s-2.421 5.628-5.456 5.83c.129.009.258.015.389.015H93.957c-3.215 0-5.845 2.63-5.845 5.845s2.63 5.845 5.845 5.845h46.956c3.184 0 5.794-2.581 5.843-5.755h.002l-.001-.04.001-.05-.001-.048c.027-3.192 2.646-5.795 5.844-5.795h-.579l.026-.003h4.842c3.215 0 5.845-2.63 5.845-5.845s-2.631-5.844-5.846-5.844zM223.659 72.811h-17.626c-3.182-.039-5.773-2.652-5.773-5.843l.002-.088h-.005c-.046-3.175-2.657-5.759-5.843-5.759h-30.121c-3.215 0-5.845 2.63-5.845 5.845s2.63 5.845 5.845 5.845h5.458l.024.003h-.53c3.185 0 5.795 2.582 5.843 5.756l-.002.086.002.088v.002c.049 3.173 2.658 5.755 5.843 5.755h42.728c3.215 0 5.845-2.63 5.845-5.845 0-3.214-2.63-5.845-5.845-5.845z"/>
    <path fill="#C3D2DB" d="M106.798 95.28l11.02.016 2.72-10.61-5.516-.008c-3.034-.004-6.128 2.379-6.876 5.297-.748 2.917-1.348 5.305-1.348 5.305zM129.149 127.119h7.858v32.096h-7.858z"/>
    <circle fill="#9DAEBC" cx="133.078" cy="141.822" r="5.17"/>
    <circle fill="#DDE6EB" cx="133.078" cy="141.822" r="3.929"/>
    <circle fill="#8C9FAF" cx="133.078" cy="141.822" r="2.951"/>
    <path fill="#8C9FAF" d="M129.948 159.022h6.26c1.26 0 2.29 1.031 2.29 2.29 0 1.26-1.031 2.29-2.29 2.29h-6.26a2.297 2.297 0 0 1-2.29-2.29c0-1.26 1.031-2.29 2.29-2.29z"/>
    <path fill="#C3D2DB" d="M163.859 68.695h-31.995a.388.388 0 0 1-.387-.387v-1.244c0-.213.174-.387.387-.387h31.995c.213 0 .387.174.387.387v1.244a.389.389 0 0 1-.387.387z"/>
    <path fill-rule="evenodd" clip-rule="evenodd" fill="#C3D2DB" d="M165.976 58.311l2.242-1.011v-9.607h-2.242zM129.711 58.311l-2.242-1.011v-9.607h2.242z"/>
    <path fill="#C3D2DB" d="M163.576 66.895h-31.583a2.888 2.888 0 0 1-2.88-2.88v-18.03a2.888 2.888 0 0 1 2.88-2.88h31.583a2.888 2.888 0 0 1 2.88 2.88v18.031a2.888 2.888 0 0 1-2.88 2.879z"/>
    <path fill="#6F98C1" d="M157.038 45.407l-.26.001-.264.001h-17.371l-.264-.001-.26-.001c-.609 0-2.464 0-2.464 1.988v5.882a2.99 2.99 0 0 0 2.987 2.987h17.371a2.99 2.99 0 0 0 2.987-2.987v-5.882c.002-1.988-1.853-1.988-2.462-1.988z"/>
    <path fill="#9EC5DD" d="M156.199 55.262h-16.741a2.307 2.307 0 0 1-2.3-2.3v-5.411c0-.629.51-1.14 1.14-1.14H156.2a2.3 2.3 0 0 1 2.3 2.3v4.25a2.307 2.307 0 0 1-2.301 2.301z"/>
    <path opacity=".6" fill="#FFF" d="M151.645 46.411h.761v8.851h-.761zM153.16 46.411h1.934v8.851h-1.934z"/>
    <path fill="#627689" d="M168.716 42.201c0-11.343-9.281-20.624-20.624-20.624-11.343 0-20.624 9.281-20.624 20.624v5.492h41.248v-5.492z"/>
    <path fill-rule="evenodd" clip-rule="evenodd" fill="#849AAD" d="M127.469 47.693s7.588-5.303 26.446-6.247c20.895-1.047 21.659 6.247 21.659 6.247h-48.105z"/>
    <path fill-rule="evenodd" clip-rule="evenodd" fill="#627689" d="M128.395 47.693s8.244-4.255 25.062-5.053c21.041-.998 21.698 5.053 21.698 5.053h-46.76z"/>
    <path opacity=".1" d="M147.999 52.333c17.92.045 20.219-2.946 20.219-2.946v-1.693h-40.75c.008.025 1.247 4.59 20.531 4.639z"/>
    <path fill="#C1D4E0" d="M152.587 35.253l1.782-4.893h-5.543c-2.573 0-5.146 1.369-5.146 4.11s3.563 3.327 5.344 1.37c0 .587.396.979 1.584.979h4.327l.57-1.566h-2.918zm-3.564 0c-.99 0-1.584-.196-1.584-.783 0-.392.843-2.153 1.041-2.74h1.929l-1.386 3.523z"/>
    <path fill="#C3D2DB" d="M133.078 160.775c-6.38 0-11.741 4.362-13.264 10.265h26.528c-1.523-5.904-6.884-10.265-13.264-10.265z"/>
    <path fill="#8C9FAF" d="M145.802 172.512h-25.447a1.17 1.17 0 0 1-1.167-1.167v-.049a1.17 1.17 0 0 1 1.167-1.167h25.447a1.17 1.17 0 0 1 1.167 1.167v.049a1.17 1.17 0 0 1-1.167 1.167z"/>
    <path fill="#C3D2DB" d="M158.74 127.119h7.858v32.096h-7.858z"/>
    <circle fill="#9DAEBC" cx="162.669" cy="141.822" r="5.17"/>
    <circle fill="#DDE6EB" cx="162.669" cy="141.822" r="3.929"/>
    <circle fill="#8C9FAF" cx="162.669" cy="141.822" r="2.951"/>
    <path fill="#8C9FAF" d="M159.54 159.022h6.26c1.26 0 2.29 1.031 2.29 2.29 0 1.26-1.031 2.29-2.29 2.29h-6.26a2.297 2.297 0 0 1-2.29-2.29c0-1.26 1.03-2.29 2.29-2.29z"/>
    <path fill="#C3D2DB" d="M162.669 160.775c-6.38 0-11.741 4.362-13.264 10.265h26.528c-1.523-5.904-6.884-10.265-13.264-10.265z"/>
    <path fill="none" d="M144.583 59.474h6.292c.698 0 1.267-.568 1.267-1.267v-1.946h-8.826v1.946c0 .699.568 1.267 1.267 1.267zM144.583 61.475h6.292c.698 0 1.267-.568 1.267-1.267v-.173h-8.826v.173c0 .698.568 1.267 1.267 1.267z"/>
    <path fill="#8C9FAF" d="M175.393 172.512h-25.447a1.17 1.17 0 0 1-1.167-1.167v-.049a1.17 1.17 0 0 1 1.167-1.167h25.447a1.17 1.17 0 0 1 1.167 1.167v.049a1.17 1.17 0 0 1-1.167 1.167z"/>
    <path opacity=".6" fill="#8C9FAF" d="M131.988 66.895h31.583c.868 0 1.64-.397 2.169-1.009h-35.92a2.86 2.86 0 0 0 2.168 1.009z"/>
    <path fill="#8C9FAF" d="M113.998 91.919h-5.825c-.615 0-1.118.503-1.118 1.118 0 .615.503 1.118 1.118 1.118h5.825c.615 0 1.118-.503 1.118-1.118 0-.615-.503-1.118-1.118-1.118z"/>
    <g>
        <circle fill="#E85252" cx="147.892" cy="102.722" r="37.874"/>
        <g fill="#FFF">
            <path d="M158.798 87.06c-.546 0-1.008.191-1.39.572L145.27 99.787l-.008-.008-12.46 12.46a1.905 1.905 0 0 0-.572 1.393c0 .546.194 1.009.576 1.393l2.787 2.787c.381.381.847.572 1.393.572s1.008-.191 1.39-.572l12.139-12.155.008.008 12.46-12.46c.381-.385.572-.847.572-1.393s-.194-1.008-.576-1.393l-2.787-2.787a1.9 1.9 0 0 0-1.394-.572z"/>
            <path d="M136.986 87.06c.546 0 1.008.191 1.39.572l12.139 12.155.008-.008 12.46 12.46c.381.385.572.847.572 1.393s-.194 1.009-.576 1.393l-2.787 2.787a1.899 1.899 0 0 1-1.393.572 1.894 1.894 0 0 1-1.39-.572l-12.139-12.155-.008.008-12.46-12.46a1.905 1.905 0 0 1-.572-1.393c0-.546.194-1.008.576-1.393l2.787-2.787a1.897 1.897 0 0 1 1.393-.572z"/>
        </g>
    </g>
    <path fill="#C63C3C" d="M113.199 108.306a.442.442 0 0 0-.441-.441h.621c.723 0 1.314-.591 1.314-1.314v-8.216c0-.722-.591-1.314-1.314-1.314h-.621a.442.442 0 0 0 0-.882H110.6a38.06 38.06 0 0 0-.582 6.581c0 2.051.168 4.062.482 6.025h2.257a.44.44 0 0 0 .442-.439z"/>
    <path fill="#C3D2DB" d="M111.737 106.989h-5.916V96.148l.002-.002h5.914c.723 0 1.314.591 1.314 1.314v8.216a1.319 1.319 0 0 1-1.314 1.313z"/>
    <path fill="#9DAEBC" d="M105.232 95.705c0 .242.198.441.441.441h5.442a.442.442 0 0 0 .441-.441.442.442 0 0 0-.441-.441h-5.442a.444.444 0 0 0-.441.441zM105.232 107.43c0 .242.198.441.441.441h5.442a.442.442 0 0 0 .441-.441.442.442 0 0 0-.441-.441h-5.442a.443.443 0 0 0-.441.441z"/>
    <path fill="#8C9FAF" d="M105.209 97.581v.745c0 .126.103.23.23.23h6.527a.23.23 0 0 0 .23-.23v-.745a.23.23 0 0 0-.23-.23h-6.527a.23.23 0 0 0-.23.23zM105.209 99.99v.745c0 .126.103.23.23.23h6.527a.23.23 0 0 0 .23-.23v-.745a.23.23 0 0 0-.23-.23h-6.527a.23.23 0 0 0-.23.23zM105.209 102.4v.745c0 .126.103.23.23.23h6.527a.23.23 0 0 0 .23-.23v-.745a.23.23 0 0 0-.23-.23h-6.527a.23.23 0 0 0-.23.23zM105.209 104.809v.745c0 .126.103.23.23.23h6.527a.23.23 0 0 0 .23-.23v-.745a.23.23 0 0 0-.23-.23h-6.527a.231.231 0 0 0-.23.23z"/>
    <path opacity=".5" fill="#F8FDFF" d="M106.798 97.351h1.205v1.205h-1.205zM106.798 99.76h1.205v1.205h-1.205zM106.798 102.17h1.205v1.205h-1.205zM106.798 104.58h1.205v1.205h-1.205z"/>
    <path fill="#C63C3C" d="M182.555 108.306c0-.242.198-.441.441-.441h-.621a1.317 1.317 0 0 1-1.314-1.314v-8.216c0-.722.591-1.314 1.314-1.314h.621a.442.442 0 0 1 0-.882h2.158a38.06 38.06 0 0 1 .582 6.581 38.11 38.11 0 0 1-.482 6.025h-2.257a.439.439 0 0 1-.442-.439z"/>
    <path fill="#C3D2DB" d="M184.017 106.989h5.916V96.148l-.002-.002h-5.914c-.723 0-1.314.591-1.314 1.314v8.216c0 .722.591 1.313 1.314 1.313z"/>
    <path fill="#9DAEBC" d="M190.521 95.705a.442.442 0 0 1-.441.441h-5.442a.442.442 0 0 1-.441-.441c0-.242.198-.441.441-.441h5.442a.443.443 0 0 1 .441.441zM190.521 107.43a.442.442 0 0 1-.441.441h-5.442a.442.442 0 0 1-.441-.441c0-.242.198-.441.441-.441h5.442c.243 0 .441.199.441.441z"/>
    <path fill="#8C9FAF" d="M190.545 97.581v.745a.23.23 0 0 1-.23.23h-6.527a.23.23 0 0 1-.23-.23v-.745a.23.23 0 0 1 .23-.23h6.527a.23.23 0 0 1 .23.23zM190.545 99.99v.745a.23.23 0 0 1-.23.23h-6.527a.23.23 0 0 1-.23-.23v-.745a.23.23 0 0 1 .23-.23h6.527c.126 0 .23.104.23.23zM190.545 102.4v.745a.23.23 0 0 1-.23.23h-6.527a.23.23 0 0 1-.23-.23v-.745a.23.23 0 0 1 .23-.23h6.527a.23.23 0 0 1 .23.23zM190.545 104.809v.745a.23.23 0 0 1-.23.23h-6.527a.23.23 0 0 1-.23-.23v-.745a.23.23 0 0 1 .23-.23h6.527c.126.001.23.104.23.23z"/>
    <path opacity=".5" fill="#F8FDFF" d="M188.956 98.556h-1.205V97.35h1.205zM188.956 100.966h-1.205V99.76h1.205zM188.956 103.375h-1.205v-1.205h1.205zM188.956 105.784h-1.205v-1.205h1.205z"/>
    <path fill="#8C9FAF" d="M153.165 62.849h-10.76a.97.97 0 0 1-.967-.967.97.97 0 0 1 .967-.967h10.76a.97.97 0 0 1 .967.967.97.97 0 0 1-.967.967z"/>
</svg>
