<svg width="255" height="185" viewBox="0 0 255 185" fill="none" xmlns="http://www.w3.org/2000/svg">
<path d="M220.318 70.88H199.42C195.647 70.834 192.574 67.735 192.574 63.952C192.574 63.917 192.576 63.883 192.577 63.848H192.571C192.516 60.083 189.421 57.019 185.643 57.019H149.928C146.116 57.019 142.998 60.138 142.998 63.949C142.998 67.761 146.117 70.879 149.928 70.879H156.399L156.428 70.882H155.8C159.577 70.882 162.671 73.944 162.728 77.707C162.727 77.741 162.725 77.775 162.725 77.809C162.725 77.844 162.727 77.879 162.728 77.914C162.728 77.914 162.728 77.916 162.728 77.917C162.786 81.68 165.88 84.74 169.656 84.74H220.318C224.13 84.74 227.248 81.621 227.248 77.81C227.248 73.999 224.13 70.88 220.318 70.88Z" fill="#D8E8EF"/>
<path d="M35.93 124.861H56.828C60.601 124.815 63.674 121.716 63.674 117.933C63.674 117.898 63.672 117.864 63.671 117.829H63.677C63.732 114.064 66.827 111 70.605 111H106.32C110.132 111 113.25 114.119 113.25 117.93C113.25 121.742 110.131 124.86 106.32 124.86H99.849L99.82 124.863H100.448C96.671 124.863 93.577 127.925 93.52 131.688C93.521 131.722 93.523 131.756 93.523 131.79C93.523 131.825 93.521 131.86 93.52 131.895C93.52 131.895 93.52 131.897 93.52 131.898C93.462 135.661 90.368 138.721 86.592 138.721H35.93C32.118 138.721 29 135.602 29 131.791C29 127.98 32.118 124.861 35.93 124.861Z" fill="#D8E8EF"/>
<path d="M195.513 119.794H146.157C142.345 119.794 139.227 116.675 139.227 112.864C139.227 109.052 142.346 105.934 146.157 105.934H195.513C199.325 105.934 202.443 109.053 202.443 112.864C202.443 116.675 199.324 119.794 195.513 119.794Z" fill="#D8E8EF"/>
<path d="M38.8281 103.499H18.2801C14.4681 103.499 11.3501 100.38 11.3501 96.5692C11.3501 92.7572 14.4691 89.6392 18.2801 89.6392H38.8291C42.6411 89.6392 45.7591 92.7582 45.7591 96.5692C45.7591 100.381 42.6401 103.499 38.8281 103.499Z" fill="#D8E8EF"/>
<path d="M185.254 147.86H178.93C175.118 147.86 172 144.741 172 140.93C172 137.118 175.119 134 178.93 134H185.254C189.066 134 192.184 137.119 192.184 140.93C192.185 144.741 189.066 147.86 185.254 147.86Z" fill="#D8E8EF"/>
<path d="M190.294 43.2838H179.298C175.486 43.2838 172.368 40.1648 172.368 36.3538C172.368 32.5418 175.487 29.4238 179.298 29.4238H190.294C194.106 29.4238 197.224 32.5428 197.224 36.3538C197.225 40.1658 194.106 43.2838 190.294 43.2838Z" fill="#D8E8EF"/>
<path d="M122.148 43.975H97.4832C93.6712 43.975 90.5532 40.856 90.5532 37.045C90.5532 37.01 90.5552 36.976 90.5562 36.941H90.5442C90.4882 33.177 87.3932 30.115 83.6162 30.115H34.3592C30.5472 30.115 27.4292 33.234 27.4292 37.045C27.4292 40.857 30.5482 43.975 34.3592 43.975H61.1142C60.9592 43.975 60.8052 43.982 60.6522 43.992C64.2502 44.232 67.1212 47.249 67.1212 50.905C67.1212 54.561 64.2512 57.578 60.6522 57.818C60.8052 57.828 60.9582 57.835 61.1142 57.835H47.5302C43.7182 57.835 40.6002 60.954 40.6002 64.765C40.6002 68.577 43.7192 71.695 47.5302 71.695H103.205C106.981 71.695 110.075 68.634 110.133 64.872H110.135C110.135 64.856 110.134 64.84 110.134 64.824C110.134 64.804 110.136 64.784 110.136 64.765C110.136 64.746 110.135 64.728 110.135 64.709C110.167 60.925 113.272 57.838 117.064 57.838H116.377L116.408 57.835H122.149C125.961 57.835 129.079 54.716 129.079 50.905C129.079 47.094 125.96 43.975 122.148 43.975Z" fill="#D8E8EF"/>
<path d="M83 85.9819L95.0306 86L98 74.009L91.9782 74C88.6659 73.9955 85.2882 76.6886 84.4716 79.9864C83.6561 83.2831 83 85.9819 83 85.9819Z" fill="#C3D2DB"/>
<path d="M89.8905 83H84.1095C83.4992 83 83 83.4499 83 84C83 84.5501 83.4992 85 84.1095 85H89.8905C90.5008 85 91 84.5501 91 84C91 83.4499 90.5008 83 89.8905 83Z" fill="#8C9FAF"/>
<path d="M172 85.9819L159.969 86L157 74.009L163.022 74C166.334 73.9955 169.712 76.6886 170.528 79.9864C171.344 83.2831 172 85.9819 172 85.9819Z" fill="#C3D2DB"/>
<path d="M164.11 83H169.89C170.501 83 171 83.4499 171 84C171 84.5501 170.501 85 169.89 85H164.11C163.499 85 163 84.5501 163 84C163 83.4499 163.499 83 164.11 83Z" fill="#8C9FAF"/>
<path d="M127.5 174C153.181 174 174 172.209 174 170C174 167.791 153.181 166 127.5 166C101.819 166 81 167.791 81 170C81 172.209 101.819 174 127.5 174Z" fill="url(#paint0_radial_2_9173)"/>
<path d="M116 121H107V155H116V121Z" fill="#C3D2DB"/>
<path d="M108.324 155H114.676C115.955 155 117 156.351 117 158C117 159.651 115.954 161 114.676 161H108.324C107.045 161 106 159.649 106 158C106 156.349 107.046 155 108.324 155Z" fill="#8C9FAF"/>
<path d="M144.587 58H110.413C110.186 58 110 57.8276 110 57.6165V56.3835C110 56.1724 110.186 56 110.413 56H144.587C144.814 56 145 56.1724 145 56.3835V57.6165C145 57.8276 144.813 58 144.587 58Z" fill="#C3D2DB"/>
<path fill-rule="evenodd" clip-rule="evenodd" d="M147 46L149 44.9526V35H147V46Z" fill="#C3D2DB"/>
<path fill-rule="evenodd" clip-rule="evenodd" d="M108 46L106 44.9526V35H108V46Z" fill="#C3D2DB"/>
<path d="M143.915 56H110.085C108.388 56 107 54.5836 107 52.8525V33.1475C107 31.4164 108.388 30 110.085 30H143.915C145.612 30 147 31.4164 147 33.1475V52.8535C147 54.5836 145.612 56 143.915 56Z" fill="#C3D2DB"/>
<path d="M137.363 33C137.272 33 137.18 33.001 137.085 33.001C136.993 33.002 136.899 33.002 136.802 33.002H118.2C118.105 33.002 118.01 33.001 117.917 33.001C117.823 33 117.73 33 117.639 33C116.987 33 115 33 115 35.0142V40.9737C115 42.6424 116.435 44 118.199 44H136.801C138.565 44 140 42.6424 140 40.9737V35.0142C140.002 33 138.017 33 137.363 33Z" fill="#6F98C1"/>
<path d="M136.52 43H118.479C117.115 43 116 41.9476 116 40.6613V35.1592C116 34.5196 116.55 34 117.229 34H136.521C137.89 34 139 35.0473 139 36.3387V40.6603C138.999 41.9476 137.884 43 136.52 43Z" fill="#9EC5DD"/>
<path opacity="0.6" d="M133 34H132V43H133V34Z" fill="white"/>
<path opacity="0.6" d="M136 34H133V43H136V34Z" fill="white"/>
<path d="M150 29.1118C150 16.9505 140.1 7 128 7C115.9 7 106 16.9505 106 29.1118V35H150V29.1118Z" fill="#627689"/>
<path fill-rule="evenodd" clip-rule="evenodd" d="M106 35C106 35 114.202 29.154 134.587 28.1133C157.174 26.9591 158 35 158 35H106Z" fill="#849AAD"/>
<path fill-rule="evenodd" clip-rule="evenodd" d="M107 35C107 35 115.815 30.8803 133.799 30.1076C156.297 29.1413 157 35 157 35H107Z" fill="#627689"/>
<path opacity="0.1" d="M127.665 39.9995C146.574 40.048 149 36.8245 149 36.8245V35H106C106.007 35.0269 107.316 39.9467 127.665 39.9995Z" fill="black"/>
<path d="M133.039 21.9017L134.847 16H129.222C126.611 16 124 17.6512 124 20.9573C124 24.2633 127.616 24.9701 129.423 22.6097C129.423 23.3177 129.825 23.7905 131.031 23.7905H135.422L136 21.9017H133.039V21.9017ZM129.423 21.9017C128.418 21.9017 127.816 21.6653 127.816 20.9573C127.816 20.4845 128.671 18.3604 128.872 17.6524H130.83L129.423 21.9017Z" fill="#C1D4E0"/>
<path d="M112 157C105.266 157 99.6075 161.674 98 168H126C124.392 161.673 118.734 157 112 157Z" fill="#C3D2DB"/>
<path d="M125.74 170H98.2602C97.5669 170 97 169.339 97 168.531V168.469C97 167.661 97.5669 167 98.2602 167H125.74C126.433 167 127 167.661 127 168.469V168.531C127.001 169.339 126.433 170 125.74 170Z" fill="#8C9FAF"/>
<path d="M147 120H139V155H147V120Z" fill="#C3D2DB"/>
<path d="M143 142C145.761 142 148 139.761 148 137C148 134.239 145.761 132 143 132C140.239 132 138 134.239 138 137C138 139.761 140.239 142 143 142Z" fill="#9DAEBC"/>
<path d="M143 141C145.209 141 147 139.209 147 137C147 134.791 145.209 133 143 133C140.791 133 139 134.791 139 137C139 139.209 140.791 141 143 141Z" fill="#DDE6EB"/>
<path d="M143 140C144.657 140 146 138.657 146 137C146 135.343 144.657 134 143 134C141.343 134 140 135.343 140 137C140 138.657 141.343 140 143 140Z" fill="#8C9FAF"/>
<path d="M111 142C113.761 142 116 139.761 116 137C116 134.239 113.761 132 111 132C108.239 132 106 134.239 106 137C106 139.761 108.239 142 111 142Z" fill="#9DAEBC"/>
<path d="M111 141C113.209 141 115 139.209 115 137C115 134.791 113.209 133 111 133C108.791 133 107 134.791 107 137C107 139.209 108.791 141 111 141Z" fill="#DDE6EB"/>
<path d="M111 140C112.657 140 114 138.657 114 137C114 135.343 112.657 134 111 134C109.343 134 108 135.343 108 137C108 138.657 109.343 140 111 140Z" fill="#8C9FAF"/>
<path d="M140.324 155H146.676C147.955 155 149 156.351 149 158C149 159.651 147.954 161 146.676 161H140.324C139.045 161 138 159.649 138 158C138 156.349 139.046 155 140.324 155Z" fill="#8C9FAF"/>
<path d="M144 157C137.266 157 131.608 161.674 130 168H158C156.392 161.673 150.734 157 144 157Z" fill="#C3D2DB"/>
<path d="M131.866 47.2564C131.866 48.2922 131.239 49.134 130.469 49.134H123.53C122.759 49.134 122.133 48.2922 122.133 47.2564V47H120V47.2564C120 49.872 121.584 52 123.53 52H130.469C132.416 52 134 49.872 134 47.2564V47H131.866V47.2564Z" fill="#8C9FAF"/>
<path d="M157.74 170H130.26C129.567 170 129 169.339 129 168.531V168.469C129 167.661 129.567 167 130.26 167H157.74C158.433 167 159 167.661 159 168.469V168.531C159 169.339 158.433 170 157.74 170Z" fill="#8C9FAF"/>
<path opacity="0.6" d="M110.354 56H144.645C145.587 56 146.426 55.6065 147 55H108C108.573 55.6065 109.411 56 110.354 56Z" fill="#8C9FAF"/>
<path d="M144.909 59.7816H110.337C110.107 59.7816 109.919 59.5936 109.919 59.3634V58.0149C109.919 57.7847 110.107 57.5967 110.337 57.5967H144.909C145.139 57.5967 145.328 57.7847 145.328 58.0149V59.3634C145.328 59.5936 145.139 59.7816 144.909 59.7816Z" fill="#8C9FAF"/>
<path d="M150.791 119.978H103.926C100.411 119.978 97.6421 116.978 97.6421 113.423V71.4234C97.6421 67.7568 100.518 64.8679 103.926 64.8679H150.791C154.305 64.8679 157.075 67.8679 157.075 71.4234V113.423C157.075 117.089 154.305 119.978 150.791 119.978Z" fill="#C3D2DB"/>
<path d="M144.852 64.7889H110.394C110.133 64.7889 109.919 64.575 109.919 64.3135V62.443C109.919 62.1815 110.133 61.9675 110.394 61.9675H144.852C145.114 61.9675 145.328 62.1815 145.328 62.443V64.3135C145.328 64.575 145.114 64.7889 144.852 64.7889Z" fill="#8C9FAF"/>
<path d="M144.909 61.9677H110.337C110.107 61.9677 109.919 61.7797 109.919 61.5495V60.2009C109.919 59.9707 110.107 59.7827 110.337 59.7827H144.909C145.139 59.7827 145.328 59.9707 145.328 60.2009V61.5495C145.328 61.7797 145.139 61.9677 144.909 61.9677Z" fill="#C3D2DB"/>
<path opacity="0.1" d="M166.224 75.6906C165.313 72.3069 162.628 69.6431 159.217 68.7388C153.035 67.0957 128.25 67.0957 128.25 67.0957C128.25 67.0957 103.464 67.0957 97.2824 68.7388C93.8725 69.6431 91.1866 72.3077 90.2751 75.6906C88.6189 81.8232 88.6189 94.6176 88.6189 94.6176C88.6189 94.6176 88.6189 107.412 90.2751 113.544C91.1866 116.928 93.8725 119.592 97.2824 120.496C103.464 122.14 128.25 122.14 128.25 122.14C128.25 122.14 153.036 122.14 159.217 120.496C162.628 119.592 165.313 116.928 166.224 113.544C167.881 107.412 167.881 94.6176 167.881 94.6176C167.881 94.6176 167.881 81.8232 166.224 75.6906Z" fill="#1D1D1B"/>
<path d="M165.068 74.5436C164.157 71.1599 161.472 68.4961 158.061 67.5919C151.879 65.9487 127.094 65.9487 127.094 65.9487C127.094 65.9487 102.308 65.9487 96.1264 67.5919C92.7165 68.4961 90.0306 71.1607 89.1191 74.5436C87.4629 80.6762 87.4629 93.4707 87.4629 93.4707C87.4629 93.4707 87.4629 106.265 89.1191 112.397C90.0306 115.781 92.7165 118.445 96.1264 119.349C102.308 120.993 127.094 120.993 127.094 120.993C127.094 120.993 151.88 120.993 158.061 119.349C161.472 118.445 164.157 115.781 165.068 112.397C166.725 106.265 166.725 93.4707 166.725 93.4707C166.725 93.4707 166.725 80.6762 165.068 74.5436Z" fill="#ED1F24"/>
<path d="M119.167 105.266L139.759 93.4706L119.167 81.6755V105.266Z" fill="white"/>
<path d="M89.5624 100.513C89.5624 100.245 89.3719 100.024 89.1381 100.024H89.7356C90.4313 100.024 91 99.3673 91 98.5643V89.439C91 88.6371 90.4313 87.9796 89.7356 87.9796H89.1381C89.3709 87.9796 89.5624 87.7597 89.5624 87.4898C89.5624 87.2199 89.3719 87 89.1381 87H87.1953C87.0712 88.2428 87 89.5046 87 90.784C87 94.3482 87.5032 97.7801 88.4212 101H89.1381C89.3709 101.003 89.5624 100.783 89.5624 100.513Z" fill="#CF0E13"/>
<path d="M87.7278 99H82V87.0022L82.0019 87H87.7278C88.4278 87 89 87.6541 89 88.4542V97.5469C89 98.3459 88.4268 99 87.7278 99Z" fill="#C3D2DB"/>
<path d="M81 86.5C81 86.7744 81.2192 87 81.4881 87H87.5119C87.7797 87 88 86.7755 88 86.5C88 86.2256 87.7808 86 87.5119 86H81.4881C81.2192 86 81 86.2245 81 86.5Z" fill="#9DAEBC"/>
<path d="M81 99.5C81 99.7744 81.2192 100 81.4881 100H87.5119C87.7797 100 88 99.7755 88 99.5C88 99.2256 87.7808 99 87.5119 99H81.4881C81.2192 99 81 99.2256 81 99.5Z" fill="#9DAEBC"/>
<path d="M81 89.1909V89.8091C81 89.9137 81.1032 90 81.2304 90H87.7696C87.8958 90 88 89.9145 88 89.8091V89.1909C88 89.0863 87.8968 89 87.7696 89H81.2304C81.1032 89 81 89.0855 81 89.1909Z" fill="#8C9FAF"/>
<path d="M81 91.1909V91.8091C81 91.9137 81.1032 92 81.2304 92H87.7696C87.8958 92 88 91.9145 88 91.8091V91.1909C88 91.0863 87.8968 91 87.7696 91H81.2304C81.1032 91.0008 81 91.0863 81 91.1909Z" fill="#8C9FAF"/>
<path d="M81 94.1909V94.8091C81 94.9137 81.1032 95 81.2304 95H87.7696C87.8958 95 88 94.9145 88 94.8091V94.1909C88 94.0863 87.8968 94 87.7696 94H81.2304C81.1032 94 81 94.0863 81 94.1909Z" fill="#8C9FAF"/>
<path d="M81 96.1909V96.8091C81 96.9137 81.1032 97 81.2304 97H87.7696C87.8958 97 88 96.9145 88 96.8091V96.1909C88 96.0863 87.8968 96 87.7696 96H81.2304C81.1032 96.0008 81 96.0863 81 96.1909Z" fill="#8C9FAF"/>
<path opacity="0.5" d="M84 89H83V90H84V89Z" fill="#F8FDFF"/>
<path opacity="0.5" d="M84 91H83V92H84V91Z" fill="#F8FDFF"/>
<path opacity="0.5" d="M84 94H83V95H84V94Z" fill="#F8FDFF"/>
<path opacity="0.5" d="M84 96H83V97H84V96Z" fill="#F8FDFF"/>
<path d="M167.762 87H165.327C165.036 87 164.797 87.2199 164.797 87.4897C164.797 87.7595 165.035 87.9794 165.327 87.9794H164.58C163.711 87.9794 163 88.6356 163 89.4385V98.5615C163 99.3644 163.711 100.021 164.58 100.021H165.327C165.036 100.021 164.797 100.24 164.797 100.51C164.797 100.779 165.035 101 165.327 101H166.233C167.355 97.8431 167.976 94.483 168 90.9964V90.5766C167.993 89.3663 167.91 88.1748 167.762 87Z" fill="#CF0E13"/>
<path d="M166.454 99H173V87.0022L172.998 87H166.454C165.654 87 165 87.6541 165 88.4542V97.5469C165 98.3459 165.654 99 166.454 99Z" fill="#C3D2DB"/>
<path d="M173 86.5C173 86.7744 172.812 87 172.582 87H167.418C167.189 87 167 86.7755 167 86.5C167 86.2256 167.188 86 167.418 86H172.582C172.812 86 173 86.2245 173 86.5Z" fill="#9DAEBC"/>
<path d="M173 99.5C173 99.7744 172.812 100 172.582 100H167.418C167.189 100 167 99.7755 167 99.5C167 99.2256 167.188 99 167.418 99H172.582C172.812 99 173 99.2256 173 99.5Z" fill="#9DAEBC"/>
<path d="M173 89.1909V89.8091C173 89.9137 172.897 90 172.77 90H166.23C166.104 90 166 89.9145 166 89.8091V89.1909C166 89.0863 166.103 89 166.23 89H172.77C172.896 89 173 89.0855 173 89.1909Z" fill="#8C9FAF"/>
<path d="M173 91.1909V91.8091C173 91.9137 172.897 92 172.77 92H166.23C166.104 92 166 91.9145 166 91.8091V91.1909C166 91.0863 166.103 91 166.23 91H172.77C172.896 91.0008 173 91.0863 173 91.1909Z" fill="#8C9FAF"/>
<path d="M173 94.1909V94.8091C173 94.9137 172.897 95 172.77 95H166.23C166.104 95 166 94.9145 166 94.8091V94.1909C166 94.0863 166.103 94 166.23 94H172.77C172.896 94 173 94.0863 173 94.1909Z" fill="#8C9FAF"/>
<path d="M173 96.1909V96.8091C173 96.9137 172.897 97 172.77 97H166.23C166.104 97 166 96.9145 166 96.8091V96.1909C166 96.0863 166.103 96 166.23 96H172.77C172.896 96.0008 173 96.0863 173 96.1909Z" fill="#8C9FAF"/>
<path opacity="0.5" d="M170 90L172 90L172 89L170 89L170 90Z" fill="#F8FDFF"/>
<path opacity="0.5" d="M170 92L172 92L172 91L170 91L170 92Z" fill="#F8FDFF"/>
<path opacity="0.5" d="M170 95L172 95L172 94L170 94L170 95Z" fill="#F8FDFF"/>
<path opacity="0.5" d="M170 97L172 97L172 96L170 96L170 97Z" fill="#F8FDFF"/>
<defs>
<radialGradient id="paint0_radial_2_9173" cx="0" cy="0" r="1" gradientUnits="userSpaceOnUse" gradientTransform="translate(127.479 170.01) scale(46.5008 4.00039)">
<stop stop-color="#A0B3BA"/>
<stop offset="0.5446" stop-color="#C3D2DB" stop-opacity="0.6"/>
<stop offset="1" stop-color="#C3D2DB" stop-opacity="0"/>
</radialGradient>
</defs>
</svg>
